<?xml version="1.0" encoding="UTF-8"?><svg id="Calque_1" xmlns="http://www.w3.org/2000/svg" viewBox="0 0 300.3 81.53"><defs><style>.cls-1{fill:#fff;stroke:#c1c1c1;stroke-miterlimit:10;}.cls-2{fill:#d9d9f9;}.cls-2,.cls-3,.cls-4,.cls-5,.cls-6{stroke-width:0px;}.cls-3{fill:#cecece;}.cls-4{fill:#ededed;}.cls-5{fill:#efefef;}.cls-6{fill:#0303f2;}</style></defs><rect class="cls-1" x=".5" y=".5" width="299.3" height="26.97"/><rect class="cls-2" x="54.08" y="4.56" width="80.77" height="18.84" rx="9.42" ry="9.42"/><rect class="cls-5" x="110.22" y="35.5" width="87.93" height="11.45"/><rect class="cls-1" x=".5" y="27.1" width="299.3" height="26.97"/><rect class="cls-1" x=".5" y="54.07" width="299.3" height="26.97"/><rect class="cls-6" x="64.88" y="8.89" width="41.05" height="5.09"/><rect class="cls-6" x="64.88" y="16.33" width="32.32" height="2.54"/><rect class="cls-4" x="110.22" y="31.16" width="80.77" height="18.84" rx="9.42" ry="9.42"/><rect class="cls-3" x="121.03" y="35.5" width="41.05" height="5.09"/><rect class="cls-3" x="121.03" y="42.94" width="32.32" height="2.54"/><rect class="cls-4" x="69.84" y="57.77" width="80.77" height="18.84" rx="9.42" ry="9.42"/><rect class="cls-3" x="80.65" y="62.1" width="41.05" height="5.09"/><rect class="cls-3" x="80.65" y="69.54" width="32.32" height="2.54"/><rect class="cls-4" x="209.16" y="3.71" width="80.77" height="18.84" rx="9.42" ry="9.42"/><rect class="cls-3" x="219.96" y="8.04" width="41.05" height="5.09"/><rect class="cls-3" x="219.96" y="15.48" width="32.32" height="2.54"/><ellipse class="cls-6" cx="17.05" cy="13.94" rx="9.06" ry="9.4"/><ellipse class="cls-6" cx="17.05" cy="39.75" rx="9.06" ry="9.4"/><ellipse class="cls-6" cx="17.05" cy="67.55" rx="9.06" ry="9.4"/><rect class="cls-1" x="33.67" y="1.03" width="0" height="80"/></svg>