<?xml version="1.0" encoding="UTF-8"?><svg id="Calque_1" xmlns="http://www.w3.org/2000/svg" viewBox="0 0 265.64 159.57"><defs><style>.cls-1{fill:#fff;stroke:#c1c1c1;stroke-miterlimit:10;}.cls-2{fill:#9a9afc;}.cls-2,.cls-3,.cls-4,.cls-5{stroke-width:0px;}.cls-3{fill:#d7d7ff;}.cls-4{fill:#efefef;}.cls-5{fill:#0303f2;}</style></defs><rect class="cls-1" x=".5" y="91.42" width="264.64" height="22.53"/><rect class="cls-5" x="8.33" y="98.53" width="48.32" height="8.52"/><rect class="cls-3" x="64.3" y="98.53" width="48.32" height="8.52"/><rect class="cls-3" x="117.29" y="98.2" width="48.32" height="8.52"/><rect class="cls-3" x="168.85" y="98.2" width="35.34" height="8.52"/><rect class="cls-3" x="208.04" y="98.2" width="48.32" height="8.52"/><rect class="cls-1" x=".5" y="113.98" width="264.64" height="22.53"/><rect class="cls-4" x="8.33" y="121.09" width="48.32" height="8.52"/><rect class="cls-4" x="64.3" y="121.09" width="48.32" height="8.52"/><rect class="cls-4" x="117.29" y="120.76" width="48.32" height="8.52"/><rect class="cls-4" x="168.85" y="120.76" width="35.34" height="8.52"/><rect class="cls-4" x="208.04" y="120.76" width="48.32" height="8.52"/><rect class="cls-1" x=".5" y="136.54" width="264.64" height="22.53"/><rect class="cls-4" x="8.33" y="143.65" width="48.32" height="8.52"/><rect class="cls-4" x="64.3" y="143.65" width="48.32" height="8.52"/><rect class="cls-4" x="117.29" y="143.32" width="48.32" height="8.52"/><rect class="cls-4" x="168.85" y="143.32" width="35.34" height="8.52"/><rect class="cls-4" x="208.04" y="143.32" width="48.32" height="8.52"/><rect class="cls-5" x=".5" width="92.82" height="14.28"/><rect class="cls-2" x=".5" y="19.59" width="96.2" height="8.52"/><rect class="cls-2" x="108.8" y="19.59" width="71.5" height="8.52"/><rect class="cls-3" x=".5" y="36.59" width="126.15" height="8.52"/><rect class="cls-3" x=".5" y="49.95" width="126.15" height="8.52"/><rect class="cls-3" x=".5" y="63.56" width="126.15" height="8.52"/></svg>