<?xml version="1.0" encoding="UTF-8"?><svg id="Calque_2" xmlns="http://www.w3.org/2000/svg" viewBox="0 0 258.35 88.1"><g id="Calque_2-2"><g id="Calque_1-2"><path d="M41.01,20.11h-2.88v-1.04h6.94v1.04h-2.88v7.35h-1.19v-7.35h.01Z"/><path d="M45.58,23.27c0-2.46,1.9-4.29,4.47-4.29s4.45,1.82,4.45,4.29-1.89,4.29-4.45,4.29-4.47-1.84-4.47-4.29ZM53.3,23.27c0-1.86-1.39-3.23-3.25-3.23s-3.27,1.37-3.27,3.23,1.39,3.23,3.27,3.23,3.25-1.37,3.25-3.23Z"/><path d="M64.13,27.47v-6.12l-3.05,5.1h-.55l-3.03-5.06v6.08h-1.15v-8.4h.98l3.5,5.9,3.45-5.9h.98v8.4h-1.14,0Z"/><path d="M67.12,23.27c0-2.46,1.9-4.29,4.47-4.29s4.45,1.82,4.45,4.29-1.89,4.29-4.45,4.29-4.47-1.84-4.47-4.29ZM74.84,23.27c0-1.86-1.39-3.23-3.25-3.23s-3.27,1.37-3.27,3.23,1.39,3.23,3.27,3.23,3.25-1.37,3.25-3.23Z"/><path d="M83.5,27.47l-1.81-2.58c-.17.01-.35.02-.53.02h-2.08v2.55h-1.2v-8.4h3.27c2.18,0,3.5,1.1,3.5,2.93,0,1.3-.67,2.23-1.85,2.65l1.99,2.82h-1.31.02ZM83.46,22c0-1.2-.8-1.88-2.34-1.88h-2.04v3.78h2.04c1.54,0,2.34-.7,2.34-1.9Z"/><path d="M92.22,27.47l-1.81-2.58c-.17.01-.35.02-.53.02h-2.08v2.55h-1.2v-8.4h3.27c2.18,0,3.5,1.1,3.5,2.93,0,1.3-.67,2.23-1.85,2.65l1.99,2.82h-1.31.02ZM92.19,22c0-1.2-.8-1.88-2.34-1.88h-2.04v3.78h2.04c1.54,0,2.34-.7,2.34-1.9Z"/><path d="M94.65,23.27c0-2.46,1.9-4.29,4.47-4.29s4.45,1.82,4.45,4.29-1.9,4.29-4.45,4.29-4.47-1.84-4.47-4.29ZM102.37,23.27c0-1.86-1.39-3.23-3.25-3.23s-3.27,1.37-3.27,3.23,1.39,3.23,3.27,3.23,3.25-1.37,3.25-3.23Z"/><path d="M117.01,19.07l-2.81,8.4h-1.26l-2.29-6.7-2.29,6.7h-1.28l-2.81-8.4h1.24l2.27,6.82,2.36-6.82h1.1l2.31,6.86,2.31-6.86h1.15Z"/><path d="M133.75,19.07l-2.81,8.4h-1.26l-2.29-6.7-2.29,6.7h-1.28l-2.81-8.4h1.24l2.27,6.82,2.36-6.82h1.1l2.31,6.86,2.31-6.86h1.15Z"/><path d="M135.22,19.07h1.2v8.4h-1.2v-8.4Z"/><path d="M138.94,19.07h1.2v7.35h4.54v1.04h-5.74v-8.4h0Z"/><path d="M146.07,19.07h1.2v7.35h4.54v1.04h-5.74v-8.4h0Z"/><path d="M163.64,25.2c0,1.44-1.09,2.27-3.21,2.27h-4v-8.4h3.77c1.93,0,3.01.82,3.01,2.17,0,.91-.47,1.55-1.13,1.87.95.26,1.57.97,1.57,2.09h0ZM157.62,20.04v2.69h2.46c1.22,0,1.92-.46,1.92-1.34s-.7-1.34-1.92-1.34h-2.46ZM162.43,25.1c0-.97-.72-1.4-2.05-1.4h-2.76v2.79h2.76c1.33,0,2.05-.42,2.05-1.39Z"/><path d="M171.6,26.42v1.04h-6.09v-8.4h5.92v1.04h-4.72v2.58h4.21v1.02h-4.21v2.71h4.89Z"/><path d="M182.87,26.42v1.04h-6.09v-8.4h5.92v1.04h-4.72v2.58h4.21v1.02h-4.21v2.71h4.89Z"/><path d="M190.17,25.37h-4.46l-.92,2.1h-1.24l3.8-8.4h1.19l3.81,8.4h-1.26l-.92-2.1ZM189.75,24.41l-1.81-4.11-1.81,4.11h3.62Z"/><path d="M192.83,26.51l.44-.94c.62.56,1.69.97,2.77.97,1.45,0,2.08-.56,2.08-1.3,0-2.05-5.09-.76-5.09-3.87,0-1.3,1.01-2.4,3.21-2.4.98,0,2,.26,2.7.74l-.4.96c-.73-.47-1.56-.68-2.3-.68-1.43,0-2.04.6-2.04,1.33,0,2.05,5.08.77,5.08,3.85,0,1.28-1.03,2.39-3.25,2.39-1.28,0-2.54-.43-3.21-1.06h0Z"/><path d="M201.05,19.07h1.2v8.4h-1.2v-8.4Z"/><path d="M210.86,26.42v1.04h-6.09v-8.4h5.92v1.04h-4.72v2.58h4.21v1.02h-4.21v2.71h4.89Z"/><path d="M218.42,27.47l-1.81-2.58c-.17.01-.35.02-.53.02h-2.07v2.55h-1.2v-8.4h3.27c2.18,0,3.5,1.1,3.5,2.93,0,1.3-.67,2.23-1.85,2.65l1.99,2.82h-1.31,0ZM218.39,22c0-1.2-.8-1.88-2.34-1.88h-2.04v3.78h2.04c1.54,0,2.34-.7,2.34-1.9Z"/><g id="Calque_1-3"><path d="M7.59,48.87c.84.47.84,1.68,0,2.16l-5.05,2.88c-.83.47-1.86-.12-1.86-1.08v-5.76c0-.96,1.03-1.56,1.86-1.08l5.05,2.88h0Z"/><rect y="35.12" width="8.23" height="8.23" rx="1.91" ry="1.91"/><path d="M14.6,45.88h0c2.25,0,4.07,1.82,4.07,4.07h0c0,2.25-1.82,4.07-4.07,4.07h0c-2.25,0-4.07-1.82-4.07-4.07h0c0-2.25,1.82-4.07,4.07-4.07Z"/><path d="M14.75,34.93c-2.35,0-4.25,1.91-4.25,4.25s1.91,4.25,4.25,4.25,4.25-1.91,4.25-4.25-1.91-4.25-4.25-4.25ZM14.75,42.16c-1.64,0-2.98-1.33-2.98-2.98s1.33-2.98,2.98-2.98,2.98,1.33,2.98,2.98-1.33,2.98-2.98,2.98Z"/></g><path d="M43.56,35.59v18.43h-3.5l-9.19-11.19v11.19h-4.21v-18.43h3.53l9.16,11.19v-11.19s4.21,0,4.21,0Z"/><path d="M46.78,44.81c0-5.48,4.27-9.53,10.09-9.53s10.09,4.03,10.09,9.53-4.29,9.53-10.09,9.53-10.09-4.06-10.09-9.53ZM62.63,44.81c0-3.5-2.48-5.9-5.77-5.9s-5.77,2.4-5.77,5.9,2.48,5.9,5.77,5.9,5.77-2.4,5.77-5.9Z"/><path d="M70.18,35.59h8.37c6.03,0,10.17,3.63,10.17,9.22s-4.14,9.22-10.17,9.22h-8.37v-18.43h0ZM78.34,50.52c3.66,0,6.06-2.19,6.06-5.72s-2.4-5.72-6.06-5.72h-3.9v11.43h3.9Z"/><path d="M106.22,50.6v3.42h-14.27v-18.43h13.93v3.42h-9.69v4h8.56v3.32h-8.56v4.27s10.03,0,10.03,0Z"/><path d="M133.06,42.28c0,4.11-3.08,6.66-8.01,6.66h-3.71v5.08h-4.27v-18.43h7.98c4.93,0,8.01,2.55,8.01,6.69ZM128.75,42.28c0-2.03-1.32-3.21-3.92-3.21h-3.48v6.4h3.48c2.61,0,3.92-1.18,3.92-3.19Z"/><path d="M147.85,54.02l-3.55-5.13h-3.92v5.13h-4.27v-18.43h7.98c4.93,0,8.01,2.55,8.01,6.69,0,2.76-1.39,4.79-3.79,5.82l4.14,5.92h-4.6ZM143.85,39.06h-3.48v6.43h3.48c2.61,0,3.92-1.21,3.92-3.21s-1.32-3.21-3.92-3.21h0Z"/><path d="M174.71,51.65l2.37-2.84c1,1.34,2.11,2.03,3.42,2.03,1.71,0,2.61-1.03,2.61-3.05v-8.77h-6.48v-3.42h10.72v11.96c0,4.56-2.29,6.79-6.64,6.79-2.48,0-4.66-.95-6-2.69h0Z"/><path d="M205.84,50.6v3.42h-14.27v-18.43h13.93v3.42h-9.69v4h8.56v3.32h-8.56v4.27s10.03,0,10.03,0Z"/><path d="M208.04,44.81c0-5.56,4.27-9.53,10.01-9.53,3.19,0,5.85,1.16,7.58,3.27l-2.74,2.53c-1.24-1.42-2.79-2.16-4.64-2.16-3.45,0-5.9,2.42-5.9,5.9s2.45,5.9,5.9,5.9c1.84,0,3.4-.74,4.64-2.19l2.74,2.53c-1.74,2.13-4.4,3.29-7.61,3.29-5.72,0-9.98-3.98-9.98-9.53h0Z"/><path d="M232.14,39.06h-5.9v-3.48h16.06v3.48h-5.9v14.96h-4.27v-14.96h0Z"/><path d="M243.03,52.21l1.45-3.21c1.55,1.13,3.87,1.92,6.08,1.92,2.53,0,3.55-.84,3.55-1.97,0-3.45-10.72-1.08-10.72-7.93,0-3.13,2.53-5.74,7.77-5.74,2.32,0,4.69.55,6.4,1.63l-1.32,3.24c-1.71-.97-3.48-1.45-5.11-1.45-2.53,0-3.5.95-3.5,2.11,0,3.4,10.72,1.05,10.72,7.82,0,3.08-2.56,5.72-7.82,5.72-2.92,0-5.87-.87-7.51-2.13h.01Z"/><path d="M106.64,9.68V3.97l-2.81,4.7h-.99l-2.79-4.58v5.59h-2.07V.16h1.82l3.56,5.91,3.51-5.91h1.81l.03,9.51h-2.07Z"/><path d="M112.94,1.96h-3.04V.16h8.29v1.79h-3.04v7.72h-2.2V1.96h-.01Z"/><path d="M119.38.16h2.2v7.72h4.77v1.79h-6.97s0-9.51,0-9.51Z"/><path d="M131.02,5h3.85v1.7h-3.85v-1.7Z"/><path d="M140.54.16h2.2v7.72h4.77v1.79h-6.97V.16Z"/><path d="M148.75.16h2.2v9.51h-2.2V.16Z"/><path d="M152.46,8.74l.75-1.66c.8.59,2,.99,3.14.99,1.3,0,1.83-.43,1.83-1.02,0-1.78-5.53-.56-5.53-4.09,0-1.62,1.3-2.96,4.01-2.96,1.2,0,2.42.29,3.3.84l-.68,1.67c-.88-.5-1.79-.75-2.64-.75-1.31,0-1.81.49-1.81,1.09,0,1.75,5.53.54,5.53,4.04,0,1.59-1.32,2.95-4.04,2.95-1.51,0-3.03-.45-3.87-1.1h0Z"/><path d="M97.29,70.55h.96v2.73c-.7.59-1.67.89-2.65.89-2.15,0-3.73-1.51-3.73-3.58s1.58-3.58,3.75-3.58c1.11,0,2.05.37,2.69,1.08l-.62.62c-.58-.56-1.24-.81-2.03-.81-1.62,0-2.79,1.13-2.79,2.69s1.17,2.69,2.78,2.69c.59,0,1.14-.13,1.64-.45v-2.28h0Z"/><path d="M102.87,68.74v.93c-.08-.01-.15-.01-.22-.01-1.03,0-1.67.63-1.67,1.79v2.64h-.96v-5.3h.92v.89c.34-.62,1-.94,1.93-.94Z"/><path d="M103.51,71.44c0-1.58,1.17-2.7,2.76-2.7s2.75,1.12,2.75,2.7-1.16,2.71-2.75,2.71-2.76-1.13-2.76-2.71ZM108.05,71.44c0-1.13-.76-1.86-1.78-1.86s-1.79.73-1.79,1.86.77,1.87,1.79,1.87,1.78-.74,1.78-1.87Z"/><path d="M118.22,68.8l-1.98,5.3h-.92l-1.53-4.02-1.55,4.02h-.92l-1.97-5.3h.91l1.54,4.22,1.6-4.22h.81l1.57,4.24,1.58-4.24h.86Z"/><path d="M118.41,73.46c0-.4.31-.68.68-.68s.66.28.66.68-.3.69-.66.69-.68-.29-.68-.69Z"/><path d="M123.39,70.59c0-2.07,1.58-3.58,3.71-3.58,1.08,0,2.02.37,2.66,1.09l-.65.63c-.54-.57-1.2-.83-1.97-.83-1.58,0-2.75,1.14-2.75,2.69s1.17,2.69,2.75,2.69c.77,0,1.43-.27,1.97-.84l.65.63c-.64.72-1.58,1.1-2.67,1.1-2.12,0-3.7-1.51-3.7-3.58Z"/><path d="M130.34,71.44c0-1.58,1.17-2.7,2.76-2.7s2.75,1.12,2.75,2.7-1.16,2.71-2.75,2.71-2.76-1.13-2.76-2.71ZM134.88,71.44c0-1.13-.76-1.86-1.78-1.86s-1.79.73-1.79,1.86.77,1.87,1.79,1.87,1.78-.74,1.78-1.87Z"/><path d="M142.21,71.04v3.05h-.96v-2.94c0-1.04-.52-1.55-1.43-1.55-1.02,0-1.68.61-1.68,1.76v2.73h-.96v-5.3h.92v.8c.39-.54,1.07-.85,1.91-.85,1.29,0,2.2.74,2.2,2.3Z"/><path d="M149.02,71.04v3.05h-.96v-2.94c0-1.04-.52-1.55-1.43-1.55-1.02,0-1.68.61-1.68,1.76v2.73h-.96v-5.3h.92v.8c.39-.54,1.07-.85,1.91-.85,1.29,0,2.2.74,2.2,2.3Z"/><path d="M155.6,71.76h-4.3c.12.93.87,1.55,1.92,1.55.62,0,1.14-.21,1.53-.64l.53.62c-.48.56-1.21.86-2.09.86-1.71,0-2.85-1.13-2.85-2.71s1.13-2.7,2.66-2.7,2.62,1.1,2.62,2.73c0,.08,0,.2-.02.29h0ZM151.3,71.07h3.4c-.1-.89-.77-1.52-1.7-1.52s-1.6.62-1.7,1.52Z"/><path d="M156.46,71.44c0-1.58,1.17-2.7,2.8-2.7.95,0,1.74.39,2.16,1.13l-.73.47c-.34-.52-.86-.76-1.44-.76-1.04,0-1.82.73-1.82,1.86s.78,1.87,1.82,1.87c.58,0,1.1-.24,1.44-.76l.73.46c-.42.74-1.21,1.14-2.16,1.14-1.63,0-2.8-1.13-2.8-2.71Z"/><path d="M165.71,73.78c-.29.25-.73.37-1.16.37-1.07,0-1.68-.59-1.68-1.66v-2.91h-.9v-.79h.9v-1.16h.96v1.16h1.52v.79h-1.52v2.87c0,.57.3.89.83.89.28,0,.55-.09.75-.25l.3.69h0Z"/><path d="M166.52,73.46c0-.4.31-.68.68-.68s.66.28.66.68-.3.69-.66.69-.68-.29-.68-.69Z"/><path d="M38.43,79.1h2.95c2.25,0,3.78,1.42,3.78,3.5s-1.53,3.5-3.78,3.5h-2.95v-7ZM41.32,85.22c1.73,0,2.84-1.06,2.84-2.63s-1.11-2.63-2.84-2.63h-1.89v5.26s1.89,0,1.89,0Z"/><path d="M50.75,82.89v3.2h-.91v-.7c-.32.48-.91.76-1.74.76-1.2,0-1.96-.64-1.96-1.56,0-.85.55-1.55,2.13-1.55h1.52v-.19c0-.81-.47-1.28-1.42-1.28-.63,0-1.27.22-1.68.57l-.4-.72c.55-.44,1.34-.68,2.19-.68,1.45,0,2.27.7,2.27,2.15ZM49.79,84.47v-.74h-1.48c-.95,0-1.22.37-1.22.82,0,.53.44.86,1.17.86s1.29-.33,1.53-.94Z"/><path d="M55.38,80.74v.93c-.08-.01-.15-.01-.22-.01-1.03,0-1.67.63-1.67,1.79v2.64h-.96v-5.3h.92v.89c.34-.62,1-.94,1.93-.94Z"/><path d="M61.28,83.76h-4.3c.12.93.87,1.55,1.92,1.55.62,0,1.14-.21,1.53-.64l.53.62c-.48.56-1.21.86-2.09.86-1.71,0-2.85-1.13-2.85-2.71s1.13-2.7,2.66-2.7,2.62,1.1,2.62,2.73c0,.08,0,.2-.02.29h0ZM56.98,83.07h3.4c-.1-.89-.77-1.52-1.7-1.52s-1.6.62-1.7,1.52Z"/><path d="M68.3,85.78c-.29.25-.73.37-1.16.37-1.07,0-1.68-.59-1.68-1.66v-2.91h-.9v-.79h.9v-1.16h.96v1.16h1.52v.79h-1.52v2.87c0,.57.3.89.83.89.28,0,.55-.09.75-.25l.3.69Z"/><path d="M68.79,83.44c0-1.58,1.17-2.7,2.76-2.7s2.75,1.12,2.75,2.7-1.16,2.71-2.75,2.71-2.76-1.13-2.76-2.71ZM73.33,83.44c0-1.13-.76-1.86-1.78-1.86s-1.79.73-1.79,1.86.77,1.87,1.79,1.87,1.78-.74,1.78-1.87Z"/><path d="M83.26,80.8v5.3h-.91v-.8c-.39.55-1.05.86-1.8.86-1.37,0-2.28-.75-2.28-2.31v-3.05h.96v2.94c0,1.04.52,1.56,1.43,1.56,1,0,1.64-.62,1.64-1.76v-2.74h.96Z"/><path d="M90.12,83.04v3.05h-.96v-2.94c0-1.04-.52-1.55-1.43-1.55-1.02,0-1.68.61-1.68,1.76v2.73h-.96v-5.3h.92v.8c.39-.54,1.07-.85,1.91-.85,1.29,0,2.2.74,2.2,2.3Z"/><path d="M96.93,78.68v7.42h-.92v-.84c-.43.6-1.11.9-1.89.9-1.55,0-2.68-1.09-2.68-2.71s1.13-2.7,2.68-2.7c.75,0,1.41.28,1.85.85v-2.92s.96,0,.96,0ZM95.98,83.44c0-1.13-.77-1.86-1.78-1.86s-1.79.73-1.79,1.86.77,1.87,1.79,1.87,1.78-.74,1.78-1.87Z"/><path d="M103.52,83.76h-4.3c.12.93.87,1.55,1.92,1.55.62,0,1.14-.21,1.53-.64l.53.62c-.48.56-1.21.86-2.09.86-1.71,0-2.85-1.13-2.85-2.71s1.13-2.7,2.66-2.7,2.62,1.1,2.62,2.73c0,.08,0,.2-.02.29h0ZM99.22,83.07h3.4c-.1-.89-.77-1.52-1.7-1.52s-1.6.62-1.7,1.52Z"/><path d="M107.72,80.74v.93c-.08-.01-.15-.01-.22-.01-1.03,0-1.67.63-1.67,1.79v2.64h-.96v-5.3h.92v.89c.34-.62,1-.94,1.93-.94Z"/><path d="M112.1,85.78c-.29.25-.73.37-1.16.37-1.07,0-1.68-.59-1.68-1.66v-2.91h-.9v-.79h.9v-1.16h.96v1.16h1.52v.79h-1.52v2.87c0,.57.3.89.83.89.28,0,.55-.09.75-.25l.3.69Z"/><path d="M117.46,82.89v3.2h-.91v-.7c-.32.48-.91.76-1.74.76-1.2,0-1.96-.64-1.96-1.56,0-.85.55-1.55,2.13-1.55h1.52v-.19c0-.81-.47-1.28-1.42-1.28-.63,0-1.27.22-1.68.57l-.4-.72c.55-.44,1.34-.68,2.19-.68,1.45,0,2.27.7,2.27,2.15ZM116.5,84.47v-.74h-1.48c-.95,0-1.22.37-1.22.82,0,.53.44.86,1.17.86s1.29-.33,1.53-.94Z"/><path d="M121.3,83.62l-1.1,1.02v1.45h-.96v-7.42h.96v4.76l2.89-2.64h1.16l-2.23,2.19,2.45,3.11h-1.18l-1.99-2.47Z"/><path d="M129.95,83.76h-4.3c.12.93.87,1.55,1.92,1.55.62,0,1.14-.21,1.53-.64l.53.62c-.48.56-1.21.86-2.09.86-1.71,0-2.85-1.13-2.85-2.71s1.13-2.7,2.66-2.7,2.62,1.1,2.62,2.73c0,.08,0,.2-.02.29h0ZM125.65,83.07h3.4c-.1-.89-.77-1.52-1.7-1.52s-1.6.62-1.7,1.52Z"/><path d="M136.97,85.78c-.29.25-.73.37-1.16.37-1.07,0-1.68-.59-1.68-1.66v-2.91h-.9v-.79h.9v-1.16h.96v1.16h1.52v.79h-1.52v2.87c0,.57.3.89.83.89.28,0,.55-.09.75-.25l.3.69h0Z"/><path d="M143.16,83.04v3.05h-.96v-2.94c0-1.04-.52-1.55-1.43-1.55-1.02,0-1.68.61-1.68,1.76v2.73h-.96v-7.42h.96v2.87c.4-.51,1.06-.8,1.87-.8,1.29,0,2.2.74,2.2,2.3Z"/><path d="M144.77,79.16c0-.35.28-.63.65-.63s.65.27.65.61c0,.36-.27.64-.65.64s-.65-.27-.65-.62ZM144.94,80.8h.96v5.3h-.96v-5.3Z"/><path d="M152.76,83.04v3.05h-.96v-2.94c0-1.04-.52-1.55-1.43-1.55-1.02,0-1.68.61-1.68,1.76v2.73h-.96v-5.3h.92v.8c.39-.54,1.07-.85,1.91-.85,1.29,0,2.2.74,2.2,2.3Z"/><path d="M159.64,80.8v4.58c0,1.87-.95,2.72-2.75,2.72-.97,0-1.95-.27-2.53-.79l.46-.74c.49.42,1.26.69,2.04.69,1.25,0,1.82-.58,1.82-1.78v-.42c-.46.55-1.15.82-1.91.82-1.53,0-2.69-1.04-2.69-2.57s1.16-2.56,2.69-2.56c.79,0,1.51.29,1.96.87v-.82h.91,0ZM158.7,83.3c0-1.03-.76-1.72-1.82-1.72s-1.83.69-1.83,1.72.76,1.73,1.83,1.73,1.82-.71,1.82-1.73Z"/><path d="M160.8,85.53l.4-.76c.45.32,1.17.55,1.86.55.89,0,1.26-.27,1.26-.72,0-1.19-3.35-.16-3.35-2.27,0-.95.85-1.59,2.21-1.59.69,0,1.47.18,1.93.48l-.41.76c-.48-.31-1.01-.42-1.53-.42-.84,0-1.25.31-1.25.73,0,1.25,3.36.23,3.36,2.29,0,.96-.88,1.57-2.29,1.57-.88,0-1.75-.27-2.19-.62h0Z"/><path d="M174.17,78.68v7.42h-.92v-.84c-.43.6-1.11.9-1.89.9-1.55,0-2.68-1.09-2.68-2.71s1.13-2.7,2.68-2.7c.75,0,1.41.28,1.85.85v-2.92h.96,0ZM173.22,83.44c0-1.13-.77-1.86-1.78-1.86s-1.79.73-1.79,1.86.77,1.87,1.79,1.87,1.78-.74,1.78-1.87Z"/><path d="M175.82,79.16c0-.35.28-.63.65-.63s.65.27.65.61c0,.36-.27.64-.65.64s-.65-.27-.65-.62ZM175.99,80.8h.96v5.3h-.96v-5.3Z"/><path d="M179.86,80.34v.46h1.54v.79h-1.52v4.51h-.96v-4.51h-.9v-.79h.9v-.47c0-1.03.62-1.71,1.75-1.71.41,0,.81.1,1.08.31l-.29.73c-.2-.15-.46-.25-.74-.25-.57,0-.86.32-.86.93h0Z"/><path d="M183.39,80.34v.46h1.54v.79h-1.52v4.51h-.96v-4.51h-.9v-.79h.9v-.47c0-1.03.62-1.71,1.75-1.71.41,0,.81.1,1.08.31l-.29.73c-.2-.15-.46-.25-.74-.25-.57,0-.86.32-.86.93h0Z"/><path d="M190.53,83.76h-4.3c.12.93.87,1.55,1.92,1.55.62,0,1.14-.21,1.53-.64l.53.62c-.48.56-1.21.86-2.09.86-1.71,0-2.85-1.13-2.85-2.71s1.13-2.7,2.66-2.7,2.62,1.1,2.62,2.73c0,.08,0,.2-.02.29h0ZM186.23,83.07h3.4c-.1-.89-.77-1.52-1.7-1.52s-1.6.62-1.7,1.52Z"/><path d="M194.73,80.74v.93c-.08-.01-.15-.01-.22-.01-1.03,0-1.67.63-1.67,1.79v2.64h-.96v-5.3h.92v.89c.34-.62,1-.94,1.93-.94h0Z"/><path d="M200.63,83.76h-4.3c.12.93.87,1.55,1.92,1.55.62,0,1.14-.21,1.53-.64l.53.62c-.48.56-1.21.86-2.09.86-1.71,0-2.85-1.13-2.85-2.71s1.13-2.7,2.66-2.7,2.62,1.1,2.62,2.73c0,.08,0,.2-.02.29h0ZM196.33,83.07h3.4c-.1-.89-.77-1.52-1.7-1.52s-1.6.62-1.7,1.52Z"/><path d="M207.01,83.04v3.05h-.96v-2.94c0-1.04-.52-1.55-1.43-1.55-1.02,0-1.68.61-1.68,1.76v2.73h-.96v-5.3h.92v.8c.39-.54,1.07-.85,1.91-.85,1.29,0,2.2.74,2.2,2.3Z"/><path d="M211.77,85.78c-.29.25-.73.37-1.16.37-1.07,0-1.68-.59-1.68-1.66v-2.91h-.9v-.79h.9v-1.16h.96v1.16h1.52v.79h-1.52v2.87c0,.57.3.89.83.89.28,0,.55-.09.75-.25l.3.69h0Z"/><path d="M212.93,78.68h.96v7.42h-.96v-7.42Z"/><path d="M220.41,80.8l-2.57,5.83c-.47,1.12-1.08,1.47-1.89,1.47-.51,0-1.03-.17-1.36-.49l.41-.72c.26.25.59.39.95.39.46,0,.75-.21,1.01-.82l.17-.37-2.34-5.29h1l1.85,4.24,1.83-4.24h.94Z"/><path d="M220.53,85.46c0-.4.31-.68.68-.68s.66.28.66.68-.3.69-.66.69-.68-.29-.68-.69Z"/></g><path d="M153.96,44.82c0-5.31,4.13-9.23,9.77-9.23s9.77,3.9,9.77,9.23-4.16,9.23-9.77,9.23-9.77-3.93-9.77-9.23ZM169.31,44.82c0-3.39-2.4-5.71-5.58-5.71s-5.59,2.32-5.59,5.71,2.4,5.71,5.59,5.71,5.58-2.32,5.58-5.71Z"/></g></svg>