<?xml version="1.0" encoding="UTF-8"?><svg id="Calque_1" xmlns="http://www.w3.org/2000/svg" viewBox="0 0 356.26 140.51"><defs><style>.cls-1{fill:#fff;stroke:#c1c1c1;stroke-miterlimit:10;}.cls-2{fill:#e2e2e2;}.cls-2,.cls-3{stroke-width:0px;}.cls-3{fill:#0303f2;}</style></defs><rect class="cls-1" x=".5" y=".5" width="355.09" height="35.32"/><rect class="cls-1" x=".61" y="35.29" width="355.09" height="35.32"/><rect class="cls-1" x=".56" y="69.9" width="355.09" height="35.32"/><rect class="cls-1" x=".67" y="104.69" width="355.09" height="35.32"/><circle class="cls-3" cx="22.24" cy="19.15" r="9.92"/><rect class="cls-3" x="49" y="15.6" width="63.92" height="6.55"/><rect class="cls-3" x="290.24" y="13.9" width="13.19" height="10.52" rx="5.26" ry="5.26"/><rect class="cls-3" x="125.87" y="15.6" width="63.92" height="6.55"/><rect class="cls-3" x="206.37" y="15.6" width="63.92" height="6.55"/><rect class="cls-3" x="316.16" y="14.1" width="13.19" height="10.52" rx="5.26" ry="5.26"/><circle class="cls-2" cx="22.24" cy="52.95" r="9.92"/><rect class="cls-2" x="49" y="49.4" width="63.92" height="6.55"/><rect class="cls-2" x="290.24" y="47.7" width="13.19" height="10.52" rx="5.26" ry="5.26"/><rect class="cls-2" x="125.87" y="49.4" width="63.92" height="6.55"/><rect class="cls-2" x="206.37" y="49.4" width="63.92" height="6.55"/><rect class="cls-2" x="316.16" y="47.91" width="13.19" height="10.52" rx="5.26" ry="5.26"/><circle class="cls-2" cx="22.24" cy="87.56" r="9.92"/><rect class="cls-2" x="49" y="84.01" width="63.92" height="6.55"/><rect class="cls-2" x="290.24" y="82.31" width="13.19" height="10.52" rx="5.26" ry="5.26"/><rect class="cls-2" x="125.87" y="84.01" width="63.92" height="6.55"/><rect class="cls-2" x="206.37" y="84.01" width="63.92" height="6.55"/><rect class="cls-2" x="316.16" y="82.51" width="13.19" height="10.52" rx="5.26" ry="5.26"/><circle class="cls-2" cx="22.24" cy="122.35" r="9.92"/><rect class="cls-2" x="49" y="118.8" width="63.92" height="6.55"/><rect class="cls-2" x="290.24" y="117.1" width="13.19" height="10.52" rx="5.26" ry="5.26"/><rect class="cls-2" x="125.87" y="118.8" width="63.92" height="6.55"/><rect class="cls-2" x="206.37" y="118.8" width="63.92" height="6.55"/><rect class="cls-2" x="316.16" y="117.3" width="13.19" height="10.52" rx="5.26" ry="5.26"/></svg>