<?xml version="1.0" encoding="UTF-8"?><svg id="Calque_1" xmlns="http://www.w3.org/2000/svg" viewBox="0 0 389.63 136.33"><defs><style>.cls-1{fill:#fff;stroke:#c1c1c1;stroke-miterlimit:10;}.cls-2{fill:#d7d7ff;}.cls-2,.cls-3,.cls-4{stroke-width:0px;}.cls-3{fill:#efefef;}.cls-4{fill:#0303f2;}</style></defs><rect class="cls-1" x=".5" y=".5" width="388.63" height="22.53"/><rect class="cls-4" x="11.99" y="7.61" width="70.96" height="8.52"/><rect class="cls-2" x="94.19" y="7.61" width="70.96" height="8.52"/><rect class="cls-2" x="172" y="7.28" width="70.96" height="8.52"/><rect class="cls-2" x="247.73" y="7.28" width="51.9" height="8.52"/><rect class="cls-2" x="305.27" y="7.28" width="70.96" height="8.52"/><rect class="cls-1" x=".5" y="23.06" width="388.63" height="22.53"/><rect class="cls-3" x="11.99" y="30.17" width="70.96" height="8.52"/><rect class="cls-3" x="94.19" y="30.17" width="70.96" height="8.52"/><rect class="cls-3" x="172" y="29.84" width="70.96" height="8.52"/><rect class="cls-3" x="247.73" y="29.84" width="51.9" height="8.52"/><rect class="cls-3" x="305.27" y="29.84" width="70.96" height="8.52"/><rect class="cls-1" x=".5" y="45.62" width="388.63" height="22.53"/><rect class="cls-3" x="11.99" y="52.73" width="70.96" height="8.52"/><rect class="cls-3" x="94.19" y="52.73" width="70.96" height="8.52"/><rect class="cls-3" x="172" y="52.4" width="70.96" height="8.52"/><rect class="cls-3" x="247.73" y="52.4" width="51.9" height="8.52"/><rect class="cls-3" x="305.27" y="52.4" width="70.96" height="8.52"/><rect class="cls-1" x=".5" y="68.18" width="388.63" height="22.53"/><rect class="cls-3" x="11.99" y="75.29" width="70.96" height="8.52"/><rect class="cls-3" x="94.19" y="75.29" width="70.96" height="8.52"/><rect class="cls-3" x="172" y="74.96" width="70.96" height="8.52"/><rect class="cls-3" x="247.73" y="74.96" width="51.9" height="8.52"/><rect class="cls-3" x="305.27" y="74.96" width="70.96" height="8.52"/><rect class="cls-1" x=".5" y="90.74" width="388.63" height="22.53"/><rect class="cls-3" x="11.99" y="97.85" width="70.96" height="8.52"/><rect class="cls-3" x="94.19" y="97.85" width="70.96" height="8.52"/><rect class="cls-3" x="172" y="97.52" width="70.96" height="8.52"/><rect class="cls-3" x="247.73" y="97.52" width="51.9" height="8.52"/><rect class="cls-3" x="305.27" y="97.52" width="70.96" height="8.52"/><rect class="cls-1" x=".5" y="113.3" width="388.63" height="22.53"/><rect class="cls-3" x="11.99" y="120.41" width="70.96" height="8.52"/><rect class="cls-3" x="94.19" y="120.41" width="70.96" height="8.52"/><rect class="cls-3" x="172" y="120.08" width="70.96" height="8.52"/><rect class="cls-3" x="247.73" y="120.08" width="51.9" height="8.52"/><rect class="cls-3" x="305.27" y="120.08" width="70.96" height="8.52"/></svg>