<?xml version="1.0" encoding="UTF-8"?><svg id="Calque_1" xmlns="http://www.w3.org/2000/svg" viewBox="0 0 356.26 140.51"><defs><style>.cls-1{fill:#fff;stroke:#c1c1c1;stroke-miterlimit:10;}.cls-2{fill:#cacafc;}.cls-2,.cls-3,.cls-4{stroke-width:0px;}.cls-3{fill:#eaeaea;}.cls-4{fill:#0303f2;}</style></defs><rect class="cls-1" x=".5" y=".5" width="355.09" height="35.32"/><rect class="cls-1" x=".61" y="35.29" width="355.09" height="35.32"/><rect class="cls-1" x=".56" y="69.9" width="355.09" height="35.32"/><rect class="cls-1" x=".67" y="104.69" width="355.09" height="35.32"/><circle class="cls-4" cx="22.24" cy="19.15" r="9.92"/><rect class="cls-4" x="49" y="11.6" width="63.92" height="6.55"/><rect class="cls-4" x="290.24" y="12.9" width="42.67" height="10.52" rx="5.26" ry="5.26"/><rect class="cls-2" x="49" y="22.42" width="47.23" height="4.95"/><rect class="cls-4" x="125.87" y="11.6" width="63.92" height="6.55"/><rect class="cls-2" x="125.87" y="22.42" width="47.23" height="4.95"/><rect class="cls-4" x="206.37" y="11.6" width="63.92" height="6.55"/><rect class="cls-2" x="206.37" y="22.42" width="47.23" height="4.95"/><circle class="cls-3" cx="21.26" cy="52.95" r="9.92"/><rect class="cls-3" x="48.03" y="45.4" width="63.92" height="6.55"/><rect class="cls-3" x="289.26" y="46.7" width="42.67" height="10.52" rx="5.26" ry="5.26"/><rect class="cls-3" x="48.03" y="56.22" width="47.23" height="4.95"/><rect class="cls-3" x="124.89" y="45.4" width="63.92" height="6.55"/><rect class="cls-3" x="124.89" y="56.22" width="47.23" height="4.95"/><rect class="cls-3" x="205.39" y="45.4" width="63.92" height="6.55"/><rect class="cls-3" x="205.39" y="56.22" width="47.23" height="4.95"/><circle class="cls-3" cx="21.74" cy="87.56" r="9.92"/><rect class="cls-3" x="48.51" y="80.01" width="63.92" height="6.55"/><rect class="cls-3" x="289.74" y="81.31" width="42.67" height="10.52" rx="5.26" ry="5.26"/><rect class="cls-3" x="48.51" y="90.82" width="47.23" height="4.95"/><rect class="cls-3" x="125.37" y="80.01" width="63.92" height="6.55"/><rect class="cls-3" x="125.37" y="90.82" width="47.23" height="4.95"/><rect class="cls-3" x="205.87" y="80.01" width="63.92" height="6.55"/><rect class="cls-3" x="205.87" y="90.82" width="47.23" height="4.95"/><circle class="cls-3" cx="21.74" cy="122.16" r="9.92"/><rect class="cls-3" x="48.51" y="114.61" width="63.92" height="6.55"/><rect class="cls-3" x="289.74" y="115.91" width="42.67" height="10.52" rx="5.26" ry="5.26"/><rect class="cls-3" x="48.51" y="125.42" width="47.23" height="4.95"/><rect class="cls-3" x="125.37" y="114.61" width="63.92" height="6.55"/><rect class="cls-3" x="125.37" y="125.42" width="47.23" height="4.95"/><rect class="cls-3" x="205.87" y="114.61" width="63.92" height="6.55"/><rect class="cls-3" x="205.87" y="125.42" width="47.23" height="4.95"/></svg>