<?xml version="1.0" encoding="UTF-8"?>
<svg fill="#ECECEC" width="100pt" height="100pt" version="1.1" viewBox="0 0 100 100" xmlns="http://www.w3.org/2000/svg">
 <g>
  <path d="m60.938 19.922c0 7.5508-6.1211 13.672-13.672 13.672s-13.672-6.1211-13.672-13.672 6.1211-13.672 13.672-13.672 13.672 6.1211 13.672 13.672z"/>
  <path d="m47.625 45.645c0.45703-0.36328 0.22266-1.1133-0.35938-1.1133-21.141 0-38.281 15.297-38.281 34.168 0 15.812 12.031 15.41 28.363 14.863 3.1641-0.10547 6.4883-0.21875 9.918-0.21875 0.40625 0 0.58594-0.52734 0.26953-0.78125-6.8359-5.5117-11.207-13.957-11.207-23.422 0-9.5078 4.4102-17.984 11.297-23.496z"/>
  <path d="m69.141 47.266c12.082 0 21.875 9.793 21.875 21.875s-9.793 21.875-21.875 21.875-21.875-9.793-21.875-21.875 9.793-21.875 21.875-21.875zm6.2695 14.473c1.0664-1.0664 2.8008-1.0664 3.8672 0 0.94922 0.94922 1.0547 2.4219 0.31641 3.4883l-0.31641 0.37891-10.938 10.938c-0.94922 0.94922-2.4219 1.0547-3.4883 0.31641l-0.37891-0.31641-5.4688-5.4688c-1.0664-1.0664-1.0664-2.8008 0-3.8672 0.94922-0.94922 2.4219-1.0547 3.4883-0.31641l0.37891 0.31641 3.5352 3.5352z" fill-rule="evenodd"/>
 </g>
</svg>
