<svg width="187" height="104" viewBox="0 0 187 104" fill="none" xmlns="http://www.w3.org/2000/svg">
<g filter="url(#filter0_d_89_2258)">
<rect x="4" width="179" height="96" rx="12" fill="white"/>
<path d="M21.986 29L26.424 19.2H27.81L32.262 29H30.792L26.83 19.984H27.39L23.428 29H21.986ZM23.876 26.55L24.254 25.43H29.77L30.176 26.55H23.876ZM36.6935 29.084C35.9375 29.084 35.2609 28.9207 34.6635 28.594C34.0755 28.2673 33.6135 27.8193 33.2775 27.25C32.9415 26.6807 32.7735 26.0273 32.7735 25.29C32.7735 24.5527 32.9415 23.8993 33.2775 23.33C33.6135 22.7607 34.0755 22.3173 34.6635 22C35.2609 21.6733 35.9375 21.51 36.6935 21.51C37.3655 21.51 37.9629 21.6453 38.4855 21.916C39.0175 22.1773 39.4282 22.5693 39.7175 23.092L38.6955 23.75C38.4529 23.386 38.1542 23.12 37.7995 22.952C37.4542 22.7747 37.0809 22.686 36.6795 22.686C36.1942 22.686 35.7602 22.7933 35.3775 23.008C34.9949 23.2227 34.6915 23.526 34.4675 23.918C34.2435 24.3007 34.1315 24.758 34.1315 25.29C34.1315 25.822 34.2435 26.284 34.4675 26.676C34.6915 27.068 34.9949 27.3713 35.3775 27.586C35.7602 27.8007 36.1942 27.908 36.6795 27.908C37.0809 27.908 37.4542 27.824 37.7995 27.656C38.1542 27.4787 38.4529 27.208 38.6955 26.844L39.7175 27.488C39.4282 28.0013 39.0175 28.398 38.4855 28.678C37.9629 28.9487 37.3655 29.084 36.6935 29.084ZM44.1013 29.084C43.3546 29.084 42.776 28.8833 42.3653 28.482C41.9546 28.0807 41.7493 27.5067 41.7493 26.76V19.956H43.0933V26.704C43.0933 27.1053 43.1913 27.4133 43.3873 27.628C43.5926 27.8427 43.882 27.95 44.2553 27.95C44.6753 27.95 45.0253 27.8333 45.3053 27.6L45.7253 28.566C45.52 28.7433 45.2726 28.874 44.9833 28.958C44.7033 29.042 44.4093 29.084 44.1013 29.084ZM40.4893 22.686V21.58H45.2213V22.686H40.4893ZM47.3502 29V21.58H48.6942V29H47.3502ZM48.0222 20.152C47.7608 20.152 47.5415 20.068 47.3642 19.9C47.1962 19.732 47.1122 19.5267 47.1122 19.284C47.1122 19.032 47.1962 18.822 47.3642 18.654C47.5415 18.486 47.7608 18.402 48.0222 18.402C48.2835 18.402 48.4982 18.486 48.6662 18.654C48.8435 18.8127 48.9322 19.0133 48.9322 19.256C48.9322 19.508 48.8482 19.7227 48.6802 19.9C48.5122 20.068 48.2928 20.152 48.0222 20.152ZM54.4383 29.084C53.6917 29.084 53.029 28.9207 52.4503 28.594C51.8717 28.2673 51.4143 27.8193 51.0783 27.25C50.7423 26.6713 50.5743 26.018 50.5743 25.29C50.5743 24.5527 50.7423 23.8993 51.0783 23.33C51.4143 22.7607 51.8717 22.3173 52.4503 22C53.029 21.6733 53.6917 21.51 54.4383 21.51C55.1757 21.51 55.8337 21.6733 56.4123 22C57.0003 22.3173 57.4577 22.7607 57.7843 23.33C58.1203 23.89 58.2883 24.5433 58.2883 25.29C58.2883 26.0273 58.1203 26.6807 57.7843 27.25C57.4577 27.8193 57.0003 28.2673 56.4123 28.594C55.8337 28.9207 55.1757 29.084 54.4383 29.084ZM54.4383 27.908C54.9143 27.908 55.339 27.8007 55.7123 27.586C56.095 27.3713 56.3937 27.068 56.6083 26.676C56.823 26.2747 56.9303 25.8127 56.9303 25.29C56.9303 24.758 56.823 24.3007 56.6083 23.918C56.3937 23.526 56.095 23.2227 55.7123 23.008C55.339 22.7933 54.9143 22.686 54.4383 22.686C53.9623 22.686 53.5377 22.7933 53.1643 23.008C52.791 23.2227 52.4923 23.526 52.2683 23.918C52.0443 24.3007 51.9323 24.758 51.9323 25.29C51.9323 25.8127 52.0443 26.2747 52.2683 26.676C52.4923 27.068 52.791 27.3713 53.1643 27.586C53.5377 27.8007 53.9623 27.908 54.4383 27.908ZM64.109 21.51C64.7157 21.51 65.2477 21.6267 65.705 21.86C66.1717 22.0933 66.5357 22.448 66.797 22.924C67.0584 23.4 67.189 24.002 67.189 24.73V29H65.845V24.884C65.845 24.1653 65.6677 23.624 65.313 23.26C64.9677 22.896 64.4777 22.714 63.843 22.714C63.367 22.714 62.9517 22.8073 62.597 22.994C62.2424 23.1807 61.967 23.456 61.771 23.82C61.5844 24.184 61.491 24.6367 61.491 25.178V29H60.147V21.58H61.435V23.582L61.225 23.05C61.4677 22.5647 61.841 22.1867 62.345 21.916C62.849 21.6453 63.437 21.51 64.109 21.51ZM71.8043 29.084C71.1883 29.084 70.6003 29 70.0403 28.832C69.4897 28.664 69.0557 28.4587 68.7383 28.216L69.2983 27.152C69.6157 27.3667 70.0077 27.5487 70.4743 27.698C70.941 27.8473 71.417 27.922 71.9023 27.922C72.5277 27.922 72.9757 27.8333 73.2463 27.656C73.5263 27.4787 73.6663 27.2313 73.6663 26.914C73.6663 26.6807 73.5823 26.4987 73.4143 26.368C73.2463 26.2373 73.0223 26.1393 72.7423 26.074C72.4717 26.0087 72.1683 25.9527 71.8323 25.906C71.4963 25.85 71.1603 25.7847 70.8243 25.71C70.4883 25.626 70.1803 25.514 69.9003 25.374C69.6203 25.2247 69.3963 25.024 69.2283 24.772C69.0603 24.5107 68.9763 24.1653 68.9763 23.736C68.9763 23.288 69.1023 22.896 69.3543 22.56C69.6063 22.224 69.961 21.9673 70.4183 21.79C70.885 21.6033 71.4357 21.51 72.0703 21.51C72.5557 21.51 73.0457 21.5707 73.5403 21.692C74.0443 21.804 74.455 21.9673 74.7723 22.182L74.1983 23.246C73.8623 23.022 73.5123 22.868 73.1483 22.784C72.7843 22.7 72.4203 22.658 72.0563 22.658C71.4683 22.658 71.0297 22.756 70.7403 22.952C70.451 23.1387 70.3063 23.3813 70.3063 23.68C70.3063 23.932 70.3903 24.128 70.5583 24.268C70.7357 24.3987 70.9597 24.5013 71.2303 24.576C71.5103 24.6507 71.8183 24.716 72.1543 24.772C72.4903 24.8187 72.8263 24.884 73.1623 24.968C73.4983 25.0427 73.8017 25.15 74.0723 25.29C74.3523 25.43 74.5763 25.626 74.7443 25.878C74.9217 26.13 75.0103 26.466 75.0103 26.886C75.0103 27.334 74.8797 27.7213 74.6183 28.048C74.357 28.3747 73.9883 28.6313 73.5123 28.818C73.0363 28.9953 72.467 29.084 71.8043 29.084ZM85.0558 29V27.432L84.9858 27.138V24.464C84.9858 23.8947 84.8178 23.456 84.4818 23.148C84.1551 22.8307 83.6604 22.672 82.9978 22.672C82.5591 22.672 82.1298 22.7467 81.7098 22.896C81.2898 23.036 80.9351 23.2273 80.6458 23.47L80.0858 22.462C80.4684 22.154 80.9258 21.9207 81.4578 21.762C81.9991 21.594 82.5638 21.51 83.1518 21.51C84.1691 21.51 84.9531 21.7573 85.5038 22.252C86.0544 22.7467 86.3298 23.5027 86.3298 24.52V29H85.0558ZM82.6198 29.084C82.0691 29.084 81.5838 28.9907 81.1638 28.804C80.7531 28.6173 80.4358 28.3607 80.2118 28.034C79.9878 27.698 79.8758 27.32 79.8758 26.9C79.8758 26.4987 79.9691 26.1347 80.1558 25.808C80.3518 25.4813 80.6644 25.22 81.0938 25.024C81.5324 24.828 82.1204 24.73 82.8578 24.73H85.2098V25.696H82.9138C82.2418 25.696 81.7891 25.808 81.5558 26.032C81.3224 26.256 81.2058 26.5267 81.2058 26.844C81.2058 27.208 81.3504 27.502 81.6398 27.726C81.9291 27.9407 82.3304 28.048 82.8438 28.048C83.3478 28.048 83.7864 27.936 84.1598 27.712C84.5424 27.488 84.8178 27.1613 84.9858 26.732L85.2518 27.656C85.0744 28.0947 84.7618 28.4447 84.3138 28.706C83.8658 28.958 83.3011 29.084 82.6198 29.084ZM83.0398 20.502L80.6878 18.682H82.3958L84.2998 20.502H83.0398ZM95.8107 29.084C95.0547 29.084 94.3781 28.9207 93.7807 28.594C93.1927 28.2673 92.7307 27.8193 92.3947 27.25C92.0587 26.6807 91.8907 26.0273 91.8907 25.29C91.8907 24.5527 92.0587 23.8993 92.3947 23.33C92.7307 22.7607 93.1927 22.3173 93.7807 22C94.3781 21.6733 95.0547 21.51 95.8107 21.51C96.4827 21.51 97.0801 21.6453 97.6027 21.916C98.1347 22.1773 98.5454 22.5693 98.8347 23.092L97.8127 23.75C97.5701 23.386 97.2714 23.12 96.9167 22.952C96.5714 22.7747 96.1981 22.686 95.7967 22.686C95.3114 22.686 94.8774 22.7933 94.4947 23.008C94.1121 23.2227 93.8087 23.526 93.5847 23.918C93.3607 24.3007 93.2487 24.758 93.2487 25.29C93.2487 25.822 93.3607 26.284 93.5847 26.676C93.8087 27.068 94.1121 27.3713 94.4947 27.586C94.8774 27.8007 95.3114 27.908 95.7967 27.908C96.1981 27.908 96.5714 27.824 96.9167 27.656C97.2714 27.4787 97.5701 27.208 97.8127 26.844L98.8347 27.488C98.5454 28.0013 98.1347 28.398 97.6027 28.678C97.0801 28.9487 96.4827 29.084 95.8107 29.084ZM103.643 29.084C102.897 29.084 102.234 28.9207 101.655 28.594C101.077 28.2673 100.619 27.8193 100.283 27.25C99.9474 26.6713 99.7794 26.018 99.7794 25.29C99.7794 24.5527 99.9474 23.8993 100.283 23.33C100.619 22.7607 101.077 22.3173 101.655 22C102.234 21.6733 102.897 21.51 103.643 21.51C104.381 21.51 105.039 21.6733 105.617 22C106.205 22.3173 106.663 22.7607 106.989 23.33C107.325 23.89 107.493 24.5433 107.493 25.29C107.493 26.0273 107.325 26.6807 106.989 27.25C106.663 27.8193 106.205 28.2673 105.617 28.594C105.039 28.9207 104.381 29.084 103.643 29.084ZM103.643 27.908C104.119 27.908 104.544 27.8007 104.917 27.586C105.3 27.3713 105.599 27.068 105.813 26.676C106.028 26.2747 106.135 25.8127 106.135 25.29C106.135 24.758 106.028 24.3007 105.813 23.918C105.599 23.526 105.3 23.2227 104.917 23.008C104.544 22.7933 104.119 22.686 103.643 22.686C103.167 22.686 102.743 22.7933 102.369 23.008C101.996 23.2227 101.697 23.526 101.473 23.918C101.249 24.3007 101.137 24.758 101.137 25.29C101.137 25.8127 101.249 26.2747 101.473 26.676C101.697 27.068 101.996 27.3713 102.369 27.586C102.743 27.8007 103.167 27.908 103.643 27.908ZM118.634 21.51C119.231 21.51 119.759 21.6267 120.216 21.86C120.673 22.0933 121.028 22.448 121.28 22.924C121.541 23.4 121.672 24.002 121.672 24.73V29H120.328V24.884C120.328 24.1653 120.16 23.624 119.824 23.26C119.488 22.896 119.017 22.714 118.41 22.714C117.962 22.714 117.57 22.8073 117.234 22.994C116.898 23.1807 116.637 23.456 116.45 23.82C116.273 24.184 116.184 24.6367 116.184 25.178V29H114.84V24.884C114.84 24.1653 114.672 23.624 114.336 23.26C114.009 22.896 113.538 22.714 112.922 22.714C112.483 22.714 112.096 22.8073 111.76 22.994C111.424 23.1807 111.163 23.456 110.976 23.82C110.789 24.184 110.696 24.6367 110.696 25.178V29H109.352V21.58H110.64V23.554L110.43 23.05C110.663 22.5647 111.023 22.1867 111.508 21.916C111.993 21.6453 112.558 21.51 113.202 21.51C113.911 21.51 114.523 21.6873 115.036 22.042C115.549 22.3873 115.885 22.9147 116.044 23.624L115.498 23.4C115.722 22.8307 116.114 22.3733 116.674 22.028C117.234 21.6827 117.887 21.51 118.634 21.51ZM128.079 29.084C127.463 29.084 126.898 28.944 126.385 28.664C125.881 28.3747 125.475 27.95 125.167 27.39C124.868 26.83 124.719 26.13 124.719 25.29C124.719 24.45 124.864 23.75 125.153 23.19C125.452 22.63 125.853 22.21 126.357 21.93C126.87 21.65 127.444 21.51 128.079 21.51C128.807 21.51 129.451 21.6687 130.011 21.986C130.571 22.3033 131.014 22.7467 131.341 23.316C131.668 23.876 131.831 24.534 131.831 25.29C131.831 26.046 131.668 26.7087 131.341 27.278C131.014 27.8473 130.571 28.2907 130.011 28.608C129.451 28.9253 128.807 29.084 128.079 29.084ZM124.145 31.716V21.58H125.433V23.582L125.349 25.304L125.489 27.026V31.716H124.145ZM127.967 27.908C128.443 27.908 128.868 27.8007 129.241 27.586C129.624 27.3713 129.922 27.068 130.137 26.676C130.361 26.2747 130.473 25.8127 130.473 25.29C130.473 24.758 130.361 24.3007 130.137 23.918C129.922 23.526 129.624 23.2227 129.241 23.008C128.868 22.7933 128.443 22.686 127.967 22.686C127.5 22.686 127.076 22.7933 126.693 23.008C126.32 23.2227 126.021 23.526 125.797 23.918C125.582 24.3007 125.475 24.758 125.475 25.29C125.475 25.8127 125.582 26.2747 125.797 26.676C126.021 27.068 126.32 27.3713 126.693 27.586C127.076 27.8007 127.5 27.908 127.967 27.908ZM133.688 29V18.612H135.032V29H133.688ZM140.902 29.084C140.109 29.084 139.409 28.9207 138.802 28.594C138.205 28.2673 137.738 27.8193 137.402 27.25C137.076 26.6807 136.912 26.0273 136.912 25.29C136.912 24.5527 137.071 23.8993 137.388 23.33C137.715 22.7607 138.158 22.3173 138.718 22C139.288 21.6733 139.927 21.51 140.636 21.51C141.355 21.51 141.99 21.6687 142.54 21.986C143.091 22.3033 143.52 22.7513 143.828 23.33C144.146 23.8993 144.304 24.5667 144.304 25.332C144.304 25.388 144.3 25.4533 144.29 25.528C144.29 25.6027 144.286 25.6727 144.276 25.738H137.962V24.772H143.576L143.03 25.108C143.04 24.632 142.942 24.2073 142.736 23.834C142.531 23.4607 142.246 23.1713 141.882 22.966C141.528 22.7513 141.112 22.644 140.636 22.644C140.17 22.644 139.754 22.7513 139.39 22.966C139.026 23.1713 138.742 23.4653 138.536 23.848C138.331 24.2213 138.228 24.6507 138.228 25.136V25.36C138.228 25.8547 138.34 26.298 138.564 26.69C138.798 27.0727 139.12 27.3713 139.53 27.586C139.941 27.8007 140.412 27.908 140.944 27.908C141.383 27.908 141.78 27.8333 142.134 27.684C142.498 27.5347 142.816 27.3107 143.086 27.012L143.828 27.88C143.492 28.272 143.072 28.5707 142.568 28.776C142.074 28.9813 141.518 29.084 140.902 29.084ZM139.572 20.502L141.476 18.682H143.184L140.832 20.502H139.572ZM148.718 29.084C147.972 29.084 147.393 28.8833 146.982 28.482C146.572 28.0807 146.366 27.5067 146.366 26.76V19.956H147.71V26.704C147.71 27.1053 147.808 27.4133 148.004 27.628C148.21 27.8427 148.499 27.95 148.872 27.95C149.292 27.95 149.642 27.8333 149.922 27.6L150.342 28.566C150.137 28.7433 149.89 28.874 149.6 28.958C149.32 29.042 149.026 29.084 148.718 29.084ZM145.106 22.686V21.58H149.838V22.686H145.106ZM155.025 29.084C154.232 29.084 153.532 28.9207 152.925 28.594C152.328 28.2673 151.861 27.8193 151.525 27.25C151.199 26.6807 151.035 26.0273 151.035 25.29C151.035 24.5527 151.194 23.8993 151.511 23.33C151.838 22.7607 152.281 22.3173 152.841 22C153.411 21.6733 154.05 21.51 154.759 21.51C155.478 21.51 156.113 21.6687 156.663 21.986C157.214 22.3033 157.643 22.7513 157.951 23.33C158.269 23.8993 158.427 24.5667 158.427 25.332C158.427 25.388 158.423 25.4533 158.413 25.528C158.413 25.6027 158.409 25.6727 158.399 25.738H152.085V24.772H157.699L157.153 25.108C157.163 24.632 157.065 24.2073 156.859 23.834C156.654 23.4607 156.369 23.1713 156.005 22.966C155.651 22.7513 155.235 22.644 154.759 22.644C154.293 22.644 153.877 22.7513 153.513 22.966C153.149 23.1713 152.865 23.4653 152.659 23.848C152.454 24.2213 152.351 24.6507 152.351 25.136V25.36C152.351 25.8547 152.463 26.298 152.687 26.69C152.921 27.0727 153.243 27.3713 153.653 27.586C154.064 27.8007 154.535 27.908 155.067 27.908C155.506 27.908 155.903 27.8333 156.257 27.684C156.621 27.5347 156.939 27.3107 157.209 27.012L157.951 27.88C157.615 28.272 157.195 28.5707 156.691 28.776C156.197 28.9813 155.641 29.084 155.025 29.084ZM160.294 29V21.58H161.582V23.596L161.456 23.092C161.661 22.5787 162.006 22.1867 162.492 21.916C162.977 21.6453 163.574 21.51 164.284 21.51V22.812C164.228 22.8027 164.172 22.798 164.116 22.798C164.069 22.798 164.022 22.798 163.976 22.798C163.257 22.798 162.688 23.0127 162.268 23.442C161.848 23.8713 161.638 24.492 161.638 25.304V29H160.294Z" fill="black" fill-opacity="0.6"/>
<path d="M36.2383 76H30.9297V56.6816L24.9355 58.4922V54.2031L35.6934 50.3711H36.2383V76ZM62.2975 53.3594L52.4889 76H46.8815L56.6901 54.6777H44.1041V50.4062H62.2975V53.3594Z" fill="#1501F3"/>
</g>
<defs>
<filter id="filter0_d_89_2258" x="0" y="0" width="187" height="104" filterUnits="userSpaceOnUse" color-interpolation-filters="sRGB">
<feFlood flood-opacity="0" result="BackgroundImageFix"/>
<feColorMatrix in="SourceAlpha" type="matrix" values="0 0 0 0 0 0 0 0 0 0 0 0 0 0 0 0 0 0 127 0" result="hardAlpha"/>
<feOffset dy="4"/>
<feGaussianBlur stdDeviation="2"/>
<feComposite in2="hardAlpha" operator="out"/>
<feColorMatrix type="matrix" values="0 0 0 0 0 0 0 0 0 0 0 0 0 0 0 0 0 0 0.06 0"/>
<feBlend mode="normal" in2="BackgroundImageFix" result="effect1_dropShadow_89_2258"/>
<feBlend mode="normal" in="SourceGraphic" in2="effect1_dropShadow_89_2258" result="shape"/>
</filter>
</defs>
</svg>
