<svg width="758" height="118" viewBox="0 0 758 118" fill="none" xmlns="http://www.w3.org/2000/svg">
<g filter="url(#filter0_d_86_2176)">
<rect x="4" width="750" height="110" rx="12" fill="white"/>
<g clip-path="url(#clip0_86_2176)">
<path d="M47.8392 20.5827C47.3761 20.1298 46.7536 19.8769 46.1058 19.8785H31.4483C30.8006 19.8769 30.1781 20.1298 29.715 20.5827C29.2594 21.0361 29.0023 21.6516 29 22.2944V34.6769C28.9993 34.9954 29.0622 35.3108 29.185 35.6048C29.3078 35.8987 29.488 36.1651 29.715 36.3885C30.1781 36.8415 30.8006 37.0943 31.4483 37.0927H46.1058C46.7536 37.0943 47.3761 36.8415 47.8392 36.3885C48.0662 36.1651 48.2464 35.8987 48.3692 35.6048C48.492 35.3108 48.5548 34.9954 48.5542 34.6769V22.2944C48.5519 21.6516 48.2948 21.0361 47.8392 20.5827ZM31.1233 22.2944C31.1233 22.2518 31.132 22.2097 31.1487 22.1706C31.1655 22.1315 31.19 22.0962 31.2208 22.0669C31.2826 22.0096 31.3641 21.9785 31.4483 21.9802H46.1058C46.1929 21.9809 46.277 22.0115 46.3442 22.0669C46.3996 22.1297 46.4304 22.2106 46.4308 22.2944V34.6769C46.4304 34.7607 46.3996 34.8415 46.3442 34.9044C46.3128 34.9355 46.2756 34.9601 46.2347 34.9769C46.1938 34.9936 46.15 35.0021 46.1058 35.0019H31.4483C31.4056 35.0032 31.3631 34.9952 31.3238 34.9784C31.2845 34.9615 31.2493 34.9363 31.2208 34.9044C31.19 34.875 31.1655 34.8397 31.1487 34.8006C31.132 34.7615 31.1233 34.7194 31.1233 34.6769V22.2944Z" fill="black"/>
<path d="M32.5052 18.04C32.5052 17.4145 33.0122 16.9075 33.6377 16.9075C34.2632 16.9075 34.7703 17.4145 34.7703 18.04V22.2749C34.7703 22.9004 34.2632 23.4075 33.6377 23.4075C33.0122 23.4075 32.5052 22.9004 32.5052 22.2749V18.04Z" fill="black"/>
<path d="M42.6983 18.04C42.6983 17.4145 43.2054 16.9075 43.8309 16.9075C44.4564 16.9075 44.9635 17.4145 44.9635 18.04V22.2749C44.9635 22.9004 44.4564 23.4075 43.8309 23.4075C43.2054 23.4075 42.6983 22.9004 42.6983 22.2749V18.04Z" fill="black"/>
<path d="M30.3385 24.4908H46.5885V26.6575H30.3385V24.4908Z" fill="black"/>
<path d="M61.8822 33V21.8H66.9702C70.6342 21.8 73.1462 24.008 73.1462 27.4C73.1462 30.792 70.6342 33 66.9702 33H61.8822ZM64.4742 30.872H66.8422C69.0662 30.872 70.5222 29.544 70.5222 27.4C70.5222 25.256 69.0662 23.928 66.8422 23.928H64.4742V30.872ZM83.3569 28.728C83.3569 28.92 83.3249 29.192 83.3089 29.4H76.7969C77.0369 30.472 77.9489 31.128 79.2609 31.128C80.1729 31.128 80.8289 30.856 81.4209 30.296L82.749 31.736C81.9489 32.648 80.7489 33.128 79.1969 33.128C76.2209 33.128 74.2849 31.256 74.2849 28.696C74.2849 26.12 76.2529 24.264 78.8769 24.264C81.4049 24.264 83.3569 25.96 83.3569 28.728ZM78.8929 26.152C77.7569 26.152 76.9409 26.84 76.7649 27.944H81.0049C80.8289 26.856 80.0129 26.152 78.8929 26.152ZM96.0427 24.264C98.0907 24.264 99.5627 25.448 99.5627 28.072V33H97.0667V28.456C97.0667 27.064 96.4427 26.424 95.4347 26.424C94.3147 26.424 93.5307 27.144 93.5307 28.68V33H91.0347V28.456C91.0347 27.064 90.4427 26.424 89.4027 26.424C88.2987 26.424 87.5147 27.144 87.5147 28.68V33H85.0187V24.392H87.4027V25.384C88.0427 24.648 89.0027 24.264 90.1067 24.264C91.3067 24.264 92.3307 24.728 92.9387 25.672C93.6267 24.792 94.7467 24.264 96.0427 24.264ZM105.272 24.264C107.896 24.264 109.416 25.48 109.416 28.088V33H107.08V31.928C106.616 32.712 105.72 33.128 104.456 33.128C102.44 33.128 101.24 32.008 101.24 30.52C101.24 29 102.312 27.944 104.936 27.944H106.92C106.92 26.872 106.28 26.248 104.936 26.248C104.024 26.248 103.08 26.552 102.456 27.048L101.56 25.304C102.504 24.632 103.896 24.264 105.272 24.264ZM105.08 31.448C105.912 31.448 106.632 31.064 106.92 30.28V29.4H105.208C104.04 29.4 103.672 29.832 103.672 30.408C103.672 31.032 104.2 31.448 105.08 31.448ZM116.907 24.264C118.939 24.264 120.475 25.448 120.475 28.072V33H117.979V28.456C117.979 27.064 117.339 26.424 116.235 26.424C115.035 26.424 114.171 27.16 114.171 28.744V33H111.675V24.392H114.059V25.4C114.731 24.664 115.739 24.264 116.907 24.264ZM129.103 21.128H131.599V33H129.215V32.008C128.591 32.76 127.679 33.128 126.527 33.128C124.095 33.128 122.223 31.4 122.223 28.696C122.223 25.992 124.095 24.264 126.527 24.264C127.583 24.264 128.479 24.6 129.103 25.304V21.128ZM126.959 31.08C128.191 31.08 129.151 30.184 129.151 28.696C129.151 27.208 128.191 26.312 126.959 26.312C125.711 26.312 124.751 27.208 124.751 28.696C124.751 30.184 125.711 31.08 126.959 31.08ZM142.341 28.728C142.341 28.92 142.309 29.192 142.293 29.4H135.781C136.021 30.472 136.933 31.128 138.245 31.128C139.157 31.128 139.813 30.856 140.405 30.296L141.733 31.736C140.933 32.648 139.733 33.128 138.181 33.128C135.205 33.128 133.269 31.256 133.269 28.696C133.269 26.12 135.237 24.264 137.861 24.264C140.389 24.264 142.341 25.96 142.341 28.728ZM137.877 26.152C136.741 26.152 135.925 26.84 135.749 27.944H139.989C139.813 26.856 138.997 26.152 137.877 26.152ZM146.387 25.528C146.995 24.696 148.019 24.264 149.347 24.264V26.568C149.139 26.552 148.979 26.536 148.787 26.536C147.411 26.536 146.499 27.288 146.499 28.936V33H144.003V24.392H146.387V25.528ZM158.897 24.264C161.521 24.264 163.041 25.48 163.041 28.088V33H160.705V31.928C160.241 32.712 159.345 33.128 158.081 33.128C156.065 33.128 154.865 32.008 154.865 30.52C154.865 29 155.937 27.944 158.561 27.944H160.545C160.545 26.872 159.905 26.248 158.561 26.248C157.649 26.248 156.705 26.552 156.081 27.048L155.185 25.304C156.129 24.632 157.521 24.264 158.897 24.264ZM158.705 31.448C159.537 31.448 160.257 31.064 160.545 30.28V29.4H158.833C157.665 29.4 157.297 29.832 157.297 30.408C157.297 31.032 157.825 31.448 158.705 31.448ZM170.388 24.264C172.804 24.264 174.676 25.992 174.676 28.696C174.676 31.4 172.804 33.128 170.388 33.128C169.316 33.128 168.436 32.792 167.796 32.088V36.104H165.3V24.392H167.684V25.384C168.308 24.632 169.236 24.264 170.388 24.264ZM169.956 31.08C171.204 31.08 172.148 30.184 172.148 28.696C172.148 27.208 171.204 26.312 169.956 26.312C168.708 26.312 167.764 27.208 167.764 28.696C167.764 30.184 168.708 31.08 169.956 31.08ZM181.435 24.264C183.851 24.264 185.723 25.992 185.723 28.696C185.723 31.4 183.851 33.128 181.435 33.128C180.363 33.128 179.483 32.792 178.843 32.088V36.104H176.347V24.392H178.731V25.384C179.355 24.632 180.283 24.264 181.435 24.264ZM181.003 31.08C182.251 31.08 183.195 30.184 183.195 28.696C183.195 27.208 182.251 26.312 181.003 26.312C179.755 26.312 178.811 27.208 178.811 28.696C178.811 30.184 179.755 31.08 181.003 31.08ZM189.778 25.528C190.386 24.696 191.41 24.264 192.738 24.264V26.568C192.53 26.552 192.37 26.536 192.178 26.536C190.802 26.536 189.89 27.288 189.89 28.936V33H187.394V24.392H189.778V25.528ZM198.24 33.128C195.504 33.128 193.504 31.288 193.504 28.696C193.504 26.104 195.504 24.264 198.24 24.264C200.976 24.264 202.96 26.104 202.96 28.696C202.96 31.288 200.976 33.128 198.24 33.128ZM198.24 31.08C199.488 31.08 200.432 30.184 200.432 28.696C200.432 27.208 199.488 26.312 198.24 26.312C196.992 26.312 196.032 27.208 196.032 28.696C196.032 30.184 196.992 31.08 198.24 31.08ZM209.716 24.264C212.132 24.264 214.004 25.992 214.004 28.696C214.004 31.4 212.132 33.128 209.716 33.128C208.564 33.128 207.636 32.76 207.012 32.008V33H204.628V21.128H207.124V25.304C207.764 24.6 208.644 24.264 209.716 24.264ZM209.284 31.08C210.532 31.08 211.476 30.184 211.476 28.696C211.476 27.208 210.532 26.312 209.284 26.312C208.036 26.312 207.092 27.208 207.092 28.696C207.092 30.184 208.036 31.08 209.284 31.08ZM219.006 24.264C221.63 24.264 223.15 25.48 223.15 28.088V33H220.814V31.928C220.35 32.712 219.454 33.128 218.19 33.128C216.174 33.128 214.974 32.008 214.974 30.52C214.974 29 216.046 27.944 218.67 27.944H220.654C220.654 26.872 220.014 26.248 218.67 26.248C217.758 26.248 216.814 26.552 216.19 27.048L215.294 25.304C216.238 24.632 217.63 24.264 219.006 24.264ZM218.814 31.448C219.646 31.448 220.366 31.064 220.654 30.28V29.4H218.942C217.774 29.4 217.406 29.832 217.406 30.408C217.406 31.032 217.934 31.448 218.814 31.448ZM230.289 30.824L230.961 32.584C230.449 32.952 229.697 33.128 228.929 33.128C226.897 33.128 225.713 32.088 225.713 30.04V26.504H224.385V24.584H225.713V22.488H228.209V24.584H230.353V26.504H228.209V30.008C228.209 30.744 228.609 31.144 229.281 31.144C229.649 31.144 230.017 31.032 230.289 30.824ZM233.61 23.192C232.682 23.192 232.058 22.584 232.058 21.8C232.058 21.016 232.682 20.408 233.61 20.408C234.538 20.408 235.162 20.984 235.162 21.752C235.162 22.584 234.538 23.192 233.61 23.192ZM232.362 33V24.392H234.858V33H232.362ZM241.271 33.128C238.535 33.128 236.535 31.288 236.535 28.696C236.535 26.104 238.535 24.264 241.271 24.264C244.007 24.264 245.991 26.104 245.991 28.696C245.991 31.288 244.007 33.128 241.271 33.128ZM241.271 31.08C242.519 31.08 243.463 30.184 243.463 28.696C243.463 27.208 242.519 26.312 241.271 26.312C240.023 26.312 239.063 27.208 239.063 28.696C239.063 30.184 240.023 31.08 241.271 31.08ZM252.891 24.264C254.923 24.264 256.459 25.448 256.459 28.072V33H253.963V28.456C253.963 27.064 253.323 26.424 252.219 26.424C251.019 26.424 250.155 27.16 250.155 28.744V33H247.659V24.392H250.043V25.4C250.715 24.664 251.723 24.264 252.891 24.264ZM267.413 33.128C264.613 33.128 262.613 31.288 262.613 28.696C262.613 26.104 264.613 24.264 267.413 24.264C269.221 24.264 270.645 25.048 271.269 26.456L269.333 27.496C268.869 26.68 268.181 26.312 267.397 26.312C266.133 26.312 265.141 27.192 265.141 28.696C265.141 30.2 266.133 31.08 267.397 31.08C268.181 31.08 268.869 30.728 269.333 29.896L271.269 30.952C270.645 32.328 269.221 33.128 267.413 33.128ZM272.644 33V21.128H275.14V33H272.644ZM278.704 23.192C277.776 23.192 277.152 22.584 277.152 21.8C277.152 21.016 277.776 20.408 278.704 20.408C279.632 20.408 280.256 20.984 280.256 21.752C280.256 22.584 279.632 23.192 278.704 23.192ZM277.456 33V24.392H279.952V33H277.456ZM290.701 28.728C290.701 28.92 290.669 29.192 290.653 29.4H284.141C284.381 30.472 285.293 31.128 286.605 31.128C287.517 31.128 288.173 30.856 288.765 30.296L290.093 31.736C289.293 32.648 288.093 33.128 286.541 33.128C283.565 33.128 281.629 31.256 281.629 28.696C281.629 26.12 283.597 24.264 286.221 24.264C288.749 24.264 290.701 25.96 290.701 28.728ZM286.237 26.152C285.101 26.152 284.285 26.84 284.109 27.944H288.349C288.173 26.856 287.357 26.152 286.237 26.152ZM297.594 24.264C299.626 24.264 301.162 25.448 301.162 28.072V33H298.666V28.456C298.666 27.064 298.026 26.424 296.922 26.424C295.722 26.424 294.858 27.16 294.858 28.744V33H292.362V24.392H294.746V25.4C295.418 24.664 296.426 24.264 297.594 24.264ZM308.305 30.824L308.977 32.584C308.465 32.952 307.713 33.128 306.945 33.128C304.913 33.128 303.729 32.088 303.729 30.04V26.504H302.401V24.584H303.729V22.488H306.225V24.584H308.369V26.504H306.225V30.008C306.225 30.744 306.625 31.144 307.297 31.144C307.665 31.144 308.033 31.032 308.305 30.824Z" fill="black"/>
<rect x="321.554" y="16" width="94" height="22" rx="11" fill="#FF3737"/>
<path d="M343.535 31V24H344.535V31H343.535ZM353.121 25.65C353.547 25.65 353.924 25.7333 354.251 25.9C354.577 26.0667 354.831 26.32 355.011 26.66C355.197 27 355.291 27.43 355.291 27.95V31H354.331V28.06C354.331 27.5467 354.211 27.16 353.971 26.9C353.731 26.64 353.394 26.51 352.961 26.51C352.641 26.51 352.361 26.5767 352.121 26.71C351.881 26.8433 351.694 27.04 351.561 27.3C351.434 27.56 351.371 27.8833 351.371 28.27V31H350.411V28.06C350.411 27.5467 350.291 27.16 350.051 26.9C349.817 26.64 349.481 26.51 349.041 26.51C348.727 26.51 348.451 26.5767 348.211 26.71C347.971 26.8433 347.784 27.04 347.651 27.3C347.517 27.56 347.451 27.8833 347.451 28.27V31H346.491V25.7H347.411V27.11L347.261 26.75C347.427 26.4033 347.684 26.1333 348.031 25.94C348.377 25.7467 348.781 25.65 349.241 25.65C349.747 25.65 350.184 25.7767 350.551 26.03C350.917 26.2767 351.157 26.6533 351.271 27.16L350.881 27C351.041 26.5933 351.321 26.2667 351.721 26.02C352.121 25.7733 352.587 25.65 353.121 25.65ZM359.867 31.06C359.427 31.06 359.024 30.96 358.657 30.76C358.297 30.5533 358.007 30.25 357.787 29.85C357.574 29.45 357.467 28.95 357.467 28.35C357.467 27.75 357.57 27.25 357.777 26.85C357.99 26.45 358.277 26.15 358.637 25.95C359.004 25.75 359.414 25.65 359.867 25.65C360.387 25.65 360.847 25.7633 361.247 25.99C361.647 26.2167 361.964 26.5333 362.197 26.94C362.43 27.34 362.547 27.81 362.547 28.35C362.547 28.89 362.43 29.3633 362.197 29.77C361.964 30.1767 361.647 30.4933 361.247 30.72C360.847 30.9467 360.387 31.06 359.867 31.06ZM357.057 32.94V25.7H357.977V27.13L357.917 28.36L358.017 29.59V32.94H357.057ZM359.787 30.22C360.127 30.22 360.43 30.1433 360.697 29.99C360.97 29.8367 361.184 29.62 361.337 29.34C361.497 29.0533 361.577 28.7233 361.577 28.35C361.577 27.97 361.497 27.6433 361.337 27.37C361.184 27.09 360.97 26.8733 360.697 26.72C360.43 26.5667 360.127 26.49 359.787 26.49C359.454 26.49 359.15 26.5667 358.877 26.72C358.61 26.8733 358.397 27.09 358.237 27.37C358.084 27.6433 358.007 27.97 358.007 28.35C358.007 28.7233 358.084 29.0533 358.237 29.34C358.397 29.62 358.61 29.8367 358.877 29.99C359.15 30.1433 359.454 30.22 359.787 30.22ZM366.143 31.06C365.61 31.06 365.137 30.9433 364.723 30.71C364.31 30.4767 363.983 30.1567 363.743 29.75C363.503 29.3367 363.383 28.87 363.383 28.35C363.383 27.8233 363.503 27.3567 363.743 26.95C363.983 26.5433 364.31 26.2267 364.723 26C365.137 25.7667 365.61 25.65 366.143 25.65C366.67 25.65 367.14 25.7667 367.553 26C367.973 26.2267 368.3 26.5433 368.533 26.95C368.773 27.35 368.893 27.8167 368.893 28.35C368.893 28.8767 368.773 29.3433 368.533 29.75C368.3 30.1567 367.973 30.4767 367.553 30.71C367.14 30.9433 366.67 31.06 366.143 31.06ZM366.143 30.22C366.483 30.22 366.787 30.1433 367.053 29.99C367.327 29.8367 367.54 29.62 367.693 29.34C367.847 29.0533 367.923 28.7233 367.923 28.35C367.923 27.97 367.847 27.6433 367.693 27.37C367.54 27.09 367.327 26.8733 367.053 26.72C366.787 26.5667 366.483 26.49 366.143 26.49C365.803 26.49 365.5 26.5667 365.233 26.72C364.967 26.8733 364.753 27.09 364.593 27.37C364.433 27.6433 364.353 27.97 364.353 28.35C364.353 28.7233 364.433 29.0533 364.593 29.34C364.753 29.62 364.967 29.8367 365.233 29.99C365.5 30.1433 365.803 30.22 366.143 30.22ZM370.221 31V25.7H371.141V27.14L371.051 26.78C371.198 26.4133 371.444 26.1333 371.791 25.94C372.138 25.7467 372.564 25.65 373.071 25.65V26.58C373.031 26.5733 372.991 26.57 372.951 26.57C372.918 26.57 372.884 26.57 372.851 26.57C372.338 26.57 371.931 26.7233 371.631 27.03C371.331 27.3367 371.181 27.78 371.181 28.36V31H370.221ZM376.289 31.06C375.756 31.06 375.342 30.9167 375.049 30.63C374.756 30.3433 374.609 29.9333 374.609 29.4V24.54H375.569V29.36C375.569 29.6467 375.639 29.8667 375.779 30.02C375.926 30.1733 376.132 30.25 376.399 30.25C376.699 30.25 376.949 30.1667 377.149 30L377.449 30.69C377.302 30.8167 377.126 30.91 376.919 30.97C376.719 31.03 376.509 31.06 376.289 31.06ZM373.709 26.49V25.7H377.089V26.49H373.709ZM381.9 31V29.88L381.85 29.67V27.76C381.85 27.3533 381.73 27.04 381.49 26.82C381.256 26.5933 380.903 26.48 380.43 26.48C380.116 26.48 379.81 26.5333 379.51 26.64C379.21 26.74 378.956 26.8767 378.75 27.05L378.35 26.33C378.623 26.11 378.95 25.9433 379.33 25.83C379.716 25.71 380.12 25.65 380.54 25.65C381.266 25.65 381.826 25.8267 382.22 26.18C382.613 26.5333 382.81 27.0733 382.81 27.8V31H381.9ZM380.16 31.06C379.766 31.06 379.42 30.9933 379.12 30.86C378.826 30.7267 378.6 30.5433 378.44 30.31C378.28 30.07 378.2 29.8 378.2 29.5C378.2 29.2133 378.266 28.9533 378.4 28.72C378.54 28.4867 378.763 28.3 379.07 28.16C379.383 28.02 379.803 27.95 380.33 27.95H382.01V28.64H380.37C379.89 28.64 379.566 28.72 379.4 28.88C379.233 29.04 379.15 29.2333 379.15 29.46C379.15 29.72 379.253 29.93 379.46 30.09C379.666 30.2433 379.953 30.32 380.32 30.32C380.68 30.32 380.993 30.24 381.26 30.08C381.533 29.92 381.73 29.6867 381.85 29.38L382.04 30.04C381.913 30.3533 381.69 30.6033 381.37 30.79C381.05 30.97 380.646 31.06 380.16 31.06ZM387.416 25.65C387.85 25.65 388.23 25.7333 388.556 25.9C388.89 26.0667 389.15 26.32 389.336 26.66C389.523 27 389.616 27.43 389.616 27.95V31H388.656V28.06C388.656 27.5467 388.53 27.16 388.276 26.9C388.03 26.64 387.68 26.51 387.226 26.51C386.886 26.51 386.59 26.5767 386.336 26.71C386.083 26.8433 385.886 27.04 385.746 27.3C385.613 27.56 385.546 27.8833 385.546 28.27V31H384.586V25.7H385.506V27.13L385.356 26.75C385.53 26.4033 385.796 26.1333 386.156 25.94C386.516 25.7467 386.936 25.65 387.416 25.65ZM393.213 31.06C392.68 31.06 392.266 30.9167 391.973 30.63C391.68 30.3433 391.533 29.9333 391.533 29.4V24.54H392.493V29.36C392.493 29.6467 392.563 29.8667 392.703 30.02C392.85 30.1733 393.056 30.25 393.323 30.25C393.623 30.25 393.873 30.1667 394.073 30L394.373 30.69C394.226 30.8167 394.05 30.91 393.843 30.97C393.643 31.03 393.433 31.06 393.213 31.06ZM390.633 26.49V25.7H394.013V26.49H390.633Z" fill="white"/>
</g>
<path d="M31.25 69V63.276H29.036V62.7H34.13V63.276H31.916V69H31.25ZM38.0994 64.266H38.7294L36.3624 69.567C35.9664 70.494 35.4624 70.791 34.7874 70.791C34.3464 70.791 33.9234 70.647 33.6354 70.359L33.9324 69.882C34.1664 70.116 34.4544 70.242 34.7964 70.242C35.2194 70.242 35.5074 70.044 35.7774 69.45L35.9844 68.991L33.8694 64.266H34.5354L36.3174 68.289L38.0994 64.266ZM42.0683 64.23C43.4183 64.23 44.4263 65.202 44.4263 66.633C44.4263 68.073 43.4183 69.045 42.0683 69.045C41.3123 69.045 40.6643 68.721 40.2683 68.109V70.746H39.6293V64.266H40.2413V65.202C40.6283 64.572 41.2853 64.23 42.0683 64.23ZM42.0233 68.478C43.0223 68.478 43.7873 67.74 43.7873 66.633C43.7873 65.535 43.0223 64.788 42.0233 64.788C41.0153 64.788 40.2593 65.535 40.2593 66.633C40.2593 67.74 41.0153 68.478 42.0233 68.478ZM49.8599 66.633C49.8599 66.687 49.8509 66.759 49.8509 66.831H45.8909C45.9629 67.821 46.7189 68.478 47.7539 68.478C48.3299 68.478 48.8429 68.271 49.2029 67.857L49.5629 68.271C49.1399 68.775 48.4829 69.045 47.7359 69.045C46.2599 69.045 45.2519 68.037 45.2519 66.633C45.2519 65.229 46.2329 64.23 47.5649 64.23C48.8969 64.23 49.8599 65.211 49.8599 66.633ZM47.5649 64.779C46.6469 64.779 45.9719 65.427 45.8909 66.354H49.2479C49.1669 65.427 48.4919 64.779 47.5649 64.779Z" fill="#929292"/>
<path d="M149.656 66.0029L149.647 65.3306H151.115C151.479 65.3306 151.771 65.2397 151.994 65.0581C152.217 64.8765 152.328 64.623 152.328 64.2979C152.328 63.9463 152.226 63.6914 152.021 63.5332C151.818 63.3721 151.509 63.2915 151.093 63.2915H149.845V69H148.993V62.6016H151.093C151.747 62.6016 152.258 62.7378 152.627 63.0103C152.996 63.2798 153.181 63.7119 153.181 64.3066C153.181 64.5703 153.113 64.8091 152.979 65.0229C152.844 65.2339 152.655 65.4067 152.412 65.5415C152.171 65.6763 151.892 65.7627 151.572 65.8008L151.273 66.0029H149.656ZM149.318 69L149.806 68.3145H151.234C151.635 68.3145 151.946 68.2104 152.166 68.0024C152.385 67.7944 152.495 67.5146 152.495 67.1631C152.495 66.9258 152.453 66.7207 152.368 66.5479C152.283 66.3721 152.151 66.2373 151.972 66.1436C151.793 66.0498 151.561 66.0029 151.273 66.0029H150.065L150.074 65.3306H151.726L151.906 65.5767C152.214 65.603 152.475 65.6895 152.688 65.8359C152.902 65.9824 153.065 66.1699 153.176 66.3984C153.291 66.627 153.348 66.8789 153.348 67.1543C153.348 67.7549 153.154 68.2134 152.768 68.5298C152.384 68.8433 151.873 69 151.234 69H149.318ZM157.276 65.7393C157.276 65.4551 157.191 65.2295 157.021 65.0625C156.854 64.8926 156.607 64.8076 156.279 64.8076C156.077 64.8076 155.898 64.8428 155.743 64.9131C155.59 64.9834 155.472 65.0757 155.387 65.1899C155.302 65.3042 155.259 65.4287 155.259 65.5635H154.438C154.438 65.335 154.515 65.1138 154.67 64.8999C154.826 64.6831 155.044 64.5059 155.325 64.3682C155.609 64.2275 155.943 64.1572 156.327 64.1572C156.673 64.1572 156.979 64.2158 157.246 64.333C157.512 64.4502 157.72 64.6274 157.87 64.8647C158.022 65.0991 158.098 65.3936 158.098 65.748V67.9629C158.098 68.1211 158.111 68.2896 158.138 68.4683C158.167 68.647 158.209 68.8008 158.265 68.9297V69H157.408C157.367 68.9062 157.335 68.7817 157.312 68.6265C157.288 68.4683 157.276 68.3218 157.276 68.187V65.7393ZM157.426 66.6885H156.608C156.146 66.6885 155.788 66.7617 155.536 66.9082C155.284 67.0547 155.158 67.2744 155.158 67.5674C155.158 67.7959 155.234 67.9893 155.387 68.1475C155.542 68.3057 155.768 68.3848 156.063 68.3848C156.312 68.3848 156.532 68.332 156.723 68.2266C156.913 68.1211 157.064 67.9907 157.175 67.8354C157.287 67.6802 157.347 67.5308 157.355 67.3872L157.707 67.7783C157.687 67.9014 157.631 68.0376 157.54 68.187C157.449 68.3364 157.328 68.48 157.175 68.6177C157.026 68.7524 156.847 68.8652 156.639 68.9561C156.434 69.0439 156.203 69.0879 155.945 69.0879C155.623 69.0879 155.34 69.0264 155.097 68.9033C154.856 68.7773 154.669 68.6074 154.534 68.3936C154.402 68.1797 154.336 67.9424 154.336 67.6816C154.336 67.1689 154.53 66.7808 154.917 66.5171C155.303 66.2505 155.823 66.1172 156.477 66.1172H157.417L157.426 66.6885ZM160.269 69H159.447V62.25H160.269V69ZM162.458 69H161.636V64.2451H162.458V69ZM161.574 62.9795C161.574 62.8506 161.614 62.7407 161.693 62.6499C161.775 62.5591 161.895 62.5137 162.053 62.5137C162.211 62.5137 162.332 62.5591 162.414 62.6499C162.499 62.7407 162.541 62.8506 162.541 62.9795C162.541 63.1055 162.499 63.2139 162.414 63.3047C162.332 63.3926 162.211 63.4365 162.053 63.4365C161.895 63.4365 161.775 63.3926 161.693 63.3047C161.614 63.2139 161.574 63.1055 161.574 62.9795ZM166.522 67.7388C166.522 67.6216 166.496 67.5132 166.443 67.4136C166.394 67.311 166.291 67.2188 166.136 67.1367C165.98 67.0518 165.746 66.9771 165.433 66.9126C165.081 66.8394 164.776 66.7471 164.519 66.6357C164.264 66.5215 164.066 66.3765 163.925 66.2007C163.788 66.0249 163.719 65.8066 163.719 65.5459C163.719 65.2939 163.791 65.064 163.934 64.856C164.081 64.645 164.286 64.4766 164.549 64.3506C164.816 64.2217 165.126 64.1572 165.481 64.1572C165.862 64.1572 166.187 64.2246 166.457 64.3594C166.729 64.4912 166.937 64.6699 167.081 64.8955C167.224 65.1182 167.296 65.3657 167.296 65.6382H166.474C166.474 65.4419 166.388 65.2559 166.215 65.0801C166.045 64.9043 165.8 64.8164 165.481 64.8164C165.258 64.8164 165.077 64.8516 164.936 64.9219C164.798 64.9893 164.697 65.0771 164.633 65.1855C164.571 65.291 164.541 65.4023 164.541 65.5195C164.541 65.6367 164.57 65.7393 164.628 65.8271C164.687 65.9121 164.794 65.9883 164.949 66.0557C165.107 66.123 165.336 66.1904 165.635 66.2578C166.024 66.3457 166.345 66.4512 166.597 66.5742C166.849 66.6973 167.037 66.8481 167.16 67.0269C167.283 67.2056 167.344 67.4238 167.344 67.6816C167.344 67.957 167.268 68.2017 167.116 68.4155C166.963 68.6265 166.75 68.792 166.474 68.9121C166.199 69.0293 165.875 69.0879 165.503 69.0879C165.084 69.0879 164.729 69.0132 164.439 68.8638C164.149 68.7144 163.93 68.5225 163.78 68.2881C163.631 68.0508 163.556 67.8003 163.556 67.5366H164.378C164.393 67.7593 164.457 67.9365 164.571 68.0684C164.688 68.1973 164.831 68.2896 164.998 68.3452C165.167 68.4009 165.336 68.4287 165.503 68.4287C165.726 68.4287 165.912 68.3994 166.061 68.3408C166.213 68.2793 166.328 68.1973 166.404 68.0947C166.483 67.9893 166.522 67.8706 166.522 67.7388ZM170.381 69.0879C169.938 69.0879 169.553 68.9897 169.225 68.7935C168.9 68.5942 168.646 68.3218 168.465 67.9761C168.286 67.6304 168.197 67.2349 168.197 66.7896V66.6006C168.197 66.085 168.295 65.6455 168.491 65.2822C168.69 64.916 168.948 64.6377 169.265 64.4473C169.584 64.2539 169.921 64.1572 170.275 64.1572C170.732 64.1572 171.104 64.2598 171.392 64.4648C171.682 64.667 171.894 64.9438 172.029 65.2954C172.167 65.644 172.235 66.0396 172.235 66.4819V66.8467H168.685V66.1875H171.414V66.126C171.402 65.915 171.359 65.71 171.286 65.5107C171.213 65.3086 171.096 65.1431 170.935 65.0142C170.773 64.8823 170.554 64.8164 170.275 64.8164C170.029 64.8164 169.811 64.8867 169.621 65.0273C169.433 65.165 169.285 65.3672 169.177 65.6338C169.071 65.8975 169.019 66.2197 169.019 66.6006V66.7896C169.019 67.0913 169.074 67.3667 169.186 67.6157C169.297 67.8618 169.458 68.0596 169.669 68.209C169.88 68.3555 170.132 68.4287 170.425 68.4287C170.712 68.4287 170.955 68.3701 171.154 68.2529C171.354 68.1357 171.528 67.979 171.677 67.7827L172.174 68.1694C172.021 68.4038 171.802 68.6162 171.515 68.8066C171.23 68.9941 170.853 69.0879 170.381 69.0879Z" fill="#929292"/>
<path d="M272.308 69H268.928V68.3145H272.308V69ZM269.095 69H268.243V62.6016H269.095V69ZM271.859 66.0381H268.928V65.3525H271.859V66.0381ZM272.264 63.2915H268.928V62.6016H272.264V63.2915ZM270.664 60.835H271.653L270.471 62.1226H269.812L270.664 60.835ZM275.138 68.4287C275.331 68.4287 275.51 68.3892 275.674 68.3101C275.838 68.228 275.973 68.1167 276.078 67.9761C276.184 67.8354 276.244 67.6758 276.258 67.4971H277.036C277.021 67.7783 276.926 68.0405 276.75 68.2837C276.575 68.5239 276.346 68.7188 276.065 68.8682C275.784 69.0146 275.475 69.0879 275.138 69.0879C274.66 69.0879 274.265 68.9795 273.951 68.7627C273.638 68.543 273.403 68.2529 273.248 67.8926C273.096 67.5322 273.02 67.1396 273.02 66.7148V66.5303C273.02 66.1025 273.097 65.71 273.252 65.3525C273.408 64.9922 273.642 64.7036 273.956 64.4868C274.269 64.2671 274.663 64.1572 275.138 64.1572C275.51 64.1572 275.835 64.2334 276.113 64.3857C276.395 64.5352 276.614 64.7402 276.772 65.001C276.934 65.2588 277.021 65.5518 277.036 65.8799H276.258C276.244 65.6836 276.188 65.5049 276.091 65.3438C275.998 65.1826 275.869 65.0552 275.705 64.9614C275.543 64.8647 275.354 64.8164 275.138 64.8164C274.807 64.8164 274.546 64.9014 274.355 65.0713C274.168 65.2412 274.035 65.458 273.956 65.7217C273.879 65.9824 273.841 66.252 273.841 66.5303V66.7148C273.841 66.9932 273.879 67.2642 273.956 67.5278C274.032 67.7915 274.164 68.0083 274.351 68.1782C274.542 68.3452 274.804 68.4287 275.138 68.4287ZM278.772 69H277.95V62.25H278.772V69ZM278.236 66.4248C278.242 65.9912 278.325 65.6045 278.486 65.2646C278.647 64.9219 278.872 64.6523 279.159 64.4561C279.449 64.2568 279.786 64.1572 280.169 64.1572C280.483 64.1572 280.752 64.2158 280.978 64.333C281.207 64.4473 281.382 64.6304 281.505 64.8823C281.631 65.1343 281.694 65.4683 281.694 65.8843V69H280.873V65.8755C280.873 65.6265 280.836 65.4258 280.763 65.2734C280.692 65.1211 280.587 65.0112 280.446 64.9438C280.306 64.8735 280.133 64.8384 279.928 64.8384C279.726 64.8384 279.542 64.8809 279.378 64.9658C279.214 65.0508 279.072 65.168 278.952 65.3174C278.832 65.4668 278.74 65.6382 278.675 65.8315C278.611 66.022 278.579 66.2241 278.579 66.438L278.236 66.4248ZM284.885 69.0879C284.442 69.0879 284.057 68.9897 283.729 68.7935C283.404 68.5942 283.15 68.3218 282.969 67.9761C282.79 67.6304 282.701 67.2349 282.701 66.7896V66.6006C282.701 66.085 282.799 65.6455 282.995 65.2822C283.194 64.916 283.452 64.6377 283.769 64.4473C284.088 64.2539 284.425 64.1572 284.779 64.1572C285.236 64.1572 285.608 64.2598 285.896 64.4648C286.186 64.667 286.398 64.9438 286.533 65.2954C286.67 65.644 286.739 66.0396 286.739 66.4819V66.8467H283.188V66.1875H285.917V66.126C285.906 65.915 285.863 65.71 285.79 65.5107C285.717 65.3086 285.6 65.1431 285.438 65.0142C285.277 64.8823 285.058 64.8164 284.779 64.8164C284.533 64.8164 284.315 64.8867 284.125 65.0273C283.937 65.165 283.789 65.3672 283.681 65.6338C283.575 65.8975 283.522 66.2197 283.522 66.6006V66.7896C283.522 67.0913 283.578 67.3667 283.689 67.6157C283.801 67.8618 283.962 68.0596 284.173 68.209C284.384 68.3555 284.636 68.4287 284.929 68.4287C285.216 68.4287 285.459 68.3701 285.658 68.2529C285.857 68.1357 286.032 67.979 286.181 67.7827L286.678 68.1694C286.525 68.4038 286.306 68.6162 286.019 68.8066C285.734 68.9941 285.356 69.0879 284.885 69.0879ZM285.219 62.25H286.208L285.025 63.5376H284.366L285.219 62.25ZM290.492 65.7393C290.492 65.4551 290.407 65.2295 290.237 65.0625C290.07 64.8926 289.823 64.8076 289.495 64.8076C289.292 64.8076 289.114 64.8428 288.958 64.9131C288.806 64.9834 288.688 65.0757 288.603 65.1899C288.518 65.3042 288.475 65.4287 288.475 65.5635H287.653C287.653 65.335 287.731 65.1138 287.886 64.8999C288.042 64.6831 288.26 64.5059 288.541 64.3682C288.825 64.2275 289.159 64.1572 289.543 64.1572C289.889 64.1572 290.195 64.2158 290.461 64.333C290.728 64.4502 290.936 64.6274 291.085 64.8647C291.238 65.0991 291.314 65.3936 291.314 65.748V67.9629C291.314 68.1211 291.327 68.2896 291.354 68.4683C291.383 68.647 291.425 68.8008 291.481 68.9297V69H290.624C290.583 68.9062 290.551 68.7817 290.527 68.6265C290.504 68.4683 290.492 68.3218 290.492 68.187V65.7393ZM290.642 66.6885H289.824C289.361 66.6885 289.004 66.7617 288.752 66.9082C288.5 67.0547 288.374 67.2744 288.374 67.5674C288.374 67.7959 288.45 67.9893 288.603 68.1475C288.758 68.3057 288.983 68.3848 289.279 68.3848C289.528 68.3848 289.748 68.332 289.938 68.2266C290.129 68.1211 290.28 67.9907 290.391 67.8354C290.502 67.6802 290.562 67.5308 290.571 67.3872L290.923 67.7783C290.902 67.9014 290.847 68.0376 290.756 68.187C290.665 68.3364 290.543 68.48 290.391 68.6177C290.242 68.7524 290.063 68.8652 289.855 68.9561C289.65 69.0439 289.418 69.0879 289.161 69.0879C288.838 69.0879 288.556 69.0264 288.312 68.9033C288.072 68.7773 287.885 68.6074 287.75 68.3936C287.618 68.1797 287.552 67.9424 287.552 67.6816C287.552 67.1689 287.746 66.7808 288.132 66.5171C288.519 66.2505 289.039 66.1172 289.692 66.1172H290.633L290.642 66.6885ZM293.415 69H292.593V64.2451H293.371L293.415 65.2603V69ZM292.878 66.4248C292.884 65.9912 292.968 65.6045 293.129 65.2646C293.29 64.9219 293.514 64.6523 293.801 64.4561C294.091 64.2568 294.428 64.1572 294.812 64.1572C295.125 64.1572 295.395 64.2158 295.621 64.333C295.849 64.4473 296.025 64.6304 296.148 64.8823C296.274 65.1343 296.337 65.4683 296.337 65.8843V69H295.515V65.8755C295.515 65.6265 295.479 65.4258 295.405 65.2734C295.335 65.1211 295.229 65.0112 295.089 64.9438C294.948 64.8735 294.775 64.8384 294.57 64.8384C294.368 64.8384 294.185 64.8809 294.021 64.9658C293.857 65.0508 293.715 65.168 293.595 65.3174C293.475 65.4668 293.382 65.6382 293.318 65.8315C293.253 66.022 293.221 66.2241 293.221 66.438L292.878 66.4248ZM299.475 68.4287C299.668 68.4287 299.847 68.3892 300.011 68.3101C300.175 68.228 300.31 68.1167 300.415 67.9761C300.521 67.8354 300.581 67.6758 300.595 67.4971H301.373C301.358 67.7783 301.263 68.0405 301.087 68.2837C300.912 68.5239 300.683 68.7188 300.402 68.8682C300.121 69.0146 299.812 69.0879 299.475 69.0879C298.997 69.0879 298.602 68.9795 298.288 68.7627C297.975 68.543 297.74 68.2529 297.585 67.8926C297.433 67.5322 297.356 67.1396 297.356 66.7148V66.5303C297.356 66.1025 297.434 65.71 297.589 65.3525C297.745 64.9922 297.979 64.7036 298.292 64.4868C298.606 64.2671 299 64.1572 299.475 64.1572C299.847 64.1572 300.172 64.2334 300.45 64.3857C300.731 64.5352 300.951 64.7402 301.109 65.001C301.271 65.2588 301.358 65.5518 301.373 65.8799H300.595C300.581 65.6836 300.525 65.5049 300.428 65.3438C300.334 65.1826 300.206 65.0552 300.042 64.9614C299.88 64.8647 299.691 64.8164 299.475 64.8164C299.144 64.8164 298.883 64.9014 298.692 65.0713C298.505 65.2412 298.372 65.458 298.292 65.7217C298.216 65.9824 298.178 66.252 298.178 66.5303V66.7148C298.178 66.9932 298.216 67.2642 298.292 67.5278C298.369 67.7915 298.5 68.0083 298.688 68.1782C298.878 68.3452 299.141 68.4287 299.475 68.4287ZM304.265 69.0879C303.822 69.0879 303.437 68.9897 303.109 68.7935C302.784 68.5942 302.53 68.3218 302.349 67.9761C302.17 67.6304 302.081 67.2349 302.081 66.7896V66.6006C302.081 66.085 302.179 65.6455 302.375 65.2822C302.574 64.916 302.832 64.6377 303.148 64.4473C303.468 64.2539 303.805 64.1572 304.159 64.1572C304.616 64.1572 304.988 64.2598 305.275 64.4648C305.565 64.667 305.778 64.9438 305.913 65.2954C306.05 65.644 306.119 66.0396 306.119 66.4819V66.8467H302.568V66.1875H305.297V66.126C305.286 65.915 305.243 65.71 305.17 65.5107C305.097 65.3086 304.979 65.1431 304.818 65.0142C304.657 64.8823 304.438 64.8164 304.159 64.8164C303.913 64.8164 303.695 64.8867 303.504 65.0273C303.317 65.165 303.169 65.3672 303.061 65.6338C302.955 65.8975 302.902 66.2197 302.902 66.6006V66.7896C302.902 67.0913 302.958 67.3667 303.069 67.6157C303.181 67.8618 303.342 68.0596 303.553 68.209C303.764 68.3555 304.016 68.4287 304.309 68.4287C304.596 68.4287 304.839 68.3701 305.038 68.2529C305.237 68.1357 305.412 67.979 305.561 67.7827L306.058 68.1694C305.905 68.4038 305.686 68.6162 305.398 68.8066C305.114 68.9941 304.736 69.0879 304.265 69.0879Z" fill="#929292"/>
<path d="M388.591 62.6016L390.679 67.8311L392.766 62.6016H393.597L391 69H390.354L387.761 62.6016H388.591ZM388.222 62.6016L388.341 66.4995V69H387.493V62.6016H388.222ZM393.865 62.6016V69H393.017V66.4995L393.135 62.6016H393.865ZM396.124 69H395.302V64.2451H396.124V69ZM395.24 62.9795C395.24 62.8506 395.28 62.7407 395.359 62.6499C395.441 62.5591 395.561 62.5137 395.719 62.5137C395.877 62.5137 395.998 62.5591 396.08 62.6499C396.165 62.7407 396.207 62.8506 396.207 62.9795C396.207 63.1055 396.165 63.2139 396.08 63.3047C395.998 63.3926 395.877 63.4365 395.719 63.4365C395.561 63.4365 395.441 63.3926 395.359 63.3047C395.28 63.2139 395.24 63.1055 395.24 62.9795ZM400.188 67.7388C400.188 67.6216 400.162 67.5132 400.109 67.4136C400.06 67.311 399.957 67.2188 399.802 67.1367C399.646 67.0518 399.412 66.9771 399.099 66.9126C398.747 66.8394 398.442 66.7471 398.185 66.6357C397.93 66.5215 397.732 66.3765 397.591 66.2007C397.454 66.0249 397.385 65.8066 397.385 65.5459C397.385 65.2939 397.457 65.064 397.6 64.856C397.747 64.645 397.952 64.4766 398.215 64.3506C398.482 64.2217 398.792 64.1572 399.147 64.1572C399.528 64.1572 399.853 64.2246 400.123 64.3594C400.395 64.4912 400.603 64.6699 400.747 64.8955C400.89 65.1182 400.962 65.3657 400.962 65.6382H400.14C400.14 65.4419 400.054 65.2559 399.881 65.0801C399.711 64.9043 399.466 64.8164 399.147 64.8164C398.924 64.8164 398.743 64.8516 398.602 64.9219C398.464 64.9893 398.363 65.0771 398.299 65.1855C398.237 65.291 398.207 65.4023 398.207 65.5195C398.207 65.6367 398.236 65.7393 398.294 65.8271C398.353 65.9121 398.46 65.9883 398.615 66.0557C398.773 66.123 399.002 66.1904 399.301 66.2578C399.69 66.3457 400.011 66.4512 400.263 66.5742C400.515 66.6973 400.703 66.8481 400.826 67.0269C400.949 67.2056 401.01 67.4238 401.01 67.6816C401.01 67.957 400.934 68.2017 400.782 68.4155C400.629 68.6265 400.416 68.792 400.14 68.9121C399.865 69.0293 399.541 69.0879 399.169 69.0879C398.75 69.0879 398.396 69.0132 398.105 68.8638C397.815 68.7144 397.596 68.5225 397.446 68.2881C397.297 68.0508 397.222 67.8003 397.222 67.5366H398.044C398.059 67.7593 398.123 67.9365 398.237 68.0684C398.354 68.1973 398.497 68.2896 398.664 68.3452C398.833 68.4009 399.002 68.4287 399.169 68.4287C399.392 68.4287 399.578 68.3994 399.727 68.3408C399.879 68.2793 399.994 68.1973 400.07 68.0947C400.149 67.9893 400.188 67.8706 400.188 67.7388ZM404.047 69.0879C403.604 69.0879 403.219 68.9897 402.891 68.7935C402.566 68.5942 402.312 68.3218 402.131 67.9761C401.952 67.6304 401.863 67.2349 401.863 66.7896V66.6006C401.863 66.085 401.961 65.6455 402.157 65.2822C402.356 64.916 402.614 64.6377 402.931 64.4473C403.25 64.2539 403.587 64.1572 403.941 64.1572C404.398 64.1572 404.771 64.2598 405.058 64.4648C405.348 64.667 405.56 64.9438 405.695 65.2954C405.833 65.644 405.901 66.0396 405.901 66.4819V66.8467H402.351V66.1875H405.08V66.126C405.068 65.915 405.025 65.71 404.952 65.5107C404.879 65.3086 404.762 65.1431 404.601 65.0142C404.439 64.8823 404.22 64.8164 403.941 64.8164C403.695 64.8164 403.477 64.8867 403.287 65.0273C403.099 65.165 402.951 65.3672 402.843 65.6338C402.737 65.8975 402.685 66.2197 402.685 66.6006V66.7896C402.685 67.0913 402.74 67.3667 402.852 67.6157C402.963 67.8618 403.124 68.0596 403.335 68.209C403.546 68.3555 403.798 68.4287 404.091 68.4287C404.378 68.4287 404.621 68.3701 404.82 68.2529C405.02 68.1357 405.194 67.979 405.343 67.7827L405.84 68.1694C405.688 68.4038 405.468 68.6162 405.181 68.8066C404.896 68.9941 404.519 69.0879 404.047 69.0879ZM409.619 67.7388C409.619 67.6216 409.593 67.5132 409.54 67.4136C409.49 67.311 409.388 67.2188 409.232 67.1367C409.077 67.0518 408.843 66.9771 408.529 66.9126C408.178 66.8394 407.873 66.7471 407.615 66.6357C407.36 66.5215 407.163 66.3765 407.022 66.2007C406.884 66.0249 406.815 65.8066 406.815 65.5459C406.815 65.2939 406.887 65.064 407.031 64.856C407.177 64.645 407.382 64.4766 407.646 64.3506C407.913 64.2217 408.223 64.1572 408.578 64.1572C408.958 64.1572 409.284 64.2246 409.553 64.3594C409.826 64.4912 410.034 64.6699 410.177 64.8955C410.321 65.1182 410.393 65.3657 410.393 65.6382H409.571C409.571 65.4419 409.484 65.2559 409.312 65.0801C409.142 64.9043 408.897 64.8164 408.578 64.8164C408.355 64.8164 408.173 64.8516 408.033 64.9219C407.895 64.9893 407.794 65.0771 407.729 65.1855C407.668 65.291 407.637 65.4023 407.637 65.5195C407.637 65.6367 407.667 65.7393 407.725 65.8271C407.784 65.9121 407.891 65.9883 408.046 66.0557C408.204 66.123 408.433 66.1904 408.731 66.2578C409.121 66.3457 409.442 66.4512 409.694 66.5742C409.946 66.6973 410.133 66.8481 410.256 67.0269C410.379 67.2056 410.441 67.4238 410.441 67.6816C410.441 67.957 410.365 68.2017 410.212 68.4155C410.06 68.6265 409.846 68.792 409.571 68.9121C409.295 69.0293 408.972 69.0879 408.6 69.0879C408.181 69.0879 407.826 69.0132 407.536 68.8638C407.246 68.7144 407.026 68.5225 406.877 68.2881C406.728 68.0508 406.653 67.8003 406.653 67.5366H407.475C407.489 67.7593 407.554 67.9365 407.668 68.0684C407.785 68.1973 407.927 68.2896 408.094 68.3452C408.264 68.4009 408.433 68.4287 408.6 68.4287C408.822 68.4287 409.008 68.3994 409.158 68.3408C409.31 68.2793 409.424 68.1973 409.5 68.0947C409.58 67.9893 409.619 67.8706 409.619 67.7388ZM416.536 65.7393C416.536 65.4551 416.451 65.2295 416.281 65.0625C416.114 64.8926 415.867 64.8076 415.539 64.8076C415.336 64.8076 415.158 64.8428 415.002 64.9131C414.85 64.9834 414.731 65.0757 414.646 65.1899C414.562 65.3042 414.519 65.4287 414.519 65.5635H413.697C413.697 65.335 413.775 65.1138 413.93 64.8999C414.085 64.6831 414.304 64.5059 414.585 64.3682C414.869 64.2275 415.203 64.1572 415.587 64.1572C415.933 64.1572 416.239 64.2158 416.505 64.333C416.772 64.4502 416.98 64.6274 417.129 64.8647C417.282 65.0991 417.358 65.3936 417.358 65.748V67.9629C417.358 68.1211 417.371 68.2896 417.397 68.4683C417.427 68.647 417.469 68.8008 417.525 68.9297V69H416.668C416.627 68.9062 416.595 68.7817 416.571 68.6265C416.548 68.4683 416.536 68.3218 416.536 68.187V65.7393ZM416.686 66.6885H415.868C415.405 66.6885 415.048 66.7617 414.796 66.9082C414.544 67.0547 414.418 67.2744 414.418 67.5674C414.418 67.7959 414.494 67.9893 414.646 68.1475C414.802 68.3057 415.027 68.3848 415.323 68.3848C415.572 68.3848 415.792 68.332 415.982 68.2266C416.173 68.1211 416.324 67.9907 416.435 67.8354C416.546 67.6802 416.606 67.5308 416.615 67.3872L416.967 67.7783C416.946 67.9014 416.891 68.0376 416.8 68.187C416.709 68.3364 416.587 68.48 416.435 68.6177C416.286 68.7524 416.107 68.8652 415.899 68.9561C415.694 69.0439 415.462 69.0879 415.205 69.0879C414.882 69.0879 414.6 69.0264 414.356 68.9033C414.116 68.7773 413.929 68.6074 413.794 68.3936C413.662 68.1797 413.596 67.9424 413.596 67.6816C413.596 67.1689 413.79 66.7808 414.176 66.5171C414.563 66.2505 415.083 66.1172 415.736 66.1172H416.677L416.686 66.6885ZM416.066 63.5376H415.363L414.225 62.25H415.218L416.066 63.5376ZM421.717 64.2451V69.5669C421.717 70.0034 421.615 70.3374 421.41 70.5688C421.205 70.8032 420.893 70.9204 420.474 70.9204C420.4 70.9204 420.315 70.9131 420.219 70.8984C420.119 70.8838 420.036 70.8662 419.968 70.8457L419.973 70.1953C420.028 70.207 420.091 70.2158 420.162 70.2217C420.232 70.2305 420.293 70.2349 420.346 70.2349C420.522 70.2349 420.657 70.1836 420.75 70.0811C420.847 69.9814 420.896 69.8101 420.896 69.5669V64.2451H421.717ZM420.812 62.9795C420.812 62.8506 420.852 62.7407 420.931 62.6499C421.013 62.5591 421.133 62.5137 421.291 62.5137C421.449 62.5137 421.569 62.5591 421.651 62.6499C421.736 62.7407 421.779 62.8506 421.779 62.9795C421.779 63.1055 421.736 63.2139 421.651 63.3047C421.569 63.3926 421.449 63.4365 421.291 63.4365C421.133 63.4365 421.013 63.3926 420.931 63.3047C420.852 63.2139 420.812 63.1055 420.812 62.9795ZM422.82 66.5742C422.82 66.1143 422.908 65.7026 423.084 65.3394C423.26 64.9761 423.509 64.689 423.831 64.478C424.153 64.2642 424.536 64.1572 424.978 64.1572C425.426 64.1572 425.813 64.2642 426.138 64.478C426.463 64.689 426.712 64.9761 426.885 65.3394C427.061 65.7026 427.149 66.1143 427.149 66.5742V66.6753C427.149 67.1323 427.061 67.5439 426.885 67.9102C426.712 68.2734 426.463 68.5605 426.138 68.7715C425.816 68.9824 425.432 69.0879 424.987 69.0879C424.542 69.0879 424.156 68.9824 423.831 68.7715C423.509 68.5605 423.26 68.2734 423.084 67.9102C422.908 67.5439 422.82 67.1323 422.82 66.6753V66.5742ZM423.642 66.6753C423.642 66.9888 423.692 67.2788 423.792 67.5454C423.891 67.812 424.039 68.0259 424.235 68.187C424.435 68.3481 424.685 68.4287 424.987 68.4287C425.286 68.4287 425.533 68.3481 425.729 68.187C425.929 68.0259 426.078 67.812 426.178 67.5454C426.277 67.2788 426.327 66.9888 426.327 66.6753V66.5742C426.327 66.2607 426.277 65.9707 426.178 65.7041C426.078 65.4375 425.929 65.2236 425.729 65.0625C425.53 64.8984 425.28 64.8164 424.978 64.8164C424.682 64.8164 424.435 64.8984 424.235 65.0625C424.036 65.2236 423.887 65.4375 423.787 65.7041C423.69 65.9707 423.642 66.2607 423.642 66.5742V66.6753ZM431.082 64.2451H431.904V69H431.122L431.082 67.9014V64.2451ZM431.579 66.8906C431.579 67.3125 431.519 67.689 431.398 68.02C431.278 68.3511 431.082 68.6118 430.81 68.8022C430.537 68.9927 430.172 69.0879 429.715 69.0879C429.25 69.0879 428.873 68.9502 428.586 68.6748C428.299 68.3994 428.155 67.9453 428.155 67.3125V64.2451H428.977V67.3213C428.977 67.6084 429.018 67.8311 429.1 67.9893C429.185 68.1445 429.293 68.2529 429.425 68.3145C429.56 68.373 429.701 68.4023 429.847 68.4023C430.193 68.4023 430.467 68.3364 430.669 68.2046C430.871 68.0698 431.016 67.8882 431.104 67.6597C431.192 67.4312 431.236 67.1777 431.236 66.8994L431.579 66.8906ZM433.96 69H433.139V64.2451H433.938L433.96 64.9922V69ZM435.441 64.9702C435.371 64.9556 435.305 64.9468 435.244 64.9438C435.185 64.938 435.118 64.9351 435.042 64.9351C434.792 64.9351 434.582 64.9863 434.409 65.0889C434.239 65.1914 434.107 65.3335 434.013 65.5151C433.919 65.6938 433.861 65.8989 433.837 66.1304L433.604 66.2622C433.604 65.8784 433.656 65.5283 433.758 65.2119C433.861 64.8926 434.021 64.6377 434.237 64.4473C434.457 64.2539 434.738 64.1572 435.081 64.1572C435.137 64.1572 435.203 64.1646 435.279 64.1792C435.358 64.1909 435.412 64.2041 435.441 64.2188V64.9702Z" fill="#929292"/>
<path d="M28.987 91L33.108 81.9H34.395L38.529 91H37.164L33.485 82.628H34.005L30.326 91H28.987ZM30.742 88.725L31.093 87.685H36.215L36.592 88.725H30.742ZM43.3575 91.078C42.7855 91.078 42.2612 90.948 41.7845 90.688C41.3165 90.4193 40.9395 90.025 40.6535 89.505C40.3762 88.985 40.2375 88.335 40.2375 87.555C40.2375 86.775 40.3718 86.125 40.6405 85.605C40.9178 85.085 41.2905 84.695 41.7585 84.435C42.2352 84.175 42.7682 84.045 43.3575 84.045C44.0335 84.045 44.6315 84.1923 45.1515 84.487C45.6715 84.7817 46.0832 85.1933 46.3865 85.722C46.6898 86.242 46.8415 86.853 46.8415 87.555C46.8415 88.257 46.6898 88.8723 46.3865 89.401C46.0832 89.9297 45.6715 90.3413 45.1515 90.636C44.6315 90.9307 44.0335 91.078 43.3575 91.078ZM39.7045 93.522V84.11H40.9005V85.969L40.8225 87.568L40.9525 89.167V93.522H39.7045ZM43.2535 89.986C43.6955 89.986 44.0898 89.8863 44.4365 89.687C44.7918 89.4877 45.0692 89.206 45.2685 88.842C45.4765 88.4693 45.5805 88.0403 45.5805 87.555C45.5805 87.061 45.4765 86.6363 45.2685 86.281C45.0692 85.917 44.7918 85.6353 44.4365 85.436C44.0898 85.2367 43.6955 85.137 43.2535 85.137C42.8202 85.137 42.4258 85.2367 42.0705 85.436C41.7238 85.6353 41.4465 85.917 41.2385 86.281C41.0392 86.6363 40.9395 87.061 40.9395 87.555C40.9395 88.0403 41.0392 88.4693 41.2385 88.842C41.4465 89.206 41.7238 89.4877 42.0705 89.687C42.4258 89.8863 42.8202 89.986 43.2535 89.986ZM52.2188 91.078C51.6468 91.078 51.1225 90.948 50.6458 90.688C50.1778 90.4193 49.8008 90.025 49.5148 89.505C49.2375 88.985 49.0988 88.335 49.0988 87.555C49.0988 86.775 49.2331 86.125 49.5018 85.605C49.7791 85.085 50.1518 84.695 50.6198 84.435C51.0965 84.175 51.6295 84.045 52.2188 84.045C52.8948 84.045 53.4928 84.1923 54.0128 84.487C54.5328 84.7817 54.9445 85.1933 55.2478 85.722C55.5511 86.242 55.7028 86.853 55.7028 87.555C55.7028 88.257 55.5511 88.8723 55.2478 89.401C54.9445 89.9297 54.5328 90.3413 54.0128 90.636C53.4928 90.9307 52.8948 91.078 52.2188 91.078ZM48.5658 93.522V84.11H49.7618V85.969L49.6838 87.568L49.8138 89.167V93.522H48.5658ZM52.1148 89.986C52.5568 89.986 52.9511 89.8863 53.2978 89.687C53.6531 89.4877 53.9305 89.206 54.1298 88.842C54.3378 88.4693 54.4418 88.0403 54.4418 87.555C54.4418 87.061 54.3378 86.6363 54.1298 86.281C53.9305 85.917 53.6531 85.6353 53.2978 85.436C52.9511 85.2367 52.5568 85.137 52.1148 85.137C51.6815 85.137 51.2871 85.2367 50.9318 85.436C50.5851 85.6353 50.3078 85.917 50.0998 86.281C49.9005 86.6363 49.8008 87.061 49.8008 87.555C49.8008 88.0403 49.9005 88.4693 50.0998 88.842C50.3078 89.206 50.5851 89.4877 50.9318 89.687C51.2871 89.8863 51.6815 89.986 52.1148 89.986ZM57.4271 91V84.11H58.6231V85.982L58.5061 85.514C58.6968 85.0373 59.0175 84.6733 59.4681 84.422C59.9188 84.1707 60.4735 84.045 61.1321 84.045V85.254C61.0801 85.2453 61.0281 85.241 60.9761 85.241C60.9328 85.241 60.8895 85.241 60.8461 85.241C60.1788 85.241 59.6501 85.4403 59.2601 85.839C58.8701 86.2377 58.6751 86.814 58.6751 87.568V91H57.4271ZM65.5578 91.078C64.8645 91.078 64.2492 90.9263 63.7118 90.623C63.1745 90.3197 62.7498 89.9037 62.4378 89.375C62.1258 88.8377 61.9698 88.231 61.9698 87.555C61.9698 86.8703 62.1258 86.2637 62.4378 85.735C62.7498 85.2063 63.1745 84.7947 63.7118 84.5C64.2492 84.1967 64.8645 84.045 65.5578 84.045C66.2425 84.045 66.8535 84.1967 67.3908 84.5C67.9368 84.7947 68.3615 85.2063 68.6648 85.735C68.9768 86.255 69.1328 86.8617 69.1328 87.555C69.1328 88.2397 68.9768 88.8463 68.6648 89.375C68.3615 89.9037 67.9368 90.3197 67.3908 90.623C66.8535 90.9263 66.2425 91.078 65.5578 91.078ZM65.5578 89.986C65.9998 89.986 66.3942 89.8863 66.7408 89.687C67.0962 89.4877 67.3735 89.206 67.5728 88.842C67.7722 88.4693 67.8718 88.0403 67.8718 87.555C67.8718 87.061 67.7722 86.6363 67.5728 86.281C67.3735 85.917 67.0962 85.6353 66.7408 85.436C66.3942 85.2367 65.9998 85.137 65.5578 85.137C65.1158 85.137 64.7215 85.2367 64.3748 85.436C64.0282 85.6353 63.7508 85.917 63.5428 86.281C63.3348 86.6363 63.2308 87.061 63.2308 87.555C63.2308 88.0403 63.3348 88.4693 63.5428 88.842C63.7508 89.206 64.0282 89.4877 64.3748 89.687C64.7215 89.8863 65.1158 89.986 65.5578 89.986ZM74.5118 91.078C73.9224 91.078 73.3894 90.948 72.9128 90.688C72.4448 90.4193 72.0721 90.025 71.7948 89.505C71.5261 88.985 71.3918 88.335 71.3918 87.555C71.3918 86.775 71.5304 86.125 71.8078 85.605C72.0938 85.085 72.4708 84.695 72.9388 84.435C73.4154 84.175 73.9398 84.045 74.5118 84.045C75.1878 84.045 75.7858 84.1923 76.3058 84.487C76.8258 84.7817 77.2374 85.1933 77.5408 85.722C77.8441 86.242 77.9958 86.853 77.9958 87.555C77.9958 88.257 77.8441 88.8723 77.5408 89.401C77.2374 89.9297 76.8258 90.3413 76.3058 90.636C75.7858 90.9307 75.1878 91.078 74.5118 91.078ZM70.8588 91V81.354H72.1068V85.943L71.9768 87.542L72.0548 89.141V91H70.8588ZM74.4078 89.986C74.8498 89.986 75.2441 89.8863 75.5908 89.687C75.9461 89.4877 76.2234 89.206 76.4228 88.842C76.6308 88.4693 76.7348 88.0403 76.7348 87.555C76.7348 87.061 76.6308 86.6363 76.4228 86.281C76.2234 85.917 75.9461 85.6353 75.5908 85.436C75.2441 85.2367 74.8498 85.137 74.4078 85.137C73.9744 85.137 73.5801 85.2367 73.2248 85.436C72.8781 85.6353 72.6008 85.917 72.3928 86.281C72.1934 86.6363 72.0938 87.061 72.0938 87.555C72.0938 88.0403 72.1934 88.4693 72.3928 88.842C72.6008 89.206 72.8781 89.4877 73.2248 89.687C73.5801 89.8863 73.9744 89.986 74.4078 89.986ZM83.9336 91V89.544L83.8686 89.271V86.788C83.8686 86.2593 83.7126 85.852 83.4006 85.566C83.0973 85.2713 82.638 85.124 82.0226 85.124C81.6153 85.124 81.2166 85.1933 80.8266 85.332C80.4366 85.462 80.1073 85.6397 79.8386 85.865L79.3186 84.929C79.674 84.643 80.0986 84.4263 80.5926 84.279C81.0953 84.123 81.6196 84.045 82.1656 84.045C83.1103 84.045 83.8383 84.2747 84.3496 84.734C84.861 85.1933 85.1166 85.8953 85.1166 86.84V91H83.9336ZM81.6716 91.078C81.1603 91.078 80.7096 90.9913 80.3196 90.818C79.9383 90.6447 79.6436 90.4063 79.4356 90.103C79.2276 89.791 79.1236 89.44 79.1236 89.05C79.1236 88.6773 79.2103 88.3393 79.3836 88.036C79.5656 87.7327 79.856 87.49 80.2546 87.308C80.662 87.126 81.208 87.035 81.8926 87.035H84.0766V87.932H81.9446C81.3206 87.932 80.9003 88.036 80.6836 88.244C80.467 88.452 80.3586 88.7033 80.3586 88.998C80.3586 89.336 80.493 89.609 80.7616 89.817C81.0303 90.0163 81.403 90.116 81.8796 90.116C82.3476 90.116 82.755 90.012 83.1016 89.804C83.457 89.596 83.7126 89.2927 83.8686 88.894L84.1156 89.752C83.951 90.1593 83.6606 90.4843 83.2446 90.727C82.8286 90.961 82.3043 91.078 81.6716 91.078ZM89.7922 91.078C89.0988 91.078 88.5615 90.8917 88.1802 90.519C87.7988 90.1463 87.6082 89.6133 87.6082 88.92V82.602H88.8562V88.868C88.8562 89.2407 88.9472 89.5267 89.1292 89.726C89.3198 89.9253 89.5885 90.025 89.9352 90.025C90.3252 90.025 90.6502 89.9167 90.9102 89.7L91.3002 90.597C91.1095 90.7617 90.8798 90.883 90.6112 90.961C90.3512 91.039 90.0782 91.078 89.7922 91.078ZM86.4382 85.137V84.11H90.8322V85.137H86.4382ZM92.809 91V84.11H94.057V91H92.809ZM93.433 82.784C93.1903 82.784 92.9866 82.706 92.822 82.55C92.666 82.394 92.588 82.2033 92.588 81.978C92.588 81.744 92.666 81.549 92.822 81.393C92.9866 81.237 93.1903 81.159 93.433 81.159C93.6756 81.159 93.875 81.237 94.031 81.393C94.1956 81.5403 94.278 81.7267 94.278 81.952C94.278 82.186 94.2 82.3853 94.044 82.55C93.888 82.706 93.6843 82.784 93.433 82.784ZM99.3908 91.078C98.6975 91.078 98.0822 90.9263 97.5448 90.623C97.0075 90.3197 96.5828 89.9037 96.2708 89.375C95.9588 88.8377 95.8028 88.231 95.8028 87.555C95.8028 86.8703 95.9588 86.2637 96.2708 85.735C96.5828 85.2063 97.0075 84.7947 97.5448 84.5C98.0822 84.1967 98.6975 84.045 99.3908 84.045C100.076 84.045 100.687 84.1967 101.224 84.5C101.77 84.7947 102.195 85.2063 102.498 85.735C102.81 86.255 102.966 86.8617 102.966 87.555C102.966 88.2397 102.81 88.8463 102.498 89.375C102.195 89.9037 101.77 90.3197 101.224 90.623C100.687 90.9263 100.076 91.078 99.3908 91.078ZM99.3908 89.986C99.8328 89.986 100.227 89.8863 100.574 89.687C100.929 89.4877 101.207 89.206 101.406 88.842C101.605 88.4693 101.705 88.0403 101.705 87.555C101.705 87.061 101.605 86.6363 101.406 86.281C101.207 85.917 100.929 85.6353 100.574 85.436C100.227 85.2367 99.8328 85.137 99.3908 85.137C98.9488 85.137 98.5545 85.2367 98.2078 85.436C97.8612 85.6353 97.5838 85.917 97.3758 86.281C97.1678 86.6363 97.0638 87.061 97.0638 87.555C97.0638 88.0403 97.1678 88.4693 97.3758 88.842C97.5838 89.206 97.8612 89.4877 98.2078 89.687C98.5545 89.8863 98.9488 89.986 99.3908 89.986ZM108.371 84.045C108.934 84.045 109.428 84.1533 109.853 84.37C110.286 84.5867 110.624 84.916 110.867 85.358C111.109 85.8 111.231 86.359 111.231 87.035V91H109.983V87.178C109.983 86.5107 109.818 86.008 109.489 85.67C109.168 85.332 108.713 85.163 108.124 85.163C107.682 85.163 107.296 85.2497 106.967 85.423C106.637 85.5963 106.382 85.852 106.2 86.19C106.026 86.528 105.94 86.9483 105.94 87.451V91H104.692V84.11H105.888V85.969L105.693 85.475C105.918 85.0243 106.265 84.6733 106.733 84.422C107.201 84.1707 107.747 84.045 108.371 84.045Z" fill="black" fill-opacity="0.6"/>
<path d="M153.489 91L154.607 81.9H155.53L154.412 91H153.489ZM148.601 88.66V87.711H156.622V88.66H148.601ZM150.109 91L151.24 81.9H152.163L151.032 91H150.109ZM149.017 85.189V84.24H157.038V85.189H149.017ZM161.473 91.078C160.883 91.078 160.363 90.9697 159.913 90.753C159.471 90.5363 159.124 90.207 158.873 89.765C158.63 89.3143 158.509 88.751 158.509 88.075V84.11H159.757V87.932C159.757 88.608 159.917 89.115 160.238 89.453C160.567 89.791 161.026 89.96 161.616 89.96C162.049 89.96 162.426 89.8733 162.747 89.7C163.067 89.518 163.314 89.258 163.488 88.92C163.661 88.5733 163.748 88.1573 163.748 87.672V84.11H164.996V91H163.813V89.141L164.008 89.635C163.782 90.0943 163.444 90.4497 162.994 90.701C162.543 90.9523 162.036 91.078 161.473 91.078ZM167.371 91V84.11H168.567V85.982L168.45 85.514C168.641 85.0373 168.962 84.6733 169.412 84.422C169.863 84.1707 170.418 84.045 171.076 84.045V85.254C171.024 85.2453 170.972 85.241 170.92 85.241C170.877 85.241 170.834 85.241 170.79 85.241C170.123 85.241 169.594 85.4403 169.204 85.839C168.814 86.2377 168.619 86.814 168.619 87.568V91H167.371ZM175.567 93.6C174.934 93.6 174.319 93.509 173.721 93.327C173.132 93.1537 172.651 92.9023 172.278 92.573L172.876 91.611C173.197 91.8883 173.591 92.105 174.059 92.261C174.527 92.4257 175.017 92.508 175.528 92.508C176.343 92.508 176.941 92.3173 177.322 91.936C177.703 91.5547 177.894 90.974 177.894 90.194V88.738L178.024 87.373L177.959 85.995V84.11H179.142V90.064C179.142 91.2773 178.839 92.17 178.232 92.742C177.625 93.314 176.737 93.6 175.567 93.6ZM175.411 90.714C174.744 90.714 174.146 90.5753 173.617 90.298C173.097 90.012 172.681 89.6177 172.369 89.115C172.066 88.6123 171.914 88.0317 171.914 87.373C171.914 86.7057 172.066 86.125 172.369 85.631C172.681 85.1283 173.097 84.7383 173.617 84.461C174.146 84.1837 174.744 84.045 175.411 84.045C176 84.045 176.538 84.1663 177.023 84.409C177.508 84.643 177.894 85.007 178.18 85.501C178.475 85.995 178.622 86.619 178.622 87.373C178.622 88.1183 178.475 88.738 178.18 89.232C177.894 89.726 177.508 90.0987 177.023 90.35C176.538 90.5927 176 90.714 175.411 90.714ZM175.554 89.622C176.013 89.622 176.421 89.5267 176.776 89.336C177.131 89.1453 177.409 88.881 177.608 88.543C177.816 88.205 177.92 87.815 177.92 87.373C177.92 86.931 177.816 86.541 177.608 86.203C177.409 85.865 177.131 85.605 176.776 85.423C176.421 85.2323 176.013 85.137 175.554 85.137C175.095 85.137 174.683 85.2323 174.319 85.423C173.964 85.605 173.682 85.865 173.474 86.203C173.275 86.541 173.175 86.931 173.175 87.373C173.175 87.815 173.275 88.205 173.474 88.543C173.682 88.881 173.964 89.1453 174.319 89.336C174.683 89.5267 175.095 89.622 175.554 89.622ZM184.595 91.078C183.858 91.078 183.208 90.9263 182.645 90.623C182.09 90.3197 181.657 89.9037 181.345 89.375C181.041 88.8463 180.89 88.2397 180.89 87.555C180.89 86.8703 181.037 86.2637 181.332 85.735C181.635 85.2063 182.047 84.7947 182.567 84.5C183.095 84.1967 183.689 84.045 184.348 84.045C185.015 84.045 185.604 84.1923 186.116 84.487C186.627 84.7817 187.026 85.1977 187.312 85.735C187.606 86.2637 187.754 86.8833 187.754 87.594C187.754 87.646 187.749 87.7067 187.741 87.776C187.741 87.8453 187.736 87.9103 187.728 87.971H181.865V87.074H187.078L186.571 87.386C186.579 86.944 186.488 86.5497 186.298 86.203C186.107 85.8563 185.843 85.5877 185.505 85.397C185.175 85.1977 184.79 85.098 184.348 85.098C183.914 85.098 183.529 85.1977 183.191 85.397C182.853 85.5877 182.588 85.8607 182.398 86.216C182.207 86.5627 182.112 86.9613 182.112 87.412V87.62C182.112 88.0793 182.216 88.491 182.424 88.855C182.64 89.2103 182.939 89.4877 183.321 89.687C183.702 89.8863 184.14 89.986 184.634 89.986C185.041 89.986 185.409 89.9167 185.739 89.778C186.077 89.6393 186.371 89.4313 186.623 89.154L187.312 89.96C187 90.324 186.61 90.6013 186.142 90.792C185.682 90.9827 185.167 91.078 184.595 91.078ZM193.166 84.045C193.729 84.045 194.223 84.1533 194.648 84.37C195.081 84.5867 195.419 84.916 195.662 85.358C195.904 85.8 196.026 86.359 196.026 87.035V91H194.778V87.178C194.778 86.5107 194.613 86.008 194.284 85.67C193.963 85.332 193.508 85.163 192.919 85.163C192.477 85.163 192.091 85.2497 191.762 85.423C191.432 85.5963 191.177 85.852 190.995 86.19C190.821 86.528 190.735 86.9483 190.735 87.451V91H189.487V84.11H190.683V85.969L190.488 85.475C190.713 85.0243 191.06 84.6733 191.528 84.422C191.996 84.1707 192.542 84.045 193.166 84.045ZM200.701 91.078C200.008 91.078 199.471 90.8917 199.089 90.519C198.708 90.1463 198.517 89.6133 198.517 88.92V82.602H199.765V88.868C199.765 89.2407 199.856 89.5267 200.038 89.726C200.229 89.9253 200.498 90.025 200.844 90.025C201.234 90.025 201.559 89.9167 201.819 89.7L202.209 90.597C202.019 90.7617 201.789 90.883 201.52 90.961C201.26 91.039 200.987 91.078 200.701 91.078ZM197.347 85.137V84.11H201.741V85.137H197.347Z" fill="black" fill-opacity="0.6"/>
<path d="M270.906 91.104C270.265 91.104 269.641 91.0043 269.034 90.805C268.436 90.6057 267.946 90.337 267.565 89.999L268.163 88.972C268.466 89.258 268.861 89.492 269.346 89.674C269.831 89.856 270.351 89.947 270.906 89.947C271.582 89.947 272.106 89.804 272.479 89.518C272.86 89.2233 273.051 88.829 273.051 88.335C273.051 87.8583 272.869 87.477 272.505 87.191C272.15 86.8963 271.582 86.749 270.802 86.749H270.074V85.839L272.778 82.511L272.96 83.031H267.981V81.9H273.987V82.784L271.296 86.099L270.62 85.696H271.049C272.15 85.696 272.973 85.943 273.519 86.437C274.074 86.931 274.351 87.5593 274.351 88.322C274.351 88.8333 274.225 89.3013 273.974 89.726C273.723 90.1507 273.341 90.4887 272.83 90.74C272.327 90.9827 271.686 91.104 270.906 91.104ZM281.59 91.078C281.018 91.078 280.472 91 279.952 90.844C279.44 90.688 279.037 90.4973 278.743 90.272L279.263 89.284C279.557 89.4833 279.921 89.6523 280.355 89.791C280.788 89.9297 281.23 89.999 281.681 89.999C282.261 89.999 282.677 89.9167 282.929 89.752C283.189 89.5873 283.319 89.3577 283.319 89.063C283.319 88.8463 283.241 88.6773 283.085 88.556C282.929 88.4347 282.721 88.3437 282.461 88.283C282.209 88.2223 281.928 88.1703 281.616 88.127C281.304 88.075 280.992 88.0143 280.68 87.945C280.368 87.867 280.082 87.763 279.822 87.633C279.562 87.4943 279.354 87.308 279.198 87.074C279.042 86.8313 278.964 86.5107 278.964 86.112C278.964 85.696 279.081 85.332 279.315 85.02C279.549 84.708 279.878 84.4697 280.303 84.305C280.736 84.1317 281.247 84.045 281.837 84.045C282.287 84.045 282.742 84.1013 283.202 84.214C283.67 84.318 284.051 84.4697 284.346 84.669L283.813 85.657C283.501 85.449 283.176 85.306 282.838 85.228C282.5 85.15 282.162 85.111 281.824 85.111C281.278 85.111 280.87 85.202 280.602 85.384C280.333 85.5573 280.199 85.7827 280.199 86.06C280.199 86.294 280.277 86.476 280.433 86.606C280.597 86.7273 280.805 86.8227 281.057 86.892C281.317 86.9613 281.603 87.022 281.915 87.074C282.227 87.1173 282.539 87.178 282.851 87.256C283.163 87.3253 283.444 87.425 283.696 87.555C283.956 87.685 284.164 87.867 284.32 88.101C284.484 88.335 284.567 88.647 284.567 89.037C284.567 89.453 284.445 89.8127 284.203 90.116C283.96 90.4193 283.618 90.6577 283.176 90.831C282.734 90.9957 282.205 91.078 281.59 91.078ZM289.194 91.078C288.458 91.078 287.808 90.9263 287.244 90.623C286.69 90.3197 286.256 89.9037 285.944 89.375C285.641 88.8463 285.489 88.2397 285.489 87.555C285.489 86.8703 285.637 86.2637 285.931 85.735C286.235 85.2063 286.646 84.7947 287.166 84.5C287.695 84.1967 288.289 84.045 288.947 84.045C289.615 84.045 290.204 84.1923 290.715 84.487C291.227 84.7817 291.625 85.1977 291.911 85.735C292.206 86.2637 292.353 86.8833 292.353 87.594C292.353 87.646 292.349 87.7067 292.34 87.776C292.34 87.8453 292.336 87.9103 292.327 87.971H286.464V87.074H291.677L291.17 87.386C291.179 86.944 291.088 86.5497 290.897 86.203C290.707 85.8563 290.442 85.5877 290.104 85.397C289.775 85.1977 289.389 85.098 288.947 85.098C288.514 85.098 288.128 85.1977 287.79 85.397C287.452 85.5877 287.188 85.8607 286.997 86.216C286.807 86.5627 286.711 86.9613 286.711 87.412V87.62C286.711 88.0793 286.815 88.491 287.023 88.855C287.24 89.2103 287.539 89.4877 287.92 89.687C288.302 89.8863 288.739 89.986 289.233 89.986C289.641 89.986 290.009 89.9167 290.338 89.778C290.676 89.6393 290.971 89.4313 291.222 89.154L291.911 89.96C291.599 90.324 291.209 90.6013 290.741 90.792C290.282 90.9827 289.766 91.078 289.194 91.078ZM297.739 91.078C297.167 91.078 296.643 90.948 296.166 90.688C295.698 90.4193 295.321 90.025 295.035 89.505C294.758 88.985 294.619 88.335 294.619 87.555C294.619 86.775 294.754 86.125 295.022 85.605C295.3 85.085 295.672 84.695 296.14 84.435C296.617 84.175 297.15 84.045 297.739 84.045C298.415 84.045 299.013 84.1923 299.533 84.487C300.053 84.7817 300.465 85.1933 300.768 85.722C301.072 86.242 301.223 86.853 301.223 87.555C301.223 88.257 301.072 88.8723 300.768 89.401C300.465 89.9297 300.053 90.3413 299.533 90.636C299.013 90.9307 298.415 91.078 297.739 91.078ZM294.086 93.522V84.11H295.282V85.969L295.204 87.568L295.334 89.167V93.522H294.086ZM297.635 89.986C298.077 89.986 298.472 89.8863 298.818 89.687C299.174 89.4877 299.451 89.206 299.65 88.842C299.858 88.4693 299.962 88.0403 299.962 87.555C299.962 87.061 299.858 86.6363 299.65 86.281C299.451 85.917 299.174 85.6353 298.818 85.436C298.472 85.2367 298.077 85.137 297.635 85.137C297.202 85.137 296.808 85.2367 296.452 85.436C296.106 85.6353 295.828 85.917 295.62 86.281C295.421 86.6363 295.321 87.061 295.321 87.555C295.321 88.0403 295.421 88.4693 295.62 88.842C295.828 89.206 296.106 89.4877 296.452 89.687C296.808 89.8863 297.202 89.986 297.635 89.986ZM305.314 91.078C304.62 91.078 304.083 90.8917 303.702 90.519C303.32 90.1463 303.13 89.6133 303.13 88.92V82.602H304.378V88.868C304.378 89.2407 304.469 89.5267 304.651 89.726C304.841 89.9253 305.11 90.025 305.457 90.025C305.847 90.025 306.172 89.9167 306.432 89.7L306.822 90.597C306.631 90.7617 306.401 90.883 306.133 90.961C305.873 91.039 305.6 91.078 305.314 91.078ZM301.96 85.137V84.11H306.354V85.137H301.96ZM308.756 91.078C308.514 91.078 308.306 90.9957 308.132 90.831C307.959 90.6577 307.872 90.441 307.872 90.181C307.872 89.921 307.959 89.7087 308.132 89.544C308.306 89.3793 308.514 89.297 308.756 89.297C308.99 89.297 309.19 89.3793 309.354 89.544C309.528 89.7087 309.614 89.921 309.614 90.181C309.614 90.441 309.528 90.6577 309.354 90.831C309.19 90.9957 308.99 91.078 308.756 91.078ZM315.869 91V82.42L316.428 83.031H313.815V81.9H317.156V91H315.869ZM320.68 91V82.42L321.239 83.031H318.626V81.9H321.967V91H320.68ZM324.816 85.826C324.573 85.826 324.365 85.7437 324.192 85.579C324.019 85.4057 323.932 85.189 323.932 84.929C323.932 84.669 324.019 84.4567 324.192 84.292C324.365 84.1273 324.573 84.045 324.816 84.045C325.05 84.045 325.249 84.1273 325.414 84.292C325.587 84.4567 325.674 84.669 325.674 84.929C325.674 85.189 325.587 85.4057 325.414 85.579C325.249 85.7437 325.05 85.826 324.816 85.826ZM324.816 91.078C324.573 91.078 324.365 90.9957 324.192 90.831C324.019 90.6577 323.932 90.441 323.932 90.181C323.932 89.921 324.019 89.7087 324.192 89.544C324.365 89.3793 324.573 89.297 324.816 89.297C325.05 89.297 325.249 89.3793 325.414 89.544C325.587 89.7087 325.674 89.921 325.674 90.181C325.674 90.441 325.587 90.6577 325.414 90.831C325.249 90.9957 325.05 91.078 324.816 91.078ZM329.841 91.104C329.2 91.104 328.576 91.0043 327.969 90.805C327.371 90.6057 326.882 90.337 326.5 89.999L327.098 88.972C327.402 89.258 327.796 89.492 328.281 89.674C328.767 89.856 329.282 89.947 329.828 89.947C330.522 89.947 331.055 89.7997 331.427 89.505C331.8 89.2103 331.986 88.816 331.986 88.322C331.986 87.984 331.904 87.6893 331.739 87.438C331.575 87.1867 331.289 86.996 330.881 86.866C330.483 86.7273 329.932 86.658 329.23 86.658H327.163L327.644 81.9H332.779V83.031H328.125L328.801 82.394L328.424 86.151L327.748 85.527H329.503C330.413 85.527 331.146 85.644 331.7 85.878C332.255 86.112 332.658 86.437 332.909 86.853C333.161 87.2603 333.286 87.7327 333.286 88.27C333.286 88.79 333.161 89.2667 332.909 89.7C332.658 90.1247 332.277 90.467 331.765 90.727C331.263 90.9783 330.621 91.104 329.841 91.104ZM338.086 91.104C337.375 91.104 336.738 90.922 336.175 90.558C335.62 90.194 335.178 89.6653 334.849 88.972C334.528 88.2787 334.368 87.438 334.368 86.45C334.368 85.462 334.528 84.6213 334.849 83.928C335.178 83.2347 335.62 82.706 336.175 82.342C336.738 81.978 337.375 81.796 338.086 81.796C338.788 81.796 339.421 81.978 339.984 82.342C340.547 82.706 340.989 83.2347 341.31 83.928C341.631 84.6213 341.791 85.462 341.791 86.45C341.791 87.438 341.631 88.2787 341.31 88.972C340.989 89.6653 340.547 90.194 339.984 90.558C339.421 90.922 338.788 91.104 338.086 91.104ZM338.086 89.947C338.563 89.947 338.979 89.817 339.334 89.557C339.698 89.297 339.98 88.907 340.179 88.387C340.387 87.867 340.491 87.2213 340.491 86.45C340.491 85.6787 340.387 85.033 340.179 84.513C339.98 83.993 339.698 83.603 339.334 83.343C338.979 83.083 338.563 82.953 338.086 82.953C337.609 82.953 337.189 83.083 336.825 83.343C336.461 83.603 336.175 83.993 335.967 84.513C335.768 85.033 335.668 85.6787 335.668 86.45C335.668 87.2213 335.768 87.867 335.967 88.387C336.175 88.907 336.461 89.297 336.825 89.557C337.189 89.817 337.609 89.947 338.086 89.947Z" fill="black" fill-opacity="0.6"/>
<path d="M388.947 91L392.808 82.446L393.146 83.031H387.738L388.388 82.394V84.656H387.14V81.9H394.004V82.784L390.325 91H388.947Z" fill="black" fill-opacity="0.6"/>
<g clip-path="url(#clip1_86_2176)">
<path d="M573.309 54.125V54.6328C573.309 55.3311 573.218 55.9574 573.036 56.5117C572.854 57.0661 572.594 57.5379 572.255 57.9272C571.921 58.3166 571.519 58.6149 571.049 58.8223C570.58 59.0254 570.059 59.127 569.488 59.127C568.921 59.127 568.402 59.0254 567.933 58.8223C567.467 58.6149 567.063 58.3166 566.72 57.9272C566.377 57.5379 566.111 57.0661 565.92 56.5117C565.734 55.9574 565.641 55.3311 565.641 54.6328V54.125C565.641 53.4268 565.734 52.8026 565.92 52.2524C566.107 51.6981 566.369 51.2262 566.708 50.8369C567.05 50.4434 567.454 50.145 567.92 49.9419C568.39 49.7345 568.908 49.6309 569.475 49.6309C570.046 49.6309 570.567 49.7345 571.037 49.9419C571.506 50.145 571.91 50.4434 572.249 50.8369C572.588 51.2262 572.848 51.6981 573.03 52.2524C573.216 52.8026 573.309 53.4268 573.309 54.125ZM571.716 54.6328V54.1123C571.716 53.596 571.665 53.1411 571.563 52.7476C571.466 52.3498 571.32 52.0176 571.125 51.751C570.935 51.4801 570.7 51.277 570.421 51.1416C570.142 51.002 569.826 50.9321 569.475 50.9321C569.124 50.9321 568.811 51.002 568.536 51.1416C568.261 51.277 568.026 51.4801 567.831 51.751C567.641 52.0176 567.495 52.3498 567.393 52.7476C567.292 53.1411 567.241 53.596 567.241 54.1123V54.6328C567.241 55.1491 567.292 55.6061 567.393 56.0039C567.495 56.4017 567.643 56.7381 567.837 57.0132C568.036 57.284 568.273 57.4893 568.548 57.6289C568.823 57.7643 569.137 57.832 569.488 57.832C569.843 57.832 570.159 57.7643 570.434 57.6289C570.709 57.4893 570.941 57.284 571.132 57.0132C571.322 56.7381 571.466 56.4017 571.563 56.0039C571.665 55.6061 571.716 55.1491 571.716 54.6328ZM580.548 49.7578H582.135V55.9341C582.135 56.6366 581.983 57.2248 581.678 57.6987C581.374 58.1727 580.959 58.5303 580.434 58.7715C579.914 59.0085 579.332 59.127 578.689 59.127C578.024 59.127 577.432 59.0085 576.911 58.7715C576.391 58.5303 575.98 58.1727 575.68 57.6987C575.384 57.2248 575.235 56.6366 575.235 55.9341V49.7578H576.822V55.9341C576.822 56.3784 576.898 56.7445 577.051 57.0322C577.203 57.3158 577.419 57.5252 577.698 57.6606C577.978 57.7961 578.308 57.8638 578.689 57.8638C579.069 57.8638 579.397 57.7961 579.672 57.6606C579.952 57.5252 580.168 57.3158 580.32 57.0322C580.472 56.7445 580.548 56.3784 580.548 55.9341V49.7578ZM587.496 57.3115L589.927 49.7578H591.685L588.372 59H587.185L587.496 57.3115ZM585.249 49.7578L587.661 57.3115L587.991 59H586.797L583.497 49.7578H585.249ZM593.18 49.7578H596.449C597.151 49.7578 597.75 49.8636 598.245 50.0752C598.74 50.2868 599.119 50.5999 599.381 51.0146C599.648 51.4251 599.781 51.9329 599.781 52.5381C599.781 52.9993 599.697 53.4056 599.527 53.7568C599.358 54.1081 599.119 54.4043 598.81 54.6455C598.501 54.8825 598.133 55.0666 597.706 55.1978L597.223 55.4326H594.284L594.272 54.1694H596.474C596.855 54.1694 597.172 54.1017 597.426 53.9663C597.68 53.8309 597.871 53.6468 597.998 53.4141C598.129 53.1771 598.194 52.9105 598.194 52.6143C598.194 52.2926 598.131 52.0133 598.004 51.7764C597.881 51.5352 597.691 51.3511 597.433 51.2241C597.175 51.0929 596.847 51.0273 596.449 51.0273H594.773V59H593.18V49.7578ZM598.455 59L596.284 54.8486L597.953 54.8423L600.156 58.9175V59H598.455ZM603.529 49.7578V59H601.936V49.7578H603.529ZM605.97 49.7578H609.239C609.941 49.7578 610.54 49.8636 611.035 50.0752C611.53 50.2868 611.909 50.5999 612.172 51.0146C612.438 51.4251 612.571 51.9329 612.571 52.5381C612.571 52.9993 612.487 53.4056 612.318 53.7568C612.148 54.1081 611.909 54.4043 611.6 54.6455C611.291 54.8825 610.923 55.0666 610.496 55.1978L610.013 55.4326H607.074L607.062 54.1694H609.264C609.645 54.1694 609.963 54.1017 610.217 53.9663C610.47 53.8309 610.661 53.6468 610.788 53.4141C610.919 53.1771 610.985 52.9105 610.985 52.6143C610.985 52.2926 610.921 52.0133 610.794 51.7764C610.671 51.5352 610.481 51.3511 610.223 51.2241C609.965 51.0929 609.637 51.0273 609.239 51.0273H607.563V59H605.97V49.7578ZM611.245 59L609.074 54.8486L610.743 54.8423L612.946 58.9175V59H611.245Z" fill="#1501F3"/>
</g>
<g clip-path="url(#clip2_86_2176)">
<path d="M648.533 49.7578V59H646.939V49.7578H648.533ZM652.303 53.8013V55.0645H648.126V53.8013H652.303ZM652.83 49.7578V51.0273H648.126V49.7578H652.83ZM660.609 57.7368V59H655.702V57.7368H660.609ZM656.153 49.7578V59H654.56V49.7578H656.153ZM659.968 53.6172V54.8613H655.702V53.6172H659.968ZM660.577 49.7578V51.0273H655.702V49.7578H660.577ZM662.37 49.7578H665.639C666.342 49.7578 666.941 49.8636 667.436 50.0752C667.931 50.2868 668.309 50.5999 668.572 51.0146C668.838 51.4251 668.972 51.9329 668.972 52.5381C668.972 52.9993 668.887 53.4056 668.718 53.7568C668.549 54.1081 668.309 54.4043 668.001 54.6455C667.692 54.8825 667.323 55.0666 666.896 55.1978L666.414 55.4326H663.475L663.462 54.1694H665.665C666.045 54.1694 666.363 54.1017 666.617 53.9663C666.871 53.8309 667.061 53.6468 667.188 53.4141C667.319 53.1771 667.385 52.9105 667.385 52.6143C667.385 52.2926 667.321 52.0133 667.194 51.7764C667.072 51.5352 666.881 51.3511 666.623 51.2241C666.365 51.0929 666.037 51.0273 665.639 51.0273H663.963V59H662.37V49.7578ZM667.645 59L665.474 54.8486L667.144 54.8423L669.346 58.9175V59H667.645ZM671.666 49.7578H673.088L675.76 56.8862L678.426 49.7578H679.848L676.319 59H675.189L671.666 49.7578ZM671.019 49.7578H672.371L672.606 55.9277V59H671.019V49.7578ZM679.144 49.7578H680.502V59H678.909V55.9277L679.144 49.7578ZM688.903 57.7368V59H683.996V57.7368H688.903ZM684.447 49.7578V59H682.854V49.7578H684.447ZM688.262 53.6172V54.8613H683.996V53.6172H688.262ZM688.871 49.7578V51.0273H683.996V49.7578H688.871ZM690.664 49.7578H693.933C694.636 49.7578 695.235 49.8636 695.73 50.0752C696.225 50.2868 696.604 50.5999 696.866 51.0146C697.133 51.4251 697.266 51.9329 697.266 52.5381C697.266 52.9993 697.181 53.4056 697.012 53.7568C696.843 54.1081 696.604 54.4043 696.295 54.6455C695.986 54.8825 695.618 55.0666 695.19 55.1978L694.708 55.4326H691.769L691.756 54.1694H693.959C694.34 54.1694 694.657 54.1017 694.911 53.9663C695.165 53.8309 695.355 53.6468 695.482 53.4141C695.613 53.1771 695.679 52.9105 695.679 52.6143C695.679 52.2926 695.615 52.0133 695.488 51.7764C695.366 51.5352 695.175 51.3511 694.917 51.2241C694.659 51.0929 694.331 51.0273 693.933 51.0273H692.258V59H690.664V49.7578ZM695.939 59L693.768 54.8486L695.438 54.8423L697.64 58.9175V59H695.939Z" fill="#A2E218"/>
</g>
<path d="M725 48L732 55L725 62" stroke="#C0C0C0" stroke-width="3" stroke-linecap="square" stroke-linejoin="round"/>
</g>
<defs>
<filter id="filter0_d_86_2176" x="0" y="0" width="758" height="118" filterUnits="userSpaceOnUse" color-interpolation-filters="sRGB">
<feFlood flood-opacity="0" result="BackgroundImageFix"/>
<feColorMatrix in="SourceAlpha" type="matrix" values="0 0 0 0 0 0 0 0 0 0 0 0 0 0 0 0 0 0 127 0" result="hardAlpha"/>
<feOffset dy="4"/>
<feGaussianBlur stdDeviation="2"/>
<feComposite in2="hardAlpha" operator="out"/>
<feColorMatrix type="matrix" values="0 0 0 0 0 0 0 0 0 0 0 0 0 0 0 0 0 0 0.06 0"/>
<feBlend mode="normal" in2="BackgroundImageFix" result="effect1_dropShadow_86_2176"/>
<feBlend mode="normal" in="SourceGraphic" in2="effect1_dropShadow_86_2176" result="shape"/>
</filter>
<clipPath id="clip0_86_2176">
<rect width="547" height="42" fill="white" transform="translate(16 6)"/>
</clipPath>
<clipPath id="clip1_86_2176">
<rect x="560" y="40" width="59" height="30" rx="4" fill="white"/>
</clipPath>
<clipPath id="clip2_86_2176">
<rect x="641" y="40" width="62" height="30" rx="4" fill="white"/>
</clipPath>
</defs>
</svg>
