<svg width="526" height="658" viewBox="0 0 526 658" fill="none" xmlns="http://www.w3.org/2000/svg">
<g filter="url(#filter0_bi_3_84)">
<rect x="2.52429" y="2.4436" width="521" height="653" rx="50" fill="url(#paint0_radial_3_84)"/>
<path d="M244.058 146.018H303.329C303.723 146.018 304.134 146.018 304.519 146.058V146.018C314.199 146.018 322.077 138.197 322.077 128.584C322.077 118.967 314.199 111.147 304.519 111.147C303.145 111.147 301.718 111.326 300.284 111.678C299.816 111.794 299.318 111.708 298.913 111.442C298.512 111.176 298.238 110.755 298.164 110.283C296.206 97.8719 285.6 88.866 272.958 88.866C258.869 88.866 247.404 100.249 247.404 114.244C247.404 114.931 247.458 115.611 247.515 116.282C247.551 116.793 247.364 117.294 246.997 117.649C246.632 118.005 246.118 118.177 245.613 118.124C245.101 118.071 244.583 118.038 244.059 118.038C236.29 118.038 229.97 124.315 229.97 132.026C229.97 139.741 236.29 146.018 244.059 146.018L244.058 146.018ZM243.962 114.615C243.962 114.489 243.959 114.367 243.959 114.244C243.959 98.3632 256.972 85.4436 272.959 85.4436C286.707 85.4436 298.329 94.8213 301.241 107.993C302.344 107.814 303.443 107.721 304.52 107.721C316.102 107.721 325.524 117.082 325.524 128.584C325.524 140.086 316.102 149.444 304.51 149.444H288.843H244.059C234.389 149.444 226.524 141.63 226.524 132.026C226.524 122.456 234.336 114.665 243.962 114.615" fill="white"/>
<path d="M222.554 96.1075C223.635 96.1075 224.733 96.1985 225.837 96.381C228.755 82.986 240.388 73.4436 254.152 73.4436C260.146 73.4436 265.899 75.2738 270.791 78.7314C271.568 79.2852 271.759 80.3692 271.213 81.1559C270.664 81.946 269.59 82.1351 268.807 81.5847C264.5 78.5357 259.433 76.9249 254.152 76.9249C241.496 76.9249 230.877 86.0891 228.916 98.7108C228.839 99.1971 228.564 99.6225 228.163 99.8927C227.765 100.163 227.269 100.251 226.794 100.133C225.355 99.7712 223.933 99.589 222.554 99.589C212.862 99.589 204.974 107.548 204.974 117.326C204.974 126.446 211.748 134.03 220.727 134.966C221.674 135.067 222.363 135.925 222.266 136.88C222.173 137.775 221.423 138.444 220.549 138.444C220.493 138.444 220.429 138.441 220.372 138.433C209.626 137.312 201.524 128.239 201.524 117.326C201.524 105.626 210.958 96.107 222.554 96.107" fill="white"/>
<path d="M243.026 163.444C242.01 163.446 241.191 164.265 241.189 165.28V168.108H238.361C237.349 168.108 236.527 168.93 236.524 169.945C236.527 170.96 237.349 171.782 238.361 171.782H241.189L241.186 174.607C241.186 175.619 242.008 176.441 243.023 176.444C243.532 176.444 243.994 176.236 244.324 175.905C244.657 175.573 244.862 175.113 244.86 174.607L244.862 171.782L247.687 171.779C248.196 171.779 248.654 171.576 248.986 171.244C249.319 170.911 249.524 170.451 249.524 169.942C249.522 168.927 248.7 168.106 247.687 168.106L244.862 168.108V165.28C244.862 164.268 244.041 163.446 243.026 163.444Z" fill="white"/>
<path d="M275.026 163.444C274.01 163.446 273.191 164.265 273.189 165.28V168.108H270.361C269.349 168.108 268.527 168.93 268.524 169.945C268.527 170.96 269.349 171.782 270.361 171.782H273.189L273.186 174.607C273.186 175.619 274.008 176.441 275.023 176.444C275.532 176.444 275.994 176.236 276.324 175.905C276.657 175.573 276.862 175.113 276.86 174.607L276.862 171.782L279.687 171.779C280.196 171.779 280.654 171.576 280.986 171.244C281.319 170.911 281.524 170.451 281.524 169.942C281.522 168.927 280.7 168.106 279.687 168.106L276.862 168.108V165.28C276.862 164.268 276.041 163.446 275.026 163.444Z" fill="white"/>
<path d="M307.026 163.444C306.011 163.446 305.191 164.265 305.189 165.28V168.108H302.361C301.348 168.108 300.527 168.93 300.524 169.945C300.527 170.96 301.348 171.782 302.361 171.782H305.189L305.186 174.607C305.186 175.619 306.008 176.441 307.023 176.444C307.532 176.444 307.994 176.236 308.324 175.905C308.657 175.573 308.862 175.113 308.86 174.607L308.862 171.782L311.687 171.779C312.196 171.779 312.654 171.576 312.986 171.244C313.319 170.911 313.524 170.451 313.524 169.942C313.522 168.927 312.7 168.106 311.687 168.106L308.862 168.108V165.28C308.862 164.268 308.041 163.446 307.026 163.444Z" fill="white"/>
<path d="M227.026 184.444C226.01 184.446 225.191 185.265 225.189 186.28V189.108H222.361C221.349 189.108 220.527 189.93 220.524 190.945C220.527 191.96 221.349 192.782 222.361 192.782H225.189L225.186 195.607C225.186 196.619 226.008 197.441 227.023 197.444C227.532 197.444 227.994 197.236 228.324 196.905C228.657 196.573 228.862 196.113 228.86 195.607L228.862 192.782L231.687 192.779C232.196 192.779 232.654 192.576 232.986 192.244C233.319 191.911 233.524 191.451 233.524 190.942C233.522 189.927 232.7 189.106 231.687 189.106L228.862 189.108V186.28C228.862 185.268 228.041 184.446 227.026 184.444Z" fill="white"/>
<path d="M259.026 184.444C258.01 184.446 257.191 185.265 257.189 186.28V189.108H254.361C253.349 189.108 252.527 189.93 252.524 190.945C252.527 191.96 253.349 192.782 254.361 192.782H257.189L257.186 195.607C257.186 196.619 258.008 197.441 259.023 197.444C259.532 197.444 259.994 197.236 260.324 196.905C260.657 196.573 260.862 196.113 260.86 195.607L260.862 192.782L263.687 192.779C264.196 192.779 264.654 192.576 264.986 192.244C265.319 191.911 265.524 191.451 265.524 190.942C265.522 189.927 264.7 189.106 263.687 189.106L260.862 189.108V186.28C260.862 185.268 260.041 184.446 259.026 184.444Z" fill="white"/>
<path d="M291.026 184.444C290.01 184.446 289.191 185.265 289.189 186.28V189.108H286.361C285.349 189.108 284.527 189.93 284.524 190.945C284.527 191.96 285.349 192.782 286.361 192.782H289.189L289.186 195.607C289.186 196.619 290.008 197.441 291.023 197.444C291.532 197.444 291.994 197.236 292.324 196.905C292.657 196.573 292.862 196.113 292.86 195.607L292.862 192.782L295.687 192.779C296.196 192.779 296.654 192.576 296.986 192.244C297.319 191.911 297.524 191.451 297.524 190.942C297.522 189.927 296.7 189.106 295.687 189.106L292.862 189.108V186.28C292.862 185.268 292.041 184.446 291.026 184.444Z" fill="white"/>
<path d="M205.717 300.989H188.104L151.74 325.137V343.035L187.252 319.455H188.104L188.104 446.444H205.717L205.717 300.989ZM286.698 448.432C314.894 448.432 335.845 430.748 335.845 406.955C335.845 388.489 324.908 375.066 306.584 372.012V370.875C321.286 366.401 330.448 354.327 330.448 337.921C330.448 317.324 314.183 299 287.266 299C262.124 299 241.243 314.483 240.391 337.353H257.436C258.075 322.864 271.854 314.341 286.982 314.341C303.033 314.341 313.402 324.071 313.402 338.773C313.402 354.114 301.399 364.057 284.141 364.057H272.493V379.682H284.141C306.229 379.682 318.516 390.904 318.516 406.955C318.516 422.367 305.092 432.807 286.413 432.807C269.581 432.807 256.229 424.142 255.163 410.08H237.266C238.331 432.949 258.502 448.432 286.698 448.432Z" fill="white"/>
<path d="M356.888 269.069C359.413 269.069 361.462 267.02 361.462 264.495C361.462 261.969 359.413 259.921 356.888 259.921C354.362 259.921 352.314 261.969 352.314 264.495C352.314 267.02 354.362 269.069 356.888 269.069ZM356.888 267.08C355.456 267.08 354.303 265.927 354.303 264.495C354.303 263.063 355.456 261.91 356.888 261.91C358.32 261.91 359.473 263.063 359.473 264.495C359.473 265.927 358.32 267.08 356.888 267.08ZM387.166 266.444C386.411 262.267 383.07 259.802 378.973 259.802C373.763 259.802 369.985 263.819 369.985 270.262C369.985 276.705 373.763 280.722 378.973 280.722C383.07 280.722 386.411 278.256 387.166 274.08H384.701C384.104 276.904 381.678 278.415 378.973 278.415C375.274 278.415 372.371 275.552 372.371 270.262C372.371 264.972 375.274 262.108 378.973 262.108C381.678 262.108 384.104 263.62 384.701 266.444H387.166Z" fill="white"/>
<path d="M135.166 538.444H137.808V531.37L140.536 528.302L148.121 538.444H151.317L142.155 526.469L151.317 516.625H147.865L138.064 527.449H137.808V516.625H135.166V538.444ZM159.211 538.827C162.066 538.827 163.558 537.293 164.069 536.228H164.197V538.444H166.711V527.662C166.711 522.463 162.748 521.867 160.66 521.867C158.188 521.867 155.376 522.719 154.097 525.702L156.484 526.554C157.038 525.361 158.348 524.083 160.745 524.083C163.057 524.083 164.197 525.308 164.197 527.407V527.492C164.197 528.706 162.961 528.6 159.978 528.983C156.942 529.378 153.629 530.049 153.629 533.799C153.629 536.995 156.1 538.827 159.211 538.827ZM159.595 536.569C157.592 536.569 156.143 535.674 156.143 533.927C156.143 532.009 157.89 531.412 159.85 531.157C160.916 531.029 163.771 530.731 164.197 530.219V532.52C164.197 534.566 162.578 536.569 159.595 536.569ZM178.417 522.08H174.922V518.16H172.408V522.08H169.936V524.211H172.408V534.438C172.408 537.293 174.709 538.657 176.84 538.657C177.777 538.657 178.374 538.486 178.715 538.358L178.203 536.1C177.99 536.142 177.649 536.228 177.095 536.228C175.988 536.228 174.922 535.887 174.922 533.756V524.211H178.417V522.08ZM185.064 528.6C185.064 525.745 186.886 524.125 189.368 524.125C191.733 524.125 193.161 525.617 193.161 528.216V538.444H195.675V528.046C195.675 523.838 193.438 521.867 190.093 521.867C187.515 521.867 186.044 522.943 185.277 524.637H185.064V516.625H182.55V538.444H185.064V528.6ZM200.275 538.444H202.789V528.216C202.789 525.819 204.536 524.125 206.496 524.125C208.403 524.125 209.735 525.372 209.735 527.236V538.444H212.292V527.79C212.292 525.681 213.613 524.125 215.914 524.125C217.704 524.125 219.238 525.074 219.238 527.492V538.444H221.752V527.492C221.752 523.646 219.685 521.867 216.766 521.867C214.422 521.867 212.707 522.943 211.866 524.637H211.695C210.885 522.89 209.458 521.867 207.306 521.867C205.175 521.867 203.599 522.89 202.917 524.637H202.704V522.08H200.275V538.444ZM231.164 538.827C234.019 538.827 235.511 537.293 236.022 536.228H236.15V538.444H238.664V527.662C238.664 522.463 234.701 521.867 232.613 521.867C230.141 521.867 227.329 522.719 226.051 525.702L228.437 526.554C228.991 525.361 230.301 524.083 232.698 524.083C235.01 524.083 236.15 525.308 236.15 527.407V527.492C236.15 528.706 234.914 528.6 231.931 528.983C228.895 529.378 225.582 530.049 225.582 533.799C225.582 536.995 228.053 538.827 231.164 538.827ZM231.548 536.569C229.545 536.569 228.096 535.674 228.096 533.927C228.096 532.009 229.843 531.412 231.803 531.157C232.869 531.029 235.724 530.731 236.15 530.219V532.52C236.15 534.566 234.531 536.569 231.548 536.569ZM245.767 528.6C245.767 525.745 247.536 524.125 249.944 524.125C252.277 524.125 253.694 525.649 253.694 528.216V538.444H256.208V528.046C256.208 523.87 253.981 521.867 250.668 521.867C248.196 521.867 246.662 522.975 245.895 524.637H245.682V522.08H243.253V538.444H245.767V528.6ZM266.981 538.785C270.134 538.785 271.2 536.824 271.754 535.929H272.052V538.444H274.481V516.625H271.967V524.679H271.754C271.2 523.827 270.22 521.867 267.024 521.867C262.89 521.867 260.035 525.148 260.035 530.304C260.035 535.503 262.89 538.785 266.981 538.785ZM267.322 536.526C264.168 536.526 262.549 533.756 262.549 530.262C262.549 526.81 264.126 524.125 267.322 524.125C270.39 524.125 272.009 526.597 272.009 530.262C272.009 533.969 270.347 536.526 267.322 536.526ZM289.747 531.753C289.747 534.821 287.404 536.228 285.529 536.228C283.44 536.228 281.949 534.694 281.949 532.307V522.08H279.435V532.478C279.435 536.654 281.651 538.657 284.719 538.657C287.19 538.657 288.81 537.336 289.577 535.674H289.747V538.444H292.262V522.08H289.747V531.753ZM300.616 535.461H297.889L297.761 536.654C297.452 539.541 296.845 542.417 296.568 543.77H298.486C298.997 542.321 300.084 539.04 300.446 536.611L300.616 535.461ZM331.354 516.625H328.755V533.799H328.542L316.61 516.625H314.053V538.444H316.695V521.313H316.908L328.797 538.444H331.354V516.625ZM343.161 538.785C346.485 538.785 348.914 537.123 349.681 534.651L347.252 533.969C346.613 535.674 345.132 536.526 343.161 536.526C340.21 536.526 338.175 534.619 338.058 531.114H349.936V530.049C349.936 523.955 346.314 521.867 342.905 521.867C338.473 521.867 335.533 525.361 335.533 530.39C335.533 535.418 338.431 538.785 343.161 538.785ZM338.058 528.941C338.228 526.395 340.029 524.125 342.905 524.125C345.632 524.125 347.38 526.171 347.38 528.941H338.058ZM353.761 544.58H356.275V535.929H356.488C357.042 536.824 358.108 538.785 361.261 538.785C365.352 538.785 368.207 535.503 368.207 530.304C368.207 525.148 365.352 521.867 361.218 521.867C358.022 521.867 357.042 523.827 356.488 524.679H356.19V522.08H353.761V544.58ZM356.233 530.262C356.233 526.597 357.852 524.125 360.92 524.125C364.116 524.125 365.693 526.81 365.693 530.262C365.693 533.756 364.073 536.526 360.92 536.526C357.894 536.526 356.233 533.969 356.233 530.262ZM376.858 538.827C379.713 538.827 381.204 537.293 381.716 536.228H381.843V538.444H384.358V527.662C384.358 522.463 380.394 521.867 378.306 521.867C375.835 521.867 373.022 522.719 371.744 525.702L374.13 526.554C374.684 525.361 375.995 524.083 378.392 524.083C380.703 524.083 381.843 525.308 381.843 527.407V527.492C381.843 528.706 380.608 528.6 377.625 528.983C374.588 529.378 371.275 530.049 371.275 533.799C371.275 536.995 373.747 538.827 376.858 538.827ZM377.241 536.569C375.238 536.569 373.789 535.674 373.789 533.927C373.789 532.009 375.537 531.412 377.497 531.157C378.562 531.029 381.417 530.731 381.843 530.219V532.52C381.843 534.566 380.224 536.569 377.241 536.569ZM391.461 516.625H388.947V538.444H391.461V516.625Z" fill="white"/>
<rect x="1.52429" y="1.4436" width="523" height="655" rx="51" stroke="url(#paint1_linear_3_84)" stroke-opacity="0.4" stroke-width="2"/>
</g>
<defs>
<filter id="filter0_bi_3_84" x="-41.4757" y="-41.5564" width="609" height="741" filterUnits="userSpaceOnUse" color-interpolation-filters="sRGB">
<feFlood flood-opacity="0" result="BackgroundImageFix"/>
<feGaussianBlur in="BackgroundImageFix" stdDeviation="21"/>
<feComposite in2="SourceAlpha" operator="in" result="effect1_backgroundBlur_3_84"/>
<feBlend mode="normal" in="SourceGraphic" in2="effect1_backgroundBlur_3_84" result="shape"/>
<feColorMatrix in="SourceAlpha" type="matrix" values="0 0 0 0 0 0 0 0 0 0 0 0 0 0 0 0 0 0 127 0" result="hardAlpha"/>
<feOffset dx="-5" dy="-5"/>
<feGaussianBlur stdDeviation="125"/>
<feComposite in2="hardAlpha" operator="arithmetic" k2="-1" k3="1"/>
<feColorMatrix type="matrix" values="0 0 0 0 1 0 0 0 0 1 0 0 0 0 1 0 0 0 0.02 0"/>
<feBlend mode="normal" in2="shape" result="effect2_innerShadow_3_84"/>
</filter>
<radialGradient id="paint0_radial_3_84" cx="0" cy="0" r="1" gradientUnits="userSpaceOnUse" gradientTransform="translate(2.52429 2.4436) rotate(51.4152) scale(835.374 565.958)">
<stop stop-color="white" stop-opacity="0.4"/>
<stop offset="1" stop-color="white" stop-opacity="0"/>
</radialGradient>
<linearGradient id="paint1_linear_3_84" x1="2.52429" y1="2.4436" x2="173.554" y2="714.547" gradientUnits="userSpaceOnUse">
<stop stop-color="white"/>
<stop offset="1" stop-color="#EEEDED" stop-opacity="0.5"/>
</linearGradient>
</defs>
</svg>
