<?xml version="1.0" encoding="UTF-8"?><svg id="Calque_1" xmlns="http://www.w3.org/2000/svg" viewBox="0 0 367.32 175.96"><defs><style>.cls-1{fill:#fff;stroke:#c1c1c1;stroke-miterlimit:10;}.cls-2{fill:#d7d7ff;}.cls-2,.cls-3,.cls-4{stroke-width:0px;}.cls-3{fill:#efefef;}.cls-4{fill:#0303f2;}</style></defs><rect class="cls-1" x=".5" y=".5" width="188.04" height="43.74"/><rect class="cls-4" x="13.57" y="12.33" width="123.44" height="10.49"/><rect class="cls-2" x="13.57" y="28.45" width="123.44" height="7.37"/><rect class="cls-1" x=".5" y="44.24" width="188.04" height="43.74"/><rect class="cls-1" x=".5" y="87.98" width="188.04" height="43.74"/><rect class="cls-3" x="13.57" y="55.37" width="123.44" height="10.49"/><rect class="cls-3" x="13.57" y="71.48" width="123.44" height="7.37"/><rect class="cls-3" x="13.57" y="99.11" width="123.44" height="10.49"/><rect class="cls-3" x="13.57" y="115.22" width="123.44" height="7.37"/><rect class="cls-4" x="147.47" y="17.95" width="25.71" height="10.49" rx="5.25" ry="5.25"/><rect class="cls-3" x="147.47" y="62.68" width="25.71" height="10.49" rx="5.25" ry="5.25"/><rect class="cls-3" x="147.47" y="106.99" width="25.71" height="10.49" rx="5.25" ry="5.25"/><rect class="cls-1" x=".5" y="131.72" width="188.04" height="43.74"/><rect class="cls-3" x="13.57" y="142.85" width="123.44" height="10.49"/><rect class="cls-3" x="13.57" y="158.96" width="123.44" height="7.37"/><rect class="cls-3" x="147.47" y="150.73" width="25.71" height="10.49" rx="5.25" ry="5.25"/><rect class="cls-3" x="202.88" y=".5" width="164.44" height="174.96"/></svg>