<?xml version="1.0" encoding="UTF-8"?><svg id="Calque_1" xmlns="http://www.w3.org/2000/svg" viewBox="0 0 308.15 148.16"><defs><style>.cls-1{fill:#fff;stroke:#c1c1c1;stroke-miterlimit:10;}.cls-2{fill:#d9d9f9;}.cls-2,.cls-3,.cls-4,.cls-5{stroke-width:0px;}.cls-3{fill:#8c8cf9;}.cls-4{fill:#efefef;}.cls-5{fill:#0303f2;}</style></defs><rect class="cls-1" x=".5" y=".5" width="88.44" height="42.16"/><rect class="cls-5" x="5.9" y="6.66" width="34.98" height="5"/><rect class="cls-3" x="5.9" y="13.51" width="41.97" height="4.06"/><rect class="cls-2" x="5.9" y="30.33" width="18.74" height="3.99"/><rect class="cls-2" x="26.89" y="30.33" width="18.74" height="3.99"/><rect class="cls-2" x="47.72" y="30.33" width="18.74" height="3.99"/><rect class="cls-5" x="64.99" y="15.54" width="17.1" height="6.04"/><rect class="cls-2" x="5.9" y="24.05" width="53.41" height="3.99"/><rect class="cls-1" x="109.85" y=".5" width="88.44" height="42.16"/><rect class="cls-4" x="115.26" y="6.66" width="34.98" height="5"/><rect class="cls-4" x="115.26" y="13.51" width="41.97" height="4.06"/><rect class="cls-4" x="115.26" y="30.33" width="18.74" height="3.99"/><rect class="cls-4" x="136.24" y="30.33" width="18.74" height="3.99"/><rect class="cls-4" x="157.07" y="30.33" width="18.74" height="3.99"/><rect class="cls-4" x="174.35" y="15.54" width="17.1" height="6.04"/><rect class="cls-4" x="115.26" y="24.05" width="53.41" height="3.99"/><rect class="cls-1" x="219.21" y=".5" width="88.44" height="42.16"/><rect class="cls-4" x="224.61" y="6.66" width="34.98" height="5"/><rect class="cls-4" x="224.61" y="13.51" width="41.97" height="4.06"/><rect class="cls-4" x="224.61" y="30.33" width="18.74" height="3.99"/><rect class="cls-4" x="245.59" y="30.33" width="18.74" height="3.99"/><rect class="cls-4" x="266.43" y="30.33" width="18.74" height="3.99"/><rect class="cls-4" x="283.7" y="15.54" width="17.1" height="6.04"/><rect class="cls-4" x="224.61" y="24.05" width="53.41" height="3.99"/><rect class="cls-1" x="109.85" y="53" width="88.44" height="42.16"/><rect class="cls-4" x="115.26" y="59.16" width="34.98" height="5"/><rect class="cls-4" x="115.26" y="66.01" width="41.97" height="4.06"/><rect class="cls-4" x="115.26" y="82.83" width="18.74" height="3.99"/><rect class="cls-4" x="136.24" y="82.83" width="18.74" height="3.99"/><rect class="cls-4" x="157.07" y="82.83" width="18.74" height="3.99"/><rect class="cls-4" x="174.35" y="68.04" width="17.1" height="6.04"/><rect class="cls-4" x="115.26" y="76.55" width="53.41" height="3.99"/><rect class="cls-1" x="1.5" y="52.88" width="88.44" height="42.16"/><rect class="cls-4" x="6.9" y="59.03" width="34.98" height="5"/><rect class="cls-4" x="6.9" y="65.88" width="41.97" height="4.06"/><rect class="cls-4" x="6.9" y="82.7" width="18.74" height="3.99"/><rect class="cls-4" x="27.89" y="82.7" width="18.74" height="3.99"/><rect class="cls-4" x="48.72" y="82.7" width="18.74" height="3.99"/><rect class="cls-4" x="65.99" y="67.91" width="17.1" height="6.04"/><rect class="cls-4" x="6.9" y="76.42" width="53.41" height="3.99"/><rect class="cls-1" x="109.85" y="105.5" width="88.44" height="42.16"/><rect class="cls-4" x="115.26" y="111.66" width="34.98" height="5"/><rect class="cls-4" x="115.26" y="118.51" width="41.97" height="4.06"/><rect class="cls-4" x="115.26" y="135.33" width="18.74" height="3.99"/><rect class="cls-4" x="136.24" y="135.33" width="18.74" height="3.99"/><rect class="cls-4" x="157.07" y="135.33" width="18.74" height="3.99"/><rect class="cls-4" x="174.35" y="120.54" width="17.1" height="6.04"/><rect class="cls-4" x="115.26" y="129.05" width="53.41" height="3.99"/></svg>