<?xml version="1.0" encoding="UTF-8"?><svg id="Calque_1" xmlns="http://www.w3.org/2000/svg" viewBox="0 0 389.63 132.73"><defs><style>.cls-1{fill:#fff;stroke:#c1c1c1;stroke-miterlimit:10;}.cls-2{fill:#d7d7ff;}.cls-2,.cls-3,.cls-4{stroke-width:0px;}.cls-3{fill:#efefef;}.cls-4{fill:#0303f2;}</style></defs><rect class="cls-1" x=".5" y=".5" width="388.63" height="32.89"/><rect class="cls-4" x="11.99" y="7.28" width="70.96" height="8.85"/><rect class="cls-4" x="94.19" y="7.28" width="70.96" height="8.85"/><rect class="cls-2" x="11.99" y="20.87" width="70.96" height="6.21"/><rect class="cls-2" x="94.19" y="20.87" width="70.96" height="6.21"/><rect class="cls-4" x="172" y="7.04" width="70.96" height="8.85"/><rect class="cls-2" x="172" y="20.63" width="70.96" height="6.21"/><rect class="cls-4" x="314.95" y="12.52" width="35.38" height="11.22" rx="5.61" ry="5.61"/><rect class="cls-4" x="369.16" y="12.52" width="10.7" height="11.22" rx="5.35" ry="5.35"/><rect class="cls-1" x=".5" y="33.45" width="388.63" height="32.89"/><rect class="cls-3" x="11.99" y="40.23" width="70.96" height="8.85"/><rect class="cls-3" x="94.19" y="40.23" width="70.96" height="8.85"/><rect class="cls-3" x="11.99" y="53.82" width="70.96" height="6.21"/><rect class="cls-3" x="94.19" y="53.82" width="70.96" height="6.21"/><rect class="cls-3" x="172" y="39.99" width="70.96" height="8.85"/><rect class="cls-3" x="172" y="53.58" width="70.96" height="6.21"/><rect class="cls-3" x="314.95" y="45.47" width="35.38" height="11.22" rx="5.61" ry="5.61"/><rect class="cls-3" x="369.16" y="45.47" width="10.7" height="11.22" rx="5.35" ry="5.35"/><rect class="cls-4" x="262.32" y="12.52" width="35.38" height="11.22" rx="5.61" ry="5.61"/><rect class="cls-3" x="262.32" y="45.47" width="35.38" height="11.22" rx="5.61" ry="5.61"/><rect class="cls-1" x=".5" y="66.39" width="388.63" height="32.89"/><rect class="cls-3" x="11.99" y="73.18" width="70.96" height="8.85"/><rect class="cls-3" x="94.19" y="73.18" width="70.96" height="8.85"/><rect class="cls-3" x="11.99" y="86.77" width="70.96" height="6.21"/><rect class="cls-3" x="94.19" y="86.77" width="70.96" height="6.21"/><rect class="cls-3" x="172" y="72.94" width="70.96" height="8.85"/><rect class="cls-3" x="172" y="86.52" width="70.96" height="6.21"/><rect class="cls-3" x="314.95" y="78.42" width="35.38" height="11.22" rx="5.61" ry="5.61"/><rect class="cls-3" x="369.16" y="78.42" width="10.7" height="11.22" rx="5.35" ry="5.35"/><rect class="cls-3" x="262.32" y="78.42" width="35.38" height="11.22" rx="5.61" ry="5.61"/><rect class="cls-1" x=".5" y="99.34" width="388.63" height="32.89"/><rect class="cls-3" x="11.99" y="106.13" width="70.96" height="8.85"/><rect class="cls-3" x="94.19" y="106.13" width="70.96" height="8.85"/><rect class="cls-3" x="11.99" y="119.71" width="70.96" height="6.21"/><rect class="cls-3" x="94.19" y="119.71" width="70.96" height="6.21"/><rect class="cls-3" x="172" y="105.88" width="70.96" height="8.85"/><rect class="cls-3" x="172" y="119.47" width="70.96" height="6.21"/><rect class="cls-3" x="314.95" y="111.36" width="35.38" height="11.22" rx="5.61" ry="5.61"/><rect class="cls-3" x="369.16" y="111.36" width="10.7" height="11.22" rx="5.35" ry="5.35"/><rect class="cls-3" x="262.32" y="111.36" width="35.38" height="11.22" rx="5.61" ry="5.61"/></svg>