<?xml version="1.0" encoding="UTF-8"?><svg id="Calque_1" xmlns="http://www.w3.org/2000/svg" viewBox="0 0 376.42 171.86"><defs><style>.cls-1{fill:#fff;stroke:#c1c1c1;stroke-miterlimit:10;}.cls-2{fill:#d7d7ff;}.cls-2,.cls-3,.cls-4{stroke-width:0px;}.cls-3{fill:#ededed;}.cls-4{fill:#0303f2;}</style></defs><rect class="cls-1" x=".5" y="102.87" width="168.2" height="22.83"/><rect class="cls-4" x="11.7" y="108.53" width="65.53" height="5.48"/><rect class="cls-4" x="87.62" y="108.53" width="65.53" height="5.48"/><rect class="cls-2" x="11.7" y="116.94" width="65.53" height="3.85"/><rect class="cls-2" x="87.62" y="116.94" width="65.53" height="3.85"/><rect class="cls-1" x=".5" y="125.7" width="168.2" height="22.83"/><rect class="cls-1" x=".5" y="148.53" width="168.2" height="22.83"/><rect class="cls-3" x="11.7" y="130.99" width="65.53" height="5.48"/><rect class="cls-3" x="87.62" y="130.99" width="65.53" height="5.48"/><rect class="cls-3" x="11.7" y="139.4" width="65.53" height="3.85"/><rect class="cls-3" x="87.62" y="139.4" width="65.53" height="3.85"/><rect class="cls-3" x="11.7" y="153.82" width="65.53" height="5.48"/><rect class="cls-3" x="87.62" y="153.82" width="65.53" height="5.48"/><rect class="cls-3" x="11.7" y="162.23" width="65.53" height="3.85"/><rect class="cls-3" x="87.62" y="162.23" width="65.53" height="3.85"/><rect class="cls-3" x=".5" width="311.54" height="90.64"/><rect class="cls-3" x="178.53" y="102.87" width="133.51" height="68.49"/><rect class="cls-3" x="323.05" width="53.36" height="171.36"/></svg>