
      <svg 
        width="2000"
        height="3000" 
        viewBox="0 0 200.00 300.00" 
        xmlns="http://www.w3.org/2000/svg" 
        xmlns:xlink= "http://www.w3.org/1999/xlink"
      >
        <rect 
          width="200.00" 
          height="300.00" 
          fill="transparent"
        />
 
        
<g transform="translate(0.00, 0.00)">
  <g transformOrigin="center" transform="scale(1.00, 1.00)">
    <g transformOrigin="center" transform="rotate(0.00, 50, 50)" opacity="1">
      <svg width="100" height="100" viewBox="0 0 100 100" fill="#e72b57" xmlns="http://www.w3.org/2000/svg">
<path d="M50 50C22.3858 50 0 72.3858 0 100H100C100 72.3858 77.6142 50 50 50Z" fill="#e72b57"/>
</svg>

    </g>
  </g>
</g>

<g transform="translate(100.00, 0.00)">
  <g transformOrigin="center" transform="scale(1.00, 1.00)">
    <g transformOrigin="center" transform="rotate(0.00, 50, 50)" opacity="1">
      <svg width="100" height="100" viewBox="0 0 100 100" fill="#001752" xmlns="http://www.w3.org/2000/svg">
<g clip-path="url(#clip0)">
<path d="M-4.37114e-06 0C-1.95703e-06 55.2285 44.7715 100 100 100L100 -4.37114e-06L-4.37114e-06 0Z" fill="#e72b57"/>
</g>
<defs>
<clipPath id="clip0">
<rect width="100" height="100" fill="#001752"/>
</clipPath>
</defs>
</svg>

    </g>
  </g>
</g>

<g transform="translate(0.00, 100.00)">
  <g transformOrigin="center" transform="scale(1.00, 1.00)">
    <g transformOrigin="center" transform="rotate(0.00, 50, 50)" opacity="1">
      <svg width="100" height="100" viewBox="0 0 100 100" fill="#1501F3" xmlns="http://www.w3.org/2000/svg">
<g clip-path="url(#clip0)">
<path d="M50 50C50 22.3858 27.6142 2.66948e-07 0 5.96244e-07L1.19249e-06 100C27.6142 100 50 77.6142 50 50Z" fill="#E6E2FF"/>
<path d="M100 50C100 22.3858 77.6142 2.66948e-07 50 5.96244e-07L50 100C77.6142 100 100 77.6142 100 50Z" fill="#1501F3"/>
</g>
<defs>
<clipPath id="clip0">
<rect width="100" height="100" fill="#1501F3"/>
</clipPath>
</defs>
</svg>

    </g>
  </g>
</g>

<g transform="translate(100.00, 100.00)">
  <g transformOrigin="center" transform="scale(1.00, 1.00)">
    <g transformOrigin="center" transform="rotate(0.00, 50, 50)" opacity="1">
      <svg width="100" height="100" viewBox="0 0 100 100" fill="#E6E2FF" xmlns="http://www.w3.org/2000/svg">
<g clip-path="url(#clip0)">
<path d="M50 50C50 77.6142 72.3858 100 100 100L100 -2.18557e-06C72.3858 -9.78513e-07 50 22.3858 50 50Z" fill="#E6E2FF"/>
<path d="M1.62913e-06 50C2.83618e-06 77.6142 22.3858 100 50 100L50 -2.18557e-06C22.3858 -9.78513e-07 4.22071e-07 22.3858 1.62913e-06 50Z" fill="#1501F3"/>
</g>
<defs>
<clipPath id="clip0">
<rect width="100" height="100" fill="#1501F3"/>
</clipPath>
</defs>
</svg>

    </g>
  </g>
</g>

<g transform="translate(0.00, 200.00)">
  <g transformOrigin="center" transform="scale(1.00, 1.00)">
    <g transformOrigin="center" transform="rotate(0.00, 50, 50)" opacity="1">
      <svg width="100" height="100" viewBox="0 0 100 100" fill="#E6E2FF" xmlns="http://www.w3.org/2000/svg">
<path d="M100 0C44.7715 0 0 44.7715 0 100H100V0Z" fill="#001752"/>
</svg>

    </g>
  </g>
</g>

<g transform="translate(100.00, 200.00)">
  <g transformOrigin="center" transform="scale(1.00, 1.00)">
    <g transformOrigin="center" transform="rotate(0.00, 50, 50)" opacity="1">
      <svg width="100" height="100" viewBox="0 0 100 100" fill="#e72b57" xmlns="http://www.w3.org/2000/svg">
<g clip-path="url(#clip0)">
<path d="M50 50C50 77.6142 72.3858 100 100 100L100 -2.18557e-06C72.3858 -9.78513e-07 50 22.3858 50 50Z" fill="#001752"/>
</g>
<defs>
<clipPath id="clip0">
<rect width="100" height="100" fill="#001752"/>
</clipPath>
</defs>
</svg>

    </g>
  </g>
</g>

        

      </svg>