<?xml version="1.0" encoding="UTF-8"?><svg id="Calque_2" xmlns="http://www.w3.org/2000/svg" viewBox="0 0 1203.39 1200.01"><defs><style>.cls-1{fill:#006fcf;}.cls-2{fill:#fff;}</style></defs><g id="Layer_1"><polygon class="cls-2" points="1200.01 1200.01 590.51 1200.01 0 1200.01 0 590.23 0 0 599.98 0 1200.01 0 1200.01 597.88 1200.01 1200.01 1200.01 1200.01"/><path class="cls-1" d="m758.23,836.08l-24.15-29.71v29.71h-78.99v-50.71c-10.21,4.7-21.4,7.13-33.19,7.13h-27.91v43.58h-119.22l-21.82-28.55-21.7,28.55h-197.83v-188.44h198.75l21.71,28.3,21.71-28.3h724.42V0H0v506.08l45.21-105.56h77.68l25.22,58.89v-58.89h97.22l15.01,42.69,14.92-42.69h434.08v21.81c15.8-13.88,37.12-21.81,62.3-21.81h138.18l25.22,58.9v-58.9h81.83l21.64,33.54v-33.54h81.74v188.44h-81.27l-21.81-34.05v34.05h-118.7l-11.76-28.88h-32.52l-11.57,28.88h-73.72c-24.14,0-44.43-7.3-59.56-20.37v20.37h-121.84l-24.14-29.71v29.71H111.53l-11.76-28.88h-32.53l-11.56,28.88H0v611.04h1200.01v-377.81c-12.13,8.83-27.71,13.89-45.61,13.89h-396.16Z"/><path class="cls-1" d="m1186.73,702.88l14.11-31.71h-74.66c-30.77,0-48.99,18.78-48.99,44.44s17.24,42.01,44.09,42.01h33.51c7.44,0,12.74,4.65,12.74,11.72s-5.3,11.51-12.74,11.51h-73.29v31.71h72.9c30.76,0,48.99-18.58,48.99-45.85,0-25.65-16.07-40.6-44.1-40.6h-33.5c-7.45,0-12.74-4.65-12.74-11.72s5.29-11.51,12.74-11.51h60.94Zm-203.2,11.51c0-7.07,5.28-11.51,12.73-11.51h60.95l14.11-31.71h-74.66c-30.77,0-48.99,18.78-48.99,44.44s17.24,42.01,44.08,42.01h33.52c7.44,0,12.73,4.65,12.73,11.72s-5.29,11.51-12.73,11.51h-73.3v31.71h72.91c30.76,0,48.98-18.58,48.98-45.85,0-25.65-16.07-40.6-44.09-40.6h-33.51c-7.45,0-12.73-4.65-12.73-11.72h0Zm-162.84,98.17h115.23v-31.71h-79.37v-24.04h77.41v-30.9h-77.41v-23.03h79.37v-31.71h-115.23v141.39h0Zm-5.68,0l-45.85-51.51c23.12-4.85,37.04-22.22,37.04-44.23,0-27.07-18.82-45.65-48.99-45.65h-78.58v141.39h35.86v-50.09h13.91l42.33,50.09h44.28Zm-61.53-80.8h-39v-28.88h39c10.97,0,16.66,6.67,16.66,14.54s-5.69,14.34-16.66,14.34h0Zm-90.32-12.93c0-28.28-18.81-47.67-48.99-47.67h-79.56v141.39h35.86v-46.06h42.52c30.96,0,50.17-20.4,50.17-47.67h0Zm-36.06.2c0,8.68-5.69,15.75-16.66,15.75h-39.98v-31.91h39.98c10.97,0,16.66,7.27,16.66,16.16h0Zm-95.62,93.52l-56.83-71.3,56.43-70.09h-43.89l-33.31,43.42-33.31-43.42h-45.07l56.63,70.9-56.43,70.49h43.89l33.31-43.83,33.51,43.83h45.07Zm-273.94,0h115.22v-31.71h-79.36v-24.04h77.4v-30.9h-77.4v-23.03h79.36v-31.71h-115.22v141.39h0Z"/><path class="cls-1" d="m1096.11,565.44v-141.39h-35.66v87.66l-56.44-87.66h-45.46v141.39h35.86v-90.9l58.2,90.9h43.5Zm-181.84,0h40.57l-60.56-141.39h-46.63l-60.55,141.39h39.58l11.56-28.88h64.28l11.75,28.88h0Zm-24.29-59.59h-39.2l19.6-48.48,19.6,48.48h0Zm-115.66-49.08h38.02v-32.72h-40.76c-44.48,0-68.39,29.49-68.39,69.68v2.02c0,43.43,25.08,69.68,65.64,69.68h2.94l14.7-31.71h-11.56c-22.53,0-35.86-13.74-35.86-37.97v-2.02c0-21.21,11.76-36.96,35.27-36.96h0Zm-124.39,108.67h35.86v-141.39h-35.86v141.39h0Zm-5.68,0l-45.85-51.51c23.12-4.85,37.04-22.22,37.04-44.23,0-27.07-18.81-45.65-48.99-45.65h-78.58v141.39h35.86v-50.09h13.91l42.32,50.09h44.29Zm-61.53-80.79h-39v-28.88h39c10.97,0,16.66,6.67,16.66,14.54s-5.68,14.34-16.66,14.34h0Zm-210.45,80.79h115.22v-31.71h-79.36v-24.04h77.4v-30.9h-77.4v-23.03h79.36v-31.71h-115.22v141.39h0Zm-59.37,0h35.47v-141.39h-56.43l-31.55,90.29-31.75-90.29h-57.02v141.39h35.47v-104.63l37.23,104.63h31.36l37.23-104.63v104.63h0Zm-185.56,0h40.56l-60.55-141.39h-46.64L.17,565.44h39.58l11.56-28.88h64.28l11.76,28.88h0Zm-24.3-59.59h-39.19l19.6-48.48,19.6,48.48h0Z"/></g></svg>