<svg width="804" height="930" viewBox="0 0 804 930" fill="none" xmlns="http://www.w3.org/2000/svg" xmlns:xlink="http://www.w3.org/1999/xlink">
<g clip-path="url(#clip0_1_4576)">
<rect x="51" y="696" width="185" height="137" rx="2" fill="#F5F5F5"/>
<rect x="-378" y="423" width="737" height="625" fill="url(#pattern0_1_4576)"/>
<rect x="-209.693" y="574" width="425.693" height="19.3817" rx="2" fill="#D9D9D9" fill-opacity="0.2"/>
<rect x="119" y="666" width="86" height="49" rx="2" fill="#F5F5F5"/>
<rect x="-56" y="725" width="137" height="137" rx="2" fill="#F5F5F5"/>
<rect x="-12" y="617" width="119" height="98" rx="2" fill="#F5F5F5"/>
<g filter="url(#filter0_d_1_4576)">
<rect x="125" y="707" width="204" height="86" rx="19" fill="white"/>
</g>
<path d="M158.26 755.67C162.22 756.18 164.23 758.55 164.23 761.7C164.23 765.24 161.56 768.3 155.92 768.3C152.95 768.3 149.98 767.4 148.03 765.87L149.71 762.84C151.21 764.1 153.49 764.91 155.86 764.91C158.65 764.91 160.3 763.68 160.3 761.73C160.3 759.84 158.92 758.61 155.74 758.61H153.82V755.94L158.59 750.27H149.05V747H163.36V749.61L158.26 755.67ZM165.701 747H174.041V768H170.141V750.27H165.701V747ZM195.438 755.67C199.398 756.18 201.408 758.55 201.408 761.7C201.408 765.24 198.738 768.3 193.098 768.3C190.128 768.3 187.158 767.4 185.208 765.87L186.888 762.84C188.388 764.1 190.668 764.91 193.038 764.91C195.828 764.91 197.478 763.68 197.478 761.73C197.478 759.84 196.098 758.61 192.918 758.61H190.998V755.94L195.768 750.27H186.228V747H200.538V749.61L195.438 755.67ZM217.579 756.96C219.769 757.95 220.999 759.66 220.999 761.97C220.999 765.87 217.609 768.3 212.389 768.3C207.169 768.3 203.839 765.87 203.839 761.97C203.839 759.66 205.039 757.95 207.199 756.96C205.519 756.03 204.589 754.53 204.589 752.55C204.589 748.95 207.739 746.7 212.389 746.7C217.069 746.7 220.249 748.95 220.249 752.55C220.249 754.53 219.289 756.03 217.579 756.96ZM212.389 749.76C209.989 749.76 208.429 750.84 208.429 752.73C208.429 754.53 209.929 755.67 212.389 755.67C214.879 755.67 216.409 754.53 216.409 752.73C216.409 750.84 214.789 749.76 212.389 749.76ZM212.389 765.24C215.269 765.24 217.069 763.98 217.069 761.85C217.069 759.78 215.269 758.49 212.389 758.49C209.509 758.49 207.769 759.78 207.769 761.85C207.769 763.98 209.509 765.24 212.389 765.24ZM228.839 764.7H238.739V768H223.259V765.39L231.599 757.47C233.639 755.52 233.999 754.29 233.999 753.12C233.999 751.2 232.679 750.09 230.099 750.09C228.059 750.09 226.349 750.78 225.179 752.28L222.449 750.18C224.069 747.99 226.979 746.7 230.429 746.7C234.989 746.7 237.929 749.01 237.929 752.73C237.929 754.77 237.359 756.63 234.449 759.36L228.839 764.7ZM257.49 762.06C257.49 765.12 255.24 767.76 250.53 768.24V771.6H248.07V768.27C245.13 768.09 242.28 767.13 240.72 765.78L242.07 762.75C243.54 763.95 245.79 764.82 248.07 765.03V759.03C244.74 758.22 241.17 757.14 241.17 752.97C241.17 749.91 243.39 747.24 248.07 746.79V743.4H250.53V746.73C252.75 746.85 255 747.51 256.62 748.56L255.39 751.59C253.8 750.66 252.12 750.15 250.53 749.97V756.03C253.86 756.84 257.49 757.89 257.49 762.06ZM245.04 752.79C245.04 754.23 246.33 754.89 248.07 755.4V750.06C245.94 750.39 245.04 751.47 245.04 752.79ZM250.53 764.97C252.72 764.64 253.65 763.62 253.65 762.33C253.65 760.86 252.33 760.17 250.53 759.66V764.97Z" fill="#200EF0"/>
<path d="M150.596 730V723.51H148.044V722.3H154.578V723.51H152.026V730H150.596ZM157.558 730.077C155.754 730.077 154.434 728.823 154.434 727.063C154.434 725.303 155.754 724.06 157.558 724.06C159.384 724.06 160.693 725.303 160.693 727.063C160.693 728.823 159.384 730.077 157.558 730.077ZM157.558 728.9C158.559 728.9 159.307 728.185 159.307 727.063C159.307 725.941 158.559 725.226 157.558 725.226C156.568 725.226 155.82 725.941 155.82 727.063C155.82 728.185 156.568 728.9 157.558 728.9ZM165.153 728.702L165.538 729.681C165.208 729.945 164.713 730.077 164.218 730.077C162.931 730.077 162.194 729.395 162.194 728.097V725.27H161.226V724.17H162.194V722.828H163.569V724.17H165.142V725.27H163.569V728.064C163.569 728.636 163.855 728.944 164.383 728.944C164.669 728.944 164.944 728.867 165.153 728.702ZM168.914 724.06C170.608 724.06 171.587 724.863 171.587 726.557V730H170.289V729.285C169.959 729.791 169.321 730.077 168.441 730.077C167.099 730.077 166.252 729.34 166.252 728.317C166.252 727.338 166.912 726.568 168.694 726.568H170.212V726.48C170.212 725.677 169.728 725.204 168.749 725.204C168.089 725.204 167.407 725.424 166.967 725.787L166.428 724.786C167.055 724.302 167.968 724.06 168.914 724.06ZM168.727 729.076C169.398 729.076 169.981 728.768 170.212 728.163V727.481H168.793C167.858 727.481 167.605 727.833 167.605 728.262C167.605 728.757 168.023 729.076 168.727 729.076ZM173.351 730V721.838H174.726V730H173.351ZM183.949 721.838H185.324V730H184.004V729.241C183.542 729.802 182.86 730.077 182.057 730.077C180.352 730.077 179.087 728.889 179.087 727.063C179.087 725.237 180.352 724.06 182.057 724.06C182.816 724.06 183.487 724.313 183.949 724.852V721.838ZM182.222 728.9C183.212 728.9 183.971 728.185 183.971 727.063C183.971 725.941 183.212 725.226 182.222 725.226C181.232 725.226 180.473 725.941 180.473 727.063C180.473 728.185 181.232 728.9 182.222 728.9ZM192.645 727.096C192.645 727.206 192.634 727.371 192.623 727.503H188.014C188.179 728.361 188.894 728.911 189.917 728.911C190.577 728.911 191.094 728.702 191.512 728.273L192.249 729.12C191.721 729.747 190.896 730.077 189.884 730.077C187.915 730.077 186.639 728.812 186.639 727.063C186.639 725.314 187.926 724.06 189.675 724.06C191.391 724.06 192.645 725.259 192.645 727.096ZM189.675 725.16C188.784 725.16 188.135 725.732 188.003 726.59H191.336C191.226 725.743 190.577 725.16 189.675 725.16ZM195.78 730.077C194.801 730.077 193.822 729.791 193.294 729.417L193.822 728.372C194.339 728.713 195.131 728.955 195.868 728.955C196.737 728.955 197.1 728.713 197.1 728.306C197.1 727.184 193.47 728.24 193.47 725.897C193.47 724.786 194.471 724.06 196.055 724.06C196.836 724.06 197.727 724.247 198.255 724.566L197.727 725.611C197.166 725.281 196.605 725.171 196.044 725.171C195.208 725.171 194.812 725.446 194.812 725.831C194.812 727.019 198.442 725.963 198.442 728.262C198.442 729.362 197.43 730.077 195.78 730.077ZM203.976 724.984C204.372 724.368 205.087 724.06 206.066 724.06V725.369C205.945 725.347 205.846 725.336 205.747 725.336C204.702 725.336 204.042 725.952 204.042 727.151V730H202.667V724.126H203.976V724.984ZM212.7 727.096C212.7 727.206 212.689 727.371 212.678 727.503H208.069C208.234 728.361 208.949 728.911 209.972 728.911C210.632 728.911 211.149 728.702 211.567 728.273L212.304 729.12C211.776 729.747 210.951 730.077 209.939 730.077C207.97 730.077 206.694 728.812 206.694 727.063C206.694 725.314 207.981 724.06 209.73 724.06C211.446 724.06 212.7 725.259 212.7 727.096ZM209.73 725.16C208.839 725.16 208.19 725.732 208.058 726.59H211.391C211.281 725.743 210.632 725.16 209.73 725.16ZM218.094 724.126H219.414L216.895 730H215.476L212.957 724.126H214.387L216.213 728.482L218.094 724.126ZM225.634 727.096C225.634 727.206 225.623 727.371 225.612 727.503H221.003C221.168 728.361 221.883 728.911 222.906 728.911C223.566 728.911 224.083 728.702 224.501 728.273L225.238 729.12C224.71 729.747 223.885 730.077 222.873 730.077C220.904 730.077 219.628 728.812 219.628 727.063C219.628 725.314 220.915 724.06 222.664 724.06C224.38 724.06 225.634 725.259 225.634 727.096ZM222.664 725.16C221.773 725.16 221.124 725.732 220.992 726.59H224.325C224.215 725.743 223.566 725.16 222.664 725.16ZM230.288 724.06C231.696 724.06 232.741 724.863 232.741 726.634V730H231.366V726.81C231.366 725.765 230.849 725.259 229.969 725.259C228.99 725.259 228.33 725.853 228.33 727.03V730H226.955V724.126H228.264V724.885C228.715 724.346 229.43 724.06 230.288 724.06ZM238.797 724.126H240.172V730H238.863V729.252C238.423 729.791 237.73 730.077 236.971 730.077C235.464 730.077 234.441 729.252 234.441 727.481V724.126H235.816V727.294C235.816 728.361 236.322 728.867 237.191 728.867C238.148 728.867 238.797 728.273 238.797 727.096V724.126ZM243.787 730.077C242.808 730.077 241.829 729.791 241.301 729.417L241.829 728.372C242.346 728.713 243.138 728.955 243.875 728.955C244.744 728.955 245.107 728.713 245.107 728.306C245.107 727.184 241.477 728.24 241.477 725.897C241.477 724.786 242.478 724.06 244.062 724.06C244.843 724.06 245.734 724.247 246.262 724.566L245.734 725.611C245.173 725.281 244.612 725.171 244.051 725.171C243.215 725.171 242.819 725.446 242.819 725.831C242.819 727.019 246.449 725.963 246.449 728.262C246.449 729.362 245.437 730.077 243.787 730.077Z" fill="black"/>
<rect x="119" y="617" width="86" height="39" rx="2" fill="#F5F5F5"/>
<path d="M359.056 802.881C359.056 802.881 365.702 790.715 373.264 788C382.767 784.588 388.344 796.129 398.301 794.455C411.196 792.286 414.532 773.853 427.595 773.267C443.36 772.559 458.661 799.87 458.661 799.87" stroke="#200EF0" stroke-width="4" stroke-linecap="round"/>
<path d="M373.264 788C365.702 790.715 359.056 802.881 359.056 802.881L359 818.073L458.593 818.438L458.661 799.87C458.661 799.87 443.36 772.559 427.595 773.267C414.532 773.853 411.196 792.286 398.301 794.455C388.344 796.129 382.767 784.588 373.264 788Z" fill="url(#paint0_linear_1_4576)" fill-opacity="0.14"/>
<g filter="url(#filter1_d_1_4576)">
<path fill-rule="evenodd" clip-rule="evenodd" d="M65 720C65 724.97 69.03 729 74 729C78.97 729 83 724.97 83 720C83 715.029 78.97 711 74 711C69.03 711 65 715.029 65 720Z" fill="url(#paint1_linear_1_4576)"/>
<path fill-rule="evenodd" clip-rule="evenodd" d="M75 719V716C75 715.448 74.552 715 74 715C73.448 715 73 715.448 73 716V719H70C69.448 719 69 719.448 69 720C69 720.552 69.448 721 70 721H73V724C73 724.552 73.448 725 74 725C74.552 725 75 724.552 75 724V721H78C78.552 721 79 720.552 79 720C79 719.448 78.552 719 78 719H75Z" fill="white"/>
<path fill-rule="evenodd" clip-rule="evenodd" d="M64 713.5V697.5L75.6 709.108H68.5535L68.4024 709.232L64 713.5Z" fill="white"/>
<path fill-rule="evenodd" clip-rule="evenodd" d="M65 699.8V711L67.969 708.131L68.129 707.992L73.165 708L65 699.8Z" fill="black"/>
</g>
</g>
<defs>
<pattern id="pattern0_1_4576" patternContentUnits="objectBoundingBox" width="1" height="1">
<use xlink:href="#image0_1_4576" transform="matrix(0.00235565 0 0 0.00277778 -0.065355 0)"/>
</pattern>
<filter id="filter0_d_1_4576" x="121" y="703" width="224" height="106" filterUnits="userSpaceOnUse" color-interpolation-filters="sRGB">
<feFlood flood-opacity="0" result="BackgroundImageFix"/>
<feColorMatrix in="SourceAlpha" type="matrix" values="0 0 0 0 0 0 0 0 0 0 0 0 0 0 0 0 0 0 127 0" result="hardAlpha"/>
<feOffset dx="6" dy="6"/>
<feGaussianBlur stdDeviation="5"/>
<feComposite in2="hardAlpha" operator="out"/>
<feColorMatrix type="matrix" values="0 0 0 0 0 0 0 0 0 0 0 0 0 0 0 0 0 0 0.05 0"/>
<feBlend mode="normal" in2="BackgroundImageFix" result="effect1_dropShadow_1_4576"/>
<feBlend mode="normal" in="SourceGraphic" in2="effect1_dropShadow_1_4576" result="shape"/>
</filter>
<filter id="filter1_d_1_4576" x="58.2" y="694.2" width="31.6" height="43.6" filterUnits="userSpaceOnUse" color-interpolation-filters="sRGB">
<feFlood flood-opacity="0" result="BackgroundImageFix"/>
<feColorMatrix in="SourceAlpha" type="matrix" values="0 0 0 0 0 0 0 0 0 0 0 0 0 0 0 0 0 0 127 0" result="hardAlpha"/>
<feOffset dy="1"/>
<feGaussianBlur stdDeviation="0.9"/>
<feColorMatrix type="matrix" values="0 0 0 0 0 0 0 0 0 0 0 0 0 0 0 0 0 0 0.65 0"/>
<feBlend mode="normal" in2="BackgroundImageFix" result="effect1_dropShadow_1_4576"/>
<feBlend mode="normal" in="SourceGraphic" in2="effect1_dropShadow_1_4576" result="shape"/>
</filter>
<linearGradient id="paint0_linear_1_4576" x1="408.962" y1="773.183" x2="408.797" y2="818.256" gradientUnits="userSpaceOnUse">
<stop stop-color="#200EF0"/>
<stop offset="1" stop-color="#5030E5" stop-opacity="0"/>
</linearGradient>
<linearGradient id="paint1_linear_1_4576" x1="74" y1="711" x2="74" y2="729" gradientUnits="userSpaceOnUse">
<stop stop-color="#5CD331"/>
<stop offset="1" stop-color="#078C04"/>
</linearGradient>
<clipPath id="clip0_1_4576">
<rect width="804" height="930" fill="white"/>
</clipPath>
</defs>
</svg>
