<?xml version="1.0" encoding="UTF-8"?><svg id="Calque_2" xmlns="http://www.w3.org/2000/svg" viewBox="0 0 116.49 72"><defs><style>.cls-1{fill:#f79e1b;}.cls-2{fill:#eb001b;}.cls-3{fill:#ff5f00;}</style></defs><g id="Calque_1-2"><rect class="cls-3" x="42.5" y="7.7" width="31.5" height="56.61"/><path class="cls-2" d="m44.5,36c-.01-11.05,5.06-21.48,13.75-28.3C42.62-4.59,19.98-1.88,7.7,13.75-4.59,29.39-1.88,52.02,13.75,64.3c13.06,10.26,31.44,10.26,44.49,0-8.69-6.82-13.76-17.26-13.75-28.3Z"/><path class="cls-1" d="m116.49,36c0,19.88-16.12,36-36,36-8.07,0-15.9-2.71-22.25-7.7,15.63-12.29,18.34-34.93,6.05-50.56-1.77-2.25-3.8-4.28-6.05-6.05,15.63-12.29,38.26-9.58,50.55,6.06,4.99,6.34,7.7,14.18,7.7,22.25Z"/><path class="cls-1" d="m113.06,58.31v-1.16h.47v-.24h-1.19v.24h.47v1.16h.26Zm2.31,0v-1.4h-.36l-.42.96-.42-.96h-.36v1.4h.26v-1.05l.39.91h.27l.39-.91v1.06h.26Z"/></g></svg>