<svg width="240" height="134" viewBox="0 0 240 134" fill="none" xmlns="http://www.w3.org/2000/svg">
<g filter="url(#filter0_d_89_2258)">
<rect x="4" width="232" height="126" rx="12" fill="white"/>
<path d="M23.47 31.5V21.7H27.292C28.1507 21.7 28.8833 21.8353 29.49 22.106C30.0967 22.3767 30.5633 22.7687 30.89 23.282C31.2167 23.7953 31.38 24.4067 31.38 25.116C31.38 25.8253 31.2167 26.4367 30.89 26.95C30.5633 27.454 30.0967 27.8413 29.49 28.112C28.8833 28.3827 28.1507 28.518 27.292 28.518H24.24L24.87 27.874V31.5H23.47ZM30.022 31.5L27.53 27.944H29.028L31.548 31.5H30.022ZM24.87 28.014L24.24 27.328H27.25C28.146 27.328 28.8227 27.1367 29.28 26.754C29.7467 26.362 29.98 25.816 29.98 25.116C29.98 24.416 29.7467 23.8747 29.28 23.492C28.8227 23.1093 28.146 22.918 27.25 22.918H24.24L24.87 22.218V28.014ZM36.7499 31.584C35.9565 31.584 35.2565 31.4207 34.6499 31.094C34.0525 30.7673 33.5859 30.3193 33.2499 29.75C32.9232 29.1807 32.7599 28.5273 32.7599 27.79C32.7599 27.0527 32.9185 26.3993 33.2359 25.83C33.5625 25.2607 34.0059 24.8173 34.5659 24.5C35.1352 24.1733 35.7745 24.01 36.4839 24.01C37.2025 24.01 37.8372 24.1687 38.3879 24.486C38.9385 24.8033 39.3679 25.2513 39.6759 25.83C39.9932 26.3993 40.1519 27.0667 40.1519 27.832C40.1519 27.888 40.1472 27.9533 40.1379 28.028C40.1379 28.1027 40.1332 28.1727 40.1239 28.238H33.8099V27.272H39.4239L38.8779 27.608C38.8872 27.132 38.7892 26.7073 38.5839 26.334C38.3785 25.9607 38.0939 25.6713 37.7299 25.466C37.3752 25.2513 36.9599 25.144 36.4839 25.144C36.0172 25.144 35.6019 25.2513 35.2379 25.466C34.8739 25.6713 34.5892 25.9653 34.3839 26.348C34.1785 26.7213 34.0759 27.1507 34.0759 27.636V27.86C34.0759 28.3547 34.1879 28.798 34.4119 29.19C34.6452 29.5727 34.9672 29.8713 35.3779 30.086C35.7885 30.3007 36.2599 30.408 36.7919 30.408C37.2305 30.408 37.6272 30.3333 37.9819 30.184C38.3459 30.0347 38.6632 29.8107 38.9339 29.512L39.6759 30.38C39.3399 30.772 38.9199 31.0707 38.4159 31.276C37.9212 31.4813 37.3659 31.584 36.7499 31.584ZM43.8274 31.5L40.5794 24.08H41.9794L44.8634 30.8H44.1914L47.1314 24.08H48.4474L45.1994 31.5H43.8274ZM52.8007 31.584C52.0073 31.584 51.3073 31.4207 50.7007 31.094C50.1033 30.7673 49.6367 30.3193 49.3007 29.75C48.974 29.1807 48.8107 28.5273 48.8107 27.79C48.8107 27.0527 48.9693 26.3993 49.2867 25.83C49.6133 25.2607 50.0567 24.8173 50.6167 24.5C51.186 24.1733 51.8253 24.01 52.5347 24.01C53.2533 24.01 53.888 24.1687 54.4387 24.486C54.9893 24.8033 55.4187 25.2513 55.7267 25.83C56.044 26.3993 56.2027 27.0667 56.2027 27.832C56.2027 27.888 56.198 27.9533 56.1887 28.028C56.1887 28.1027 56.184 28.1727 56.1747 28.238H49.8607V27.272H55.4747L54.9287 27.608C54.938 27.132 54.84 26.7073 54.6347 26.334C54.4293 25.9607 54.1447 25.6713 53.7807 25.466C53.426 25.2513 53.0107 25.144 52.5347 25.144C52.068 25.144 51.6527 25.2513 51.2887 25.466C50.9247 25.6713 50.64 25.9653 50.4347 26.348C50.2293 26.7213 50.1267 27.1507 50.1267 27.636V27.86C50.1267 28.3547 50.2387 28.798 50.4627 29.19C50.696 29.5727 51.018 29.8713 51.4287 30.086C51.8393 30.3007 52.3107 30.408 52.8427 30.408C53.2813 30.408 53.678 30.3333 54.0327 30.184C54.3967 30.0347 54.714 29.8107 54.9847 29.512L55.7267 30.38C55.3907 30.772 54.9707 31.0707 54.4667 31.276C53.972 31.4813 53.4167 31.584 52.8007 31.584ZM62.0309 24.01C62.6376 24.01 63.1696 24.1267 63.6269 24.36C64.0936 24.5933 64.4576 24.948 64.7189 25.424C64.9803 25.9 65.1109 26.502 65.1109 27.23V31.5H63.7669V27.384C63.7669 26.6653 63.5896 26.124 63.2349 25.76C62.8896 25.396 62.3996 25.214 61.7649 25.214C61.2889 25.214 60.8736 25.3073 60.5189 25.494C60.1643 25.6807 59.8889 25.956 59.6929 26.32C59.5063 26.684 59.4129 27.1367 59.4129 27.678V31.5H58.0689V24.08H59.3569V26.082L59.1469 25.55C59.3896 25.0647 59.7629 24.6867 60.2669 24.416C60.7709 24.1453 61.3589 24.01 62.0309 24.01ZM70.7202 31.584C70.0856 31.584 69.5256 31.4673 69.0402 31.234C68.5642 31.0007 68.1909 30.646 67.9202 30.17C67.6589 29.6847 67.5282 29.078 67.5282 28.35V24.08H68.8722V28.196C68.8722 28.924 69.0449 29.47 69.3902 29.834C69.7449 30.198 70.2396 30.38 70.8742 30.38C71.3409 30.38 71.7469 30.2867 72.0922 30.1C72.4376 29.904 72.7036 29.624 72.8902 29.26C73.0769 28.8867 73.1702 28.4387 73.1702 27.916V24.08H74.5142V31.5H73.2402V29.498L73.4502 30.03C73.2076 30.5247 72.8436 30.9073 72.3582 31.178C71.8729 31.4487 71.3269 31.584 70.7202 31.584ZM79.2008 31.584C78.5848 31.584 77.9968 31.5 77.4368 31.332C76.8862 31.164 76.4522 30.9587 76.1348 30.716L76.6948 29.652C77.0122 29.8667 77.4042 30.0487 77.8708 30.198C78.3375 30.3473 78.8135 30.422 79.2988 30.422C79.9242 30.422 80.3722 30.3333 80.6428 30.156C80.9228 29.9787 81.0628 29.7313 81.0628 29.414C81.0628 29.1807 80.9788 28.9987 80.8108 28.868C80.6428 28.7373 80.4188 28.6393 80.1388 28.574C79.8682 28.5087 79.5648 28.4527 79.2288 28.406C78.8928 28.35 78.5568 28.2847 78.2208 28.21C77.8848 28.126 77.5768 28.014 77.2968 27.874C77.0168 27.7247 76.7928 27.524 76.6248 27.272C76.4568 27.0107 76.3728 26.6653 76.3728 26.236C76.3728 25.788 76.4988 25.396 76.7508 25.06C77.0028 24.724 77.3575 24.4673 77.8148 24.29C78.2815 24.1033 78.8322 24.01 79.4668 24.01C79.9522 24.01 80.4422 24.0707 80.9368 24.192C81.4408 24.304 81.8515 24.4673 82.1688 24.682L81.5948 25.746C81.2588 25.522 80.9088 25.368 80.5448 25.284C80.1808 25.2 79.8168 25.158 79.4528 25.158C78.8648 25.158 78.4262 25.256 78.1368 25.452C77.8475 25.6387 77.7028 25.8813 77.7028 26.18C77.7028 26.432 77.7868 26.628 77.9548 26.768C78.1322 26.8987 78.3562 27.0013 78.6268 27.076C78.9068 27.1507 79.2148 27.216 79.5508 27.272C79.8868 27.3187 80.2228 27.384 80.5588 27.468C80.8948 27.5427 81.1982 27.65 81.4688 27.79C81.7488 27.93 81.9728 28.126 82.1408 28.378C82.3182 28.63 82.4068 28.966 82.4068 29.386C82.4068 29.834 82.2762 30.2213 82.0148 30.548C81.7535 30.8747 81.3848 31.1313 80.9088 31.318C80.4328 31.4953 79.8635 31.584 79.2008 31.584ZM90.9123 31.584C90.1936 31.584 89.5496 31.4253 88.9803 31.108C88.4203 30.7907 87.9769 30.3473 87.6503 29.778C87.3236 29.2087 87.1603 28.546 87.1603 27.79C87.1603 27.034 87.3236 26.376 87.6503 25.816C87.9769 25.2467 88.4203 24.8033 88.9803 24.486C89.5496 24.1687 90.1936 24.01 90.9123 24.01C91.5376 24.01 92.1023 24.15 92.6063 24.43C93.1103 24.71 93.5116 25.13 93.8103 25.69C94.1183 26.25 94.2723 26.95 94.2723 27.79C94.2723 28.63 94.1229 29.33 93.8243 29.89C93.5349 30.45 93.1383 30.8747 92.6343 31.164C92.1303 31.444 91.5563 31.584 90.9123 31.584ZM91.0243 30.408C91.4909 30.408 91.9109 30.3007 92.2843 30.086C92.6669 29.8713 92.9656 29.568 93.1803 29.176C93.4043 28.7747 93.5163 28.3127 93.5163 27.79C93.5163 27.258 93.4043 26.8007 93.1803 26.418C92.9656 26.026 92.6669 25.7227 92.2843 25.508C91.9109 25.2933 91.4909 25.186 91.0243 25.186C90.5483 25.186 90.1236 25.2933 89.7503 25.508C89.3769 25.7227 89.0783 26.026 88.8543 26.418C88.6303 26.8007 88.5183 27.258 88.5183 27.79C88.5183 28.3127 88.6303 28.7747 88.8543 29.176C89.0783 29.568 89.3769 29.8713 89.7503 30.086C90.1236 30.3007 90.5483 30.408 91.0243 30.408ZM93.5583 31.5V29.498L93.6423 27.776L93.5023 26.054V21.112H94.8463V31.5H93.5583ZM100.693 31.584C99.8999 31.584 99.1999 31.4207 98.5932 31.094C97.9959 30.7673 97.5292 30.3193 97.1932 29.75C96.8666 29.1807 96.7032 28.5273 96.7032 27.79C96.7032 27.0527 96.8619 26.3993 97.1792 25.83C97.5059 25.2607 97.9492 24.8173 98.5092 24.5C99.0786 24.1733 99.7179 24.01 100.427 24.01C101.146 24.01 101.781 24.1687 102.331 24.486C102.882 24.8033 103.311 25.2513 103.619 25.83C103.937 26.3993 104.095 27.0667 104.095 27.832C104.095 27.888 104.091 27.9533 104.081 28.028C104.081 28.1027 104.077 28.1727 104.067 28.238H97.7532V27.272H103.367L102.821 27.608C102.831 27.132 102.733 26.7073 102.527 26.334C102.322 25.9607 102.037 25.6713 101.673 25.466C101.319 25.2513 100.903 25.144 100.427 25.144C99.9606 25.144 99.5452 25.2513 99.1812 25.466C98.8172 25.6713 98.5326 25.9653 98.3272 26.348C98.1219 26.7213 98.0192 27.1507 98.0192 27.636V27.86C98.0192 28.3547 98.1312 28.798 98.3552 29.19C98.5886 29.5727 98.9106 29.8713 99.3212 30.086C99.7319 30.3007 100.203 30.408 100.735 30.408C101.174 30.408 101.571 30.3333 101.925 30.184C102.289 30.0347 102.607 29.8107 102.877 29.512L103.619 30.38C103.283 30.772 102.863 31.0707 102.359 31.276C101.865 31.4813 101.309 31.584 100.693 31.584ZM109.721 31.5V21.112H111.065V31.5H109.721ZM118.237 31.5V29.932L118.167 29.638V26.964C118.167 26.3947 117.999 25.956 117.663 25.648C117.337 25.3307 116.842 25.172 116.179 25.172C115.741 25.172 115.311 25.2467 114.891 25.396C114.471 25.536 114.117 25.7273 113.827 25.97L113.267 24.962C113.65 24.654 114.107 24.4207 114.639 24.262C115.181 24.094 115.745 24.01 116.333 24.01C117.351 24.01 118.135 24.2573 118.685 24.752C119.236 25.2467 119.511 26.0027 119.511 27.02V31.5H118.237ZM115.801 31.584C115.251 31.584 114.765 31.4907 114.345 31.304C113.935 31.1173 113.617 30.8607 113.393 30.534C113.169 30.198 113.057 29.82 113.057 29.4C113.057 28.9987 113.151 28.6347 113.337 28.308C113.533 27.9813 113.846 27.72 114.275 27.524C114.714 27.328 115.302 27.23 116.039 27.23H118.391V28.196H116.095C115.423 28.196 114.971 28.308 114.737 28.532C114.504 28.756 114.387 29.0267 114.387 29.344C114.387 29.708 114.532 30.002 114.821 30.226C115.111 30.4407 115.512 30.548 116.025 30.548C116.529 30.548 116.968 30.436 117.341 30.212C117.724 29.988 117.999 29.6613 118.167 29.232L118.433 30.156C118.256 30.5947 117.943 30.9447 117.495 31.206C117.047 31.458 116.483 31.584 115.801 31.584ZM124.806 34.3C124.498 34.3 124.204 34.2627 123.924 34.188C123.635 34.1133 123.392 34.0013 123.196 33.852L123.63 32.816C123.91 33.0493 124.274 33.166 124.722 33.166C125.077 33.166 125.348 33.054 125.534 32.83C125.73 32.6153 125.828 32.2933 125.828 31.864V24.08H127.172V31.836C127.172 32.592 126.967 33.1893 126.556 33.628C126.155 34.076 125.572 34.3 124.806 34.3ZM126.5 22.652C126.239 22.652 126.02 22.568 125.842 22.4C125.674 22.232 125.59 22.0267 125.59 21.784C125.59 21.532 125.674 21.322 125.842 21.154C126.02 20.986 126.239 20.902 126.5 20.902C126.762 20.902 126.976 20.986 127.144 21.154C127.322 21.3127 127.41 21.5133 127.41 21.756C127.41 22.008 127.326 22.2227 127.158 22.4C126.99 22.568 126.771 22.652 126.5 22.652ZM132.915 31.584C132.168 31.584 131.506 31.4207 130.927 31.094C130.348 30.7673 129.891 30.3193 129.555 29.75C129.219 29.1713 129.051 28.518 129.051 27.79C129.051 27.0527 129.219 26.3993 129.555 25.83C129.891 25.2607 130.348 24.8173 130.927 24.5C131.506 24.1733 132.168 24.01 132.915 24.01C133.652 24.01 134.31 24.1733 134.889 24.5C135.477 24.8173 135.934 25.2607 136.261 25.83C136.597 26.39 136.765 27.0433 136.765 27.79C136.765 28.5273 136.597 29.1807 136.261 29.75C135.934 30.3193 135.477 30.7673 134.889 31.094C134.31 31.4207 133.652 31.584 132.915 31.584ZM132.915 30.408C133.391 30.408 133.816 30.3007 134.189 30.086C134.572 29.8713 134.87 29.568 135.085 29.176C135.3 28.7747 135.407 28.3127 135.407 27.79C135.407 27.258 135.3 26.8007 135.085 26.418C134.87 26.026 134.572 25.7227 134.189 25.508C133.816 25.2933 133.391 25.186 132.915 25.186C132.439 25.186 132.014 25.2933 131.641 25.508C131.268 25.7227 130.969 26.026 130.745 26.418C130.521 26.8007 130.409 27.258 130.409 27.79C130.409 28.3127 130.521 28.7747 130.745 29.176C130.969 29.568 131.268 29.8713 131.641 30.086C132.014 30.3007 132.439 30.408 132.915 30.408ZM141.746 31.584C141.111 31.584 140.551 31.4673 140.066 31.234C139.59 31.0007 139.216 30.646 138.946 30.17C138.684 29.6847 138.554 29.078 138.554 28.35V24.08H139.898V28.196C139.898 28.924 140.07 29.47 140.416 29.834C140.77 30.198 141.265 30.38 141.9 30.38C142.366 30.38 142.772 30.2867 143.118 30.1C143.463 29.904 143.729 29.624 143.916 29.26C144.102 28.8867 144.196 28.4387 144.196 27.916V24.08H145.54V31.5H144.266V29.498L144.476 30.03C144.233 30.5247 143.869 30.9073 143.384 31.178C142.898 31.4487 142.352 31.584 141.746 31.584ZM148.098 31.5V24.08H149.386V26.096L149.26 25.592C149.466 25.0787 149.811 24.6867 150.296 24.416C150.782 24.1453 151.379 24.01 152.088 24.01V25.312C152.032 25.3027 151.976 25.298 151.92 25.298C151.874 25.298 151.827 25.298 151.78 25.298C151.062 25.298 150.492 25.5127 150.072 25.942C149.652 26.3713 149.442 26.992 149.442 27.804V31.5H148.098ZM157.707 24.01C158.313 24.01 158.845 24.1267 159.303 24.36C159.769 24.5933 160.133 24.948 160.395 25.424C160.656 25.9 160.787 26.502 160.787 27.23V31.5H159.443V27.384C159.443 26.6653 159.265 26.124 158.911 25.76C158.565 25.396 158.075 25.214 157.441 25.214C156.965 25.214 156.549 25.3073 156.195 25.494C155.84 25.6807 155.565 25.956 155.369 26.32C155.182 26.684 155.089 27.1367 155.089 27.678V31.5H153.745V24.08H155.033V26.082L154.823 25.55C155.065 25.0647 155.439 24.6867 155.943 24.416C156.447 24.1453 157.035 24.01 157.707 24.01ZM166.578 31.584C165.785 31.584 165.085 31.4207 164.478 31.094C163.881 30.7673 163.414 30.3193 163.078 29.75C162.751 29.1807 162.588 28.5273 162.588 27.79C162.588 27.0527 162.747 26.3993 163.064 25.83C163.391 25.2607 163.834 24.8173 164.394 24.5C164.963 24.1733 165.603 24.01 166.312 24.01C167.031 24.01 167.665 24.1687 168.216 24.486C168.767 24.8033 169.196 25.2513 169.504 25.83C169.821 26.3993 169.98 27.0667 169.98 27.832C169.98 27.888 169.975 27.9533 169.966 28.028C169.966 28.1027 169.961 28.1727 169.952 28.238H163.638V27.272H169.252L168.706 27.608C168.715 27.132 168.617 26.7073 168.412 26.334C168.207 25.9607 167.922 25.6713 167.558 25.466C167.203 25.2513 166.788 25.144 166.312 25.144C165.845 25.144 165.43 25.2513 165.066 25.466C164.702 25.6713 164.417 25.9653 164.212 26.348C164.007 26.7213 163.904 27.1507 163.904 27.636V27.86C163.904 28.3547 164.016 28.798 164.24 29.19C164.473 29.5727 164.795 29.8713 165.206 30.086C165.617 30.3007 166.088 30.408 166.62 30.408C167.059 30.408 167.455 30.3333 167.81 30.184C168.174 30.0347 168.491 29.8107 168.762 29.512L169.504 30.38C169.168 30.772 168.748 31.0707 168.244 31.276C167.749 31.4813 167.194 31.584 166.578 31.584ZM165.248 23.002L167.152 21.182H168.86L166.508 23.002H165.248ZM175.15 31.584C174.357 31.584 173.657 31.4207 173.05 31.094C172.453 30.7673 171.986 30.3193 171.65 29.75C171.324 29.1807 171.16 28.5273 171.16 27.79C171.16 27.0527 171.319 26.3993 171.636 25.83C171.963 25.2607 172.406 24.8173 172.966 24.5C173.536 24.1733 174.175 24.01 174.884 24.01C175.603 24.01 176.238 24.1687 176.788 24.486C177.339 24.8033 177.768 25.2513 178.076 25.83C178.394 26.3993 178.552 27.0667 178.552 27.832C178.552 27.888 178.548 27.9533 178.538 28.028C178.538 28.1027 178.534 28.1727 178.524 28.238H172.21V27.272H177.824L177.278 27.608C177.288 27.132 177.19 26.7073 176.984 26.334C176.779 25.9607 176.494 25.6713 176.13 25.466C175.776 25.2513 175.36 25.144 174.884 25.144C174.418 25.144 174.002 25.2513 173.638 25.466C173.274 25.6713 172.99 25.9653 172.784 26.348C172.579 26.7213 172.476 27.1507 172.476 27.636V27.86C172.476 28.3547 172.588 28.798 172.812 29.19C173.046 29.5727 173.368 29.8713 173.778 30.086C174.189 30.3007 174.66 30.408 175.192 30.408C175.631 30.408 176.028 30.3333 176.382 30.184C176.746 30.0347 177.064 29.8107 177.334 29.512L178.076 30.38C177.74 30.772 177.32 31.0707 176.816 31.276C176.322 31.4813 175.766 31.584 175.15 31.584Z" fill="black" fill-opacity="0.6"/>
<path d="M31.668 63.3652C32.4883 63.3652 33.168 63.2246 33.707 62.9434C34.2461 62.6621 34.6445 62.2637 34.9023 61.748C35.1719 61.2324 35.3066 60.6289 35.3066 59.9375C35.3066 59.3398 35.1836 58.8066 34.9375 58.3379C34.7031 57.8691 34.3398 57.5 33.8477 57.2305C33.3555 56.9492 32.7344 56.8086 31.9844 56.8086C31.4102 56.8086 30.8711 56.9199 30.3672 57.1426C29.8633 57.3652 29.459 57.6816 29.1543 58.0918C28.8496 58.4902 28.6973 58.9648 28.6973 59.5156H23.3887C23.3887 58.0977 23.7695 56.8672 24.5312 55.8242C25.293 54.7812 26.3125 53.9727 27.5898 53.3984C28.8789 52.8242 30.2969 52.5371 31.8438 52.5371C33.5898 52.5371 35.1191 52.8184 36.4316 53.3809C37.7559 53.9316 38.7871 54.752 39.5254 55.8418C40.2637 56.9199 40.6328 58.2559 40.6328 59.8496C40.6328 60.6816 40.4395 61.4785 40.0527 62.2402C39.6777 63.002 39.1387 63.6816 38.4355 64.2793C37.7324 64.877 36.8828 65.3516 35.8867 65.7031C34.8906 66.0547 33.7715 66.2305 32.5293 66.2305H28.9258V63.3652H31.668ZM28.9258 64.7012H32.5293C33.9238 64.7012 35.1484 64.8594 36.2031 65.1758C37.2578 65.4805 38.1426 65.9258 38.8574 66.5117C39.5723 67.0859 40.1113 67.7832 40.4746 68.6035C40.8379 69.4121 41.0195 70.3145 41.0195 71.3105C41.0195 72.9043 40.6152 74.2637 39.8066 75.3887C38.998 76.5137 37.9023 77.375 36.5195 77.9727C35.1367 78.5586 33.5781 78.8516 31.8438 78.8516C30.7539 78.8516 29.6875 78.7051 28.6445 78.4121C27.6016 78.1074 26.6582 77.6562 25.8145 77.0586C24.9824 76.4609 24.3145 75.6992 23.8105 74.7734C23.3066 73.8359 23.0547 72.7344 23.0547 71.4688H28.3984C28.3984 72.0547 28.5508 72.582 28.8555 73.0508C29.1719 73.5195 29.5996 73.8945 30.1387 74.1758C30.6777 74.4453 31.293 74.5801 31.9844 74.5801C33.1445 74.5801 34.0527 74.2695 34.709 73.6484C35.377 73.0156 35.7109 72.207 35.7109 71.2227C35.7109 70.332 35.5469 69.6172 35.2188 69.0781C34.8906 68.5273 34.4277 68.1289 33.8301 67.8828C33.2324 67.6367 32.5117 67.5137 31.668 67.5137H28.9258V64.7012ZM72.1497 73.0156H53.6575L53.4114 69.6582L63.9759 52.9062H68.1946L63.6946 60.6758L58.6321 68.7441H72.1497V73.0156ZM69.3196 78.5H64.0286V52.9062H69.3196V78.5ZM75.8671 65.9492L77.3613 52.9062H91.8456V57.2832H81.7206L81.1054 62.5918C81.4335 62.416 81.9316 62.2168 82.5995 61.9941C83.2792 61.7715 84.0409 61.6602 84.8847 61.6602C86.5488 61.6602 87.9609 62 89.121 62.6797C90.2812 63.3594 91.1659 64.3438 91.7753 65.6328C92.3964 66.9102 92.707 68.457 92.707 70.2734C92.707 71.7734 92.3905 73.1797 91.7577 74.4922C91.1366 75.793 90.1816 76.8477 88.8925 77.6562C87.6034 78.4531 85.9745 78.8516 84.0058 78.8516C82.8808 78.8516 81.7968 78.6816 80.7538 78.3418C79.7226 78.002 78.7968 77.5098 77.9765 76.8652C77.1562 76.209 76.4999 75.418 76.0077 74.4922C75.5273 73.5547 75.2753 72.5 75.2519 71.3281H80.5253C80.6191 72.3359 80.9706 73.1328 81.58 73.7188C82.1894 74.293 82.9863 74.5801 83.9706 74.5801C84.8027 74.5801 85.4706 74.375 85.9745 73.9648C86.4784 73.543 86.8417 72.9805 87.0644 72.2773C87.287 71.5742 87.3984 70.7949 87.3984 69.9395C87.3984 69.0723 87.2519 68.3164 86.9589 67.6719C86.6777 67.0156 86.2441 66.5059 85.6581 66.1426C85.0722 65.7793 84.3222 65.5977 83.4081 65.5977C82.5058 65.5977 81.8085 65.7441 81.3163 66.0371C80.8241 66.3301 80.4198 66.6465 80.1034 66.9863L75.8671 65.9492ZM113.897 78.5H96.2662V74.8789L104.528 66.0898C105.348 65.1992 105.993 64.4199 106.461 63.752C106.942 63.0723 107.282 62.457 107.481 61.9062C107.68 61.3555 107.78 60.8398 107.78 60.3594C107.78 59.2461 107.504 58.3789 106.954 57.7578C106.415 57.125 105.635 56.8086 104.616 56.8086C103.854 56.8086 103.21 56.9961 102.682 57.3711C102.155 57.7344 101.751 58.2324 101.469 58.8652C101.2 59.4863 101.065 60.2012 101.065 61.0098H95.7564C95.7564 59.4629 96.1197 58.0508 96.8463 56.7734C97.5728 55.4844 98.6041 54.459 99.94 53.6973C101.288 52.9238 102.881 52.5371 104.721 52.5371C107.452 52.5371 109.532 53.1875 110.961 54.4883C112.391 55.7891 113.106 57.5762 113.106 59.8496C113.106 61.0098 112.872 62.1172 112.403 63.1719C111.934 64.2266 111.266 65.2871 110.399 66.3535C109.544 67.4199 108.536 68.5566 107.376 69.7637L103.122 74.2285H113.897V78.5ZM128.038 54.0488H125.208V48.8457H128.038V54.0488ZM127.669 82.2969H124.839V77.5332H127.669V82.2969ZM129.374 71.7324C129.374 71.0879 129.257 70.5488 129.023 70.1152C128.8 69.6699 128.437 69.2773 127.933 68.9375C127.429 68.5859 126.749 68.252 125.894 67.9355C124.359 67.3379 123.011 66.7051 121.851 66.0371C120.691 65.3574 119.788 64.5195 119.144 63.5234C118.499 62.5273 118.177 61.2559 118.177 59.709C118.177 58.2441 118.523 56.9785 119.214 55.9121C119.905 54.834 120.872 54.002 122.114 53.416C123.357 52.8301 124.792 52.5371 126.421 52.5371C128.085 52.5371 129.538 52.8652 130.78 53.5215C132.023 54.1777 132.984 55.127 133.663 56.3691C134.355 57.5996 134.7 59.0879 134.7 60.834H129.409C129.409 59.4629 129.128 58.4492 128.566 57.793C128.003 57.125 127.265 56.791 126.351 56.791C125.683 56.791 125.138 56.9199 124.716 57.1777C124.294 57.4355 123.984 57.7871 123.784 58.2324C123.585 58.6777 123.486 59.1758 123.486 59.7266C123.486 60.2891 123.591 60.7812 123.802 61.2031C124.013 61.6133 124.376 61.9941 124.892 62.3457C125.407 62.6973 126.116 63.0547 127.019 63.418C128.53 64.0273 129.861 64.6777 131.009 65.3691C132.169 66.0605 133.071 66.9043 133.716 67.9004C134.372 68.8965 134.7 70.1621 134.7 71.6973C134.7 73.2207 134.343 74.5215 133.628 75.5996C132.913 76.666 131.923 77.4805 130.657 78.043C129.392 78.5938 127.915 78.8691 126.228 78.8691C125.138 78.8691 124.06 78.7285 122.993 78.4473C121.927 78.1543 120.954 77.6797 120.075 77.0234C119.208 76.3672 118.511 75.5 117.984 74.4219C117.468 73.332 117.21 71.9902 117.21 70.3965H122.519C122.519 71.2051 122.624 71.8848 122.835 72.4355C123.046 72.9746 123.327 73.4082 123.679 73.7363C124.03 74.0527 124.423 74.2812 124.857 74.4219C125.302 74.5508 125.759 74.6152 126.228 74.6152C126.931 74.6152 127.517 74.4922 127.986 74.2461C128.454 74 128.8 73.6602 129.023 73.2266C129.257 72.7812 129.374 72.2832 129.374 71.7324Z" fill="black" fill-opacity="0.87"/>
<rect x="168.5" y="52" width="49" height="20" rx="10" fill="#BDDC11"/>
<path fill-rule="evenodd" clip-rule="evenodd" d="M181.607 57.5413C181.824 57.3324 182.176 57.3324 182.393 57.5413L185.928 60.9469C186.145 61.1558 186.145 61.4947 185.928 61.7036C185.711 61.9126 185.36 61.9126 185.143 61.7036L182.556 59.2116L182.556 66.0803C182.556 66.3758 182.307 66.6154 182 66.6154C181.693 66.6154 181.444 66.3758 181.444 66.0803L181.444 59.2116L178.857 61.7036C178.64 61.9126 178.289 61.9126 178.072 61.7036C177.855 61.4947 177.855 61.1558 178.072 60.9469L181.607 57.5413Z" fill="white"/>
<path fill-rule="evenodd" clip-rule="evenodd" d="M181.314 57.2727C181.692 56.9091 182.308 56.9091 182.686 57.2727L186.221 60.6782C186.593 61.0366 186.593 61.6139 186.221 61.9723C185.843 62.3359 185.227 62.3359 184.85 61.9723L182.965 60.1564L182.965 66.0803C182.965 66.5794 182.542 67 182 67C181.458 67 181.035 66.5794 181.035 66.0803L181.035 60.1564L179.15 61.9723C178.773 62.3359 178.157 62.3359 177.779 61.9723C177.407 61.6139 177.407 61.0366 177.779 60.6782L181.314 57.2727ZM178.857 61.7036C178.64 61.9126 178.289 61.9126 178.072 61.7036C177.855 61.4947 177.855 61.1558 178.072 60.9469L181.607 57.5413C181.824 57.3324 182.176 57.3324 182.393 57.5413L185.928 60.9469C186.145 61.1558 186.145 61.4947 185.928 61.7036C185.711 61.9126 185.36 61.9126 185.143 61.7036L182.556 59.2116L182.556 66.0803C182.556 66.3758 182.307 66.6154 182 66.6154C181.693 66.6154 181.444 66.3758 181.444 66.0803L181.444 59.2116L178.857 61.7036Z" fill="white"/>
<path d="M195.988 58.2773L192.596 66H191.066L194.453 58.6348H190.064V57.4688H195.988V58.2773ZM197.078 59.1094C197.078 58.7852 197.148 58.4902 197.289 58.2246C197.434 57.959 197.641 57.7461 197.91 57.5859C198.18 57.4258 198.506 57.3457 198.889 57.3457C199.279 57.3457 199.609 57.4258 199.879 57.5859C200.148 57.7461 200.354 57.959 200.494 58.2246C200.635 58.4902 200.705 58.7852 200.705 59.1094V59.5605C200.705 59.877 200.635 60.168 200.494 60.4336C200.354 60.6992 200.148 60.9121 199.879 61.0723C199.613 61.2324 199.287 61.3125 198.9 61.3125C198.514 61.3125 198.184 61.2324 197.91 61.0723C197.641 60.9121 197.434 60.6992 197.289 60.4336C197.148 60.168 197.078 59.877 197.078 59.5605V59.1094ZM198.086 59.5605C198.086 59.7129 198.115 59.8574 198.174 59.9941C198.232 60.127 198.322 60.2363 198.443 60.3223C198.564 60.4043 198.717 60.4453 198.9 60.4453C199.084 60.4453 199.234 60.4043 199.352 60.3223C199.469 60.2363 199.555 60.127 199.609 59.9941C199.668 59.8574 199.697 59.7129 199.697 59.5605V59.1094C199.697 58.9531 199.668 58.8066 199.609 58.6699C199.551 58.5332 199.461 58.4238 199.34 58.3418C199.223 58.2559 199.072 58.2129 198.889 58.2129C198.709 58.2129 198.559 58.2559 198.438 58.3418C198.32 58.4238 198.232 58.5332 198.174 58.6699C198.115 58.8066 198.086 58.9531 198.086 59.1094V59.5605ZM201.186 63.9082C201.186 63.5879 201.256 63.2949 201.396 63.0293C201.541 62.7637 201.748 62.5508 202.018 62.3906C202.287 62.2305 202.613 62.1504 202.996 62.1504C203.391 62.1504 203.721 62.2305 203.986 62.3906C204.256 62.5508 204.461 62.7637 204.602 63.0293C204.742 63.2949 204.812 63.5879 204.812 63.9082V64.3652C204.812 64.6855 204.742 64.9785 204.602 65.2441C204.465 65.5098 204.262 65.7227 203.992 65.8828C203.727 66.043 203.398 66.123 203.008 66.123C202.621 66.123 202.291 66.043 202.018 65.8828C201.748 65.7227 201.541 65.5098 201.396 65.2441C201.256 64.9785 201.186 64.6855 201.186 64.3652V63.9082ZM202.188 64.3652C202.188 64.5176 202.219 64.6621 202.281 64.7988C202.348 64.9355 202.441 65.0449 202.562 65.127C202.688 65.209 202.836 65.25 203.008 65.25C203.207 65.25 203.363 65.209 203.477 65.127C203.594 65.0449 203.678 64.9375 203.729 64.8047C203.783 64.668 203.811 64.5215 203.811 64.3652V63.9082C203.811 63.6738 203.742 63.4668 203.605 63.2871C203.473 63.1074 203.27 63.0176 202.996 63.0176C202.727 63.0176 202.523 63.1074 202.387 63.2871C202.254 63.4668 202.188 63.6738 202.188 63.9082V64.3652ZM199.193 65.3555L198.455 64.9336L202.621 58.2656L203.359 58.6875L199.193 65.3555Z" fill="white"/>
<rect x="168.5" y="52" width="49" height="20" rx="10" stroke="#BDDC11"/>
<rect width="196" height="15" transform="translate(22 93.5)" fill="white"/>
<path d="M26.512 97.1C28.648 97.1 29.944 98.18 29.944 99.98C29.944 101.768 28.648 102.848 26.512 102.848H24.256V105.5H23.368V97.1H26.512ZM26.488 102.068C28.168 102.068 29.056 101.3 29.056 99.98C29.056 98.636 28.168 97.868 26.488 97.868H24.256V102.068H26.488ZM31.8013 105.5V96.596H32.6533V105.5H31.8013ZM37.2319 99.14C38.8639 99.14 39.7879 99.956 39.7879 101.588V105.5H38.9719V104.516C38.5879 105.164 37.8439 105.56 36.7999 105.56C35.3719 105.56 34.4959 104.816 34.4959 103.724C34.4959 102.752 35.1199 101.936 36.9319 101.936H38.9359V101.552C38.9359 100.472 38.3239 99.884 37.1479 99.884C36.3319 99.884 35.5639 100.172 35.0479 100.628L34.6639 99.992C35.2999 99.452 36.2359 99.14 37.2319 99.14ZM36.9319 104.888C37.8919 104.888 38.5999 104.432 38.9359 103.604V102.572H36.9559C35.7319 102.572 35.3359 103.052 35.3359 103.7C35.3359 104.432 35.9239 104.888 36.9319 104.888ZM45.3181 99.14C46.8541 99.14 47.9101 100.028 47.9101 101.84V105.5H47.0581V101.924C47.0581 100.592 46.3621 99.908 45.1621 99.908C43.8061 99.908 42.9541 100.748 42.9541 102.188V105.5H42.1021V99.188H42.9181V100.352C43.3741 99.584 44.2261 99.14 45.3181 99.14ZM50.6552 97.808C50.3072 97.808 50.0312 97.532 50.0312 97.196C50.0312 96.872 50.3072 96.596 50.6552 96.596C51.0032 96.596 51.2792 96.86 51.2792 97.184C51.2792 97.532 51.0152 97.808 50.6552 97.808ZM50.2232 105.5V99.188H51.0752V105.5H50.2232ZM53.5898 98.408C53.5898 97.28 54.2618 96.536 55.4978 96.536C55.9658 96.536 56.4458 96.668 56.7578 96.932L56.4698 97.568C56.2298 97.364 55.8938 97.256 55.5338 97.256C54.8018 97.256 54.4178 97.664 54.4178 98.444V99.188H56.3618V99.908H54.4418V105.5H53.5898V99.908H52.4618V99.188H53.5898V98.408ZM58.9058 96.596C59.2538 96.596 59.5298 96.86 59.5298 97.184C59.5298 97.532 59.2658 97.808 58.9058 97.808C58.5578 97.808 58.2818 97.532 58.2818 97.196C58.2818 96.872 58.5578 96.596 58.9058 96.596ZM58.4738 105.5V99.188H59.3258V105.5H58.4738ZM64.3235 105.56C62.4395 105.56 61.0715 104.228 61.0715 102.344C61.0715 100.46 62.4395 99.14 64.3235 99.14C65.3915 99.14 66.2915 99.56 66.7955 100.388L66.1595 100.82C65.7275 100.184 65.0555 99.884 64.3235 99.884C62.9435 99.884 61.9355 100.868 61.9355 102.344C61.9355 103.832 62.9435 104.804 64.3235 104.804C65.0555 104.804 65.7275 104.516 66.1595 103.88L66.7955 104.312C66.2915 105.128 65.3915 105.56 64.3235 105.56ZM70.6773 99.14C72.3093 99.14 73.2333 99.956 73.2333 101.588V105.5H72.4173V104.516C72.0333 105.164 71.2893 105.56 70.2453 105.56C68.8173 105.56 67.9413 104.816 67.9413 103.724C67.9413 102.752 68.5653 101.936 70.3773 101.936H72.3813V101.552C72.3813 100.472 71.7693 99.884 70.5933 99.884C69.7773 99.884 69.0093 100.172 68.4933 100.628L68.1093 99.992C68.7453 99.452 69.6813 99.14 70.6773 99.14ZM70.3773 104.888C71.3373 104.888 72.0453 104.432 72.3813 103.604V102.572H70.4013C69.1773 102.572 68.7812 103.052 68.7812 103.7C68.7812 104.432 69.3693 104.888 70.3773 104.888ZM78.5714 104.504L78.8714 105.116C78.5354 105.416 78.0314 105.56 77.5394 105.56C76.3514 105.56 75.6914 104.888 75.6914 103.724V99.908H74.5634V99.188H75.6914V97.808H76.5434V99.188H78.4634V99.908H76.5434V103.676C76.5434 104.42 76.9274 104.828 77.6354 104.828C77.9834 104.828 78.3314 104.72 78.5714 104.504ZM85.7077 102.344C85.7077 102.416 85.6957 102.512 85.6957 102.608H80.4157C80.5117 103.928 81.5197 104.804 82.8997 104.804C83.6677 104.804 84.3517 104.528 84.8317 103.976L85.3117 104.528C84.7477 105.2 83.8717 105.56 82.8757 105.56C80.9077 105.56 79.5637 104.216 79.5637 102.344C79.5637 100.472 80.8717 99.14 82.6477 99.14C84.4237 99.14 85.7077 100.448 85.7077 102.344ZM82.6477 99.872C81.4237 99.872 80.5237 100.736 80.4157 101.972H84.8917C84.7837 100.736 83.8837 99.872 82.6477 99.872ZM92.2779 99.188H93.1299V105.5H92.3139V104.348C91.8699 105.116 91.0539 105.56 90.0459 105.56C88.4379 105.56 87.3819 104.66 87.3819 102.848V99.188H88.2339V102.764C88.2339 104.108 88.9299 104.792 90.1299 104.792C91.4499 104.792 92.2779 103.94 92.2779 102.5V99.188ZM96.3321 100.424C96.7281 99.584 97.5321 99.14 98.6961 99.14V99.968C98.6241 99.968 98.5521 99.956 98.4921 99.956C97.1721 99.956 96.3681 100.796 96.3681 102.284V105.5H95.5161V99.188H96.3321V100.424ZM103.125 98.804L108.345 100.904V101.696L103.125 103.784V103.04L107.541 101.3L103.125 99.56V98.804Z" fill="#1976D2"/>
</g>
<defs>
<filter id="filter0_d_89_2258" x="0" y="0" width="240" height="134" filterUnits="userSpaceOnUse" color-interpolation-filters="sRGB">
<feFlood flood-opacity="0" result="BackgroundImageFix"/>
<feColorMatrix in="SourceAlpha" type="matrix" values="0 0 0 0 0 0 0 0 0 0 0 0 0 0 0 0 0 0 127 0" result="hardAlpha"/>
<feOffset dy="4"/>
<feGaussianBlur stdDeviation="2"/>
<feComposite in2="hardAlpha" operator="out"/>
<feColorMatrix type="matrix" values="0 0 0 0 0 0 0 0 0 0 0 0 0 0 0 0 0 0 0.06 0"/>
<feBlend mode="normal" in2="BackgroundImageFix" result="effect1_dropShadow_89_2258"/>
<feBlend mode="normal" in="SourceGraphic" in2="effect1_dropShadow_89_2258" result="shape"/>
</filter>
</defs>
</svg>
