<svg width="843" height="227" viewBox="0 0 843 227" fill="none" xmlns="http://www.w3.org/2000/svg">
<g filter="url(#filter0_d_2520_15030)">
<g clip-path="url(#clip0_2520_15030)">
<rect width="773" height="63" transform="translate(10 6)" fill="white"/>
<path d="M41.416 33L40.576 31.056H36.376L35.548 33H33.94L37.72 24.6H39.256L43.048 33H41.416ZM36.904 29.832H40.06L38.476 26.16L36.904 29.832ZM44.1223 33V24.096H45.6223V33H44.1223ZM53.765 29.832C53.765 29.952 53.753 30.132 53.741 30.276H48.713C48.893 31.212 49.673 31.812 50.789 31.812C51.509 31.812 52.073 31.584 52.529 31.116L53.333 32.04C52.757 32.724 51.857 33.084 50.753 33.084C48.605 33.084 47.213 31.704 47.213 29.796C47.213 27.888 48.617 26.52 50.525 26.52C52.397 26.52 53.765 27.828 53.765 29.832ZM50.525 27.72C49.553 27.72 48.845 28.344 48.701 29.28H52.337C52.217 28.356 51.509 27.72 50.525 27.72ZM60.9521 33H59.2601L57.6161 30.78L55.9601 33H54.3041L56.8001 29.748L54.4121 26.592H56.0801L57.6521 28.692L59.2241 26.592H60.8441L58.4441 29.724L60.9521 33ZM64.5398 26.52C66.3878 26.52 67.4558 27.396 67.4558 29.244V33H66.0398V32.22C65.6798 32.772 64.9838 33.084 64.0238 33.084C62.5598 33.084 61.6358 32.28 61.6358 31.164C61.6358 30.096 62.3558 29.256 64.2998 29.256H65.9558V29.16C65.9558 28.284 65.4278 27.768 64.3598 27.768C63.6398 27.768 62.8958 28.008 62.4158 28.404L61.8278 27.312C62.5118 26.784 63.5078 26.52 64.5398 26.52ZM64.3358 31.992C65.0678 31.992 65.7038 31.656 65.9558 30.996V30.252H64.4078C63.3878 30.252 63.1118 30.636 63.1118 31.104C63.1118 31.644 63.5678 31.992 64.3358 31.992ZM73.1669 26.52C74.7029 26.52 75.8429 27.396 75.8429 29.328V33H74.3429V29.52C74.3429 28.38 73.7789 27.828 72.8189 27.828C71.7509 27.828 71.0309 28.476 71.0309 29.76V33H69.5309V26.592H70.9589V27.42C71.4509 26.832 72.2309 26.52 73.1669 26.52ZM82.7303 24.096H84.2303V33H82.7903V32.172C82.2863 32.784 81.5423 33.084 80.6663 33.084C78.8063 33.084 77.4263 31.788 77.4263 29.796C77.4263 27.804 78.8063 26.52 80.6663 26.52C81.4943 26.52 82.2263 26.796 82.7303 27.384V24.096ZM80.8463 31.8C81.9263 31.8 82.7543 31.02 82.7543 29.796C82.7543 28.572 81.9263 27.792 80.8463 27.792C79.7663 27.792 78.9383 28.572 78.9383 29.796C78.9383 31.02 79.7663 31.8 80.8463 31.8ZM87.7706 27.528C88.2026 26.856 88.9826 26.52 90.0506 26.52V27.948C89.9186 27.924 89.8106 27.912 89.7026 27.912C88.5626 27.912 87.8426 28.584 87.8426 29.892V33H86.3426V26.592H87.7706V27.528ZM97.4385 29.832C97.4385 29.952 97.4265 30.132 97.4145 30.276H92.3865C92.5665 31.212 93.3465 31.812 94.4625 31.812C95.1825 31.812 95.7465 31.584 96.2025 31.116L97.0065 32.04C96.4305 32.724 95.5305 33.084 94.4265 33.084C92.2785 33.084 90.8865 31.704 90.8865 29.796C90.8865 27.888 92.2905 26.52 94.1985 26.52C96.0705 26.52 97.4385 27.828 97.4385 29.832ZM94.1985 27.72C93.2265 27.72 92.5185 28.344 92.3745 29.28H96.0105C95.8905 28.356 95.1825 27.72 94.1985 27.72ZM102.64 33V24.6H104.2V31.68H108.592V33H102.64ZM112.336 26.52C114.184 26.52 115.252 27.396 115.252 29.244V33H113.836V32.22C113.476 32.772 112.78 33.084 111.82 33.084C110.356 33.084 109.432 32.28 109.432 31.164C109.432 30.096 110.152 29.256 112.096 29.256H113.752V29.16C113.752 28.284 113.224 27.768 112.156 27.768C111.436 27.768 110.692 28.008 110.212 28.404L109.624 27.312C110.308 26.784 111.304 26.52 112.336 26.52ZM112.132 31.992C112.864 31.992 113.5 31.656 113.752 30.996V30.252H112.204C111.184 30.252 110.908 30.636 110.908 31.104C110.908 31.644 111.364 31.992 112.132 31.992ZM121.77 26.592H123.21L120.462 33H118.914L116.166 26.592H117.726L119.718 31.344L121.77 26.592ZM125.053 25.536C124.501 25.536 124.093 25.14 124.093 24.636C124.093 24.132 124.501 23.736 125.053 23.736C125.605 23.736 126.013 24.108 126.013 24.6C126.013 25.128 125.617 25.536 125.053 25.536ZM124.297 33V26.592H125.797V33H124.297ZM132.848 26.592H134.276V32.028C134.276 34.356 133.064 35.412 130.82 35.412C129.62 35.412 128.432 35.1 127.7 34.5L128.372 33.372C128.936 33.84 129.848 34.14 130.736 34.14C132.152 34.14 132.776 33.492 132.776 32.196V31.86C132.248 32.436 131.492 32.712 130.628 32.712C128.792 32.712 127.388 31.464 127.388 29.604C127.388 27.744 128.792 26.52 130.628 26.52C131.528 26.52 132.32 26.808 132.848 27.444V26.592ZM130.856 31.44C131.984 31.44 132.8 30.696 132.8 29.604C132.8 28.524 131.984 27.792 130.856 27.792C129.716 27.792 128.9 28.524 128.9 29.604C128.9 30.696 129.716 31.44 130.856 31.44ZM140.034 26.52C141.57 26.52 142.71 27.396 142.71 29.328V33H141.21V29.52C141.21 28.38 140.646 27.828 139.686 27.828C138.618 27.828 137.898 28.476 137.898 29.76V33H136.398V26.592H137.826V27.42C138.318 26.832 139.098 26.52 140.034 26.52ZM150.846 29.832C150.846 29.952 150.834 30.132 150.822 30.276H145.794C145.974 31.212 146.754 31.812 147.87 31.812C148.59 31.812 149.154 31.584 149.61 31.116L150.414 32.04C149.838 32.724 148.938 33.084 147.834 33.084C145.686 33.084 144.294 31.704 144.294 29.796C144.294 27.888 145.698 26.52 147.606 26.52C149.478 26.52 150.846 27.828 150.846 29.832ZM147.606 27.72C146.634 27.72 145.926 28.344 145.782 29.28H149.418C149.298 28.356 148.59 27.72 147.606 27.72Z" fill="black" fill-opacity="0.87"/>
<path d="M40.26 44H40.99V51H40.38L35.88 45.32V51H35.14V44H35.75L40.26 49.68V44ZM44.9648 45.7C46.3248 45.7 47.0948 46.38 47.0948 47.74V51H46.4148V50.18C46.0948 50.72 45.4748 51.05 44.6048 51.05C43.4148 51.05 42.6848 50.43 42.6848 49.52C42.6848 48.71 43.2048 48.03 44.7148 48.03H46.3848V47.71C46.3848 46.81 45.8748 46.32 44.8948 46.32C44.2148 46.32 43.5748 46.56 43.1448 46.94L42.8248 46.41C43.3548 45.96 44.1348 45.7 44.9648 45.7ZM44.7148 50.49C45.5148 50.49 46.1048 50.11 46.3848 49.42V48.56H44.7348C43.7148 48.56 43.3848 48.96 43.3848 49.5C43.3848 50.11 43.8748 50.49 44.7148 50.49ZM51.5432 50.17L51.7932 50.68C51.5132 50.93 51.0932 51.05 50.6832 51.05C49.6932 51.05 49.1432 50.49 49.1432 49.52V46.34H48.2032V45.74H49.1432V44.59H49.8532V45.74H51.4532V46.34H49.8532V49.48C49.8532 50.1 50.1732 50.44 50.7632 50.44C51.0532 50.44 51.3432 50.35 51.5432 50.17ZM54.9257 45.7C56.2857 45.7 57.0557 46.38 57.0557 47.74V51H56.3757V50.18C56.0557 50.72 55.4357 51.05 54.5657 51.05C53.3757 51.05 52.6457 50.43 52.6457 49.52C52.6457 48.71 53.1657 48.03 54.6757 48.03H56.3457V47.71C56.3457 46.81 55.8357 46.32 54.8557 46.32C54.1757 46.32 53.5357 46.56 53.1057 46.94L52.7857 46.41C53.3157 45.96 54.0957 45.7 54.9257 45.7ZM54.6757 50.49C55.4757 50.49 56.0657 50.11 56.3457 49.42V48.56H54.6957C53.6757 48.56 53.3457 48.96 53.3457 49.5C53.3457 50.11 53.8357 50.49 54.6757 50.49ZM61.5041 50.17L61.7541 50.68C61.4741 50.93 61.0541 51.05 60.6441 51.05C59.6541 51.05 59.1041 50.49 59.1041 49.52V46.34H58.1641V45.74H59.1041V44.59H59.8141V45.74H61.4141V46.34H59.8141V49.48C59.8141 50.1 60.1341 50.44 60.7241 50.44C61.0141 50.44 61.3041 50.35 61.5041 50.17ZM63.4066 44.59C63.1166 44.59 62.8866 44.36 62.8866 44.08C62.8866 43.81 63.1166 43.58 63.4066 43.58C63.6966 43.58 63.9266 43.8 63.9266 44.07C63.9266 44.36 63.7066 44.59 63.4066 44.59ZM63.0466 51V45.74H63.7566V51H63.0466ZM67.8822 51.05C66.3422 51.05 65.2022 49.93 65.2022 48.37C65.2022 46.81 66.3422 45.7 67.8822 45.7C69.4222 45.7 70.5522 46.81 70.5522 48.37C70.5522 49.93 69.4222 51.05 67.8822 51.05ZM67.8822 50.42C69.0022 50.42 69.8322 49.6 69.8322 48.37C69.8322 47.14 69.0022 46.32 67.8822 46.32C66.7622 46.32 65.9222 47.14 65.9222 48.37C65.9222 49.6 66.7622 50.42 67.8822 50.42ZM74.6817 45.7C75.9617 45.7 76.8417 46.44 76.8417 47.95V51H76.1317V48.02C76.1317 46.91 75.5517 46.34 74.5517 46.34C73.4217 46.34 72.7117 47.04 72.7117 48.24V51H72.0017V45.74H72.6817V46.71C73.0617 46.07 73.7717 45.7 74.6817 45.7ZM82.7965 51.05C81.9265 51.05 81.0865 50.77 80.6565 50.4L80.9765 49.84C81.3965 50.17 82.1065 50.43 82.8465 50.43C83.8465 50.43 84.2565 50.09 84.2565 49.57C84.2565 48.2 80.8465 49.28 80.8465 47.2C80.8465 46.34 81.5865 45.7 82.9265 45.7C83.6065 45.7 84.3465 45.89 84.7865 46.19L84.4765 46.76C84.0165 46.44 83.4665 46.31 82.9265 46.31C81.9765 46.31 81.5565 46.68 81.5565 47.18C81.5565 48.6 84.9665 47.53 84.9665 49.55C84.9665 50.46 84.1665 51.05 82.7965 51.05ZM88.4591 51.05C86.8891 51.05 85.7491 49.94 85.7491 48.37C85.7491 46.8 86.8891 45.7 88.4591 45.7C89.3491 45.7 90.0991 46.05 90.5191 46.74L89.9891 47.1C89.6291 46.57 89.0691 46.32 88.4591 46.32C87.3091 46.32 86.4691 47.14 86.4691 48.37C86.4691 49.61 87.3091 50.42 88.4591 50.42C89.0691 50.42 89.6291 50.18 89.9891 49.65L90.5191 50.01C90.0991 50.69 89.3491 51.05 88.4591 51.05ZM93.9759 51.05C92.4359 51.05 91.2959 49.93 91.2959 48.37C91.2959 46.81 92.4359 45.7 93.9759 45.7C95.5159 45.7 96.6459 46.81 96.6459 48.37C96.6459 49.93 95.5159 51.05 93.9759 51.05ZM93.9759 50.42C95.0959 50.42 95.9259 49.6 95.9259 48.37C95.9259 47.14 95.0959 46.32 93.9759 46.32C92.8559 46.32 92.0159 47.14 92.0159 48.37C92.0159 49.6 92.8559 50.42 93.9759 50.42ZM98.0955 51V43.58H98.8055V51H98.0955ZM102.621 45.7C103.981 45.7 104.751 46.38 104.751 47.74V51H104.071V50.18C103.751 50.72 103.131 51.05 102.261 51.05C101.071 51.05 100.341 50.43 100.341 49.52C100.341 48.71 100.861 48.03 102.371 48.03H104.041V47.71C104.041 46.81 103.531 46.32 102.551 46.32C101.871 46.32 101.231 46.56 100.801 46.94L100.481 46.41C101.011 45.96 101.791 45.7 102.621 45.7ZM102.371 50.49C103.171 50.49 103.761 50.11 104.041 49.42V48.56H102.391C101.371 48.56 101.041 48.96 101.041 49.5C101.041 50.11 101.531 50.49 102.371 50.49ZM107.039 44.59C106.749 44.59 106.519 44.36 106.519 44.08C106.519 43.81 106.749 43.58 107.039 43.58C107.329 43.58 107.559 43.8 107.559 44.07C107.559 44.36 107.339 44.59 107.039 44.59ZM106.679 51V45.74H107.389V51H106.679ZM110.045 46.77C110.375 46.07 111.045 45.7 112.015 45.7V46.39C111.955 46.39 111.895 46.38 111.845 46.38C110.745 46.38 110.075 47.08 110.075 48.32V51H109.365V45.74H110.045V46.77ZM117.842 48.37C117.842 48.43 117.832 48.51 117.832 48.59H113.432C113.512 49.69 114.352 50.42 115.502 50.42C116.142 50.42 116.712 50.19 117.112 49.73L117.512 50.19C117.042 50.75 116.312 51.05 115.482 51.05C113.842 51.05 112.722 49.93 112.722 48.37C112.722 46.81 113.812 45.7 115.292 45.7C116.772 45.7 117.842 46.79 117.842 48.37ZM115.292 46.31C114.272 46.31 113.522 47.03 113.432 48.06H117.162C117.072 47.03 116.322 46.31 115.292 46.31ZM121.514 48.6V47.98H124.134V48.6H121.514ZM128.49 51V44H131.34C133.58 44 135.09 45.44 135.09 47.5C135.09 49.56 133.58 51 131.34 51H128.49ZM129.23 50.36H131.3C133.16 50.36 134.36 49.18 134.36 47.5C134.36 45.82 133.16 44.64 131.3 44.64H129.23V50.36ZM138.441 45.7C139.801 45.7 140.571 46.38 140.571 47.74V51H139.891V50.18C139.571 50.72 138.951 51.05 138.081 51.05C136.891 51.05 136.161 50.43 136.161 49.52C136.161 48.71 136.681 48.03 138.191 48.03H139.861V47.71C139.861 46.81 139.351 46.32 138.371 46.32C137.691 46.32 137.051 46.56 136.621 46.94L136.301 46.41C136.831 45.96 137.611 45.7 138.441 45.7ZM138.191 50.49C138.991 50.49 139.581 50.11 139.861 49.42V48.56H138.211C137.191 48.56 136.861 48.96 136.861 49.5C136.861 50.11 137.351 50.49 138.191 50.49ZM149.06 45.7C150.34 45.7 151.18 46.44 151.18 47.95V51H150.47V48.02C150.47 46.91 149.91 46.34 148.96 46.34C147.88 46.34 147.2 47.04 147.2 48.24V51H146.49V48.02C146.49 46.91 145.93 46.34 144.97 46.34C143.9 46.34 143.21 47.04 143.21 48.24V51H142.5V45.74H143.18V46.7C143.55 46.07 144.23 45.7 145.11 45.7C145.98 45.7 146.66 46.07 146.98 46.81C147.36 46.13 148.11 45.7 149.06 45.7ZM153.465 44.59C153.175 44.59 152.945 44.36 152.945 44.08C152.945 43.81 153.175 43.58 153.465 43.58C153.755 43.58 153.985 43.8 153.985 44.07C153.985 44.36 153.765 44.59 153.465 44.59ZM153.105 51V45.74H153.815V51H153.105ZM160.381 48.37C160.381 48.43 160.371 48.51 160.371 48.59H155.971C156.051 49.69 156.891 50.42 158.041 50.42C158.681 50.42 159.251 50.19 159.651 49.73L160.051 50.19C159.581 50.75 158.851 51.05 158.021 51.05C156.381 51.05 155.261 49.93 155.261 48.37C155.261 46.81 156.351 45.7 157.831 45.7C159.311 45.7 160.381 46.79 160.381 48.37ZM157.831 46.31C156.811 46.31 156.061 47.03 155.971 48.06H159.701C159.611 47.03 158.861 46.31 157.831 46.31ZM164.506 45.7C165.786 45.7 166.666 46.44 166.666 47.95V51H165.956V48.02C165.956 46.91 165.376 46.34 164.376 46.34C163.246 46.34 162.536 47.04 162.536 48.24V51H161.826V45.74H162.506V46.71C162.886 46.07 163.596 45.7 164.506 45.7ZM171.361 51V44H174.211C176.451 44 177.961 45.44 177.961 47.5C177.961 49.56 176.451 51 174.211 51H171.361ZM172.101 50.36H174.171C176.031 50.36 177.231 49.18 177.231 47.5C177.231 45.82 176.031 44.64 174.171 44.64H172.101V50.36ZM183.502 45.74H184.212V51H183.532V50.04C183.162 50.68 182.482 51.05 181.642 51.05C180.302 51.05 179.422 50.3 179.422 48.79V45.74H180.132V48.72C180.132 49.84 180.712 50.41 181.712 50.41C182.812 50.41 183.502 49.7 183.502 48.5V45.74ZM188.911 45.7C190.411 45.7 191.531 46.78 191.531 48.37C191.531 49.97 190.411 51.05 188.911 51.05C188.071 51.05 187.351 50.69 186.911 50.01V52.94H186.201V45.74H186.881V46.78C187.311 46.08 188.041 45.7 188.911 45.7ZM188.861 50.42C189.971 50.42 190.821 49.6 190.821 48.37C190.821 47.15 189.971 46.32 188.861 46.32C187.741 46.32 186.901 47.15 186.901 48.37C186.901 49.6 187.741 50.42 188.861 50.42ZM193.658 46.77C193.988 46.07 194.658 45.7 195.628 45.7V46.39C195.568 46.39 195.508 46.38 195.458 46.38C194.358 46.38 193.688 47.08 193.688 48.32V51H192.978V45.74H193.658V46.77ZM200.575 43.69L198.955 44.93H198.255L199.625 43.69H200.575ZM201.455 48.37C201.455 48.43 201.445 48.51 201.445 48.59H197.045C197.125 49.69 197.965 50.42 199.115 50.42C199.755 50.42 200.325 50.19 200.725 49.73L201.125 50.19C200.655 50.75 199.925 51.05 199.095 51.05C197.455 51.05 196.335 49.93 196.335 48.37C196.335 46.81 197.425 45.7 198.905 45.7C200.385 45.7 201.455 46.79 201.455 48.37ZM198.905 46.31C197.885 46.31 197.135 47.03 197.045 48.06H200.775C200.685 47.03 199.935 46.31 198.905 46.31Z" fill="#858585"/>
<path d="M238.4 35.09C238.11 35.09 237.88 34.86 237.88 34.58C237.88 34.31 238.11 34.08 238.4 34.08C238.69 34.08 238.92 34.3 238.92 34.57C238.92 34.86 238.7 35.09 238.4 35.09ZM237.21 43.49C236.79 43.49 236.36 43.38 236.1 43.15L236.35 42.61C236.56 42.79 236.84 42.88 237.17 42.88C237.73 42.88 238.04 42.54 238.04 41.89V36.24H238.75V41.89C238.75 42.86 238.21 43.49 237.21 43.49ZM245.324 38.87C245.324 38.93 245.314 39.01 245.314 39.09H240.914C240.994 40.19 241.834 40.92 242.984 40.92C243.624 40.92 244.194 40.69 244.594 40.23L244.994 40.69C244.524 41.25 243.794 41.55 242.964 41.55C241.324 41.55 240.204 40.43 240.204 38.87C240.204 37.31 241.294 36.2 242.774 36.2C244.254 36.2 245.324 37.29 245.324 38.87ZM242.774 36.81C241.754 36.81 241.004 37.53 240.914 38.56H244.644C244.554 37.53 243.804 36.81 242.774 36.81ZM250.799 36.24H251.509V41.5H250.829V40.54C250.459 41.18 249.779 41.55 248.939 41.55C247.599 41.55 246.719 40.8 246.719 39.29V36.24H247.429V39.22C247.429 40.34 248.009 40.91 249.009 40.91C250.109 40.91 250.799 40.2 250.799 39V36.24ZM253.568 41.55C253.278 41.55 253.038 41.31 253.038 41C253.038 40.69 253.278 40.46 253.568 40.46C253.858 40.46 254.108 40.69 254.108 41C254.108 41.31 253.858 41.55 253.568 41.55ZM260.554 41.56C258.934 41.56 257.764 40.23 257.764 38C257.764 35.77 258.934 34.44 260.554 34.44C262.174 34.44 263.354 35.77 263.354 38C263.354 40.23 262.174 41.56 260.554 41.56ZM260.554 40.9C261.774 40.9 262.614 39.87 262.614 38C262.614 36.13 261.774 35.1 260.554 35.1C259.334 35.1 258.494 36.13 258.494 38C258.494 39.87 259.334 40.9 260.554 40.9ZM265.296 40.86H269.146V41.5H264.236V40.99L267.146 38.14C267.936 37.36 268.086 36.89 268.086 36.41C268.086 35.6 267.516 35.1 266.446 35.1C265.626 35.1 264.996 35.35 264.536 35.88L264.026 35.44C264.566 34.8 265.436 34.44 266.506 34.44C267.926 34.44 268.826 35.16 268.826 36.33C268.826 37 268.616 37.6 267.676 38.52L265.296 40.86ZM269.377 42.5L272.677 33.08H273.327L270.027 42.5H269.377ZM276.091 41.56C274.471 41.56 273.301 40.23 273.301 38C273.301 35.77 274.471 34.44 276.091 34.44C277.711 34.44 278.891 35.77 278.891 38C278.891 40.23 277.711 41.56 276.091 41.56ZM276.091 40.9C277.311 40.9 278.151 39.87 278.151 38C278.151 36.13 277.311 35.1 276.091 35.1C274.871 35.1 274.031 36.13 274.031 38C274.031 39.87 274.871 40.9 276.091 40.9ZM282.102 34.44C283.962 34.44 284.972 35.73 284.972 37.94C284.972 40.32 283.672 41.56 281.772 41.56C281.142 41.56 280.552 41.45 280.112 41.18L280.402 40.6C280.762 40.84 281.242 40.93 281.762 40.93C283.272 40.93 284.242 39.96 284.242 38.06C284.242 37.9 284.232 37.7 284.212 37.49C283.862 38.26 283.042 38.69 282.072 38.69C280.682 38.69 279.712 37.87 279.712 36.59C279.712 35.28 280.742 34.44 282.102 34.44ZM282.182 38.08C283.252 38.08 283.982 37.42 283.982 36.55C283.982 35.78 283.342 35.05 282.132 35.05C281.122 35.05 280.422 35.64 280.422 36.57C280.422 37.49 281.102 38.08 282.182 38.08ZM285.051 42.5L288.351 33.08H289.001L285.701 42.5H285.051ZM290.1 40.86H293.95V41.5H289.04V40.99L291.95 38.14C292.74 37.36 292.89 36.89 292.89 36.41C292.89 35.6 292.32 35.1 291.25 35.1C290.43 35.1 289.8 35.35 289.34 35.88L288.83 35.44C289.37 34.8 290.24 34.44 291.31 34.44C292.73 34.44 293.63 35.16 293.63 36.33C293.63 37 293.42 37.6 292.48 38.52L290.1 40.86ZM297.605 41.56C295.985 41.56 294.815 40.23 294.815 38C294.815 35.77 295.985 34.44 297.605 34.44C299.225 34.44 300.405 35.77 300.405 38C300.405 40.23 299.225 41.56 297.605 41.56ZM297.605 40.9C298.825 40.9 299.665 39.87 299.665 38C299.665 36.13 298.825 35.1 297.605 35.1C296.385 35.1 295.545 36.13 295.545 38C295.545 39.87 296.385 40.9 297.605 40.9ZM302.346 40.86H306.196V41.5H301.286V40.99L304.196 38.14C304.986 37.36 305.136 36.89 305.136 36.41C305.136 35.6 304.566 35.1 303.496 35.1C302.676 35.1 302.046 35.35 301.586 35.88L301.076 35.44C301.616 34.8 302.486 34.44 303.556 34.44C304.976 34.44 305.876 35.16 305.876 36.33C305.876 37 305.666 37.6 304.726 38.52L302.346 40.86ZM309.48 37.5C310.98 37.58 311.73 38.37 311.73 39.49C311.73 40.66 310.88 41.56 309.19 41.56C308.18 41.56 307.21 41.21 306.67 40.66L307.02 40.09C307.47 40.56 308.28 40.9 309.19 40.9C310.35 40.9 310.99 40.36 310.99 39.49C310.99 38.65 310.4 38.1 309.1 38.1H308.6V37.57L310.54 35.14H306.96V34.5H311.46V35.01L309.48 37.5ZM314.932 34.5H317.302V41.5H316.582V35.14H314.932V34.5ZM324.925 39.02V39.66H323.525V41.5H322.805V39.66H318.855V39.14L322.565 34.5H323.365L319.785 39.02H322.825V37.4H323.525V39.02H324.925ZM326.185 37.29C325.895 37.29 325.655 37.05 325.655 36.74C325.655 36.43 325.895 36.2 326.185 36.2C326.475 36.2 326.725 36.43 326.725 36.74C326.725 37.05 326.475 37.29 326.185 37.29ZM326.185 41.55C325.895 41.55 325.655 41.31 325.655 41C325.655 40.69 325.895 40.46 326.185 40.46C326.475 40.46 326.725 40.69 326.725 41C326.725 41.31 326.475 41.55 326.185 41.55ZM329.604 37.37C331.714 37.37 332.514 38.2 332.514 39.44C332.514 40.63 331.684 41.56 329.974 41.56C328.964 41.56 328.004 41.21 327.464 40.66L327.814 40.09C328.264 40.56 329.064 40.9 329.964 40.9C331.154 40.9 331.784 40.32 331.784 39.47C331.784 38.57 331.224 38.01 329.444 38.01H327.954L328.314 34.5H332.144V35.14H328.944L328.704 37.37H329.604ZM339.378 39.02V39.66H337.978V41.5H337.258V39.66H333.308V39.14L337.018 34.5H337.818L334.238 39.02H337.278V37.4H337.978V39.02H339.378Z" fill="black"/>
<path d="M416.95 37.81H420.56V38.67H416.95V37.81ZM417.05 41.5H416.05V34.5H420.99V35.37H417.05V41.5ZM425.352 41.5V40.38L425.302 40.17V38.26C425.302 37.8533 425.182 37.54 424.942 37.32C424.709 37.0933 424.356 36.98 423.882 36.98C423.569 36.98 423.262 37.0333 422.962 37.14C422.662 37.24 422.409 37.3767 422.202 37.55L421.802 36.83C422.076 36.61 422.402 36.4433 422.782 36.33C423.169 36.21 423.572 36.15 423.992 36.15C424.719 36.15 425.279 36.3267 425.672 36.68C426.066 37.0333 426.262 37.5733 426.262 38.3V41.5H425.352ZM423.612 41.56C423.219 41.56 422.872 41.4933 422.572 41.36C422.279 41.2267 422.052 41.0433 421.892 40.81C421.732 40.57 421.652 40.3 421.652 40C421.652 39.7133 421.719 39.4533 421.852 39.22C421.992 38.9867 422.216 38.8 422.522 38.66C422.836 38.52 423.256 38.45 423.782 38.45H425.462V39.14H423.822C423.342 39.14 423.019 39.22 422.852 39.38C422.686 39.54 422.602 39.7333 422.602 39.96C422.602 40.22 422.706 40.43 422.912 40.59C423.119 40.7433 423.406 40.82 423.772 40.82C424.132 40.82 424.446 40.74 424.712 40.58C424.986 40.42 425.182 40.1867 425.302 39.88L425.492 40.54C425.366 40.8533 425.142 41.1033 424.822 41.29C424.502 41.47 424.099 41.56 423.612 41.56ZM430.349 41.56C429.809 41.56 429.326 41.4433 428.899 41.21C428.479 40.9767 428.149 40.6567 427.909 40.25C427.669 39.8433 427.549 39.3767 427.549 38.85C427.549 38.3233 427.669 37.8567 427.909 37.45C428.149 37.0433 428.479 36.7267 428.899 36.5C429.326 36.2667 429.809 36.15 430.349 36.15C430.829 36.15 431.256 36.2467 431.629 36.44C432.009 36.6267 432.302 36.9067 432.509 37.28L431.779 37.75C431.606 37.49 431.392 37.3 431.139 37.18C430.892 37.0533 430.626 36.99 430.339 36.99C429.992 36.99 429.682 37.0667 429.409 37.22C429.136 37.3733 428.919 37.59 428.759 37.87C428.599 38.1433 428.519 38.47 428.519 38.85C428.519 39.23 428.599 39.56 428.759 39.84C428.919 40.12 429.136 40.3367 429.409 40.49C429.682 40.6433 429.992 40.72 430.339 40.72C430.626 40.72 430.892 40.66 431.139 40.54C431.392 40.4133 431.606 40.22 431.779 39.96L432.509 40.42C432.302 40.7867 432.009 41.07 431.629 41.27C431.256 41.4633 430.829 41.56 430.349 41.56ZM435.64 41.56C435.107 41.56 434.693 41.4167 434.4 41.13C434.107 40.8433 433.96 40.4333 433.96 39.9V35.04H434.92V39.86C434.92 40.1467 434.99 40.3667 435.13 40.52C435.277 40.6733 435.483 40.75 435.75 40.75C436.05 40.75 436.3 40.6667 436.5 40.5L436.8 41.19C436.653 41.3167 436.477 41.41 436.27 41.47C436.07 41.53 435.86 41.56 435.64 41.56ZM433.06 36.99V36.2H436.44V36.99H433.06ZM440.191 41.56C439.737 41.56 439.337 41.4767 438.991 41.31C438.651 41.1433 438.384 40.89 438.191 40.55C438.004 40.2033 437.911 39.77 437.911 39.25V36.2H438.871V39.14C438.871 39.66 438.994 40.05 439.241 40.31C439.494 40.57 439.847 40.7 440.301 40.7C440.634 40.7 440.924 40.6333 441.171 40.5C441.417 40.36 441.607 40.16 441.741 39.9C441.874 39.6333 441.941 39.3133 441.941 38.94V36.2H442.901V41.5H441.991V40.07L442.141 40.45C441.967 40.8033 441.707 41.0767 441.361 41.27C441.014 41.4633 440.624 41.56 440.191 41.56ZM444.728 41.5V36.2H445.648V37.64L445.558 37.28C445.705 36.9133 445.952 36.6333 446.298 36.44C446.645 36.2467 447.072 36.15 447.578 36.15V37.08C447.538 37.0733 447.498 37.07 447.458 37.07C447.425 37.07 447.392 37.07 447.358 37.07C446.845 37.07 446.438 37.2233 446.138 37.53C445.838 37.8367 445.688 38.28 445.688 38.86V41.5H444.728ZM451.073 41.56C450.506 41.56 450.006 41.4433 449.573 41.21C449.146 40.9767 448.813 40.6567 448.573 40.25C448.339 39.8433 448.223 39.3767 448.223 38.85C448.223 38.3233 448.336 37.8567 448.563 37.45C448.796 37.0433 449.113 36.7267 449.513 36.5C449.919 36.2667 450.376 36.15 450.883 36.15C451.396 36.15 451.849 36.2633 452.243 36.49C452.636 36.7167 452.943 37.0367 453.163 37.45C453.389 37.8567 453.503 38.3333 453.503 38.88C453.503 38.92 453.499 38.9667 453.493 39.02C453.493 39.0733 453.489 39.1233 453.483 39.17H448.973V38.48H452.983L452.593 38.72C452.599 38.38 452.529 38.0767 452.383 37.81C452.236 37.5433 452.033 37.3367 451.773 37.19C451.519 37.0367 451.223 36.96 450.883 36.96C450.549 36.96 450.253 37.0367 449.993 37.19C449.733 37.3367 449.529 37.5467 449.383 37.82C449.236 38.0867 449.163 38.3933 449.163 38.74V38.9C449.163 39.2533 449.243 39.57 449.403 39.85C449.569 40.1233 449.799 40.3367 450.093 40.49C450.386 40.6433 450.723 40.72 451.103 40.72C451.416 40.72 451.699 40.6667 451.953 40.56C452.213 40.4533 452.439 40.2933 452.633 40.08L453.163 40.7C452.923 40.98 452.623 41.1933 452.263 41.34C451.909 41.4867 451.513 41.56 451.073 41.56Z" fill="#1501F3"/>
<rect x="593" y="26.5" width="44" height="22" rx="11" fill="#E5F7C1"/>
<path d="M602.159 41V34.7H604.616C605.168 34.7 605.639 34.787 606.029 34.961C606.419 35.135 606.719 35.387 606.929 35.717C607.139 36.047 607.244 36.44 607.244 36.896C607.244 37.352 607.139 37.745 606.929 38.075C606.719 38.399 606.419 38.651 606.029 38.831C605.639 39.005 605.168 39.092 604.616 39.092H602.654L603.059 38.669V41H602.159ZM603.059 38.759L602.654 38.309H604.589C605.165 38.309 605.6 38.186 605.894 37.94C606.194 37.694 606.344 37.346 606.344 36.896C606.344 36.446 606.194 36.098 605.894 35.852C605.6 35.606 605.165 35.483 604.589 35.483H602.654L603.059 35.033V38.759ZM611.358 41V39.992L611.313 39.803V38.084C611.313 37.718 611.205 37.436 610.989 37.238C610.779 37.034 610.461 36.932 610.035 36.932C609.753 36.932 609.477 36.98 609.207 37.076C608.937 37.166 608.709 37.289 608.523 37.445L608.163 36.797C608.409 36.599 608.703 36.449 609.045 36.347C609.393 36.239 609.756 36.185 610.134 36.185C610.788 36.185 611.292 36.344 611.646 36.662C612 36.98 612.177 37.466 612.177 38.12V41H611.358ZM609.792 41.054C609.438 41.054 609.126 40.994 608.856 40.874C608.592 40.754 608.388 40.589 608.244 40.379C608.1 40.163 608.028 39.92 608.028 39.65C608.028 39.392 608.088 39.158 608.208 38.948C608.334 38.738 608.535 38.57 608.811 38.444C609.093 38.318 609.471 38.255 609.945 38.255H611.457V38.876H609.981C609.549 38.876 609.258 38.948 609.108 39.092C608.958 39.236 608.883 39.41 608.883 39.614C608.883 39.848 608.976 40.037 609.162 40.181C609.348 40.319 609.606 40.388 609.936 40.388C610.26 40.388 610.542 40.316 610.782 40.172C611.028 40.028 611.205 39.818 611.313 39.542L611.484 40.136C611.37 40.418 611.169 40.643 610.881 40.811C610.593 40.973 610.23 41.054 609.792 41.054ZM613.895 42.8C613.667 42.8 613.445 42.761 613.229 42.683C613.013 42.611 612.827 42.503 612.671 42.359L613.04 41.711C613.16 41.825 613.292 41.912 613.436 41.972C613.58 42.032 613.733 42.062 613.895 42.062C614.105 42.062 614.279 42.008 614.417 41.9C614.555 41.792 614.684 41.6 614.804 41.324L615.101 40.667L615.191 40.559L617.063 36.23H617.909L615.596 41.477C615.458 41.813 615.302 42.077 615.128 42.269C614.96 42.461 614.774 42.596 614.57 42.674C614.366 42.758 614.141 42.8 613.895 42.8ZM615.029 41.153L612.851 36.23H613.751L615.605 40.478L615.029 41.153ZM620.707 41.054C620.197 41.054 619.747 40.949 619.357 40.739C618.973 40.529 618.673 40.241 618.457 39.875C618.247 39.509 618.142 39.089 618.142 38.615C618.142 38.141 618.244 37.721 618.448 37.355C618.658 36.989 618.943 36.704 619.303 36.5C619.669 36.29 620.08 36.185 620.536 36.185C620.998 36.185 621.406 36.287 621.76 36.491C622.114 36.695 622.39 36.983 622.588 37.355C622.792 37.721 622.894 38.15 622.894 38.642C622.894 38.678 622.891 38.72 622.885 38.768C622.885 38.816 622.882 38.861 622.876 38.903H618.817V38.282H622.426L622.075 38.498C622.081 38.192 622.018 37.919 621.886 37.679C621.754 37.439 621.571 37.253 621.337 37.121C621.109 36.983 620.842 36.914 620.536 36.914C620.236 36.914 619.969 36.983 619.735 37.121C619.501 37.253 619.318 37.442 619.186 37.688C619.054 37.928 618.988 38.204 618.988 38.516V38.66C618.988 38.978 619.06 39.263 619.204 39.515C619.354 39.761 619.561 39.953 619.825 40.091C620.089 40.229 620.392 40.298 620.734 40.298C621.016 40.298 621.271 40.25 621.499 40.154C621.733 40.058 621.937 39.914 622.111 39.722L622.588 40.28C622.372 40.532 622.102 40.724 621.778 40.856C621.46 40.988 621.103 41.054 620.707 41.054ZM619.852 35.537L621.076 34.367H622.174L620.662 35.537H619.852ZM626.218 41.054C625.708 41.054 625.258 40.949 624.868 40.739C624.484 40.529 624.184 40.241 623.968 39.875C623.758 39.509 623.653 39.089 623.653 38.615C623.653 38.141 623.755 37.721 623.959 37.355C624.169 36.989 624.454 36.704 624.814 36.5C625.18 36.29 625.591 36.185 626.047 36.185C626.509 36.185 626.917 36.287 627.271 36.491C627.625 36.695 627.901 36.983 628.099 37.355C628.303 37.721 628.405 38.15 628.405 38.642C628.405 38.678 628.402 38.72 628.396 38.768C628.396 38.816 628.393 38.861 628.387 38.903H624.328V38.282H627.937L627.586 38.498C627.592 38.192 627.529 37.919 627.397 37.679C627.265 37.439 627.082 37.253 626.848 37.121C626.62 36.983 626.353 36.914 626.047 36.914C625.747 36.914 625.48 36.983 625.246 37.121C625.012 37.253 624.829 37.442 624.697 37.688C624.565 37.928 624.499 38.204 624.499 38.516V38.66C624.499 38.978 624.571 39.263 624.715 39.515C624.865 39.761 625.072 39.953 625.336 40.091C625.6 40.229 625.903 40.298 626.245 40.298C626.527 40.298 626.782 40.25 627.01 40.154C627.244 40.058 627.448 39.914 627.622 39.722L628.099 40.28C627.883 40.532 627.613 40.724 627.289 40.856C626.971 40.988 626.614 41.054 626.218 41.054Z" fill="#829B4D"/>
</g>
</g>
<g filter="url(#filter1_d_2520_15030)">
<rect x="60" y="78" width="773" height="63" rx="10" fill="white" shape-rendering="crispEdges"/>
<path d="M85.128 105V96.6H88.8C91.524 96.6 93.384 98.28 93.384 100.8C93.384 103.32 91.524 105 88.8 105H85.128ZM86.688 103.68H88.728C90.6 103.68 91.812 102.54 91.812 100.8C91.812 99.06 90.6 97.92 88.728 97.92H86.688V103.68ZM95.8041 97.536C95.2521 97.536 94.8441 97.14 94.8441 96.636C94.8441 96.132 95.2521 95.736 95.8041 95.736C96.3561 95.736 96.7641 96.108 96.7641 96.6C96.7641 97.128 96.3681 97.536 95.8041 97.536ZM95.0481 105V98.592H96.5481V105H95.0481ZM101.115 98.52C102.963 98.52 104.031 99.396 104.031 101.244V105H102.615V104.22C102.255 104.772 101.559 105.084 100.599 105.084C99.1348 105.084 98.2108 104.28 98.2108 103.164C98.2108 102.096 98.9308 101.256 100.875 101.256H102.531V101.16C102.531 100.284 102.003 99.768 100.935 99.768C100.215 99.768 99.4708 100.008 98.9908 100.404L98.4028 99.312C99.0868 98.784 100.083 98.52 101.115 98.52ZM100.911 103.992C101.643 103.992 102.279 103.656 102.531 102.996V102.252H100.983C99.9628 102.252 99.6868 102.636 99.6868 103.104C99.6868 103.644 100.143 103.992 100.911 103.992ZM109.742 98.52C111.278 98.52 112.418 99.396 112.418 101.328V105H110.918V101.52C110.918 100.38 110.354 99.828 109.394 99.828C108.326 99.828 107.606 100.476 107.606 101.76V105H106.106V98.592H107.534V99.42C108.026 98.832 108.806 98.52 109.742 98.52ZM120.553 101.832C120.553 101.952 120.541 102.132 120.529 102.276H115.501C115.681 103.212 116.461 103.812 117.577 103.812C118.297 103.812 118.861 103.584 119.317 103.116L120.121 104.04C119.545 104.724 118.645 105.084 117.541 105.084C115.393 105.084 114.001 103.704 114.001 101.796C114.001 99.888 115.405 98.52 117.313 98.52C119.185 98.52 120.553 99.828 120.553 101.832ZM117.313 99.72C116.341 99.72 115.633 100.344 115.489 101.28H119.125C119.005 100.356 118.297 99.72 117.313 99.72ZM125.755 105V96.6H129.427C132.151 96.6 134.011 98.28 134.011 100.8C134.011 103.32 132.151 105 129.427 105H125.755ZM127.315 103.68H129.355C131.227 103.68 132.439 102.54 132.439 100.8C132.439 99.06 131.227 97.92 129.355 97.92H127.315V103.68ZM140.379 98.592H141.879V105H140.451V104.184C139.971 104.772 139.215 105.084 138.387 105.084C136.743 105.084 135.627 104.184 135.627 102.252V98.592H137.127V102.048C137.127 103.212 137.679 103.764 138.627 103.764C139.671 103.764 140.379 103.116 140.379 101.832V98.592ZM147.545 98.52C149.417 98.52 150.797 99.816 150.797 101.796C150.797 103.788 149.417 105.084 147.545 105.084C146.729 105.084 146.009 104.808 145.493 104.22V107.328H143.993V98.592H145.421V99.432C145.925 98.82 146.669 98.52 147.545 98.52ZM147.377 103.8C148.457 103.8 149.273 103.02 149.273 101.796C149.273 100.572 148.457 99.792 147.377 99.792C146.297 99.792 145.469 100.572 145.469 101.796C145.469 103.02 146.297 103.8 147.377 103.8ZM155.249 105.084C153.281 105.084 151.841 103.716 151.841 101.796C151.841 99.876 153.281 98.52 155.249 98.52C157.241 98.52 158.669 99.876 158.669 101.796C158.669 103.716 157.241 105.084 155.249 105.084ZM155.249 103.8C156.341 103.8 157.157 103.02 157.157 101.796C157.157 100.572 156.341 99.792 155.249 99.792C154.169 99.792 153.353 100.572 153.353 101.796C153.353 103.02 154.169 103.8 155.249 103.8ZM163.89 98.52C165.426 98.52 166.566 99.396 166.566 101.328V105H165.066V101.52C165.066 100.38 164.502 99.828 163.542 99.828C162.474 99.828 161.754 100.476 161.754 101.76V105H160.254V98.592H161.682V99.42C162.174 98.832 162.954 98.52 163.89 98.52ZM172.05 103.584L172.47 104.652C172.11 104.94 171.57 105.084 171.03 105.084C169.626 105.084 168.822 104.34 168.822 102.924V99.84H167.766V98.64H168.822V97.176H170.322V98.64H172.038V99.84H170.322V102.888C170.322 103.512 170.634 103.848 171.21 103.848C171.522 103.848 171.822 103.764 172.05 103.584Z" fill="black" fill-opacity="0.87"/>
<path d="M90.37 123L89.53 121.13H85.63L84.79 123H84.02L87.22 116H87.95L91.15 123H90.37ZM85.9 120.53H89.26L87.58 116.77L85.9 120.53ZM96.2291 117.74H96.9091V124.94H96.1991V122.01C95.7591 122.69 95.0391 123.05 94.1991 123.05C92.6991 123.05 91.5791 121.97 91.5791 120.37C91.5791 118.78 92.6991 117.7 94.1991 117.7C95.0691 117.7 95.7991 118.08 96.2291 118.78V117.74ZM94.2591 122.42C95.3691 122.42 96.2091 121.6 96.2091 120.37C96.2091 119.15 95.3691 118.32 94.2591 118.32C93.1391 118.32 92.2991 119.15 92.2991 120.37C92.2991 121.6 93.1391 122.42 94.2591 122.42ZM102.916 117.74H103.626V123H102.946V122.04C102.576 122.68 101.896 123.05 101.056 123.05C99.7165 123.05 98.8365 122.3 98.8365 120.79V117.74H99.5465V120.72C99.5465 121.84 100.126 122.41 101.126 122.41C102.226 122.41 102.916 121.7 102.916 120.5V117.74ZM107.455 117.7C108.815 117.7 109.585 118.38 109.585 119.74V123H108.905V122.18C108.585 122.72 107.965 123.05 107.095 123.05C105.905 123.05 105.175 122.43 105.175 121.52C105.175 120.71 105.695 120.03 107.205 120.03H108.875V119.71C108.875 118.81 108.365 118.32 107.385 118.32C106.705 118.32 106.065 118.56 105.635 118.94L105.315 118.41C105.845 117.96 106.625 117.7 107.455 117.7ZM107.205 122.49C108.005 122.49 108.595 122.11 108.875 121.42V120.56H107.225C106.205 120.56 105.875 120.96 105.875 121.5C105.875 122.11 106.365 122.49 107.205 122.49ZM113.253 116.13C112.643 116.13 112.323 116.47 112.323 117.12V117.74H113.943V118.34H112.343V123H111.633V118.34H110.693V117.74H111.633V117.09C111.633 116.15 112.193 115.53 113.223 115.53C113.613 115.53 114.013 115.64 114.273 115.86L114.033 116.39C113.833 116.22 113.553 116.13 113.253 116.13ZM116.964 123.05C115.424 123.05 114.284 121.93 114.284 120.37C114.284 118.81 115.424 117.7 116.964 117.7C118.504 117.7 119.634 118.81 119.634 120.37C119.634 121.93 118.504 123.05 116.964 123.05ZM116.964 122.42C118.084 122.42 118.914 121.6 118.914 120.37C118.914 119.14 118.084 118.32 116.964 118.32C115.844 118.32 115.004 119.14 115.004 120.37C115.004 121.6 115.844 122.42 116.964 122.42ZM121.764 118.77C122.094 118.07 122.764 117.7 123.734 117.7V118.39C123.674 118.39 123.614 118.38 123.564 118.38C122.464 118.38 121.794 119.08 121.794 120.32V123H121.084V117.74H121.764V118.77ZM131.579 117.7C132.859 117.7 133.699 118.44 133.699 119.95V123H132.989V120.02C132.989 118.91 132.429 118.34 131.479 118.34C130.399 118.34 129.719 119.04 129.719 120.24V123H129.009V120.02C129.009 118.91 128.449 118.34 127.489 118.34C126.419 118.34 125.729 119.04 125.729 120.24V123H125.019V117.74H125.699V118.7C126.069 118.07 126.749 117.7 127.629 117.7C128.499 117.7 129.179 118.07 129.499 118.81C129.879 118.13 130.629 117.7 131.579 117.7ZM140.234 120.37C140.234 120.43 140.224 120.51 140.224 120.59H135.824C135.904 121.69 136.744 122.42 137.894 122.42C138.534 122.42 139.104 122.19 139.504 121.73L139.904 122.19C139.434 122.75 138.704 123.05 137.874 123.05C136.234 123.05 135.114 121.93 135.114 120.37C135.114 118.81 136.204 117.7 137.684 117.7C139.164 117.7 140.234 118.79 140.234 120.37ZM137.684 118.31C136.664 118.31 135.914 119.03 135.824 120.06H139.554C139.464 119.03 138.714 118.31 137.684 118.31ZM149.567 116H150.297V123H149.687L145.187 117.32V123H144.447V116H145.057L149.567 121.68V116ZM152.791 116.59C152.501 116.59 152.271 116.36 152.271 116.08C152.271 115.81 152.501 115.58 152.791 115.58C153.081 115.58 153.311 115.8 153.311 116.07C153.311 116.36 153.091 116.59 152.791 116.59ZM152.431 123V117.74H153.141V123H152.431ZM158.837 117.74H159.537L157.197 123H156.467L154.137 117.74H154.877L156.847 122.22L158.837 117.74ZM160.265 123.05C159.975 123.05 159.735 122.81 159.735 122.5C159.735 122.19 159.975 121.96 160.265 121.96C160.555 121.96 160.805 122.19 160.805 122.5C160.805 122.81 160.555 123.05 160.265 123.05ZM162.872 122.36H166.722V123H161.812V122.49L164.722 119.64C165.512 118.86 165.662 118.39 165.662 117.91C165.662 117.1 165.092 116.6 164.022 116.6C163.202 116.6 162.572 116.85 162.112 117.38L161.602 116.94C162.142 116.3 163.012 115.94 164.082 115.94C165.502 115.94 166.402 116.66 166.402 117.83C166.402 118.5 166.192 119.1 165.252 120.02L162.872 122.36ZM170.323 120.6V119.98H172.943V120.6H170.323ZM177.298 123V116H180.148C182.388 116 183.898 117.44 183.898 119.5C183.898 121.56 182.388 123 180.148 123H177.298ZM178.038 122.36H180.108C181.968 122.36 183.168 121.18 183.168 119.5C183.168 117.82 181.968 116.64 180.108 116.64H178.038V122.36ZM185.77 116.59C185.48 116.59 185.25 116.36 185.25 116.08C185.25 115.81 185.48 115.58 185.77 115.58C186.06 115.58 186.29 115.8 186.29 116.07C186.29 116.36 186.07 116.59 185.77 116.59ZM185.41 123V117.74H186.12V123H185.41ZM189.935 117.7C191.295 117.7 192.065 118.38 192.065 119.74V123H191.385V122.18C191.065 122.72 190.445 123.05 189.575 123.05C188.385 123.05 187.655 122.43 187.655 121.52C187.655 120.71 188.175 120.03 189.685 120.03H191.355V119.71C191.355 118.81 190.845 118.32 189.865 118.32C189.185 118.32 188.545 118.56 188.115 118.94L187.795 118.41C188.325 117.96 189.105 117.7 189.935 117.7ZM189.685 122.49C190.485 122.49 191.075 122.11 191.355 121.42V120.56H189.705C188.685 120.56 188.355 120.96 188.355 121.5C188.355 122.11 188.845 122.49 189.685 122.49ZM196.674 117.7C197.954 117.7 198.834 118.44 198.834 119.95V123H198.124V120.02C198.124 118.91 197.544 118.34 196.544 118.34C195.414 118.34 194.704 119.04 194.704 120.24V123H193.994V117.74H194.674V118.71C195.054 118.07 195.764 117.7 196.674 117.7ZM205.371 120.37C205.371 120.43 205.361 120.51 205.361 120.59H200.961C201.041 121.69 201.881 122.42 203.031 122.42C203.671 122.42 204.241 122.19 204.641 121.73L205.041 122.19C204.571 122.75 203.841 123.05 203.011 123.05C201.371 123.05 200.251 121.93 200.251 120.37C200.251 118.81 201.341 117.7 202.821 117.7C204.301 117.7 205.371 118.79 205.371 120.37ZM202.821 118.31C201.801 118.31 201.051 119.03 200.961 120.06H204.691C204.601 119.03 203.851 118.31 202.821 118.31ZM209.583 123V116H212.433C214.673 116 216.183 117.44 216.183 119.5C216.183 121.56 214.673 123 212.433 123H209.583ZM210.323 122.36H212.393C214.253 122.36 215.453 121.18 215.453 119.5C215.453 117.82 214.253 116.64 212.393 116.64H210.323V122.36ZM221.725 117.74H222.435V123H221.755V122.04C221.385 122.68 220.705 123.05 219.865 123.05C218.525 123.05 217.645 122.3 217.645 120.79V117.74H218.355V120.72C218.355 121.84 218.935 122.41 219.935 122.41C221.035 122.41 221.725 121.7 221.725 120.5V117.74ZM227.134 117.7C228.634 117.7 229.754 118.78 229.754 120.37C229.754 121.97 228.634 123.05 227.134 123.05C226.294 123.05 225.574 122.69 225.134 122.01V124.94H224.424V117.74H225.104V118.78C225.534 118.08 226.264 117.7 227.134 117.7ZM227.084 122.42C228.194 122.42 229.044 121.6 229.044 120.37C229.044 119.15 228.194 118.32 227.084 118.32C225.964 118.32 225.124 119.15 225.124 120.37C225.124 121.6 225.964 122.42 227.084 122.42ZM233.351 123.05C231.811 123.05 230.671 121.93 230.671 120.37C230.671 118.81 231.811 117.7 233.351 117.7C234.891 117.7 236.021 118.81 236.021 120.37C236.021 121.93 234.891 123.05 233.351 123.05ZM233.351 122.42C234.471 122.42 235.301 121.6 235.301 120.37C235.301 119.14 234.471 118.32 233.351 118.32C232.231 118.32 231.391 119.14 231.391 120.37C231.391 121.6 232.231 122.42 233.351 122.42ZM240.15 117.7C241.43 117.7 242.31 118.44 242.31 119.95V123H241.6V120.02C241.6 118.91 241.02 118.34 240.02 118.34C238.89 118.34 238.18 119.04 238.18 120.24V123H237.47V117.74H238.15V118.71C238.53 118.07 239.24 117.7 240.15 117.7ZM246.758 122.17L247.008 122.68C246.728 122.93 246.308 123.05 245.898 123.05C244.908 123.05 244.358 122.49 244.358 121.52V118.34H243.418V117.74H244.358V116.59H245.068V117.74H246.668V118.34H245.068V121.48C245.068 122.1 245.388 122.44 245.978 122.44C246.268 122.44 246.558 122.35 246.758 122.17Z" fill="#858585"/>
<path d="M288.4 107.09C288.11 107.09 287.88 106.86 287.88 106.58C287.88 106.31 288.11 106.08 288.4 106.08C288.69 106.08 288.92 106.3 288.92 106.57C288.92 106.86 288.7 107.09 288.4 107.09ZM287.21 115.49C286.79 115.49 286.36 115.38 286.1 115.15L286.35 114.61C286.56 114.79 286.84 114.88 287.17 114.88C287.73 114.88 288.04 114.54 288.04 113.89V108.24H288.75V113.89C288.75 114.86 288.21 115.49 287.21 115.49ZM295.324 110.87C295.324 110.93 295.314 111.01 295.314 111.09H290.914C290.994 112.19 291.834 112.92 292.984 112.92C293.624 112.92 294.194 112.69 294.594 112.23L294.994 112.69C294.524 113.25 293.794 113.55 292.964 113.55C291.324 113.55 290.204 112.43 290.204 110.87C290.204 109.31 291.294 108.2 292.774 108.2C294.254 108.2 295.324 109.29 295.324 110.87ZM292.774 108.81C291.754 108.81 291.004 109.53 290.914 110.56H294.644C294.554 109.53 293.804 108.81 292.774 108.81ZM300.799 108.24H301.509V113.5H300.829V112.54C300.459 113.18 299.779 113.55 298.939 113.55C297.599 113.55 296.719 112.8 296.719 111.29V108.24H297.429V111.22C297.429 112.34 298.009 112.91 299.009 112.91C300.109 112.91 300.799 112.2 300.799 111V108.24ZM303.568 113.55C303.278 113.55 303.038 113.31 303.038 113C303.038 112.69 303.278 112.46 303.568 112.46C303.858 112.46 304.108 112.69 304.108 113C304.108 113.31 303.858 113.55 303.568 113.55ZM310.554 113.56C308.934 113.56 307.764 112.23 307.764 110C307.764 107.77 308.934 106.44 310.554 106.44C312.174 106.44 313.354 107.77 313.354 110C313.354 112.23 312.174 113.56 310.554 113.56ZM310.554 112.9C311.774 112.9 312.614 111.87 312.614 110C312.614 108.13 311.774 107.1 310.554 107.1C309.334 107.1 308.494 108.13 308.494 110C308.494 111.87 309.334 112.9 310.554 112.9ZM315.296 112.86H319.146V113.5H314.236V112.99L317.146 110.14C317.936 109.36 318.086 108.89 318.086 108.41C318.086 107.6 317.516 107.1 316.446 107.1C315.626 107.1 314.996 107.35 314.536 107.88L314.026 107.44C314.566 106.8 315.436 106.44 316.506 106.44C317.926 106.44 318.826 107.16 318.826 108.33C318.826 109 318.616 109.6 317.676 110.52L315.296 112.86ZM319.377 114.5L322.677 105.08H323.327L320.027 114.5H319.377ZM326.091 113.56C324.471 113.56 323.301 112.23 323.301 110C323.301 107.77 324.471 106.44 326.091 106.44C327.711 106.44 328.891 107.77 328.891 110C328.891 112.23 327.711 113.56 326.091 113.56ZM326.091 112.9C327.311 112.9 328.151 111.87 328.151 110C328.151 108.13 327.311 107.1 326.091 107.1C324.871 107.1 324.031 108.13 324.031 110C324.031 111.87 324.871 112.9 326.091 112.9ZM332.102 106.44C333.962 106.44 334.972 107.73 334.972 109.94C334.972 112.32 333.672 113.56 331.772 113.56C331.142 113.56 330.552 113.45 330.112 113.18L330.402 112.6C330.762 112.84 331.242 112.93 331.762 112.93C333.272 112.93 334.242 111.96 334.242 110.06C334.242 109.9 334.232 109.7 334.212 109.49C333.862 110.26 333.042 110.69 332.072 110.69C330.682 110.69 329.712 109.87 329.712 108.59C329.712 107.28 330.742 106.44 332.102 106.44ZM332.182 110.08C333.252 110.08 333.982 109.42 333.982 108.55C333.982 107.78 333.342 107.05 332.132 107.05C331.122 107.05 330.422 107.64 330.422 108.57C330.422 109.49 331.102 110.08 332.182 110.08ZM335.051 114.5L338.351 105.08H339.001L335.701 114.5H335.051ZM340.1 112.86H343.95V113.5H339.04V112.99L341.95 110.14C342.74 109.36 342.89 108.89 342.89 108.41C342.89 107.6 342.32 107.1 341.25 107.1C340.43 107.1 339.8 107.35 339.34 107.88L338.83 107.44C339.37 106.8 340.24 106.44 341.31 106.44C342.73 106.44 343.63 107.16 343.63 108.33C343.63 109 343.42 109.6 342.48 110.52L340.1 112.86ZM347.605 113.56C345.985 113.56 344.815 112.23 344.815 110C344.815 107.77 345.985 106.44 347.605 106.44C349.225 106.44 350.405 107.77 350.405 110C350.405 112.23 349.225 113.56 347.605 113.56ZM347.605 112.9C348.825 112.9 349.665 111.87 349.665 110C349.665 108.13 348.825 107.1 347.605 107.1C346.385 107.1 345.545 108.13 345.545 110C345.545 111.87 346.385 112.9 347.605 112.9ZM352.346 112.86H356.196V113.5H351.286V112.99L354.196 110.14C354.986 109.36 355.136 108.89 355.136 108.41C355.136 107.6 354.566 107.1 353.496 107.1C352.676 107.1 352.046 107.35 351.586 107.88L351.076 107.44C351.616 106.8 352.486 106.44 353.556 106.44C354.976 106.44 355.876 107.16 355.876 108.33C355.876 109 355.666 109.6 354.726 110.52L352.346 112.86ZM359.48 109.5C360.98 109.58 361.73 110.37 361.73 111.49C361.73 112.66 360.88 113.56 359.19 113.56C358.18 113.56 357.21 113.21 356.67 112.66L357.02 112.09C357.47 112.56 358.28 112.9 359.19 112.9C360.35 112.9 360.99 112.36 360.99 111.49C360.99 110.65 360.4 110.1 359.1 110.1H358.6V109.57L360.54 107.14H356.96V106.5H361.46V107.01L359.48 109.5ZM364.932 106.5H367.302V113.5H366.582V107.14H364.932V106.5ZM374.925 111.02V111.66H373.525V113.5H372.805V111.66H368.855V111.14L372.565 106.5H373.365L369.785 111.02H372.825V109.4H373.525V111.02H374.925ZM376.185 109.29C375.895 109.29 375.655 109.05 375.655 108.74C375.655 108.43 375.895 108.2 376.185 108.2C376.475 108.2 376.725 108.43 376.725 108.74C376.725 109.05 376.475 109.29 376.185 109.29ZM376.185 113.55C375.895 113.55 375.655 113.31 375.655 113C375.655 112.69 375.895 112.46 376.185 112.46C376.475 112.46 376.725 112.69 376.725 113C376.725 113.31 376.475 113.55 376.185 113.55ZM383.714 111.02V111.66H382.314V113.5H381.594V111.66H377.644V111.14L381.354 106.5H382.154L378.574 111.02H381.614V109.4H382.314V111.02H383.714ZM386.609 109.5C388.109 109.58 388.859 110.37 388.859 111.49C388.859 112.66 388.009 113.56 386.319 113.56C385.309 113.56 384.339 113.21 383.799 112.66L384.149 112.09C384.599 112.56 385.409 112.9 386.319 112.9C387.479 112.9 388.119 112.36 388.119 111.49C388.119 110.65 387.529 110.1 386.229 110.1H385.729V109.57L387.669 107.14H384.089V106.5H388.589V107.01L386.609 109.5Z" fill="black"/>
<path d="M466.95 109.81H470.56V110.67H466.95V109.81ZM467.05 113.5H466.05V106.5H470.99V107.37H467.05V113.5ZM475.352 113.5V112.38L475.302 112.17V110.26C475.302 109.853 475.182 109.54 474.942 109.32C474.709 109.093 474.356 108.98 473.882 108.98C473.569 108.98 473.262 109.033 472.962 109.14C472.662 109.24 472.409 109.377 472.202 109.55L471.802 108.83C472.076 108.61 472.402 108.443 472.782 108.33C473.169 108.21 473.572 108.15 473.992 108.15C474.719 108.15 475.279 108.327 475.672 108.68C476.066 109.033 476.262 109.573 476.262 110.3V113.5H475.352ZM473.612 113.56C473.219 113.56 472.872 113.493 472.572 113.36C472.279 113.227 472.052 113.043 471.892 112.81C471.732 112.57 471.652 112.3 471.652 112C471.652 111.713 471.719 111.453 471.852 111.22C471.992 110.987 472.216 110.8 472.522 110.66C472.836 110.52 473.256 110.45 473.782 110.45H475.462V111.14H473.822C473.342 111.14 473.019 111.22 472.852 111.38C472.686 111.54 472.602 111.733 472.602 111.96C472.602 112.22 472.706 112.43 472.912 112.59C473.119 112.743 473.406 112.82 473.772 112.82C474.132 112.82 474.446 112.74 474.712 112.58C474.986 112.42 475.182 112.187 475.302 111.88L475.492 112.54C475.366 112.853 475.142 113.103 474.822 113.29C474.502 113.47 474.099 113.56 473.612 113.56ZM480.349 113.56C479.809 113.56 479.326 113.443 478.899 113.21C478.479 112.977 478.149 112.657 477.909 112.25C477.669 111.843 477.549 111.377 477.549 110.85C477.549 110.323 477.669 109.857 477.909 109.45C478.149 109.043 478.479 108.727 478.899 108.5C479.326 108.267 479.809 108.15 480.349 108.15C480.829 108.15 481.256 108.247 481.629 108.44C482.009 108.627 482.302 108.907 482.509 109.28L481.779 109.75C481.606 109.49 481.392 109.3 481.139 109.18C480.892 109.053 480.626 108.99 480.339 108.99C479.992 108.99 479.682 109.067 479.409 109.22C479.136 109.373 478.919 109.59 478.759 109.87C478.599 110.143 478.519 110.47 478.519 110.85C478.519 111.23 478.599 111.56 478.759 111.84C478.919 112.12 479.136 112.337 479.409 112.49C479.682 112.643 479.992 112.72 480.339 112.72C480.626 112.72 480.892 112.66 481.139 112.54C481.392 112.413 481.606 112.22 481.779 111.96L482.509 112.42C482.302 112.787 482.009 113.07 481.629 113.27C481.256 113.463 480.829 113.56 480.349 113.56ZM485.64 113.56C485.107 113.56 484.693 113.417 484.4 113.13C484.107 112.843 483.96 112.433 483.96 111.9V107.04H484.92V111.86C484.92 112.147 484.99 112.367 485.13 112.52C485.277 112.673 485.483 112.75 485.75 112.75C486.05 112.75 486.3 112.667 486.5 112.5L486.8 113.19C486.653 113.317 486.477 113.41 486.27 113.47C486.07 113.53 485.86 113.56 485.64 113.56ZM483.06 108.99V108.2H486.44V108.99H483.06ZM490.191 113.56C489.737 113.56 489.337 113.477 488.991 113.31C488.651 113.143 488.384 112.89 488.191 112.55C488.004 112.203 487.911 111.77 487.911 111.25V108.2H488.871V111.14C488.871 111.66 488.994 112.05 489.241 112.31C489.494 112.57 489.847 112.7 490.301 112.7C490.634 112.7 490.924 112.633 491.171 112.5C491.417 112.36 491.607 112.16 491.741 111.9C491.874 111.633 491.941 111.313 491.941 110.94V108.2H492.901V113.5H491.991V112.07L492.141 112.45C491.967 112.803 491.707 113.077 491.361 113.27C491.014 113.463 490.624 113.56 490.191 113.56ZM494.728 113.5V108.2H495.648V109.64L495.558 109.28C495.705 108.913 495.952 108.633 496.298 108.44C496.645 108.247 497.072 108.15 497.578 108.15V109.08C497.538 109.073 497.498 109.07 497.458 109.07C497.425 109.07 497.392 109.07 497.358 109.07C496.845 109.07 496.438 109.223 496.138 109.53C495.838 109.837 495.688 110.28 495.688 110.86V113.5H494.728ZM501.073 113.56C500.506 113.56 500.006 113.443 499.573 113.21C499.146 112.977 498.813 112.657 498.573 112.25C498.339 111.843 498.223 111.377 498.223 110.85C498.223 110.323 498.336 109.857 498.563 109.45C498.796 109.043 499.113 108.727 499.513 108.5C499.919 108.267 500.376 108.15 500.883 108.15C501.396 108.15 501.849 108.263 502.243 108.49C502.636 108.717 502.943 109.037 503.163 109.45C503.389 109.857 503.503 110.333 503.503 110.88C503.503 110.92 503.499 110.967 503.493 111.02C503.493 111.073 503.489 111.123 503.483 111.17H498.973V110.48H502.983L502.593 110.72C502.599 110.38 502.529 110.077 502.383 109.81C502.236 109.543 502.033 109.337 501.773 109.19C501.519 109.037 501.223 108.96 500.883 108.96C500.549 108.96 500.253 109.037 499.993 109.19C499.733 109.337 499.529 109.547 499.383 109.82C499.236 110.087 499.163 110.393 499.163 110.74V110.9C499.163 111.253 499.243 111.57 499.403 111.85C499.569 112.123 499.799 112.337 500.093 112.49C500.386 112.643 500.723 112.72 501.103 112.72C501.416 112.72 501.699 112.667 501.953 112.56C502.213 112.453 502.439 112.293 502.633 112.08L503.163 112.7C502.923 112.98 502.623 113.193 502.263 113.34C501.909 113.487 501.513 113.56 501.073 113.56Z" fill="#1501F3"/>
<rect x="643" y="98.5" width="66" height="22" rx="11" fill="#FFE0E0"/>
<path d="M652.38 113V106.7H653.118L657.285 111.875H656.898V106.7H657.798V113H657.06L652.893 107.825H653.28V113H652.38ZM661.6 113.054C661.12 113.054 660.694 112.949 660.322 112.739C659.95 112.529 659.656 112.241 659.44 111.875C659.224 111.503 659.116 111.083 659.116 110.615C659.116 110.141 659.224 109.721 659.44 109.355C659.656 108.989 659.95 108.704 660.322 108.5C660.694 108.29 661.12 108.185 661.6 108.185C662.074 108.185 662.497 108.29 662.869 108.5C663.247 108.704 663.541 108.989 663.751 109.355C663.967 109.715 664.075 110.135 664.075 110.615C664.075 111.089 663.967 111.509 663.751 111.875C663.541 112.241 663.247 112.529 662.869 112.739C662.497 112.949 662.074 113.054 661.6 113.054ZM661.6 112.298C661.906 112.298 662.179 112.229 662.419 112.091C662.665 111.953 662.857 111.758 662.995 111.506C663.133 111.248 663.202 110.951 663.202 110.615C663.202 110.273 663.133 109.979 662.995 109.733C662.857 109.481 662.665 109.286 662.419 109.148C662.179 109.01 661.906 108.941 661.6 108.941C661.294 108.941 661.021 109.01 660.781 109.148C660.541 109.286 660.349 109.481 660.205 109.733C660.061 109.979 659.989 110.273 659.989 110.615C659.989 110.951 660.061 111.248 660.205 111.506C660.349 111.758 660.541 111.953 660.781 112.091C661.021 112.229 661.294 112.298 661.6 112.298ZM667.817 108.185C668.207 108.185 668.549 108.26 668.843 108.41C669.143 108.56 669.377 108.788 669.545 109.094C669.713 109.4 669.797 109.787 669.797 110.255V113H668.933V110.354C668.933 109.892 668.819 109.544 668.591 109.31C668.369 109.076 668.054 108.959 667.646 108.959C667.34 108.959 667.073 109.019 666.845 109.139C666.617 109.259 666.44 109.436 666.314 109.67C666.194 109.904 666.134 110.195 666.134 110.543V113H665.27V108.23H666.098V109.517L665.963 109.175C666.119 108.863 666.359 108.62 666.683 108.446C667.007 108.272 667.385 108.185 667.817 108.185ZM673.939 113V106.7H676.396C676.948 106.7 677.419 106.787 677.809 106.961C678.199 107.135 678.499 107.387 678.709 107.717C678.919 108.047 679.024 108.44 679.024 108.896C679.024 109.352 678.919 109.745 678.709 110.075C678.499 110.399 678.199 110.651 677.809 110.831C677.419 111.005 676.948 111.092 676.396 111.092H674.434L674.839 110.669V113H673.939ZM674.839 110.759L674.434 110.309H676.369C676.945 110.309 677.38 110.186 677.674 109.94C677.974 109.694 678.124 109.346 678.124 108.896C678.124 108.446 677.974 108.098 677.674 107.852C677.38 107.606 676.945 107.483 676.369 107.483H674.434L674.839 107.033V110.759ZM683.137 113V111.992L683.092 111.803V110.084C683.092 109.718 682.984 109.436 682.768 109.238C682.558 109.034 682.24 108.932 681.814 108.932C681.532 108.932 681.256 108.98 680.986 109.076C680.716 109.166 680.488 109.289 680.302 109.445L679.942 108.797C680.188 108.599 680.482 108.449 680.824 108.347C681.172 108.239 681.535 108.185 681.913 108.185C682.567 108.185 683.071 108.344 683.425 108.662C683.779 108.98 683.956 109.466 683.956 110.12V113H683.137ZM681.571 113.054C681.217 113.054 680.905 112.994 680.635 112.874C680.371 112.754 680.167 112.589 680.023 112.379C679.879 112.163 679.807 111.92 679.807 111.65C679.807 111.392 679.867 111.158 679.987 110.948C680.113 110.738 680.314 110.57 680.59 110.444C680.872 110.318 681.25 110.255 681.724 110.255H683.236V110.876H681.76C681.328 110.876 681.037 110.948 680.887 111.092C680.737 111.236 680.662 111.41 680.662 111.614C680.662 111.848 680.755 112.037 680.941 112.181C681.127 112.319 681.385 112.388 681.715 112.388C682.039 112.388 682.321 112.316 682.561 112.172C682.807 112.028 682.984 111.818 683.092 111.542L683.263 112.136C683.149 112.418 682.948 112.643 682.66 112.811C682.372 112.973 682.009 113.054 681.571 113.054ZM685.674 114.8C685.446 114.8 685.224 114.761 685.008 114.683C684.792 114.611 684.606 114.503 684.45 114.359L684.819 113.711C684.939 113.825 685.071 113.912 685.215 113.972C685.359 114.032 685.512 114.062 685.674 114.062C685.884 114.062 686.058 114.008 686.196 113.9C686.334 113.792 686.463 113.6 686.583 113.324L686.88 112.667L686.97 112.559L688.842 108.23H689.688L687.375 113.477C687.237 113.813 687.081 114.077 686.907 114.269C686.739 114.461 686.553 114.596 686.349 114.674C686.145 114.758 685.92 114.8 685.674 114.8ZM686.808 113.153L684.63 108.23H685.53L687.384 112.478L686.808 113.153ZM692.487 113.054C691.977 113.054 691.527 112.949 691.137 112.739C690.753 112.529 690.453 112.241 690.237 111.875C690.027 111.509 689.922 111.089 689.922 110.615C689.922 110.141 690.024 109.721 690.228 109.355C690.438 108.989 690.723 108.704 691.083 108.5C691.449 108.29 691.86 108.185 692.316 108.185C692.778 108.185 693.186 108.287 693.54 108.491C693.894 108.695 694.17 108.983 694.368 109.355C694.572 109.721 694.674 110.15 694.674 110.642C694.674 110.678 694.671 110.72 694.665 110.768C694.665 110.816 694.662 110.861 694.656 110.903H690.597V110.282H694.206L693.855 110.498C693.861 110.192 693.798 109.919 693.666 109.679C693.534 109.439 693.351 109.253 693.117 109.121C692.889 108.983 692.622 108.914 692.316 108.914C692.016 108.914 691.749 108.983 691.515 109.121C691.281 109.253 691.098 109.442 690.966 109.688C690.834 109.928 690.768 110.204 690.768 110.516V110.66C690.768 110.978 690.84 111.263 690.984 111.515C691.134 111.761 691.341 111.953 691.605 112.091C691.869 112.229 692.172 112.298 692.514 112.298C692.796 112.298 693.051 112.25 693.279 112.154C693.513 112.058 693.717 111.914 693.891 111.722L694.368 112.28C694.152 112.532 693.882 112.724 693.558 112.856C693.24 112.988 692.883 113.054 692.487 113.054ZM691.632 107.537L692.856 106.367H693.954L692.442 107.537H691.632ZM697.998 113.054C697.488 113.054 697.038 112.949 696.648 112.739C696.264 112.529 695.964 112.241 695.748 111.875C695.538 111.509 695.433 111.089 695.433 110.615C695.433 110.141 695.535 109.721 695.739 109.355C695.949 108.989 696.234 108.704 696.594 108.5C696.96 108.29 697.371 108.185 697.827 108.185C698.289 108.185 698.697 108.287 699.051 108.491C699.405 108.695 699.681 108.983 699.879 109.355C700.083 109.721 700.185 110.15 700.185 110.642C700.185 110.678 700.182 110.72 700.176 110.768C700.176 110.816 700.173 110.861 700.167 110.903H696.108V110.282H699.717L699.366 110.498C699.372 110.192 699.309 109.919 699.177 109.679C699.045 109.439 698.862 109.253 698.628 109.121C698.4 108.983 698.133 108.914 697.827 108.914C697.527 108.914 697.26 108.983 697.026 109.121C696.792 109.253 696.609 109.442 696.477 109.688C696.345 109.928 696.279 110.204 696.279 110.516V110.66C696.279 110.978 696.351 111.263 696.495 111.515C696.645 111.761 696.852 111.953 697.116 112.091C697.38 112.229 697.683 112.298 698.025 112.298C698.307 112.298 698.562 112.25 698.79 112.154C699.024 112.058 699.228 111.914 699.402 111.722L699.879 112.28C699.663 112.532 699.393 112.724 699.069 112.856C698.751 112.988 698.394 113.054 697.998 113.054Z" fill="#D82525"/>
</g>
<g filter="url(#filter2_d_2520_15030)">
<rect x="10" y="150" width="773" height="63" rx="10" fill="white" shape-rendering="crispEdges"/>
<path d="M36.832 177V169.92H34.048V168.6H41.176V169.92H38.392V177H36.832ZM43.6284 171.528C44.0604 170.856 44.8404 170.52 45.9084 170.52V171.948C45.7764 171.924 45.6684 171.912 45.5604 171.912C44.4204 171.912 43.7004 172.584 43.7004 173.892V177H42.2004V170.592H43.6284V171.528ZM48.0869 169.536C47.5349 169.536 47.1269 169.14 47.1269 168.636C47.1269 168.132 47.5349 167.736 48.0869 167.736C48.6389 167.736 49.0469 168.108 49.0469 168.6C49.0469 169.128 48.6509 169.536 48.0869 169.536ZM47.3309 177V170.592H48.8309V177H47.3309ZM52.9296 177.084C51.8616 177.084 50.7936 176.772 50.2176 176.364L50.7936 175.224C51.3576 175.596 52.2216 175.86 53.0256 175.86C53.9736 175.86 54.3696 175.596 54.3696 175.152C54.3696 173.928 50.4096 175.08 50.4096 172.524C50.4096 171.312 51.5016 170.52 53.2296 170.52C54.0816 170.52 55.0536 170.724 55.6296 171.072L55.0536 172.212C54.4416 171.852 53.8296 171.732 53.2176 171.732C52.3056 171.732 51.8736 172.032 51.8736 172.452C51.8736 173.748 55.8336 172.596 55.8336 175.104C55.8336 176.304 54.7296 177.084 52.9296 177.084ZM60.7074 175.584L61.1274 176.652C60.7674 176.94 60.2274 177.084 59.6874 177.084C58.2834 177.084 57.4794 176.34 57.4794 174.924V171.84H56.4234V170.64H57.4794V169.176H58.9794V170.64H60.6954V171.84H58.9794V174.888C58.9794 175.512 59.2914 175.848 59.8674 175.848C60.1794 175.848 60.4794 175.764 60.7074 175.584ZM64.9593 170.52C66.8073 170.52 67.8753 171.396 67.8753 173.244V177H66.4593V176.22C66.0993 176.772 65.4033 177.084 64.4433 177.084C62.9793 177.084 62.0553 176.28 62.0553 175.164C62.0553 174.096 62.7753 173.256 64.7193 173.256H66.3753V173.16C66.3753 172.284 65.8473 171.768 64.7793 171.768C64.0593 171.768 63.3153 172.008 62.8353 172.404L62.2473 171.312C62.9313 170.784 63.9273 170.52 64.9593 170.52ZM64.7553 175.992C65.4873 175.992 66.1233 175.656 66.3753 174.996V174.252H64.8273C63.8073 174.252 63.5313 174.636 63.5313 175.104C63.5313 175.644 63.9873 175.992 64.7553 175.992ZM73.5864 170.52C75.1224 170.52 76.2624 171.396 76.2624 173.328V177H74.7624V173.52C74.7624 172.38 74.1984 171.828 73.2384 171.828C72.1704 171.828 71.4504 172.476 71.4504 173.76V177H69.9504V170.592H71.3784V171.42C71.8704 170.832 72.6504 170.52 73.5864 170.52ZM87.8777 172.632C88.7777 172.92 89.3897 173.628 89.3897 174.72C89.3897 176.16 88.2617 177 86.1017 177H81.9257V168.6H85.8617C87.8777 168.6 88.9577 169.452 88.9577 170.784C88.9577 171.648 88.5257 172.284 87.8777 172.632ZM85.6937 169.824H83.4857V172.14H85.6937C86.7737 172.14 87.3857 171.756 87.3857 170.988C87.3857 170.208 86.7737 169.824 85.6937 169.824ZM86.0057 175.776C87.1817 175.776 87.8177 175.404 87.8177 174.564C87.8177 173.724 87.1817 173.352 86.0057 173.352H83.4857V175.776H86.0057ZM97.0846 173.832C97.0846 173.952 97.0726 174.132 97.0606 174.276H92.0326C92.2126 175.212 92.9926 175.812 94.1086 175.812C94.8286 175.812 95.3926 175.584 95.8486 175.116L96.6526 176.04C96.0766 176.724 95.1766 177.084 94.0726 177.084C91.9246 177.084 90.5326 175.704 90.5326 173.796C90.5326 171.888 91.9366 170.52 93.8446 170.52C95.7166 170.52 97.0846 171.828 97.0846 173.832ZM93.8446 171.72C92.8726 171.72 92.1646 172.344 92.0206 173.28H95.6566C95.5366 172.356 94.8286 171.72 93.8446 171.72ZM100.948 170.52C102.796 170.52 103.864 171.396 103.864 173.244V177H102.448V176.22C102.088 176.772 101.392 177.084 100.432 177.084C98.9676 177.084 98.0436 176.28 98.0436 175.164C98.0436 174.096 98.7636 173.256 100.708 173.256H102.364V173.16C102.364 172.284 101.836 171.768 100.768 171.768C100.048 171.768 99.3036 172.008 98.8236 172.404L98.2356 171.312C98.9196 170.784 99.9156 170.52 100.948 170.52ZM100.744 175.992C101.476 175.992 102.112 175.656 102.364 174.996V174.252H100.816C99.7956 174.252 99.5196 174.636 99.5196 175.104C99.5196 175.644 99.9756 175.992 100.744 175.992ZM110.643 170.592H112.143V177H110.715V176.184C110.235 176.772 109.479 177.084 108.651 177.084C107.007 177.084 105.891 176.184 105.891 174.252V170.592H107.391V174.048C107.391 175.212 107.943 175.764 108.891 175.764C109.935 175.764 110.643 175.116 110.643 173.832V170.592ZM117.197 177.084C115.169 177.084 113.729 175.716 113.729 173.796C113.729 171.876 115.169 170.52 117.197 170.52C118.445 170.52 119.441 171.036 119.933 172.008L118.781 172.68C118.397 172.068 117.821 171.792 117.185 171.792C116.081 171.792 115.241 172.56 115.241 173.796C115.241 175.044 116.081 175.8 117.185 175.8C117.821 175.8 118.397 175.524 118.781 174.912L119.933 175.584C119.441 176.544 118.445 177.084 117.197 177.084ZM124.957 170.52C126.493 170.52 127.633 171.396 127.633 173.328V177H126.133V173.52C126.133 172.38 125.569 171.828 124.609 171.828C123.541 171.828 122.821 172.476 122.821 173.76V177H121.321V168.096H122.821V171.336C123.313 170.808 124.069 170.52 124.957 170.52ZM132.134 170.52C133.982 170.52 135.05 171.396 135.05 173.244V177H133.634V176.22C133.274 176.772 132.578 177.084 131.618 177.084C130.154 177.084 129.23 176.28 129.23 175.164C129.23 174.096 129.95 173.256 131.894 173.256H133.55V173.16C133.55 172.284 133.022 171.768 131.954 171.768C131.234 171.768 130.49 172.008 130.01 172.404L129.422 171.312C130.106 170.784 131.102 170.52 132.134 170.52ZM131.93 175.992C132.662 175.992 133.298 175.656 133.55 174.996V174.252H132.002C130.982 174.252 130.706 174.636 130.706 175.104C130.706 175.644 131.162 175.992 131.93 175.992ZM145.213 170.52C146.761 170.52 147.841 171.396 147.841 173.328V177H146.341V173.52C146.341 172.38 145.813 171.828 144.901 171.828C143.917 171.828 143.233 172.476 143.233 173.748V177H141.733V173.52C141.733 172.38 141.205 171.828 140.293 171.828C139.297 171.828 138.625 172.476 138.625 173.748V177H137.125V170.592H138.553V171.408C139.033 170.832 139.777 170.52 140.653 170.52C141.589 170.52 142.369 170.868 142.813 171.588C143.329 170.928 144.193 170.52 145.213 170.52ZM153.459 170.52C155.331 170.52 156.711 171.816 156.711 173.796C156.711 175.788 155.331 177.084 153.459 177.084C152.643 177.084 151.923 176.808 151.407 176.22V179.328H149.907V170.592H151.335V171.432C151.839 170.82 152.583 170.52 153.459 170.52ZM153.291 175.8C154.371 175.8 155.187 175.02 155.187 173.796C155.187 172.572 154.371 171.792 153.291 171.792C152.211 171.792 151.383 172.572 151.383 173.796C151.383 175.02 152.211 175.8 153.291 175.8Z" fill="black" fill-opacity="0.87"/>
<path d="M35.14 195V188H35.88V194.36H39.8V195H35.14ZM42.9505 195.05C41.4105 195.05 40.2705 193.93 40.2705 192.37C40.2705 190.81 41.4105 189.7 42.9505 189.7C44.4905 189.7 45.6205 190.81 45.6205 192.37C45.6205 193.93 44.4905 195.05 42.9505 195.05ZM42.9505 194.42C44.0705 194.42 44.9005 193.6 44.9005 192.37C44.9005 191.14 44.0705 190.32 42.9505 190.32C41.8305 190.32 40.9905 191.14 40.9905 192.37C40.9905 193.6 41.8305 194.42 42.9505 194.42ZM49.2501 195.05C47.6801 195.05 46.5401 193.94 46.5401 192.37C46.5401 190.8 47.6801 189.7 49.2501 189.7C50.1401 189.7 50.8901 190.05 51.3101 190.74L50.7801 191.1C50.4201 190.57 49.8601 190.32 49.2501 190.32C48.1001 190.32 47.2601 191.14 47.2601 192.37C47.2601 193.61 48.1001 194.42 49.2501 194.42C49.8601 194.42 50.4201 194.18 50.7801 193.65L51.3101 194.01C50.8901 194.69 50.1401 195.05 49.2501 195.05ZM54.5448 189.7C55.9048 189.7 56.6748 190.38 56.6748 191.74V195H55.9948V194.18C55.6748 194.72 55.0548 195.05 54.1848 195.05C52.9948 195.05 52.2648 194.43 52.2648 193.52C52.2648 192.71 52.7848 192.03 54.2948 192.03H55.9648V191.71C55.9648 190.81 55.4548 190.32 54.4748 190.32C53.7948 190.32 53.1548 190.56 52.7248 190.94L52.4048 190.41C52.9348 189.96 53.7148 189.7 54.5448 189.7ZM54.2948 194.49C55.0948 194.49 55.6848 194.11 55.9648 193.42V192.56H54.3148C53.2948 192.56 52.9648 192.96 52.9648 193.5C52.9648 194.11 53.4548 194.49 54.2948 194.49ZM61.1233 194.17L61.3733 194.68C61.0933 194.93 60.6733 195.05 60.2633 195.05C59.2733 195.05 58.7233 194.49 58.7233 193.52V190.34H57.7833V189.74H58.7233V188.59H59.4333V189.74H61.0333V190.34H59.4333V193.48C59.4333 194.1 59.7533 194.44 60.3433 194.44C60.6333 194.44 60.9233 194.35 61.1233 194.17ZM63.0258 188.59C62.7358 188.59 62.5058 188.36 62.5058 188.08C62.5058 187.81 62.7358 187.58 63.0258 187.58C63.3158 187.58 63.5458 187.8 63.5458 188.07C63.5458 188.36 63.3258 188.59 63.0258 188.59ZM62.6658 195V189.74H63.3758V195H62.6658ZM67.5013 195.05C65.9613 195.05 64.8213 193.93 64.8213 192.37C64.8213 190.81 65.9613 189.7 67.5013 189.7C69.0413 189.7 70.1713 190.81 70.1713 192.37C70.1713 193.93 69.0413 195.05 67.5013 195.05ZM67.5013 194.42C68.6213 194.42 69.4513 193.6 69.4513 192.37C69.4513 191.14 68.6213 190.32 67.5013 190.32C66.3813 190.32 65.5413 191.14 65.5413 192.37C65.5413 193.6 66.3813 194.42 67.5013 194.42ZM74.3009 189.7C75.5809 189.7 76.4609 190.44 76.4609 191.95V195H75.7509V192.02C75.7509 190.91 75.1709 190.34 74.1709 190.34C73.0409 190.34 72.3309 191.04 72.3309 192.24V195H71.6209V189.74H72.3009V190.71C72.6809 190.07 73.3909 189.7 74.3009 189.7ZM85.0956 187.58H85.8056V195H85.1256V193.96C84.6956 194.67 83.9656 195.05 83.0956 195.05C81.5956 195.05 80.4756 193.96 80.4756 192.37C80.4756 190.78 81.5956 189.7 83.0956 189.7C83.9356 189.7 84.6556 190.06 85.0956 190.74V187.58ZM83.1556 194.42C84.2656 194.42 85.1056 193.6 85.1056 192.37C85.1056 191.14 84.2656 190.32 83.1556 190.32C82.0356 190.32 81.1956 191.14 81.1956 192.37C81.1956 193.6 82.0356 194.42 83.1556 194.42ZM92.373 192.37C92.373 192.43 92.363 192.51 92.363 192.59H87.963C88.043 193.69 88.883 194.42 90.033 194.42C90.673 194.42 91.243 194.19 91.643 193.73L92.043 194.19C91.573 194.75 90.843 195.05 90.013 195.05C88.373 195.05 87.253 193.93 87.253 192.37C87.253 190.81 88.343 189.7 89.823 189.7C91.303 189.7 92.373 190.79 92.373 192.37ZM89.823 190.31C88.803 190.31 88.053 191.03 87.963 192.06H91.693C91.603 191.03 90.853 190.31 89.823 190.31ZM98.5153 195.06C97.4653 195.06 96.4353 194.69 95.9153 194.15L96.2053 193.58C96.7053 194.07 97.5953 194.43 98.5153 194.43C99.8253 194.43 100.395 193.88 100.395 193.19C100.395 191.27 96.0853 192.45 96.0853 189.86C96.0853 188.83 96.8853 187.94 98.6653 187.94C99.4553 187.94 100.275 188.17 100.835 188.56L100.585 189.15C99.9853 188.76 99.2853 188.57 98.6653 188.57C97.3853 188.57 96.8153 189.14 96.8153 189.84C96.8153 191.76 101.125 190.6 101.125 193.15C101.125 194.18 100.305 195.06 98.5153 195.06ZM105.298 189.7C106.798 189.7 107.918 190.78 107.918 192.37C107.918 193.97 106.798 195.05 105.298 195.05C104.458 195.05 103.738 194.69 103.298 194.01V196.94H102.588V189.74H103.268V190.78C103.698 190.08 104.428 189.7 105.298 189.7ZM105.248 194.42C106.358 194.42 107.208 193.6 107.208 192.37C107.208 191.15 106.358 190.32 105.248 190.32C104.128 190.32 103.288 191.15 103.288 192.37C103.288 193.6 104.128 194.42 105.248 194.42ZM109.725 188.59C109.435 188.59 109.205 188.36 109.205 188.08C109.205 187.81 109.435 187.58 109.725 187.58C110.015 187.58 110.245 187.8 110.245 188.07C110.245 188.36 110.025 188.59 109.725 188.59ZM109.365 195V189.74H110.075V195H109.365ZM116.121 195L114.001 192.36L112.761 193.5V195H112.051V187.58H112.761V192.61L115.901 189.74H116.781L114.531 191.89L116.991 195H116.121ZM122.432 192.37C122.432 192.43 122.422 192.51 122.422 192.59H118.022C118.102 193.69 118.942 194.42 120.092 194.42C120.732 194.42 121.302 194.19 121.702 193.73L122.102 194.19C121.632 194.75 120.902 195.05 120.072 195.05C118.432 195.05 117.312 193.93 117.312 192.37C117.312 190.81 118.402 189.7 119.882 189.7C121.362 189.7 122.432 190.79 122.432 192.37ZM119.882 190.31C118.862 190.31 118.112 191.03 118.022 192.06H121.752C121.662 191.03 120.912 190.31 119.882 190.31ZM126.587 189.7C128.087 189.7 129.207 190.78 129.207 192.37C129.207 193.96 128.087 195.05 126.587 195.05C125.717 195.05 124.987 194.67 124.557 193.96V195H123.877V187.58H124.587V190.74C125.027 190.06 125.747 189.7 126.587 189.7ZM126.537 194.42C127.647 194.42 128.497 193.6 128.497 192.37C128.497 191.14 127.647 190.32 126.537 190.32C125.417 190.32 124.577 191.14 124.577 192.37C124.577 193.6 125.417 194.42 126.537 194.42ZM132.465 189.7C133.825 189.7 134.595 190.38 134.595 191.74V195H133.915V194.18C133.595 194.72 132.975 195.05 132.105 195.05C130.915 195.05 130.185 194.43 130.185 193.52C130.185 192.71 130.705 192.03 132.215 192.03H133.885V191.71C133.885 190.81 133.375 190.32 132.395 190.32C131.715 190.32 131.075 190.56 130.645 190.94L130.325 190.41C130.855 189.96 131.635 189.7 132.465 189.7ZM132.215 194.49C133.015 194.49 133.605 194.11 133.885 193.42V192.56H132.235C131.215 192.56 130.885 192.96 130.885 193.5C130.885 194.11 131.375 194.49 132.215 194.49ZM136.523 195V187.58H137.233V195H136.523ZM139.209 195V187.58H139.919V195H139.209Z" fill="#858585"/>
<path d="M244.55 180.2C245.83 180.2 246.67 180.94 246.67 182.45V185.5H245.96V182.52C245.96 181.41 245.4 180.84 244.45 180.84C243.37 180.84 242.69 181.54 242.69 182.74V185.5H241.98V182.52C241.98 181.41 241.42 180.84 240.46 180.84C239.39 180.84 238.7 181.54 238.7 182.74V185.5H237.99V180.24H238.67V181.2C239.04 180.57 239.72 180.2 240.6 180.2C241.47 180.2 242.15 180.57 242.47 181.31C242.85 180.63 243.6 180.2 244.55 180.2ZM253.205 182.87C253.205 182.93 253.195 183.01 253.195 183.09H248.795C248.875 184.19 249.715 184.92 250.865 184.92C251.505 184.92 252.075 184.69 252.475 184.23L252.875 184.69C252.405 185.25 251.675 185.55 250.845 185.55C249.205 185.55 248.085 184.43 248.085 182.87C248.085 181.31 249.175 180.2 250.655 180.2C252.135 180.2 253.205 181.29 253.205 182.87ZM250.655 180.81C249.635 180.81 248.885 181.53 248.795 182.56H252.525C252.435 181.53 251.685 180.81 250.655 180.81ZM255.33 181.27C255.66 180.57 256.33 180.2 257.3 180.2V180.89C257.24 180.89 257.18 180.88 257.13 180.88C256.03 180.88 255.36 181.58 255.36 182.82V185.5H254.65V180.24H255.33V181.27ZM258.636 185.55C258.346 185.55 258.106 185.31 258.106 185C258.106 184.69 258.346 184.46 258.636 184.46C258.926 184.46 259.176 184.69 259.176 185C259.176 185.31 258.926 185.55 258.636 185.55ZM265.623 185.56C264.003 185.56 262.833 184.23 262.833 182C262.833 179.77 264.003 178.44 265.623 178.44C267.243 178.44 268.423 179.77 268.423 182C268.423 184.23 267.243 185.56 265.623 185.56ZM265.623 184.9C266.843 184.9 267.683 183.87 267.683 182C267.683 180.13 266.843 179.1 265.623 179.1C264.403 179.1 263.562 180.13 263.562 182C263.562 183.87 264.403 184.9 265.623 184.9ZM269.004 178.5H271.374V185.5H270.654V179.14H269.004V178.5ZM272.277 186.5L275.577 177.08H276.227L272.927 186.5H272.277ZM278.992 185.56C277.372 185.56 276.202 184.23 276.202 182C276.202 179.77 277.372 178.44 278.992 178.44C280.612 178.44 281.792 179.77 281.792 182C281.792 184.23 280.612 185.56 278.992 185.56ZM278.992 184.9C280.212 184.9 281.052 183.87 281.052 182C281.052 180.13 280.212 179.1 278.992 179.1C277.772 179.1 276.932 180.13 276.932 182C276.932 183.87 277.772 184.9 278.992 184.9ZM285.003 178.44C286.863 178.44 287.873 179.73 287.873 181.94C287.873 184.32 286.573 185.56 284.673 185.56C284.043 185.56 283.453 185.45 283.013 185.18L283.303 184.6C283.663 184.84 284.143 184.93 284.663 184.93C286.173 184.93 287.143 183.96 287.143 182.06C287.143 181.9 287.133 181.7 287.113 181.49C286.763 182.26 285.943 182.69 284.973 182.69C283.583 182.69 282.613 181.87 282.613 180.59C282.613 179.28 283.643 178.44 285.003 178.44ZM285.083 182.08C286.153 182.08 286.883 181.42 286.883 180.55C286.883 179.78 286.243 179.05 285.033 179.05C284.023 179.05 283.323 179.64 283.323 180.57C283.323 181.49 284.003 182.08 285.083 182.08ZM287.951 186.5L291.251 177.08H291.901L288.601 186.5H287.951ZM293.001 184.86H296.851V185.5H291.941V184.99L294.851 182.14C295.641 181.36 295.791 180.89 295.791 180.41C295.791 179.6 295.221 179.1 294.151 179.1C293.331 179.1 292.701 179.35 292.241 179.88L291.731 179.44C292.271 178.8 293.141 178.44 294.211 178.44C295.631 178.44 296.531 179.16 296.531 180.33C296.531 181 296.321 181.6 295.381 182.52L293.001 184.86ZM300.505 185.56C298.885 185.56 297.715 184.23 297.715 182C297.715 179.77 298.885 178.44 300.505 178.44C302.125 178.44 303.305 179.77 303.305 182C303.305 184.23 302.125 185.56 300.505 185.56ZM300.505 184.9C301.725 184.9 302.565 183.87 302.565 182C302.565 180.13 301.725 179.1 300.505 179.1C299.285 179.1 298.445 180.13 298.445 182C298.445 183.87 299.285 184.9 300.505 184.9ZM305.247 184.86H309.097V185.5H304.187V184.99L307.097 182.14C307.887 181.36 308.037 180.89 308.037 180.41C308.037 179.6 307.467 179.1 306.397 179.1C305.577 179.1 304.947 179.35 304.487 179.88L303.977 179.44C304.517 178.8 305.387 178.44 306.457 178.44C307.877 178.44 308.777 179.16 308.777 180.33C308.777 181 308.567 181.6 307.627 182.52L305.247 184.86ZM312.38 181.5C313.88 181.58 314.63 182.37 314.63 183.49C314.63 184.66 313.78 185.56 312.09 185.56C311.08 185.56 310.11 185.21 309.57 184.66L309.92 184.09C310.37 184.56 311.18 184.9 312.09 184.9C313.25 184.9 313.89 184.36 313.89 183.49C313.89 182.65 313.3 182.1 312 182.1H311.5V181.57L313.44 179.14H309.86V178.5H314.36V179.01L312.38 181.5ZM317.832 178.5H320.202V185.5H319.482V179.14H317.832V178.5ZM321.445 178.5H323.815V185.5H323.095V179.14H321.445V178.5ZM326.029 181.29C325.739 181.29 325.499 181.05 325.499 180.74C325.499 180.43 325.739 180.2 326.029 180.2C326.319 180.2 326.569 180.43 326.569 180.74C326.569 181.05 326.319 181.29 326.029 181.29ZM326.029 185.55C325.739 185.55 325.499 185.31 325.499 185C325.499 184.69 325.739 184.46 326.029 184.46C326.319 184.46 326.569 184.69 326.569 185C326.569 185.31 326.319 185.55 326.029 185.55ZM330.398 185.56C328.778 185.56 327.608 184.23 327.608 182C327.608 179.77 328.778 178.44 330.398 178.44C332.018 178.44 333.198 179.77 333.198 182C333.198 184.23 332.018 185.56 330.398 185.56ZM330.398 184.9C331.618 184.9 332.458 183.87 332.458 182C332.458 180.13 331.618 179.1 330.398 179.1C329.178 179.1 328.338 180.13 328.338 182C328.338 183.87 329.178 184.9 330.398 184.9ZM335.139 184.86H338.989V185.5H334.079V184.99L336.989 182.14C337.779 181.36 337.929 180.89 337.929 180.41C337.929 179.6 337.359 179.1 336.289 179.1C335.469 179.1 334.839 179.35 334.379 179.88L333.869 179.44C334.409 178.8 335.279 178.44 336.349 178.44C337.769 178.44 338.669 179.16 338.669 180.33C338.669 181 338.459 181.6 337.519 182.52L335.139 184.86Z" fill="black"/>
<path d="M416.05 185.5V178.5H419C419.747 178.5 420.403 178.647 420.97 178.94C421.543 179.233 421.987 179.643 422.3 180.17C422.62 180.697 422.78 181.307 422.78 182C422.78 182.693 422.62 183.303 422.3 183.83C421.987 184.357 421.543 184.767 420.97 185.06C420.403 185.353 419.747 185.5 419 185.5H416.05ZM417.05 184.63H418.94C419.52 184.63 420.02 184.52 420.44 184.3C420.867 184.08 421.197 183.773 421.43 183.38C421.663 182.98 421.78 182.52 421.78 182C421.78 181.473 421.663 181.013 421.43 180.62C421.197 180.227 420.867 179.92 420.44 179.7C420.02 179.48 419.52 179.37 418.94 179.37H417.05V184.63ZM426.532 185.56C425.965 185.56 425.465 185.443 425.032 185.21C424.605 184.977 424.272 184.657 424.032 184.25C423.798 183.843 423.682 183.377 423.682 182.85C423.682 182.323 423.795 181.857 424.022 181.45C424.255 181.043 424.572 180.727 424.972 180.5C425.378 180.267 425.835 180.15 426.342 180.15C426.855 180.15 427.308 180.263 427.702 180.49C428.095 180.717 428.402 181.037 428.622 181.45C428.848 181.857 428.962 182.333 428.962 182.88C428.962 182.92 428.958 182.967 428.952 183.02C428.952 183.073 428.948 183.123 428.942 183.17H424.432V182.48H428.442L428.052 182.72C428.058 182.38 427.988 182.077 427.842 181.81C427.695 181.543 427.492 181.337 427.232 181.19C426.978 181.037 426.682 180.96 426.342 180.96C426.008 180.96 425.712 181.037 425.452 181.19C425.192 181.337 424.988 181.547 424.842 181.82C424.695 182.087 424.622 182.393 424.622 182.74V182.9C424.622 183.253 424.702 183.57 424.862 183.85C425.028 184.123 425.258 184.337 425.552 184.49C425.845 184.643 426.182 184.72 426.562 184.72C426.875 184.72 427.158 184.667 427.412 184.56C427.672 184.453 427.898 184.293 428.092 184.08L428.622 184.7C428.382 184.98 428.082 185.193 427.722 185.34C427.368 185.487 426.972 185.56 426.532 185.56ZM431.587 185.5L429.267 180.2H430.267L432.327 185H431.847L433.947 180.2H434.887L432.567 185.5H431.587ZM435.783 185.5V180.2H436.743V185.5H435.783ZM436.263 179.18C436.076 179.18 435.92 179.12 435.793 179C435.673 178.88 435.613 178.733 435.613 178.56C435.613 178.38 435.673 178.23 435.793 178.11C435.92 177.99 436.076 177.93 436.263 177.93C436.45 177.93 436.603 177.99 436.723 178.11C436.85 178.223 436.913 178.367 436.913 178.54C436.913 178.72 436.853 178.873 436.733 179C436.613 179.12 436.456 179.18 436.263 179.18ZM440.096 185.56C439.656 185.56 439.236 185.5 438.836 185.38C438.443 185.26 438.133 185.113 437.906 184.94L438.306 184.18C438.533 184.333 438.813 184.463 439.146 184.57C439.479 184.677 439.819 184.73 440.166 184.73C440.613 184.73 440.933 184.667 441.126 184.54C441.326 184.413 441.426 184.237 441.426 184.01C441.426 183.843 441.366 183.713 441.246 183.62C441.126 183.527 440.966 183.457 440.766 183.41C440.573 183.363 440.356 183.323 440.116 183.29C439.876 183.25 439.636 183.203 439.396 183.15C439.156 183.09 438.936 183.01 438.736 182.91C438.536 182.803 438.376 182.66 438.256 182.48C438.136 182.293 438.076 182.047 438.076 181.74C438.076 181.42 438.166 181.14 438.346 180.9C438.526 180.66 438.779 180.477 439.106 180.35C439.439 180.217 439.833 180.15 440.286 180.15C440.633 180.15 440.983 180.193 441.336 180.28C441.696 180.36 441.989 180.477 442.216 180.63L441.806 181.39C441.566 181.23 441.316 181.12 441.056 181.06C440.796 181 440.536 180.97 440.276 180.97C439.856 180.97 439.543 181.04 439.336 181.18C439.129 181.313 439.026 181.487 439.026 181.7C439.026 181.88 439.086 182.02 439.206 182.12C439.333 182.213 439.493 182.287 439.686 182.34C439.886 182.393 440.106 182.44 440.346 182.48C440.586 182.513 440.826 182.56 441.066 182.62C441.306 182.673 441.523 182.75 441.716 182.85C441.916 182.95 442.076 183.09 442.196 183.27C442.323 183.45 442.386 183.69 442.386 183.99C442.386 184.31 442.293 184.587 442.106 184.82C441.919 185.053 441.656 185.237 441.316 185.37C440.976 185.497 440.569 185.56 440.096 185.56Z" fill="#1501F3"/>
<rect x="593" y="170.5" width="124" height="22" rx="11" fill="#E6F0FF"/>
<path d="M602.773 181.418H606.013V182.183H602.773V181.418ZM602.854 184.217H606.526V185H601.954V178.7H606.4V179.483H602.854V184.217ZM610.404 180.185C610.794 180.185 611.136 180.26 611.43 180.41C611.73 180.56 611.964 180.788 612.132 181.094C612.3 181.4 612.384 181.787 612.384 182.255V185H611.52V182.354C611.52 181.892 611.406 181.544 611.178 181.31C610.956 181.076 610.641 180.959 610.233 180.959C609.927 180.959 609.66 181.019 609.432 181.139C609.204 181.259 609.027 181.436 608.901 181.67C608.781 181.904 608.721 182.195 608.721 182.543V185H607.857V180.23H608.685V181.517L608.55 181.175C608.706 180.863 608.946 180.62 609.27 180.446C609.594 180.272 609.972 180.185 610.404 180.185ZM619.361 185V183.992L619.316 183.803V182.084C619.316 181.718 619.208 181.436 618.992 181.238C618.782 181.034 618.464 180.932 618.038 180.932C617.756 180.932 617.48 180.98 617.21 181.076C616.94 181.166 616.712 181.289 616.526 181.445L616.166 180.797C616.412 180.599 616.706 180.449 617.048 180.347C617.396 180.239 617.759 180.185 618.137 180.185C618.791 180.185 619.295 180.344 619.649 180.662C620.003 180.98 620.18 181.466 620.18 182.12V185H619.361ZM617.795 185.054C617.441 185.054 617.129 184.994 616.859 184.874C616.595 184.754 616.391 184.589 616.247 184.379C616.103 184.163 616.031 183.92 616.031 183.65C616.031 183.392 616.091 183.158 616.211 182.948C616.337 182.738 616.538 182.57 616.814 182.444C617.096 182.318 617.474 182.255 617.948 182.255H619.46V182.876H617.984C617.552 182.876 617.261 182.948 617.111 183.092C616.961 183.236 616.886 183.41 616.886 183.614C616.886 183.848 616.979 184.037 617.165 184.181C617.351 184.319 617.609 184.388 617.939 184.388C618.263 184.388 618.545 184.316 618.785 184.172C619.031 184.028 619.208 183.818 619.316 183.542L619.487 184.136C619.373 184.418 619.172 184.643 618.884 184.811C618.596 184.973 618.233 185.054 617.795 185.054ZM623.417 185.054C622.937 185.054 622.565 184.925 622.301 184.667C622.037 184.409 621.905 184.04 621.905 183.56V179.186H622.769V183.524C622.769 183.782 622.832 183.98 622.958 184.118C623.09 184.256 623.276 184.325 623.516 184.325C623.786 184.325 624.011 184.25 624.191 184.1L624.461 184.721C624.329 184.835 624.17 184.919 623.984 184.973C623.804 185.027 623.615 185.054 623.417 185.054ZM621.095 180.941V180.23H624.137V180.941H621.095ZM627.029 185.054C626.549 185.054 626.177 184.925 625.913 184.667C625.649 184.409 625.517 184.04 625.517 183.56V179.186H626.381V183.524C626.381 183.782 626.444 183.98 626.57 184.118C626.702 184.256 626.888 184.325 627.128 184.325C627.398 184.325 627.623 184.25 627.803 184.1L628.073 184.721C627.941 184.835 627.782 184.919 627.596 184.973C627.416 185.027 627.227 185.054 627.029 185.054ZM624.707 180.941V180.23H627.749V180.941H624.707ZM631.084 185.054C630.574 185.054 630.124 184.949 629.734 184.739C629.35 184.529 629.05 184.241 628.834 183.875C628.624 183.509 628.519 183.089 628.519 182.615C628.519 182.141 628.621 181.721 628.825 181.355C629.035 180.989 629.32 180.704 629.68 180.5C630.046 180.29 630.457 180.185 630.913 180.185C631.375 180.185 631.783 180.287 632.137 180.491C632.491 180.695 632.767 180.983 632.965 181.355C633.169 181.721 633.271 182.15 633.271 182.642C633.271 182.678 633.268 182.72 633.262 182.768C633.262 182.816 633.259 182.861 633.253 182.903H629.194V182.282H632.803L632.452 182.498C632.458 182.192 632.395 181.919 632.263 181.679C632.131 181.439 631.948 181.253 631.714 181.121C631.486 180.983 631.219 180.914 630.913 180.914C630.613 180.914 630.346 180.983 630.112 181.121C629.878 181.253 629.695 181.442 629.563 181.688C629.431 181.928 629.365 182.204 629.365 182.516V182.66C629.365 182.978 629.437 183.263 629.581 183.515C629.731 183.761 629.938 183.953 630.202 184.091C630.466 184.229 630.769 184.298 631.111 184.298C631.393 184.298 631.648 184.25 631.876 184.154C632.11 184.058 632.314 183.914 632.488 183.722L632.965 184.28C632.749 184.532 632.479 184.724 632.155 184.856C631.837 184.988 631.48 185.054 631.084 185.054ZM637.017 180.185C637.407 180.185 637.749 180.26 638.043 180.41C638.343 180.56 638.577 180.788 638.745 181.094C638.913 181.4 638.997 181.787 638.997 182.255V185H638.133V182.354C638.133 181.892 638.019 181.544 637.791 181.31C637.569 181.076 637.254 180.959 636.846 180.959C636.54 180.959 636.273 181.019 636.045 181.139C635.817 181.259 635.64 181.436 635.514 181.67C635.394 181.904 635.334 182.195 635.334 182.543V185H634.47V180.23H635.298V181.517L635.163 181.175C635.319 180.863 635.559 180.62 635.883 180.446C636.207 180.272 636.585 180.185 637.017 180.185ZM642.234 185.054C641.754 185.054 641.382 184.925 641.118 184.667C640.854 184.409 640.722 184.04 640.722 183.56V179.186H641.586V183.524C641.586 183.782 641.649 183.98 641.775 184.118C641.907 184.256 642.093 184.325 642.333 184.325C642.603 184.325 642.828 184.25 643.008 184.1L643.278 184.721C643.146 184.835 642.987 184.919 642.801 184.973C642.621 185.027 642.432 185.054 642.234 185.054ZM639.912 180.941V180.23H642.954V180.941H639.912ZM646.289 185.054C645.779 185.054 645.329 184.949 644.939 184.739C644.555 184.529 644.255 184.241 644.039 183.875C643.829 183.509 643.724 183.089 643.724 182.615C643.724 182.141 643.826 181.721 644.03 181.355C644.24 180.989 644.525 180.704 644.885 180.5C645.251 180.29 645.662 180.185 646.118 180.185C646.58 180.185 646.988 180.287 647.342 180.491C647.696 180.695 647.972 180.983 648.17 181.355C648.374 181.721 648.476 182.15 648.476 182.642C648.476 182.678 648.473 182.72 648.467 182.768C648.467 182.816 648.464 182.861 648.458 182.903H644.399V182.282H648.008L647.657 182.498C647.663 182.192 647.6 181.919 647.468 181.679C647.336 181.439 647.153 181.253 646.919 181.121C646.691 180.983 646.424 180.914 646.118 180.914C645.818 180.914 645.551 180.983 645.317 181.121C645.083 181.253 644.9 181.442 644.768 181.688C644.636 181.928 644.57 182.204 644.57 182.516V182.66C644.57 182.978 644.642 183.263 644.786 183.515C644.936 183.761 645.143 183.953 645.407 184.091C645.671 184.229 645.974 184.298 646.316 184.298C646.598 184.298 646.853 184.25 647.081 184.154C647.315 184.058 647.519 183.914 647.693 183.722L648.17 184.28C647.954 184.532 647.684 184.724 647.36 184.856C647.042 184.988 646.685 185.054 646.289 185.054ZM654.063 185.054C653.601 185.054 653.187 184.952 652.821 184.748C652.461 184.544 652.176 184.259 651.966 183.893C651.756 183.527 651.651 183.101 651.651 182.615C651.651 182.129 651.756 181.706 651.966 181.346C652.176 180.98 652.461 180.695 652.821 180.491C653.187 180.287 653.601 180.185 654.063 180.185C654.465 180.185 654.828 180.275 655.152 180.455C655.476 180.635 655.734 180.905 655.926 181.265C656.124 181.625 656.223 182.075 656.223 182.615C656.223 183.155 656.127 183.605 655.935 183.965C655.749 184.325 655.494 184.598 655.17 184.784C654.846 184.964 654.477 185.054 654.063 185.054ZM654.135 184.298C654.435 184.298 654.705 184.229 654.945 184.091C655.191 183.953 655.383 183.758 655.521 183.506C655.665 183.248 655.737 182.951 655.737 182.615C655.737 182.273 655.665 181.979 655.521 181.733C655.383 181.481 655.191 181.286 654.945 181.148C654.705 181.01 654.435 180.941 654.135 180.941C653.829 180.941 653.556 181.01 653.316 181.148C653.076 181.286 652.884 181.481 652.74 181.733C652.596 181.979 652.524 182.273 652.524 182.615C652.524 182.951 652.596 183.248 652.74 183.506C652.884 183.758 653.076 183.953 653.316 184.091C653.556 184.229 653.829 184.298 654.135 184.298ZM655.764 185V183.713L655.818 182.606L655.728 181.499V178.322H656.592V185H655.764ZM660.351 185.054C659.841 185.054 659.391 184.949 659.001 184.739C658.617 184.529 658.317 184.241 658.101 183.875C657.891 183.509 657.786 183.089 657.786 182.615C657.786 182.141 657.888 181.721 658.092 181.355C658.302 180.989 658.587 180.704 658.947 180.5C659.313 180.29 659.724 180.185 660.18 180.185C660.642 180.185 661.05 180.287 661.404 180.491C661.758 180.695 662.034 180.983 662.232 181.355C662.436 181.721 662.538 182.15 662.538 182.642C662.538 182.678 662.535 182.72 662.529 182.768C662.529 182.816 662.526 182.861 662.52 182.903H658.461V182.282H662.07L661.719 182.498C661.725 182.192 661.662 181.919 661.53 181.679C661.398 181.439 661.215 181.253 660.981 181.121C660.753 180.983 660.486 180.914 660.18 180.914C659.88 180.914 659.613 180.983 659.379 181.121C659.145 181.253 658.962 181.442 658.83 181.688C658.698 181.928 658.632 182.204 658.632 182.516V182.66C658.632 182.978 658.704 183.263 658.848 183.515C658.998 183.761 659.205 183.953 659.469 184.091C659.733 184.229 660.036 184.298 660.378 184.298C660.66 184.298 660.915 184.25 661.143 184.154C661.377 184.058 661.581 183.914 661.755 183.722L662.232 184.28C662.016 184.532 661.746 184.724 661.422 184.856C661.104 184.988 660.747 185.054 660.351 185.054ZM667.523 185.054C667.127 185.054 666.749 185 666.389 184.892C666.035 184.784 665.756 184.652 665.552 184.496L665.912 183.812C666.116 183.95 666.368 184.067 666.668 184.163C666.968 184.259 667.274 184.307 667.586 184.307C667.988 184.307 668.276 184.25 668.45 184.136C668.63 184.022 668.72 183.863 668.72 183.659C668.72 183.509 668.666 183.392 668.558 183.308C668.45 183.224 668.306 183.161 668.126 183.119C667.952 183.077 667.757 183.041 667.541 183.011C667.325 182.975 667.109 182.933 666.893 182.885C666.677 182.831 666.479 182.759 666.299 182.669C666.119 182.573 665.975 182.444 665.867 182.282C665.759 182.114 665.705 181.892 665.705 181.616C665.705 181.328 665.786 181.076 665.948 180.86C666.11 180.644 666.338 180.479 666.632 180.365C666.932 180.245 667.286 180.185 667.694 180.185C668.006 180.185 668.321 180.224 668.639 180.302C668.963 180.374 669.227 180.479 669.431 180.617L669.062 181.301C668.846 181.157 668.621 181.058 668.387 181.004C668.153 180.95 667.919 180.923 667.685 180.923C667.307 180.923 667.025 180.986 666.839 181.112C666.653 181.232 666.56 181.388 666.56 181.58C666.56 181.742 666.614 181.868 666.722 181.958C666.836 182.042 666.98 182.108 667.154 182.156C667.334 182.204 667.532 182.246 667.748 182.282C667.964 182.312 668.18 182.354 668.396 182.408C668.612 182.456 668.807 182.525 668.981 182.615C669.161 182.705 669.305 182.831 669.413 182.993C669.527 183.155 669.584 183.371 669.584 183.641C669.584 183.929 669.5 184.178 669.332 184.388C669.164 184.598 668.927 184.763 668.621 184.883C668.315 184.997 667.949 185.054 667.523 185.054ZM670.664 185V180.23H671.528V185H670.664ZM671.096 179.312C670.928 179.312 670.787 179.258 670.673 179.15C670.565 179.042 670.511 178.91 670.511 178.754C670.511 178.592 670.565 178.457 670.673 178.349C670.787 178.241 670.928 178.187 671.096 178.187C671.264 178.187 671.402 178.241 671.51 178.349C671.624 178.451 671.681 178.58 671.681 178.736C671.681 178.898 671.627 179.036 671.519 179.15C671.411 179.258 671.27 179.312 671.096 179.312ZM675.265 186.8C674.827 186.8 674.401 186.737 673.987 186.611C673.579 186.491 673.246 186.317 672.988 186.089L673.402 185.423C673.624 185.615 673.897 185.765 674.221 185.873C674.545 185.987 674.884 186.044 675.238 186.044C675.802 186.044 676.216 185.912 676.48 185.648C676.744 185.384 676.876 184.982 676.876 184.442V183.434L676.966 182.489L676.921 181.535V180.23H677.74V184.352C677.74 185.192 677.53 185.81 677.11 186.206C676.69 186.602 676.075 186.8 675.265 186.8ZM675.157 184.802C674.695 184.802 674.281 184.706 673.915 184.514C673.555 184.316 673.267 184.043 673.051 183.695C672.841 183.347 672.736 182.945 672.736 182.489C672.736 182.027 672.841 181.625 673.051 181.283C673.267 180.935 673.555 180.665 673.915 180.473C674.281 180.281 674.695 180.185 675.157 180.185C675.565 180.185 675.937 180.269 676.273 180.437C676.609 180.599 676.876 180.851 677.074 181.193C677.278 181.535 677.38 181.967 677.38 182.489C677.38 183.005 677.278 183.434 677.074 183.776C676.876 184.118 676.609 184.376 676.273 184.55C675.937 184.718 675.565 184.802 675.157 184.802ZM675.256 184.046C675.574 184.046 675.856 183.98 676.102 183.848C676.348 183.716 676.54 183.533 676.678 183.299C676.822 183.065 676.894 182.795 676.894 182.489C676.894 182.183 676.822 181.913 676.678 181.679C676.54 181.445 676.348 181.265 676.102 181.139C675.856 181.007 675.574 180.941 675.256 180.941C674.938 180.941 674.653 181.007 674.401 181.139C674.155 181.265 673.96 181.445 673.816 181.679C673.678 181.913 673.609 182.183 673.609 182.489C673.609 182.795 673.678 183.065 673.816 183.299C673.96 183.533 674.155 183.716 674.401 183.848C674.653 183.98 674.938 184.046 675.256 184.046ZM681.938 180.185C682.328 180.185 682.67 180.26 682.964 180.41C683.264 180.56 683.498 180.788 683.666 181.094C683.834 181.4 683.918 181.787 683.918 182.255V185H683.054V182.354C683.054 181.892 682.94 181.544 682.712 181.31C682.49 181.076 682.175 180.959 681.767 180.959C681.461 180.959 681.194 181.019 680.966 181.139C680.738 181.259 680.561 181.436 680.435 181.67C680.315 181.904 680.255 182.195 680.255 182.543V185H679.391V180.23H680.219V181.517L680.084 181.175C680.24 180.863 680.48 180.62 680.804 180.446C681.128 180.272 681.506 180.185 681.938 180.185ZM688.478 185V183.992L688.433 183.803V182.084C688.433 181.718 688.325 181.436 688.109 181.238C687.899 181.034 687.581 180.932 687.155 180.932C686.873 180.932 686.597 180.98 686.327 181.076C686.057 181.166 685.829 181.289 685.643 181.445L685.283 180.797C685.529 180.599 685.823 180.449 686.165 180.347C686.513 180.239 686.876 180.185 687.254 180.185C687.908 180.185 688.412 180.344 688.766 180.662C689.12 180.98 689.297 181.466 689.297 182.12V185H688.478ZM686.912 185.054C686.558 185.054 686.246 184.994 685.976 184.874C685.712 184.754 685.508 184.589 685.364 184.379C685.22 184.163 685.148 183.92 685.148 183.65C685.148 183.392 685.208 183.158 685.328 182.948C685.454 182.738 685.655 182.57 685.931 182.444C686.213 182.318 686.591 182.255 687.065 182.255H688.577V182.876H687.101C686.669 182.876 686.378 182.948 686.228 183.092C686.078 183.236 686.003 183.41 686.003 183.614C686.003 183.848 686.096 184.037 686.282 184.181C686.468 184.319 686.726 184.388 687.056 184.388C687.38 184.388 687.662 184.316 687.902 184.172C688.148 184.028 688.325 183.818 688.433 183.542L688.604 184.136C688.49 184.418 688.289 184.643 688.001 184.811C687.713 184.973 687.35 185.054 686.912 185.054ZM692.534 185.054C692.054 185.054 691.682 184.925 691.418 184.667C691.154 184.409 691.022 184.04 691.022 183.56V179.186H691.886V183.524C691.886 183.782 691.949 183.98 692.075 184.118C692.207 184.256 692.393 184.325 692.633 184.325C692.903 184.325 693.128 184.25 693.308 184.1L693.578 184.721C693.446 184.835 693.287 184.919 693.101 184.973C692.921 185.027 692.732 185.054 692.534 185.054ZM690.212 180.941V180.23H693.254V180.941H690.212ZM696.63 185.054C696.222 185.054 695.862 184.979 695.55 184.829C695.244 184.679 695.004 184.451 694.83 184.145C694.662 183.833 694.578 183.443 694.578 182.975V180.23H695.442V182.876C695.442 183.344 695.553 183.695 695.775 183.929C696.003 184.163 696.321 184.28 696.729 184.28C697.029 184.28 697.29 184.22 697.512 184.1C697.734 183.974 697.905 183.794 698.025 183.56C698.145 183.32 698.205 183.032 698.205 182.696V180.23H699.069V185H698.25V183.713L698.385 184.055C698.229 184.373 697.995 184.619 697.683 184.793C697.371 184.967 697.02 185.054 696.63 185.054ZM700.714 185V180.23H701.542V181.526L701.461 181.202C701.593 180.872 701.815 180.62 702.127 180.446C702.439 180.272 702.823 180.185 703.279 180.185V181.022C703.243 181.016 703.207 181.013 703.171 181.013C703.141 181.013 703.111 181.013 703.081 181.013C702.619 181.013 702.253 181.151 701.983 181.427C701.713 181.703 701.578 182.102 701.578 182.624V185H700.714ZM706.423 185.054C705.913 185.054 705.463 184.949 705.073 184.739C704.689 184.529 704.389 184.241 704.173 183.875C703.963 183.509 703.858 183.089 703.858 182.615C703.858 182.141 703.96 181.721 704.164 181.355C704.374 180.989 704.659 180.704 705.019 180.5C705.385 180.29 705.796 180.185 706.252 180.185C706.714 180.185 707.122 180.287 707.476 180.491C707.83 180.695 708.106 180.983 708.304 181.355C708.508 181.721 708.61 182.15 708.61 182.642C708.61 182.678 708.607 182.72 708.601 182.768C708.601 182.816 708.598 182.861 708.592 182.903H704.533V182.282H708.142L707.791 182.498C707.797 182.192 707.734 181.919 707.602 181.679C707.47 181.439 707.287 181.253 707.053 181.121C706.825 180.983 706.558 180.914 706.252 180.914C705.952 180.914 705.685 180.983 705.451 181.121C705.217 181.253 705.034 181.442 704.902 181.688C704.77 181.928 704.704 182.204 704.704 182.516V182.66C704.704 182.978 704.776 183.263 704.92 183.515C705.07 183.761 705.277 183.953 705.541 184.091C705.805 184.229 706.108 184.298 706.45 184.298C706.732 184.298 706.987 184.25 707.215 184.154C707.449 184.058 707.653 183.914 707.827 183.722L708.304 184.28C708.088 184.532 707.818 184.724 707.494 184.856C707.176 184.988 706.819 185.054 706.423 185.054Z" fill="#2411F4"/>
</g>
<defs>
<filter id="filter0_d_2520_15030" x="0" y="0" width="793" height="83" filterUnits="userSpaceOnUse" color-interpolation-filters="sRGB">
<feFlood flood-opacity="0" result="BackgroundImageFix"/>
<feColorMatrix in="SourceAlpha" type="matrix" values="0 0 0 0 0 0 0 0 0 0 0 0 0 0 0 0 0 0 127 0" result="hardAlpha"/>
<feOffset dy="4"/>
<feGaussianBlur stdDeviation="5"/>
<feComposite in2="hardAlpha" operator="out"/>
<feColorMatrix type="matrix" values="0 0 0 0 0 0 0 0 0 0 0 0 0 0 0 0 0 0 0.1 0"/>
<feBlend mode="normal" in2="BackgroundImageFix" result="effect1_dropShadow_2520_15030"/>
<feBlend mode="normal" in="SourceGraphic" in2="effect1_dropShadow_2520_15030" result="shape"/>
</filter>
<filter id="filter1_d_2520_15030" x="50" y="72" width="793" height="83" filterUnits="userSpaceOnUse" color-interpolation-filters="sRGB">
<feFlood flood-opacity="0" result="BackgroundImageFix"/>
<feColorMatrix in="SourceAlpha" type="matrix" values="0 0 0 0 0 0 0 0 0 0 0 0 0 0 0 0 0 0 127 0" result="hardAlpha"/>
<feOffset dy="4"/>
<feGaussianBlur stdDeviation="5"/>
<feComposite in2="hardAlpha" operator="out"/>
<feColorMatrix type="matrix" values="0 0 0 0 0 0 0 0 0 0 0 0 0 0 0 0 0 0 0.1 0"/>
<feBlend mode="normal" in2="BackgroundImageFix" result="effect1_dropShadow_2520_15030"/>
<feBlend mode="normal" in="SourceGraphic" in2="effect1_dropShadow_2520_15030" result="shape"/>
</filter>
<filter id="filter2_d_2520_15030" x="0" y="144" width="793" height="83" filterUnits="userSpaceOnUse" color-interpolation-filters="sRGB">
<feFlood flood-opacity="0" result="BackgroundImageFix"/>
<feColorMatrix in="SourceAlpha" type="matrix" values="0 0 0 0 0 0 0 0 0 0 0 0 0 0 0 0 0 0 127 0" result="hardAlpha"/>
<feOffset dy="4"/>
<feGaussianBlur stdDeviation="5"/>
<feComposite in2="hardAlpha" operator="out"/>
<feColorMatrix type="matrix" values="0 0 0 0 0 0 0 0 0 0 0 0 0 0 0 0 0 0 0.1 0"/>
<feBlend mode="normal" in2="BackgroundImageFix" result="effect1_dropShadow_2520_15030"/>
<feBlend mode="normal" in="SourceGraphic" in2="effect1_dropShadow_2520_15030" result="shape"/>
</filter>
<clipPath id="clip0_2520_15030">
<rect x="10" y="6" width="773" height="63" rx="9" fill="white"/>
</clipPath>
</defs>
</svg>
