<svg width="357" height="365" viewBox="0 0 357 365" fill="none" xmlns="https://www.w3.org/2000/svg">
<g filter="url(#filter0_d_2156_14724)">
<rect x="14" y="8" width="329" height="337" rx="8" fill="white" shape-rendering="crispEdges"/>
<rect x="151.5" y="48" width="54" height="54" rx="27" fill="#BDDC11"/>
<path d="M162.854 78.8285C161.715 77.6545 161.715 75.7512 162.854 74.5772C163.994 73.4033 165.841 73.4033 166.98 74.5772L175.58 83.4397C176.72 84.6137 176.72 86.517 175.58 87.691C174.441 88.8649 172.594 88.8649 171.455 87.691L162.854 78.8285Z" fill="white"/>
<path d="M190.02 64.3091C191.159 63.1351 193.006 63.1351 194.146 64.3091C195.285 65.483 195.285 67.3864 194.146 68.5603L175.58 87.691C174.441 88.8649 172.594 88.8649 171.455 87.691C170.316 86.517 170.316 84.6137 171.455 83.4397L190.02 64.3091Z" fill="white"/>
<path d="M93.463 151C97.203 151 99.543 152.94 99.543 156.08C99.543 159.2 97.203 161.14 93.463 161.14H90.643V165H87.403V151H93.463ZM93.283 158.5C95.263 158.5 96.263 157.6 96.263 156.08C96.263 154.54 95.263 153.64 93.283 153.64H90.643V158.5H93.283ZM105.478 154.08C108.758 154.08 110.658 155.6 110.658 158.86V165H107.738V163.66C107.158 164.64 106.038 165.16 104.458 165.16C101.938 165.16 100.438 163.76 100.438 161.9C100.438 160 101.778 158.68 105.058 158.68H107.538C107.538 157.34 106.738 156.56 105.058 156.56C103.918 156.56 102.738 156.94 101.958 157.56L100.838 155.38C102.018 154.54 103.758 154.08 105.478 154.08ZM105.238 163.06C106.278 163.06 107.178 162.58 107.538 161.6V160.5H105.398C103.938 160.5 103.478 161.04 103.478 161.76C103.478 162.54 104.138 163.06 105.238 163.06ZM114.642 152.74C113.482 152.74 112.702 151.98 112.702 151C112.702 150.02 113.482 149.26 114.642 149.26C115.802 149.26 116.582 149.98 116.582 150.94C116.582 151.98 115.802 152.74 114.642 152.74ZM113.082 165V154.24H116.202V165H113.082ZM129.238 159.66C129.238 159.9 129.198 160.24 129.178 160.5H121.038C121.338 161.84 122.478 162.66 124.118 162.66C125.258 162.66 126.078 162.32 126.818 161.62L128.478 163.42C127.478 164.56 125.978 165.16 124.038 165.16C120.318 165.16 117.898 162.82 117.898 159.62C117.898 156.4 120.358 154.08 123.638 154.08C126.798 154.08 129.238 156.2 129.238 159.66ZM123.658 156.44C122.238 156.44 121.218 157.3 120.998 158.68H126.298C126.078 157.32 125.058 156.44 123.658 156.44ZM144.695 154.08C147.255 154.08 149.095 155.56 149.095 158.84V165H145.975V159.32C145.975 157.58 145.195 156.78 143.935 156.78C142.535 156.78 141.555 157.68 141.555 159.6V165H138.435V159.32C138.435 157.58 137.695 156.78 136.395 156.78C135.015 156.78 134.035 157.68 134.035 159.6V165H130.915V154.24H133.895V155.48C134.695 154.56 135.895 154.08 137.275 154.08C138.775 154.08 140.055 154.66 140.815 155.84C141.675 154.74 143.075 154.08 144.695 154.08ZM162.149 159.66C162.149 159.9 162.109 160.24 162.089 160.5H153.949C154.249 161.84 155.389 162.66 157.029 162.66C158.169 162.66 158.989 162.32 159.729 161.62L161.389 163.42C160.389 164.56 158.889 165.16 156.949 165.16C153.229 165.16 150.809 162.82 150.809 159.62C150.809 156.4 153.269 154.08 156.549 154.08C159.709 154.08 162.149 156.2 162.149 159.66ZM156.569 156.44C155.149 156.44 154.129 157.3 153.909 158.68H159.209C158.989 157.32 157.969 156.44 156.569 156.44ZM170.366 154.08C172.906 154.08 174.826 155.56 174.826 158.84V165H171.706V159.32C171.706 157.58 170.906 156.78 169.526 156.78C168.026 156.78 166.946 157.7 166.946 159.68V165H163.826V154.24H166.806V155.5C167.646 154.58 168.906 154.08 170.366 154.08ZM183.354 162.28L184.194 164.48C183.554 164.94 182.614 165.16 181.654 165.16C179.114 165.16 177.634 163.86 177.634 161.3V156.88H175.974V154.48H177.634V151.86H180.754V154.48H183.434V156.88H180.754V161.26C180.754 162.18 181.254 162.68 182.094 162.68C182.554 162.68 183.014 162.54 183.354 162.28ZM195.15 154.08C198.43 154.08 200.33 155.6 200.33 158.86V165H197.41V163.66C196.83 164.64 195.71 165.16 194.13 165.16C191.61 165.16 190.11 163.76 190.11 161.9C190.11 160 191.45 158.68 194.73 158.68H197.21C197.21 157.34 196.41 156.56 194.73 156.56C193.59 156.56 192.41 156.94 191.63 157.56L190.51 155.38C191.69 154.54 193.43 154.08 195.15 154.08ZM194.91 163.06C195.95 163.06 196.85 162.58 197.21 161.6V160.5H195.07C193.61 160.5 193.15 161.04 193.15 161.76C193.15 162.54 193.81 163.06 194.91 163.06ZM204.453 152.74C203.293 152.74 202.513 151.98 202.513 151C202.513 150.02 203.293 149.26 204.453 149.26C205.613 149.26 206.393 149.98 206.393 150.94C206.393 151.98 205.613 152.74 204.453 152.74ZM201.953 169.04C200.993 169.04 200.053 168.86 199.453 168.44L200.293 166.18C200.633 166.42 201.093 166.56 201.613 166.56C202.393 166.56 202.893 166.06 202.893 165V154.24H206.013V164.98C206.013 167.46 204.553 169.04 201.953 169.04ZM213.606 165.16C210.186 165.16 207.686 162.86 207.686 159.62C207.686 156.38 210.186 154.08 213.606 154.08C217.026 154.08 219.506 156.38 219.506 159.62C219.506 162.86 217.026 165.16 213.606 165.16ZM213.606 162.6C215.166 162.6 216.346 161.48 216.346 159.62C216.346 157.76 215.166 156.64 213.606 156.64C212.046 156.64 210.846 157.76 210.846 159.62C210.846 161.48 212.046 162.6 213.606 162.6ZM228.912 154.24H232.032V165H229.072V163.72C228.252 164.66 227.052 165.16 225.732 165.16C223.032 165.16 221.132 163.64 221.132 160.32V154.24H224.252V159.86C224.252 161.66 225.052 162.46 226.432 162.46C227.872 162.46 228.912 161.54 228.912 159.56V154.24ZM240.622 162.28L241.462 164.48C240.822 164.94 239.882 165.16 238.922 165.16C236.382 165.16 234.902 163.86 234.902 161.3V156.88H233.242V154.48H234.902V151.86H238.022V154.48H240.702V156.88H238.022V161.26C238.022 162.18 238.522 162.68 239.362 162.68C239.822 162.68 240.282 162.54 240.622 162.28ZM251.601 149.98L247.981 152.86H245.541L248.241 149.98H251.601ZM253.021 159.66C253.021 159.9 252.981 160.24 252.961 160.5H244.821C245.121 161.84 246.261 162.66 247.901 162.66C249.041 162.66 249.861 162.32 250.601 161.62L252.261 163.42C251.261 164.56 249.761 165.16 247.821 165.16C244.101 165.16 241.681 162.82 241.681 159.62C241.681 156.4 244.141 154.08 247.421 154.08C250.581 154.08 253.021 156.2 253.021 159.66ZM247.441 156.44C246.021 156.44 245.001 157.3 244.781 158.68H250.081C249.861 157.32 248.841 156.44 247.441 156.44ZM265.239 159.66C265.239 159.9 265.199 160.24 265.179 160.5H257.039C257.339 161.84 258.479 162.66 260.119 162.66C261.259 162.66 262.079 162.32 262.819 161.62L264.479 163.42C263.479 164.56 261.979 165.16 260.039 165.16C256.319 165.16 253.899 162.82 253.899 159.62C253.899 156.4 256.359 154.08 259.639 154.08C262.799 154.08 265.239 156.2 265.239 159.66ZM259.659 156.44C258.239 156.44 257.219 157.3 256.999 158.68H262.299C262.079 157.32 261.059 156.44 259.659 156.44ZM267.136 160.14L266.516 151H270.236L269.616 160.14H267.136ZM268.376 165.16C267.256 165.16 266.456 164.34 266.456 163.34C266.456 162.32 267.256 161.56 268.376 161.56C269.496 161.56 270.296 162.32 270.296 163.34C270.296 164.34 269.496 165.16 268.376 165.16Z" fill="black"/>
<path d="M147.338 198L143.642 189.6H144.938L148.334 197.352H147.59L151.01 189.6H152.21L148.526 198H147.338ZM153.281 198V189.6H154.481V198H153.281ZM159.444 198.096C158.804 198.096 158.192 198 157.608 197.808C157.024 197.608 156.564 197.352 156.228 197.04L156.672 196.104C156.992 196.384 157.4 196.616 157.896 196.8C158.392 196.984 158.908 197.076 159.444 197.076C159.932 197.076 160.328 197.02 160.632 196.908C160.936 196.796 161.16 196.644 161.304 196.452C161.448 196.252 161.52 196.028 161.52 195.78C161.52 195.492 161.424 195.26 161.232 195.084C161.048 194.908 160.804 194.768 160.5 194.664C160.204 194.552 159.876 194.456 159.516 194.376C159.156 194.296 158.792 194.204 158.424 194.1C158.064 193.988 157.732 193.848 157.428 193.68C157.132 193.512 156.892 193.288 156.708 193.008C156.524 192.72 156.432 192.352 156.432 191.904C156.432 191.472 156.544 191.076 156.768 190.716C157 190.348 157.352 190.056 157.824 189.84C158.304 189.616 158.912 189.504 159.648 189.504C160.136 189.504 160.62 189.568 161.1 189.696C161.58 189.824 161.996 190.008 162.348 190.248L161.952 191.208C161.592 190.968 161.212 190.796 160.812 190.692C160.412 190.58 160.024 190.524 159.648 190.524C159.176 190.524 158.788 190.584 158.484 190.704C158.18 190.824 157.956 190.984 157.812 191.184C157.676 191.384 157.608 191.608 157.608 191.856C157.608 192.152 157.7 192.388 157.884 192.564C158.076 192.74 158.32 192.88 158.616 192.984C158.92 193.088 159.252 193.184 159.612 193.272C159.972 193.352 160.332 193.444 160.692 193.548C161.06 193.652 161.392 193.788 161.688 193.956C161.992 194.124 162.236 194.348 162.42 194.628C162.604 194.908 162.696 195.268 162.696 195.708C162.696 196.132 162.58 196.528 162.348 196.896C162.116 197.256 161.756 197.548 161.268 197.772C160.788 197.988 160.18 198.096 159.444 198.096ZM163.177 198L166.981 189.6H168.169L171.985 198H170.725L167.329 190.272H167.809L164.413 198H163.177ZM164.797 195.9L165.121 194.94H169.849L170.197 195.9H164.797ZM179.773 190.536L178.141 191.448V191.22L179.773 192.132L179.401 192.792L177.817 191.868L177.949 191.784L177.961 193.572H177.241L177.253 191.784L177.385 191.868L175.801 192.792L175.429 192.132L177.073 191.22V191.448L175.429 190.536L175.801 189.864L177.385 190.8L177.253 190.884L177.241 189.096H177.961L177.949 190.884L177.817 190.8L179.401 189.864L179.773 190.536ZM184.812 190.536L183.18 191.448V191.22L184.812 192.132L184.44 192.792L182.856 191.868L182.988 191.784L183 193.572H182.28L182.292 191.784L182.424 191.868L180.84 192.792L180.468 192.132L182.112 191.22V191.448L180.468 190.536L180.84 189.864L182.424 190.8L182.292 190.884L182.28 189.096H183L182.988 190.884L182.856 190.8L184.44 189.864L184.812 190.536ZM185.349 195.936V195.096L189.645 189.6H190.941L186.681 195.096L186.069 194.904H192.777V195.936H185.349ZM190.017 198V195.936L190.053 194.904V193.08H191.181V198H190.017ZM195.923 198.096C195.331 198.096 194.755 198.004 194.195 197.82C193.643 197.636 193.191 197.388 192.839 197.076L193.391 196.128C193.671 196.392 194.035 196.608 194.483 196.776C194.931 196.944 195.411 197.028 195.923 197.028C196.547 197.028 197.031 196.896 197.375 196.632C197.727 196.36 197.903 195.996 197.903 195.54C197.903 195.1 197.735 194.748 197.399 194.484C197.071 194.212 196.547 194.076 195.827 194.076H195.155V193.236L197.651 190.164L197.819 190.644H193.223V189.6H198.767V190.416L196.283 193.476L195.659 193.104H196.055C197.071 193.104 197.831 193.332 198.335 193.788C198.847 194.244 199.103 194.824 199.103 195.528C199.103 196 198.987 196.432 198.755 196.824C198.523 197.216 198.171 197.528 197.699 197.76C197.235 197.984 196.643 198.096 195.923 198.096ZM200.032 198V197.184L203.452 193.884C203.756 193.596 203.98 193.344 204.124 193.128C204.276 192.904 204.376 192.7 204.424 192.516C204.48 192.324 204.508 192.14 204.508 191.964C204.508 191.532 204.356 191.192 204.052 190.944C203.748 190.696 203.304 190.572 202.72 190.572C202.272 190.572 201.868 190.648 201.508 190.8C201.148 190.944 200.836 191.172 200.572 191.484L199.756 190.776C200.076 190.368 200.504 190.056 201.04 189.84C201.584 189.616 202.18 189.504 202.828 189.504C203.412 189.504 203.92 189.6 204.352 189.792C204.784 189.976 205.116 190.244 205.348 190.596C205.588 190.948 205.708 191.364 205.708 191.844C205.708 192.116 205.672 192.384 205.6 192.648C205.528 192.912 205.392 193.192 205.192 193.488C204.992 193.784 204.704 194.116 204.328 194.484L201.28 197.424L200.992 196.956H206.068V198H200.032ZM209.623 198.096C209.031 198.096 208.455 198.004 207.895 197.82C207.343 197.636 206.891 197.388 206.539 197.076L207.091 196.128C207.371 196.392 207.735 196.608 208.183 196.776C208.631 196.944 209.111 197.028 209.623 197.028C210.247 197.028 210.731 196.896 211.075 196.632C211.427 196.36 211.603 195.996 211.603 195.54C211.603 195.1 211.435 194.748 211.099 194.484C210.771 194.212 210.247 194.076 209.527 194.076H208.855V193.236L211.351 190.164L211.519 190.644H206.923V189.6H212.467V190.416L209.983 193.476L209.359 193.104H209.755C210.771 193.104 211.531 193.332 212.035 193.788C212.547 194.244 212.803 194.824 212.803 195.528C212.803 196 212.687 196.432 212.455 196.824C212.223 197.216 211.871 197.528 211.399 197.76C210.935 197.984 210.343 198.096 209.623 198.096ZM108.023 213V205.08L108.539 205.644H106.127V204.6H109.211V213H108.023ZM114.325 213.096C113.645 213.096 113.057 212.996 112.561 212.796C112.065 212.596 111.681 212.312 111.409 211.944C111.137 211.568 111.001 211.128 111.001 210.624C111.001 210.128 111.129 209.708 111.385 209.364C111.649 209.012 112.029 208.748 112.525 208.572C113.021 208.388 113.621 208.296 114.325 208.296C115.029 208.296 115.629 208.388 116.125 208.572C116.629 208.748 117.013 209.012 117.277 209.364C117.541 209.716 117.673 210.136 117.673 210.624C117.673 211.128 117.537 211.568 117.265 211.944C116.993 212.312 116.605 212.596 116.101 212.796C115.597 212.996 115.005 213.096 114.325 213.096ZM114.325 212.124C114.997 212.124 115.521 211.988 115.897 211.716C116.281 211.436 116.473 211.06 116.473 210.588C116.473 210.124 116.281 209.76 115.897 209.496C115.521 209.224 114.997 209.088 114.325 209.088C113.661 209.088 113.141 209.224 112.765 209.496C112.389 209.76 112.201 210.124 112.201 210.588C112.201 211.06 112.389 211.436 112.765 211.716C113.141 211.988 113.661 212.124 114.325 212.124ZM114.325 208.944C113.685 208.944 113.141 208.86 112.693 208.692C112.245 208.516 111.901 208.268 111.661 207.948C111.421 207.62 111.301 207.232 111.301 206.784C111.301 206.312 111.425 205.908 111.673 205.572C111.929 205.228 112.285 204.964 112.741 204.78C113.197 204.596 113.725 204.504 114.325 204.504C114.933 204.504 115.465 204.596 115.921 204.78C116.377 204.964 116.733 205.228 116.989 205.572C117.245 205.908 117.373 206.312 117.373 206.784C117.373 207.232 117.253 207.62 117.013 207.948C116.773 208.268 116.425 208.516 115.969 208.692C115.513 208.86 114.965 208.944 114.325 208.944ZM114.325 208.176C114.909 208.176 115.365 208.056 115.693 207.816C116.029 207.576 116.197 207.248 116.197 206.832C116.197 206.408 116.025 206.076 115.681 205.836C115.337 205.596 114.885 205.476 114.325 205.476C113.765 205.476 113.317 205.596 112.981 205.836C112.653 206.076 112.489 206.408 112.489 206.832C112.489 207.248 112.649 207.576 112.969 207.816C113.297 208.056 113.749 208.176 114.325 208.176ZM121.495 204.504C122.255 204.504 122.895 204.668 123.415 204.996C123.943 205.324 124.343 205.8 124.615 206.424C124.887 207.04 125.023 207.796 125.023 208.692C125.023 209.644 124.855 210.448 124.519 211.104C124.183 211.76 123.719 212.256 123.127 212.592C122.535 212.928 121.843 213.096 121.051 213.096C120.659 213.096 120.279 213.056 119.911 212.976C119.551 212.896 119.235 212.772 118.963 212.604L119.419 211.668C119.643 211.812 119.891 211.916 120.163 211.98C120.443 212.036 120.735 212.064 121.039 212.064C121.887 212.064 122.563 211.8 123.067 211.272C123.571 210.736 123.823 209.944 123.823 208.896C123.823 208.728 123.815 208.528 123.799 208.296C123.783 208.064 123.747 207.836 123.691 207.612L124.087 208.02C123.975 208.388 123.787 208.7 123.523 208.956C123.267 209.204 122.955 209.392 122.587 209.52C122.227 209.64 121.831 209.7 121.399 209.7C120.847 209.7 120.355 209.596 119.923 209.388C119.491 209.18 119.151 208.888 118.903 208.512C118.655 208.128 118.531 207.676 118.531 207.156C118.531 206.612 118.659 206.144 118.915 205.752C119.179 205.352 119.535 205.044 119.983 204.828C120.439 204.612 120.943 204.504 121.495 204.504ZM121.543 205.476C121.183 205.476 120.863 205.544 120.583 205.68C120.303 205.816 120.083 206.004 119.923 206.244C119.771 206.484 119.695 206.772 119.695 207.108C119.695 207.604 119.867 208 120.211 208.296C120.555 208.584 121.019 208.728 121.603 208.728C121.987 208.728 122.323 208.656 122.611 208.512C122.907 208.368 123.135 208.172 123.295 207.924C123.463 207.676 123.547 207.4 123.547 207.096C123.547 206.8 123.471 206.532 123.319 206.292C123.167 206.052 122.943 205.856 122.647 205.704C122.351 205.552 121.983 205.476 121.543 205.476ZM126.829 213.072C126.605 213.072 126.413 212.996 126.253 212.844C126.093 212.684 126.013 212.484 126.013 212.244C126.013 212.004 126.093 211.808 126.253 211.656C126.413 211.504 126.605 211.428 126.829 211.428C127.045 211.428 127.229 211.504 127.381 211.656C127.541 211.808 127.621 212.004 127.621 212.244C127.621 212.484 127.541 212.684 127.381 212.844C127.229 212.996 127.045 213.072 126.829 213.072ZM128.741 213V212.184L132.161 208.884C132.465 208.596 132.689 208.344 132.833 208.128C132.985 207.904 133.085 207.7 133.133 207.516C133.189 207.324 133.217 207.14 133.217 206.964C133.217 206.532 133.065 206.192 132.761 205.944C132.457 205.696 132.013 205.572 131.429 205.572C130.981 205.572 130.577 205.648 130.217 205.8C129.857 205.944 129.545 206.172 129.281 206.484L128.465 205.776C128.785 205.368 129.213 205.056 129.749 204.84C130.293 204.616 130.889 204.504 131.537 204.504C132.121 204.504 132.629 204.6 133.061 204.792C133.493 204.976 133.825 205.244 134.057 205.596C134.297 205.948 134.417 206.364 134.417 206.844C134.417 207.116 134.381 207.384 134.309 207.648C134.237 207.912 134.101 208.192 133.901 208.488C133.701 208.784 133.413 209.116 133.037 209.484L129.989 212.424L129.701 211.956H134.777V213H128.741ZM138.332 213.096C137.74 213.096 137.164 213.004 136.604 212.82C136.052 212.636 135.6 212.388 135.248 212.076L135.8 211.128C136.08 211.392 136.444 211.608 136.892 211.776C137.34 211.944 137.82 212.028 138.332 212.028C138.956 212.028 139.44 211.896 139.784 211.632C140.136 211.36 140.312 210.996 140.312 210.54C140.312 210.1 140.144 209.748 139.808 209.484C139.48 209.212 138.956 209.076 138.236 209.076H137.564V208.236L140.06 205.164L140.228 205.644H135.632V204.6H141.176V205.416L138.692 208.476L138.068 208.104H138.464C139.48 208.104 140.24 208.332 140.744 208.788C141.256 209.244 141.512 209.824 141.512 210.528C141.512 211 141.396 211.432 141.164 211.824C140.932 212.216 140.58 212.528 140.108 212.76C139.644 212.984 139.052 213.096 138.332 213.096ZM145.463 214.44V203.16H146.231V214.44H145.463ZM145.763 213.096C145.123 213.096 144.511 213 143.927 212.808C143.343 212.608 142.883 212.352 142.547 212.04L142.991 211.104C143.311 211.384 143.719 211.616 144.215 211.8C144.711 211.984 145.227 212.076 145.763 212.076C146.251 212.076 146.647 212.02 146.951 211.908C147.255 211.796 147.479 211.644 147.623 211.452C147.767 211.252 147.839 211.028 147.839 210.78C147.839 210.492 147.743 210.26 147.551 210.084C147.367 209.908 147.123 209.768 146.819 209.664C146.523 209.552 146.195 209.456 145.835 209.376C145.475 209.296 145.111 209.204 144.743 209.1C144.383 208.988 144.051 208.848 143.747 208.68C143.451 208.512 143.211 208.288 143.027 208.008C142.843 207.72 142.751 207.352 142.751 206.904C142.751 206.472 142.863 206.076 143.087 205.716C143.319 205.348 143.671 205.056 144.143 204.84C144.623 204.616 145.231 204.504 145.967 204.504C146.455 204.504 146.939 204.568 147.419 204.696C147.899 204.824 148.315 205.008 148.667 205.248L148.271 206.208C147.911 205.968 147.531 205.796 147.131 205.692C146.731 205.58 146.343 205.524 145.967 205.524C145.495 205.524 145.107 205.584 144.803 205.704C144.499 205.824 144.275 205.984 144.131 206.184C143.995 206.384 143.927 206.608 143.927 206.856C143.927 207.152 144.019 207.388 144.203 207.564C144.395 207.74 144.639 207.88 144.935 207.984C145.239 208.088 145.571 208.184 145.931 208.272C146.291 208.352 146.651 208.444 147.011 208.548C147.379 208.652 147.711 208.788 148.007 208.956C148.311 209.124 148.555 209.348 148.739 209.628C148.923 209.908 149.015 210.268 149.015 210.708C149.015 211.132 148.899 211.528 148.667 211.896C148.435 212.256 148.075 212.548 147.587 212.772C147.107 212.988 146.499 213.096 145.763 213.096ZM153.414 210.204V209.208H156.642V210.204H153.414ZM165.563 213.096C164.923 213.096 164.331 212.992 163.787 212.784C163.251 212.568 162.783 212.268 162.383 211.884C161.991 211.492 161.683 211.036 161.459 210.516C161.235 209.996 161.123 209.424 161.123 208.8C161.123 208.176 161.235 207.604 161.459 207.084C161.683 206.564 161.995 206.112 162.395 205.728C162.795 205.336 163.263 205.036 163.799 204.828C164.343 204.612 164.935 204.504 165.575 204.504C166.223 204.504 166.819 204.616 167.363 204.84C167.915 205.056 168.383 205.38 168.767 205.812L167.987 206.568C167.667 206.232 167.307 205.984 166.907 205.824C166.507 205.656 166.079 205.572 165.623 205.572C165.151 205.572 164.711 205.652 164.303 205.812C163.903 205.972 163.555 206.196 163.259 206.484C162.963 206.772 162.731 207.116 162.563 207.516C162.403 207.908 162.323 208.336 162.323 208.8C162.323 209.264 162.403 209.696 162.563 210.096C162.731 210.488 162.963 210.828 163.259 211.116C163.555 211.404 163.903 211.628 164.303 211.788C164.711 211.948 165.151 212.028 165.623 212.028C166.079 212.028 166.507 211.948 166.907 211.788C167.307 211.62 167.667 211.364 167.987 211.02L168.767 211.776C168.383 212.208 167.915 212.536 167.363 212.76C166.819 212.984 166.219 213.096 165.563 213.096ZM174.177 213V211.656L174.117 211.404V209.112C174.117 208.624 173.973 208.248 173.685 207.984C173.405 207.712 172.981 207.576 172.413 207.576C172.037 207.576 171.669 207.64 171.309 207.768C170.949 207.888 170.645 208.052 170.397 208.26L169.917 207.396C170.245 207.132 170.637 206.932 171.093 206.796C171.557 206.652 172.041 206.58 172.545 206.58C173.417 206.58 174.089 206.792 174.561 207.216C175.033 207.64 175.269 208.288 175.269 209.16V213H174.177ZM172.089 213.072C171.617 213.072 171.201 212.992 170.841 212.832C170.489 212.672 170.217 212.452 170.025 212.172C169.833 211.884 169.737 211.56 169.737 211.2C169.737 210.856 169.817 210.544 169.977 210.264C170.145 209.984 170.413 209.76 170.781 209.592C171.157 209.424 171.661 209.34 172.293 209.34H174.309V210.168H172.341C171.765 210.168 171.377 210.264 171.177 210.456C170.977 210.648 170.877 210.88 170.877 211.152C170.877 211.464 171.001 211.716 171.249 211.908C171.497 212.092 171.841 212.184 172.281 212.184C172.713 212.184 173.089 212.088 173.409 211.896C173.737 211.704 173.973 211.424 174.117 211.056L174.345 211.848C174.193 212.224 173.925 212.524 173.541 212.748C173.157 212.964 172.673 213.072 172.089 213.072ZM177.401 213V206.64H178.505V208.368L178.397 207.936C178.573 207.496 178.869 207.16 179.285 206.928C179.701 206.696 180.213 206.58 180.821 206.58V207.696C180.773 207.688 180.725 207.684 180.677 207.684C180.637 207.684 180.597 207.684 180.557 207.684C179.941 207.684 179.453 207.868 179.093 208.236C178.733 208.604 178.553 209.136 178.553 209.832V213H177.401ZM184.682 213.072C184.042 213.072 183.546 212.9 183.194 212.556C182.842 212.212 182.666 211.72 182.666 211.08V205.248H183.818V211.032C183.818 211.376 183.902 211.64 184.07 211.824C184.246 212.008 184.494 212.1 184.814 212.1C185.174 212.1 185.474 212 185.714 211.8L186.074 212.628C185.898 212.78 185.686 212.892 185.438 212.964C185.198 213.036 184.946 213.072 184.682 213.072ZM181.586 207.588V206.64H185.642V207.588H181.586ZM190.088 213.072C189.408 213.072 188.808 212.932 188.288 212.652C187.776 212.372 187.376 211.988 187.088 211.5C186.808 211.012 186.668 210.452 186.668 209.82C186.668 209.188 186.804 208.628 187.076 208.14C187.356 207.652 187.736 207.272 188.216 207C188.704 206.72 189.252 206.58 189.86 206.58C190.476 206.58 191.02 206.716 191.492 206.988C191.964 207.26 192.332 207.644 192.596 208.14C192.868 208.628 193.004 209.2 193.004 209.856C193.004 209.904 193 209.96 192.992 210.024C192.992 210.088 192.988 210.148 192.98 210.204H187.568V209.376H192.38L191.912 209.664C191.92 209.256 191.836 208.892 191.66 208.572C191.484 208.252 191.24 208.004 190.928 207.828C190.624 207.644 190.268 207.552 189.86 207.552C189.46 207.552 189.104 207.644 188.792 207.828C188.48 208.004 188.236 208.256 188.06 208.584C187.884 208.904 187.796 209.272 187.796 209.688V209.88C187.796 210.304 187.892 210.684 188.084 211.02C188.284 211.348 188.56 211.604 188.912 211.788C189.264 211.972 189.668 212.064 190.124 212.064C190.5 212.064 190.84 212 191.144 211.872C191.456 211.744 191.728 211.552 191.96 211.296L192.596 212.04C192.308 212.376 191.948 212.632 191.516 212.808C191.092 212.984 190.616 213.072 190.088 213.072ZM200.454 213.072C199.838 213.072 199.286 212.936 198.798 212.664C198.318 212.392 197.938 212.012 197.658 211.524C197.378 211.036 197.238 210.468 197.238 209.82C197.238 209.172 197.378 208.608 197.658 208.128C197.938 207.64 198.318 207.26 198.798 206.988C199.286 206.716 199.838 206.58 200.454 206.58C200.99 206.58 201.474 206.7 201.906 206.94C202.338 207.18 202.682 207.54 202.938 208.02C203.202 208.5 203.334 209.1 203.334 209.82C203.334 210.54 203.206 211.14 202.95 211.62C202.702 212.1 202.362 212.464 201.93 212.712C201.498 212.952 201.006 213.072 200.454 213.072ZM200.55 212.064C200.95 212.064 201.31 211.972 201.63 211.788C201.958 211.604 202.214 211.344 202.398 211.008C202.59 210.664 202.686 210.268 202.686 209.82C202.686 209.364 202.59 208.972 202.398 208.644C202.214 208.308 201.958 208.048 201.63 207.864C201.31 207.68 200.95 207.588 200.55 207.588C200.142 207.588 199.778 207.68 199.458 207.864C199.138 208.048 198.882 208.308 198.69 208.644C198.498 208.972 198.402 209.364 198.402 209.82C198.402 210.268 198.498 210.664 198.69 211.008C198.882 211.344 199.138 211.604 199.458 211.788C199.778 211.972 200.142 212.064 200.55 212.064ZM202.722 213V211.284L202.794 209.808L202.674 208.332V204.096H203.826V213H202.722ZM208.838 213.072C208.158 213.072 207.558 212.932 207.038 212.652C206.526 212.372 206.126 211.988 205.838 211.5C205.558 211.012 205.418 210.452 205.418 209.82C205.418 209.188 205.554 208.628 205.826 208.14C206.106 207.652 206.486 207.272 206.966 207C207.454 206.72 208.002 206.58 208.61 206.58C209.226 206.58 209.77 206.716 210.242 206.988C210.714 207.26 211.082 207.644 211.346 208.14C211.618 208.628 211.754 209.2 211.754 209.856C211.754 209.904 211.75 209.96 211.742 210.024C211.742 210.088 211.738 210.148 211.73 210.204H206.318V209.376H211.13L210.662 209.664C210.67 209.256 210.586 208.892 210.41 208.572C210.234 208.252 209.99 208.004 209.678 207.828C209.374 207.644 209.018 207.552 208.61 207.552C208.21 207.552 207.854 207.644 207.542 207.828C207.23 208.004 206.986 208.256 206.81 208.584C206.634 208.904 206.546 209.272 206.546 209.688V209.88C206.546 210.304 206.642 210.684 206.834 211.02C207.034 211.348 207.31 211.604 207.662 211.788C208.014 211.972 208.418 212.064 208.874 212.064C209.25 212.064 209.59 212 209.894 211.872C210.206 211.744 210.478 211.552 210.71 211.296L211.346 212.04C211.058 212.376 210.698 212.632 210.266 212.808C209.842 212.984 209.366 213.072 208.838 213.072ZM219.348 213.072C218.7 213.072 218.12 212.932 217.608 212.652C217.104 212.372 216.708 211.988 216.42 211.5C216.132 211.012 215.988 210.452 215.988 209.82C215.988 209.188 216.132 208.628 216.42 208.14C216.708 207.652 217.104 207.272 217.608 207C218.12 206.72 218.7 206.58 219.348 206.58C219.924 206.58 220.436 206.696 220.884 206.928C221.34 207.152 221.692 207.488 221.94 207.936L221.064 208.5C220.856 208.188 220.6 207.96 220.296 207.816C220 207.664 219.68 207.588 219.336 207.588C218.92 207.588 218.548 207.68 218.22 207.864C217.892 208.048 217.632 208.308 217.44 208.644C217.248 208.972 217.152 209.364 217.152 209.82C217.152 210.276 217.248 210.672 217.44 211.008C217.632 211.344 217.892 211.604 218.22 211.788C218.548 211.972 218.92 212.064 219.336 212.064C219.68 212.064 220 211.992 220.296 211.848C220.6 211.696 220.856 211.464 221.064 211.152L221.94 211.704C221.692 212.144 221.34 212.484 220.884 212.724C220.436 212.956 219.924 213.072 219.348 213.072ZM223.432 213V206.64H224.536V208.368L224.428 207.936C224.604 207.496 224.9 207.16 225.316 206.928C225.732 206.696 226.244 206.58 226.852 206.58V207.696C226.804 207.688 226.756 207.684 226.708 207.684C226.668 207.684 226.628 207.684 226.588 207.684C225.972 207.684 225.484 207.868 225.124 208.236C224.764 208.604 224.584 209.136 224.584 209.832V213H223.432ZM231.045 213.072C230.365 213.072 229.765 212.932 229.245 212.652C228.733 212.372 228.333 211.988 228.045 211.5C227.765 211.012 227.625 210.452 227.625 209.82C227.625 209.188 227.761 208.628 228.033 208.14C228.313 207.652 228.693 207.272 229.173 207C229.661 206.72 230.209 206.58 230.817 206.58C231.433 206.58 231.977 206.716 232.449 206.988C232.921 207.26 233.289 207.644 233.553 208.14C233.825 208.628 233.961 209.2 233.961 209.856C233.961 209.904 233.957 209.96 233.949 210.024C233.949 210.088 233.945 210.148 233.937 210.204H228.525V209.376H233.337L232.869 209.664C232.877 209.256 232.793 208.892 232.617 208.572C232.441 208.252 232.197 208.004 231.885 207.828C231.581 207.644 231.225 207.552 230.817 207.552C230.417 207.552 230.061 207.644 229.749 207.828C229.437 208.004 229.193 208.256 229.017 208.584C228.841 208.904 228.753 209.272 228.753 209.688V209.88C228.753 210.304 228.849 210.684 229.041 211.02C229.241 211.348 229.517 211.604 229.869 211.788C230.221 211.972 230.625 212.064 231.081 212.064C231.457 212.064 231.797 212 232.101 211.872C232.413 211.744 232.685 211.552 232.917 211.296L233.553 212.04C233.265 212.376 232.905 212.632 232.473 212.808C232.049 212.984 231.573 213.072 231.045 213.072ZM229.905 205.716L231.537 204.156H233.001L230.985 205.716H229.905ZM238.189 213.072C237.573 213.072 237.021 212.936 236.533 212.664C236.053 212.392 235.673 212.012 235.393 211.524C235.113 211.036 234.973 210.468 234.973 209.82C234.973 209.172 235.113 208.608 235.393 208.128C235.673 207.64 236.053 207.26 236.533 206.988C237.021 206.716 237.573 206.58 238.189 206.58C238.725 206.58 239.209 206.7 239.641 206.94C240.073 207.18 240.417 207.54 240.673 208.02C240.937 208.5 241.069 209.1 241.069 209.82C241.069 210.54 240.941 211.14 240.685 211.62C240.437 212.1 240.097 212.464 239.665 212.712C239.233 212.952 238.741 213.072 238.189 213.072ZM238.285 212.064C238.685 212.064 239.045 211.972 239.365 211.788C239.693 211.604 239.949 211.344 240.133 211.008C240.325 210.664 240.421 210.268 240.421 209.82C240.421 209.364 240.325 208.972 240.133 208.644C239.949 208.308 239.693 208.048 239.365 207.864C239.045 207.68 238.685 207.588 238.285 207.588C237.877 207.588 237.513 207.68 237.193 207.864C236.873 208.048 236.617 208.308 236.425 208.644C236.233 208.972 236.137 209.364 236.137 209.82C236.137 210.268 236.233 210.664 236.425 211.008C236.617 211.344 236.873 211.604 237.193 211.788C237.513 211.972 237.877 212.064 238.285 212.064ZM240.457 213V211.284L240.529 209.808L240.409 208.332V204.096H241.561V213H240.457ZM243.74 213V206.64H244.892V213H243.74ZM244.316 205.416C244.092 205.416 243.904 205.344 243.752 205.2C243.608 205.056 243.536 204.88 243.536 204.672C243.536 204.456 243.608 204.276 243.752 204.132C243.904 203.988 244.092 203.916 244.316 203.916C244.54 203.916 244.724 203.988 244.868 204.132C245.02 204.268 245.096 204.44 245.096 204.648C245.096 204.864 245.024 205.048 244.88 205.2C244.736 205.344 244.548 205.416 244.316 205.416ZM249.276 213.072C248.636 213.072 248.14 212.9 247.788 212.556C247.436 212.212 247.26 211.72 247.26 211.08V205.248H248.412V211.032C248.412 211.376 248.496 211.64 248.664 211.824C248.84 212.008 249.088 212.1 249.408 212.1C249.768 212.1 250.068 212 250.308 211.8L250.668 212.628C250.492 212.78 250.28 212.892 250.032 212.964C249.792 213.036 249.54 213.072 249.276 213.072ZM246.18 207.588V206.64H250.236V207.588H246.18Z" fill="#787878"/>
<g filter="url(#filter1_d_2156_14724)">
<rect x="52" y="260" width="253" height="45" rx="8" fill="#0019FF" shape-rendering="crispEdges"/>
<path d="M103.47 288V278.2H104.87V288H103.47ZM117.73 280.51C118.327 280.51 118.855 280.627 119.312 280.86C119.769 281.093 120.124 281.448 120.376 281.924C120.637 282.4 120.768 283.002 120.768 283.73V288H119.424V283.884C119.424 283.165 119.256 282.624 118.92 282.26C118.584 281.896 118.113 281.714 117.506 281.714C117.058 281.714 116.666 281.807 116.33 281.994C115.994 282.181 115.733 282.456 115.546 282.82C115.369 283.184 115.28 283.637 115.28 284.178V288H113.936V283.884C113.936 283.165 113.768 282.624 113.432 282.26C113.105 281.896 112.634 281.714 112.018 281.714C111.579 281.714 111.192 281.807 110.856 281.994C110.52 282.181 110.259 282.456 110.072 282.82C109.885 283.184 109.792 283.637 109.792 284.178V288H108.448V280.58H109.736V282.554L109.526 282.05C109.759 281.565 110.119 281.187 110.604 280.916C111.089 280.645 111.654 280.51 112.298 280.51C113.007 280.51 113.619 280.687 114.132 281.042C114.645 281.387 114.981 281.915 115.14 282.624L114.594 282.4C114.818 281.831 115.21 281.373 115.77 281.028C116.33 280.683 116.983 280.51 117.73 280.51ZM128.015 288.084C127.399 288.084 126.834 287.944 126.321 287.664C125.817 287.375 125.411 286.95 125.103 286.39C124.804 285.83 124.655 285.13 124.655 284.29C124.655 283.45 124.8 282.75 125.089 282.19C125.388 281.63 125.789 281.21 126.293 280.93C126.806 280.65 127.38 280.51 128.015 280.51C128.743 280.51 129.387 280.669 129.947 280.986C130.507 281.303 130.95 281.747 131.277 282.316C131.604 282.876 131.767 283.534 131.767 284.29C131.767 285.046 131.604 285.709 131.277 286.278C130.95 286.847 130.507 287.291 129.947 287.608C129.387 287.925 128.743 288.084 128.015 288.084ZM124.081 290.716V280.58H125.369V282.582L125.285 284.304L125.425 286.026V290.716H124.081ZM127.903 286.908C128.379 286.908 128.804 286.801 129.177 286.586C129.56 286.371 129.858 286.068 130.073 285.676C130.297 285.275 130.409 284.813 130.409 284.29C130.409 283.758 130.297 283.301 130.073 282.918C129.858 282.526 129.56 282.223 129.177 282.008C128.804 281.793 128.379 281.686 127.903 281.686C127.436 281.686 127.012 281.793 126.629 282.008C126.256 282.223 125.957 282.526 125.733 282.918C125.518 283.301 125.411 283.758 125.411 284.29C125.411 284.813 125.518 285.275 125.733 285.676C125.957 286.068 126.256 286.371 126.629 286.586C127.012 286.801 127.436 286.908 127.903 286.908ZM134.464 288V280.58H135.752V282.596L135.626 282.092C135.831 281.579 136.177 281.187 136.662 280.916C137.147 280.645 137.745 280.51 138.454 280.51V281.812C138.398 281.803 138.342 281.798 138.286 281.798C138.239 281.798 138.193 281.798 138.146 281.798C137.427 281.798 136.858 282.013 136.438 282.442C136.018 282.871 135.808 283.492 135.808 284.304V288H134.464ZM140.95 288V280.58H142.294V288H140.95ZM141.622 279.152C141.361 279.152 141.142 279.068 140.964 278.9C140.796 278.732 140.712 278.527 140.712 278.284C140.712 278.032 140.796 277.822 140.964 277.654C141.142 277.486 141.361 277.402 141.622 277.402C141.884 277.402 142.098 277.486 142.266 277.654C142.444 277.813 142.532 278.013 142.532 278.256C142.532 278.508 142.448 278.723 142.28 278.9C142.112 279.068 141.893 279.152 141.622 279.152ZM154.983 280.51C155.58 280.51 156.107 280.627 156.565 280.86C157.022 281.093 157.377 281.448 157.629 281.924C157.89 282.4 158.021 283.002 158.021 283.73V288H156.677V283.884C156.677 283.165 156.509 282.624 156.173 282.26C155.837 281.896 155.365 281.714 154.759 281.714C154.311 281.714 153.919 281.807 153.583 281.994C153.247 282.181 152.985 282.456 152.799 282.82C152.621 283.184 152.533 283.637 152.533 284.178V288H151.189V283.884C151.189 283.165 151.021 282.624 150.685 282.26C150.358 281.896 149.887 281.714 149.271 281.714C148.832 281.714 148.445 281.807 148.109 281.994C147.773 282.181 147.511 282.456 147.325 282.82C147.138 283.184 147.045 283.637 147.045 284.178V288H145.701V280.58H146.989V282.554L146.779 282.05C147.012 281.565 147.371 281.187 147.857 280.916C148.342 280.645 148.907 280.51 149.551 280.51C150.26 280.51 150.871 280.687 151.385 281.042C151.898 281.387 152.234 281.915 152.393 282.624L151.847 282.4C152.071 281.831 152.463 281.373 153.023 281.028C153.583 280.683 154.236 280.51 154.983 280.51ZM164.638 288.084C163.844 288.084 163.144 287.921 162.538 287.594C161.94 287.267 161.474 286.819 161.138 286.25C160.811 285.681 160.648 285.027 160.648 284.29C160.648 283.553 160.806 282.899 161.124 282.33C161.45 281.761 161.894 281.317 162.454 281C163.023 280.673 163.662 280.51 164.372 280.51C165.09 280.51 165.725 280.669 166.276 280.986C166.826 281.303 167.256 281.751 167.564 282.33C167.881 282.899 168.04 283.567 168.04 284.332C168.04 284.388 168.035 284.453 168.026 284.528C168.026 284.603 168.021 284.673 168.012 284.738H161.698V283.772H167.312L166.766 284.108C166.775 283.632 166.677 283.207 166.472 282.834C166.266 282.461 165.982 282.171 165.618 281.966C165.263 281.751 164.848 281.644 164.372 281.644C163.905 281.644 163.49 281.751 163.126 281.966C162.762 282.171 162.477 282.465 162.272 282.848C162.066 283.221 161.964 283.651 161.964 284.136V284.36C161.964 284.855 162.076 285.298 162.3 285.69C162.533 286.073 162.855 286.371 163.266 286.586C163.676 286.801 164.148 286.908 164.68 286.908C165.118 286.908 165.515 286.833 165.87 286.684C166.234 286.535 166.551 286.311 166.822 286.012L167.564 286.88C167.228 287.272 166.808 287.571 166.304 287.776C165.809 287.981 165.254 288.084 164.638 288.084ZM170.746 288V280.58H172.034V282.596L171.908 282.092C172.113 281.579 172.458 281.187 172.944 280.916C173.429 280.645 174.026 280.51 174.736 280.51V281.812C174.68 281.803 174.624 281.798 174.568 281.798C174.521 281.798 174.474 281.798 174.428 281.798C173.709 281.798 173.14 282.013 172.72 282.442C172.3 282.871 172.09 283.492 172.09 284.304V288H170.746ZM181.928 288V277.612H183.272V288H181.928ZM191.284 288V286.432L191.214 286.138V283.464C191.214 282.895 191.046 282.456 190.71 282.148C190.383 281.831 189.889 281.672 189.226 281.672C188.787 281.672 188.358 281.747 187.938 281.896C187.518 282.036 187.163 282.227 186.874 282.47L186.314 281.462C186.697 281.154 187.154 280.921 187.686 280.762C188.227 280.594 188.792 280.51 189.38 280.51C190.397 280.51 191.181 280.757 191.732 281.252C192.283 281.747 192.558 282.503 192.558 283.52V288H191.284ZM188.848 288.084C188.297 288.084 187.812 287.991 187.392 287.804C186.981 287.617 186.664 287.361 186.44 287.034C186.216 286.698 186.104 286.32 186.104 285.9C186.104 285.499 186.197 285.135 186.384 284.808C186.58 284.481 186.893 284.22 187.322 284.024C187.761 283.828 188.349 283.73 189.086 283.73H191.438V284.696H189.142C188.47 284.696 188.017 284.808 187.784 285.032C187.551 285.256 187.434 285.527 187.434 285.844C187.434 286.208 187.579 286.502 187.868 286.726C188.157 286.941 188.559 287.048 189.072 287.048C189.576 287.048 190.015 286.936 190.388 286.712C190.771 286.488 191.046 286.161 191.214 285.732L191.48 286.656C191.303 287.095 190.99 287.445 190.542 287.706C190.094 287.958 189.529 288.084 188.848 288.084ZM200.681 288V279.922C200.681 279.194 200.891 278.615 201.311 278.186C201.74 277.747 202.347 277.528 203.131 277.528C203.42 277.528 203.696 277.565 203.957 277.64C204.228 277.705 204.456 277.813 204.643 277.962L204.237 278.984C204.097 278.872 203.938 278.788 203.761 278.732C203.584 278.667 203.397 278.634 203.201 278.634C202.809 278.634 202.51 278.746 202.305 278.97C202.1 279.185 201.997 279.507 201.997 279.936V280.93L202.025 281.546V288H200.681ZM199.421 281.686V280.58H204.153V281.686H199.421ZM210.73 288V286.432L210.66 286.138V283.464C210.66 282.895 210.492 282.456 210.156 282.148C209.829 281.831 209.334 281.672 208.672 281.672C208.233 281.672 207.804 281.747 207.384 281.896C206.964 282.036 206.609 282.227 206.32 282.47L205.76 281.462C206.142 281.154 206.6 280.921 207.132 280.762C207.673 280.594 208.238 280.51 208.826 280.51C209.843 280.51 210.627 280.757 211.178 281.252C211.728 281.747 212.004 282.503 212.004 283.52V288H210.73ZM208.294 288.084C207.743 288.084 207.258 287.991 206.838 287.804C206.427 287.617 206.11 287.361 205.886 287.034C205.662 286.698 205.55 286.32 205.55 285.9C205.55 285.499 205.643 285.135 205.83 284.808C206.026 284.481 206.338 284.22 206.768 284.024C207.206 283.828 207.794 283.73 208.532 283.73H210.884V284.696H208.588C207.916 284.696 207.463 284.808 207.23 285.032C206.996 285.256 206.88 285.527 206.88 285.844C206.88 286.208 207.024 286.502 207.314 286.726C207.603 286.941 208.004 287.048 208.518 287.048C209.022 287.048 209.46 286.936 209.834 286.712C210.216 286.488 210.492 286.161 210.66 285.732L210.926 286.656C210.748 287.095 210.436 287.445 209.988 287.706C209.54 287.958 208.975 288.084 208.294 288.084ZM218.565 288.084C217.809 288.084 217.132 287.921 216.535 287.594C215.947 287.267 215.485 286.819 215.149 286.25C214.813 285.681 214.645 285.027 214.645 284.29C214.645 283.553 214.813 282.899 215.149 282.33C215.485 281.761 215.947 281.317 216.535 281C217.132 280.673 217.809 280.51 218.565 280.51C219.237 280.51 219.834 280.645 220.357 280.916C220.889 281.177 221.3 281.569 221.589 282.092L220.567 282.75C220.324 282.386 220.026 282.12 219.671 281.952C219.326 281.775 218.952 281.686 218.551 281.686C218.066 281.686 217.632 281.793 217.249 282.008C216.866 282.223 216.563 282.526 216.339 282.918C216.115 283.301 216.003 283.758 216.003 284.29C216.003 284.822 216.115 285.284 216.339 285.676C216.563 286.068 216.866 286.371 217.249 286.586C217.632 286.801 218.066 286.908 218.551 286.908C218.952 286.908 219.326 286.824 219.671 286.656C220.026 286.479 220.324 286.208 220.567 285.844L221.589 286.488C221.3 287.001 220.889 287.398 220.357 287.678C219.834 287.949 219.237 288.084 218.565 288.084ZM226.813 288.084C226.066 288.084 225.487 287.883 225.077 287.482C224.666 287.081 224.461 286.507 224.461 285.76V278.956H225.805V285.704C225.805 286.105 225.903 286.413 226.099 286.628C226.304 286.843 226.593 286.95 226.967 286.95C227.387 286.95 227.737 286.833 228.017 286.6L228.437 287.566C228.231 287.743 227.984 287.874 227.695 287.958C227.415 288.042 227.121 288.084 226.813 288.084ZM223.201 281.686V280.58H227.933V281.686H223.201ZM234.024 288.084C233.389 288.084 232.829 287.967 232.344 287.734C231.868 287.501 231.494 287.146 231.224 286.67C230.962 286.185 230.832 285.578 230.832 284.85V280.58H232.176V284.696C232.176 285.424 232.348 285.97 232.694 286.334C233.048 286.698 233.543 286.88 234.178 286.88C234.644 286.88 235.05 286.787 235.396 286.6C235.741 286.404 236.007 286.124 236.194 285.76C236.38 285.387 236.474 284.939 236.474 284.416V280.58H237.818V288H236.544V285.998L236.754 286.53C236.511 287.025 236.147 287.407 235.662 287.678C235.176 287.949 234.63 288.084 234.024 288.084ZM241.216 288V280.58H242.504V282.596L242.378 282.092C242.583 281.579 242.929 281.187 243.414 280.916C243.899 280.645 244.497 280.51 245.206 280.51V281.812C245.15 281.803 245.094 281.798 245.038 281.798C244.991 281.798 244.945 281.798 244.898 281.798C244.179 281.798 243.61 282.013 243.19 282.442C242.77 282.871 242.56 283.492 242.56 284.304V288H241.216ZM250.938 288.084C250.145 288.084 249.445 287.921 248.838 287.594C248.241 287.267 247.774 286.819 247.438 286.25C247.112 285.681 246.948 285.027 246.948 284.29C246.948 283.553 247.107 282.899 247.424 282.33C247.751 281.761 248.194 281.317 248.754 281C249.324 280.673 249.963 280.51 250.672 280.51C251.391 280.51 252.026 280.669 252.576 280.986C253.127 281.303 253.556 281.751 253.864 282.33C254.182 282.899 254.34 283.567 254.34 284.332C254.34 284.388 254.336 284.453 254.326 284.528C254.326 284.603 254.322 284.673 254.312 284.738H247.998V283.772H253.612L253.066 284.108C253.076 283.632 252.978 283.207 252.772 282.834C252.567 282.461 252.282 282.171 251.918 281.966C251.564 281.751 251.148 281.644 250.672 281.644C250.206 281.644 249.79 281.751 249.426 281.966C249.062 282.171 248.778 282.465 248.572 282.848C248.367 283.221 248.264 283.651 248.264 284.136V284.36C248.264 284.855 248.376 285.298 248.6 285.69C248.834 286.073 249.156 286.371 249.566 286.586C249.977 286.801 250.448 286.908 250.98 286.908C251.419 286.908 251.816 286.833 252.17 286.684C252.534 286.535 252.852 286.311 253.122 286.012L253.864 286.88C253.528 287.272 253.108 287.571 252.604 287.776C252.11 287.981 251.554 288.084 250.938 288.084Z" fill="white"/>
</g>
</g>
<defs>
<filter id="filter0_d_2156_14724" x="0" y="0" width="357" height="365" filterUnits="userSpaceOnUse" color-interpolation-filters="sRGB">
<feFlood flood-opacity="0" result="BackgroundImageFix"/>
<feColorMatrix in="SourceAlpha" type="matrix" values="0 0 0 0 0 0 0 0 0 0 0 0 0 0 0 0 0 0 127 0" result="hardAlpha"/>
<feOffset dy="6"/>
<feGaussianBlur stdDeviation="7"/>
<feComposite in2="hardAlpha" operator="out"/>
<feColorMatrix type="matrix" values="0 0 0 0 0 0 0 0 0 0 0 0 0 0 0 0 0 0 0.07 0"/>
<feBlend mode="normal" in2="BackgroundImageFix" result="effect1_dropShadow_2156_14724"/>
<feBlend mode="normal" in="SourceGraphic" in2="effect1_dropShadow_2156_14724" result="shape"/>
</filter>
<filter id="filter1_d_2156_14724" x="45" y="259" width="267" height="59" filterUnits="userSpaceOnUse" color-interpolation-filters="sRGB">
<feFlood flood-opacity="0" result="BackgroundImageFix"/>
<feColorMatrix in="SourceAlpha" type="matrix" values="0 0 0 0 0 0 0 0 0 0 0 0 0 0 0 0 0 0 127 0" result="hardAlpha"/>
<feOffset dy="6"/>
<feGaussianBlur stdDeviation="3.5"/>
<feComposite in2="hardAlpha" operator="out"/>
<feColorMatrix type="matrix" values="0 0 0 0 0.164557 0 0 0 0 0 0 0 0 0 1 0 0 0 0.01 0"/>
<feBlend mode="normal" in2="BackgroundImageFix" result="effect1_dropShadow_2156_14724"/>
<feBlend mode="normal" in="SourceGraphic" in2="effect1_dropShadow_2156_14724" result="shape"/>
</filter>
</defs>
</svg>
