<?xml version="1.0" encoding="UTF-8"?>
<svg fill="#FFFFFF" width="100pt" height="100pt" version="1.1" viewBox="0 0 100 100" xmlns="http://www.w3.org/2000/svg">
 <path d="m79.168 5.207h-58.336c-6.3281 0-11.457 5.1328-11.457 11.461v66.664c0 6.3281 5.1289 11.461 11.457 11.461h58.336c6.3281 0 11.457-5.1328 11.457-11.461v-66.664c0-6.3281-5.1289-11.461-11.457-11.461zm-35.293 64.711-10.543 10.414c-1.2188 1.2188-3.1953 1.2188-4.4141 0l-6.25-6.25c-1.1484-1.2305-1.1133-3.1484 0.074219-4.3398 1.1914-1.1875 3.1094-1.2227 4.3398-0.074219l4.168 4.168 8.332-8.332v-0.003906c0.57812-0.62109 1.3828-0.98047 2.2344-0.99219 0.84766-0.015624 1.6641 0.3125 2.2617 0.91406 0.60156 0.59766 0.92969 1.4141 0.91406 2.2617-0.011719 0.85156-0.37109 1.6562-0.99219 2.2344zm0-22.918-10.543 10.418c-1.2188 1.2188-3.1953 1.2188-4.4141 0l-6.25-6.25c-1.1484-1.2344-1.1133-3.1523 0.074219-4.3398 1.1914-1.1914 3.1094-1.2266 4.3398-0.078125l4.168 4.168 8.332-8.332v-0.003907c1.2344-1.1445 3.1523-1.1133 4.3398 0.078125 1.1914 1.1914 1.2266 3.1094 0.078125 4.3398zm0-22.918-10.543 10.418c-1.1836 1.0625-2.9805 1.0625-4.1641 0l-6.25-6.25c-0.89453-1.2305-0.77344-2.9258 0.28516-4.0156s2.75-1.2578 4.0039-0.40234l4.168 4.168 8.332-8.332c1.2344-1.1484 3.1523-1.1133 4.3398 0.074219 1.1914 1.1914 1.2266 3.1094 0.078125 4.3398zm31.125 53h-20.832c-1.7266 0-3.125-1.3984-3.125-3.125 0-1.7227 1.3984-3.125 3.125-3.125h20.832c1.7266 0 3.125 1.4023 3.125 3.125 0 1.7266-1.3984 3.125-3.125 3.125zm0-22.914h-20.832c-1.7266 0-3.125-1.4023-3.125-3.125 0-1.7266 1.3984-3.125 3.125-3.125h20.832c1.7266 0 3.125 1.3984 3.125 3.125 0 1.7227-1.3984 3.125-3.125 3.125zm0-22.918h-20.832c-1.7266 0-3.125-1.3984-3.125-3.125s1.3984-3.125 3.125-3.125h20.832c1.7266 0 3.125 1.3984 3.125 3.125s-1.3984 3.125-3.125 3.125z"/>
</svg>
