<?xml version="1.0" encoding="UTF-8"?>
<svg fill="#FFFFFF" width="100pt" height="100pt" version="1.1" viewBox="0 0 100 100" xmlns="http://www.w3.org/2000/svg">
 <path d="m63.891 19.148c-9.1953-1.5312-18.586-1.5312-27.781 0-4.2539 0.70312-8.1836 2.7188-11.23 5.7695-3.0508 3.0508-5.0664 6.9766-5.7695 11.23-1.5312 9.1992-1.5312 18.586 0 27.781 0.70312 4.2539 2.7188 8.1836 5.7695 11.234 3.0469 3.0469 6.9766 5.0664 11.23 5.7656 4.5938 0.73828 9.2383 1.0938 13.891 1.0703 4.6523 0 9.3008-0.38672 13.891-1.1484 4.2539-0.70312 8.1836-2.7188 11.23-5.7695 3.0508-3.0508 5.0664-6.9766 5.7695-11.23 0.74609-4.5781 1.1172-9.2109 1.1094-13.852 0-4.6523-0.38672-9.3008-1.1484-13.891-0.70703-4.2422-2.7227-8.1562-5.7617-11.199-3.043-3.0391-6.957-5.0547-11.199-5.7617zm9.1094 43.43c-0.87891 5.3516-5.0703 9.543-10.422 10.422-2.8398 0.46875-5.7031 0.77344-8.5781 0.92188v-23.262l5 5c1.3789 1.4453 3.5938 1.707 5.2695 0.62109 0.97656-0.67578 1.6016-1.75 1.707-2.9336 0.10938-1.1797-0.31641-2.3477-1.1562-3.1875l-8.5898-8.5898c-3.4453-3.4414-9.0273-3.4414-12.469 0l-8.5898 8.5898c-0.85938 0.85156-1.2812 2.0469-1.1562 3.25s0.78906 2.2812 1.8047 2.9414c1.6211 1.0234 3.7422 0.77344 5.0781-0.60156l5.1016-5.0781v23.207c-2.875-0.13281-5.7383-0.42578-8.5781-0.87891-5.3516-0.87891-9.543-5.0703-10.422-10.422-1.3867-8.3242-1.3867-16.82 0-25.148 0.875-5.3516 5.0664-9.5508 10.422-10.43 8.3242-1.3867 16.82-1.3867 25.148 0 5.3516 0.875 9.5508 5.0664 10.43 10.422 0.67969 4.1562 1.0117 8.3633 1 12.578 0.011719 4.2148-0.32031 8.4219-1 12.578z"/>
</svg>
