<?xml version="1.0" encoding="UTF-8"?>
<svg fill="#FFFFFF" width="100pt" height="100pt" version="1.1" viewBox="0 0 100 100" xmlns="http://www.w3.org/2000/svg">
 <g>
  <path d="m48.125 8.75c-21.75 0-39.375 17.625-39.375 39.375s17.625 39.375 39.375 39.375c0.9375 0 1.8555-0.039062 2.7734-0.11328-2.9453-4.2383-4.6484-9.3555-4.6484-14.887 0-14.492 11.758-26.25 26.25-26.25 5.5312 0 10.648 1.707 14.887 4.6484 0.074219-0.91797 0.11328-1.8359 0.11328-2.7734 0-21.75-17.625-39.375-39.375-39.375zm3.75 39.375c0 2.0703-1.6797 3.75-3.75 3.75h-16.875c-2.0703 0-3.75-1.6797-3.75-3.75s1.6797-3.75 3.75-3.75h13.125v-20.625c0-2.0703 1.6797-3.75 3.75-3.75s3.75 1.6797 3.75 3.75z"/>
  <path d="m72.5 53.75c-10.355 0-18.75 8.3945-18.75 18.75s8.3945 18.75 18.75 18.75 18.75-8.3945 18.75-18.75-8.3945-18.75-18.75-18.75zm0 31.875c-2.0703 0-3.75-1.6797-3.75-3.75s1.6797-3.75 3.75-3.75 3.75 1.6797 3.75 3.75-1.6797 3.75-3.75 3.75zm3.75-13.125c0 2.0703-1.6797 3.75-3.75 3.75s-3.75-1.6797-3.75-3.75v-9.375c0-2.0703 1.6797-3.75 3.75-3.75s3.75 1.6797 3.75 3.75z"/>
 </g>
</svg>
