<svg width="418" height="202" viewBox="0 0 418 202" fill="none" xmlns="http://www.w3.org/2000/svg">
<path d="M0 90C0 75.6406 11.6406 64 26 64H81C95.3594 64 107 75.6406 107 90V141C107 155.359 95.3594 167 81 167H26C11.6406 167 0 155.359 0 141V90Z" fill="#D9D9D9"/>
<path d="M88 125C88 110.641 99.6406 99 114 99H169C183.359 99 195 110.641 195 125V176C195 190.359 183.359 202 169 202H114C99.6406 202 88 190.359 88 176V125Z" fill="#D9D9D9"/>
<path d="M0 0H177V38H0V0Z" fill="#D9D9D9"/>
<path d="M233 19H384V38H233V19Z" fill="#D9D9D9"/>
<path d="M233 56H418V202H233V56Z" fill="#D9D9D9"/>
</svg>
